M48
; DRILL file {KiCad (6.0.2-0)} date 2022 March 30, Wednesday 00:09:42
; FORMAT={-:-/ absolute / metric / decimal}
; #@! TF.CreationDate,2022-03-30T00:09:42+02:00
; #@! TF.GenerationSoftware,Kicad,Pcbnew,(6.0.2-0)
; #@! TF.FileFunction,Plated,1,2,PTH
FMAT,2
METRIC
; #@! TA.AperFunction,Plated,PTH,ViaDrill
T1C0.200
; #@! TA.AperFunction,Plated,PTH,ViaDrill
T2C0.350
; #@! TA.AperFunction,Plated,PTH,ComponentDrill
T3C0.350
; #@! TA.AperFunction,Plated,PTH,ViaDrill
T4C0.400
; #@! TA.AperFunction,Plated,PTH,ComponentDrill
T5C0.600
; #@! TA.AperFunction,Plated,PTH,ComponentDrill
T6C0.700
; #@! TA.AperFunction,Plated,PTH,ComponentDrill
T7C0.750
; #@! TA.AperFunction,Plated,PTH,ComponentDrill
T8C0.800
; #@! TA.AperFunction,Plated,PTH,ComponentDrill
T9C1.000
; #@! TA.AperFunction,Plated,PTH,ComponentDrill
T10C3.200
%
G90
G05
T1
X1.065Y29.7
X1.565Y30.375
X2.74Y32.925
X3.52Y25.685
X5.16Y24.44
X5.23Y25.405
X5.31Y19.405
X9.16Y14.98
X9.615Y29.425
X10.725Y25.41
X11.29Y26.25
X12.06Y26.4
X12.105Y14.86
X14.36Y28.05
X18.162Y50.438
X18.978Y24.962
X19.765Y28.899
X19.93Y28.07
X19.994Y24.886
X20.002Y26.672
X20.002Y25.656
X20.02Y27.4
X20.055Y46.405
X21.973Y50.337
X22.725Y23.21
X23.86Y46.43
X25.502Y50.462
X27.57Y37.355
X27.83Y46.43
X28.97Y11.565
X29.29Y50.425
X29.62Y13.475
X31.495Y22.055
X31.58Y24.61
X31.71Y46.41
X32.35Y24.665
X32.915Y50.425
X33.105Y39.155
X33.53Y18.5
X33.855Y39.155
X34.605Y39.155
X35.355Y39.155
X35.455Y46.4
X35.615Y28.035
X35.835Y26.855
X36.105Y39.155
X36.855Y39.155
X36.94Y50.45
X37.58Y35.825
X37.605Y39.155
X37.7Y16.845
X37.865Y23.4
X38.355Y39.155
X38.66Y24.97
X39.045Y35.74
X39.28Y46.405
X40.02Y18.02
X40.745Y50.41
X42.295Y32.09
X42.785Y29.515
X43.07Y46.445
X43.26Y10.785
X43.315Y32.69
X43.65Y17.23
X44.075Y19.525
X44.715Y50.425
X44.945Y29.58
X45.65Y32.235
X46.32Y11.09
X46.885Y46.39
X48.475Y31.025
X49.215Y17.9
X50.1Y38.735
X50.6Y18.71
X50.855Y22.035
X51.05Y12.535
X51.445Y9.415
X53.705Y30.42
X54.395Y14.335
X57.6Y39.03
X57.6Y46.38
X58.45Y39.03
X58.45Y46.38
X59.3Y39.03
X59.3Y46.38
X60.2Y39.03
X60.2Y46.38
X61.05Y39.03
X61.05Y46.38
X61.9Y39.03
X61.9Y46.38
X62.75Y39.03
X62.75Y46.38
X65.265Y29.79
X68.01Y29.88
X68.095Y30.77
X68.13Y25.335
X68.14Y32.92
X72.43Y10.215
X72.475Y16.205
X73.85Y37.685
X74.815Y16.55
X75.165Y18.875
X76.46Y15.42
X78.715Y7.47
X79.395Y13.68
X79.47Y16.5
X79.88Y12.34
X79.985Y8.32
X81.245Y7.465
X81.405Y12.435
X83.54Y13.62
X83.555Y8.58
X84.305Y7.555
X85.01Y38.6
X85.23Y16.45
X86.055Y6.855
X86.105Y43.29
X87.595Y7.615
X89.43Y7.8
X89.64Y23.59
X89.65Y46.555
T2
X12.005Y22.765
X20.34Y18.15
X34.87Y7.25
X35.73Y16.735
X36.345Y7.24
X42.126Y22.593
X42.999Y26.91
X50.565Y26.025
X72.12Y22.58
X72.17Y37.835
X73.94Y23.55
X75.463Y27.467
X75.483Y30.847
X75.493Y34.287
X77.413Y31.897
X77.413Y28.527
X77.413Y25.097
X78.115Y48.8
X78.363Y27.467
X78.403Y34.277
X78.403Y30.887
X79.795Y37.215
X80.293Y31.877
X80.313Y25.087
X80.333Y28.497
X81.243Y30.897
X81.253Y27.467
X81.313Y34.287
X83.045Y43.25
X83.163Y31.907
X83.233Y25.117
X83.243Y28.447
X84.713Y26.176
X84.713Y23.534
X85.932Y30.728
X86.06Y28.64
X86.06Y24.169
X86.822Y21.299
X88.834Y36.259
X89.436Y38.78
X89.46Y33.804
X92.26Y29.095
X93.61Y30.47
X96.67Y29.79
X97.09Y37.52
X97.15Y21.87
T3
X42.324Y26.078
X42.324Y24.803
X42.324Y23.528
X43.599Y26.078
X43.599Y24.803
X43.599Y23.528
X44.874Y26.078
X44.874Y24.803
X44.874Y23.528
T4
X18.37Y45.4
X44.18Y38.895
X48.605Y46.625
T6
X42.945Y37.13
X42.945Y35.86
X42.945Y34.59
T7
X6.995Y37.03
X6.995Y35.03
T9
X49.98Y51.105
X52.52Y51.105
X55.06Y51.105
X57.6Y51.105
X60.14Y51.105
X62.68Y51.105
X65.22Y51.105
X67.76Y51.105
X70.3Y51.105
T10
X3.605Y48.865
X3.605Y4.865
X95.605Y48.865
X95.605Y4.865
T5
G00X12.28Y8.545
M15
G01X12.28Y7.445
M16
G05
G00X12.28Y4.215
M15
G01X12.28Y3.415
M16
G05
G00X20.93Y8.545
M15
G01X20.93Y7.445
M16
G05
G00X20.93Y4.215
M15
G01X20.93Y3.415
M16
G05
G00X31.28Y8.545
M15
G01X31.28Y7.445
M16
G05
G00X31.28Y4.215
M15
G01X31.28Y3.415
M16
G05
G00X39.93Y8.545
M15
G01X39.93Y7.445
M16
G05
G00X39.93Y4.215
M15
G01X39.93Y3.415
M16
G05
T8
G00X71.865Y2.51
M15
G01X71.865Y3.809
M16
G05
G00X87.215Y2.51
M15
G01X87.215Y3.809
M16
G05
T0
M30
