%TF.GenerationSoftware,KiCad,Pcbnew,(6.0.2-0)*%
%TF.CreationDate,2022-03-26T21:56:15+01:00*%
%TF.ProjectId,RP2040GPSTracker,52503230-3430-4475-9053-547261636b65,rev?*%
%TF.SameCoordinates,PX4416780PY363af58*%
%TF.FileFunction,Soldermask,Top*%
%TF.FilePolarity,Negative*%
%FSLAX46Y46*%
G04 Gerber Fmt 4.6, Leading zero omitted, Abs format (unit mm)*
G04 Created by KiCad (PCBNEW (6.0.2-0)) date 2022-03-26 21:56:15*
%MOMM*%
%LPD*%
G01*
G04 APERTURE LIST*
G04 Aperture macros list*
%AMRoundRect*
0 Rectangle with rounded corners*
0 $1 Rounding radius*
0 $2 $3 $4 $5 $6 $7 $8 $9 X,Y pos of 4 corners*
0 Add a 4 corners polygon primitive as box body*
4,1,4,$2,$3,$4,$5,$6,$7,$8,$9,$2,$3,0*
0 Add four circle primitives for the rounded corners*
1,1,$1+$1,$2,$3*
1,1,$1+$1,$4,$5*
1,1,$1+$1,$6,$7*
1,1,$1+$1,$8,$9*
0 Add four rect primitives between the rounded corners*
20,1,$1+$1,$2,$3,$4,$5,0*
20,1,$1+$1,$4,$5,$6,$7,0*
20,1,$1+$1,$6,$7,$8,$9,0*
20,1,$1+$1,$8,$9,$2,$3,0*%
G04 Aperture macros list end*
%ADD10C,0.100000*%
%ADD11C,0.650000*%
%ADD12R,0.600000X1.450000*%
%ADD13R,0.300000X1.450000*%
%ADD14O,0.900000X1.700000*%
%ADD15O,1.000000X2.100000*%
%ADD16RoundRect,0.250000X-0.325000X-0.650000X0.325000X-0.650000X0.325000X0.650000X-0.325000X0.650000X0*%
%ADD17RoundRect,0.150000X0.150000X-0.587500X0.150000X0.587500X-0.150000X0.587500X-0.150000X-0.587500X0*%
%ADD18RoundRect,0.200000X0.275000X-0.200000X0.275000X0.200000X-0.275000X0.200000X-0.275000X-0.200000X0*%
%ADD19RoundRect,0.225000X-0.225000X-0.250000X0.225000X-0.250000X0.225000X0.250000X-0.225000X0.250000X0*%
%ADD20RoundRect,0.200000X-0.200000X-0.275000X0.200000X-0.275000X0.200000X0.275000X-0.200000X0.275000X0*%
%ADD21RoundRect,0.225000X0.225000X0.250000X-0.225000X0.250000X-0.225000X-0.250000X0.225000X-0.250000X0*%
%ADD22R,0.127000X0.127000*%
%ADD23R,0.250000X1.400000*%
%ADD24R,0.700000X0.250000*%
%ADD25C,6.400000*%
%ADD26O,1.600000X0.600000*%
%ADD27O,0.600000X1.600000*%
%ADD28R,1.100000X0.900000*%
%ADD29R,0.900000X1.100000*%
%ADD30R,2.600000X3.100000*%
%ADD31RoundRect,0.250000X-0.650000X0.325000X-0.650000X-0.325000X0.650000X-0.325000X0.650000X0.325000X0*%
%ADD32RoundRect,0.135000X0.135000X0.185000X-0.135000X0.185000X-0.135000X-0.185000X0.135000X-0.185000X0*%
%ADD33RoundRect,0.200000X-0.275000X0.200000X-0.275000X-0.200000X0.275000X-0.200000X0.275000X0.200000X0*%
%ADD34RoundRect,0.200000X0.200000X0.275000X-0.200000X0.275000X-0.200000X-0.275000X0.200000X-0.275000X0*%
%ADD35R,1.041400X0.990600*%
%ADD36R,2.209800X1.041400*%
%ADD37RoundRect,0.225000X-0.250000X0.225000X-0.250000X-0.225000X0.250000X-0.225000X0.250000X0.225000X0*%
%ADD38RoundRect,0.243750X-0.243750X-0.456250X0.243750X-0.456250X0.243750X0.456250X-0.243750X0.456250X0*%
%ADD39RoundRect,0.225000X0.250000X-0.225000X0.250000X0.225000X-0.250000X0.225000X-0.250000X-0.225000X0*%
%ADD40RoundRect,0.250000X-0.625000X0.350000X-0.625000X-0.350000X0.625000X-0.350000X0.625000X0.350000X0*%
%ADD41O,1.750000X1.200000*%
%ADD42RoundRect,0.140000X-0.170000X0.140000X-0.170000X-0.140000X0.170000X-0.140000X0.170000X0.140000X0*%
%ADD43RoundRect,0.135000X-0.135000X-0.185000X0.135000X-0.185000X0.135000X0.185000X-0.135000X0.185000X0*%
%ADD44RoundRect,0.243750X0.243750X0.456250X-0.243750X0.456250X-0.243750X-0.456250X0.243750X-0.456250X0*%
%ADD45R,0.400000X0.650000*%
%ADD46RoundRect,0.050000X0.387500X0.050000X-0.387500X0.050000X-0.387500X-0.050000X0.387500X-0.050000X0*%
%ADD47RoundRect,0.050000X0.050000X0.387500X-0.050000X0.387500X-0.050000X-0.387500X0.050000X-0.387500X0*%
%ADD48RoundRect,0.144000X1.456000X1.456000X-1.456000X1.456000X-1.456000X-1.456000X1.456000X-1.456000X0*%
%ADD49R,3.400000X2.000000*%
%ADD50RoundRect,0.140000X0.170000X-0.140000X0.170000X0.140000X-0.170000X0.140000X-0.170000X-0.140000X0*%
%ADD51RoundRect,0.140000X-0.140000X-0.170000X0.140000X-0.170000X0.140000X0.170000X-0.140000X0.170000X0*%
%ADD52R,0.711200X0.228600*%
%ADD53R,1.000000X1.000000*%
%ADD54O,1.000000X1.000000*%
%ADD55R,1.500000X2.000000*%
%ADD56R,3.800000X2.000000*%
%ADD57RoundRect,0.218750X0.218750X0.256250X-0.218750X0.256250X-0.218750X-0.256250X0.218750X-0.256250X0*%
%ADD58R,0.203200X0.203200*%
%ADD59R,0.101600X0.635000*%
%ADD60RoundRect,0.140000X0.140000X0.170000X-0.140000X0.170000X-0.140000X-0.170000X0.140000X-0.170000X0*%
%ADD61R,0.838200X0.939800*%
%ADD62R,0.939800X0.787400*%
%ADD63O,1.270000X2.565400*%
%ADD64R,0.558800X1.651000*%
%ADD65R,0.558800X1.219200*%
%ADD66R,1.371600X0.609600*%
%ADD67R,0.736600X1.016000*%
%ADD68R,1.346200X0.965200*%
%ADD69R,1.574800X0.965200*%
%ADD70R,0.635000X1.955800*%
%ADD71RoundRect,0.243750X-0.456250X0.243750X-0.456250X-0.243750X0.456250X-0.243750X0.456250X0.243750X0*%
%ADD72R,1.092200X1.193800*%
%ADD73RoundRect,0.250000X0.925000X-0.412500X0.925000X0.412500X-0.925000X0.412500X-0.925000X-0.412500X0*%
%ADD74R,0.950000X0.900000*%
%ADD75R,0.550000X0.300000*%
%ADD76R,0.520000X0.300000*%
%ADD77RoundRect,0.135000X-0.185000X0.135000X-0.185000X-0.135000X0.185000X-0.135000X0.185000X0.135000X0*%
%ADD78R,1.700000X1.700000*%
%ADD79O,1.700000X1.700000*%
%ADD80R,2.000000X0.800000*%
%ADD81RoundRect,0.250000X-0.475000X0.250000X-0.475000X-0.250000X0.475000X-0.250000X0.475000X0.250000X0*%
%ADD82R,0.800000X2.000000*%
%ADD83RoundRect,0.125000X-0.125000X0.250000X-0.125000X-0.250000X0.125000X-0.250000X0.125000X0.250000X0*%
%ADD84R,4.300000X3.400000*%
G04 APERTURE END LIST*
D10*
%TO.C,U6*%
X19497571Y26081644D02*
X19497571Y26331644D01*
X19497571Y26331644D02*
X18797571Y26331644D01*
X18797571Y26331644D02*
X18797571Y26181644D01*
X18797571Y26181644D02*
X18897571Y26081644D01*
X18897571Y26081644D02*
X19497571Y26081644D01*
G36*
X19497571Y26081644D02*
G01*
X18897571Y26081644D01*
X18797571Y26181644D01*
X18797571Y26331644D01*
X19497571Y26331644D01*
X19497571Y26081644D01*
G37*
X19497571Y26081644D02*
X18897571Y26081644D01*
X18797571Y26181644D01*
X18797571Y26331644D01*
X19497571Y26331644D01*
X19497571Y26081644D01*
X14897569Y26081644D02*
X14897569Y26331644D01*
X14897569Y26331644D02*
X15597569Y26331644D01*
X15597569Y26331644D02*
X15597569Y26181644D01*
X15597569Y26181644D02*
X15497569Y26081644D01*
X15497569Y26081644D02*
X14897569Y26081644D01*
G36*
X15597569Y26181644D02*
G01*
X15497569Y26081644D01*
X14897569Y26081644D01*
X14897569Y26331644D01*
X15597569Y26331644D01*
X15597569Y26181644D01*
G37*
X15597569Y26181644D02*
X15497569Y26081644D01*
X14897569Y26081644D01*
X14897569Y26331644D01*
X15597569Y26331644D01*
X15597569Y26181644D01*
X18572885Y25406896D02*
X18322885Y25406896D01*
X18322885Y25406896D02*
X18322885Y26106896D01*
X18322885Y26106896D02*
X18472885Y26106896D01*
X18472885Y26106896D02*
X18572885Y26006896D01*
X18572885Y26006896D02*
X18572885Y25406896D01*
G36*
X18572885Y26006896D02*
G01*
X18572885Y25406896D01*
X18322885Y25406896D01*
X18322885Y26106896D01*
X18472885Y26106896D01*
X18572885Y26006896D01*
G37*
X18572885Y26006896D02*
X18572885Y25406896D01*
X18322885Y25406896D01*
X18322885Y26106896D01*
X18472885Y26106896D01*
X18572885Y26006896D01*
X15822255Y25406896D02*
X16072255Y25406896D01*
X16072255Y25406896D02*
X16072255Y26206896D01*
X16072255Y26206896D02*
X15922255Y26206896D01*
X15922255Y26206896D02*
X15822255Y26006896D01*
X15822255Y26006896D02*
X15822255Y25406896D01*
G36*
X16072255Y25406896D02*
G01*
X15822255Y25406896D01*
X15822255Y26006896D01*
X15922255Y26206896D01*
X16072255Y26206896D01*
X16072255Y25406896D01*
G37*
X16072255Y25406896D02*
X15822255Y25406896D01*
X15822255Y26006896D01*
X15922255Y26206896D01*
X16072255Y26206896D01*
X16072255Y25406896D01*
X19497571Y28332148D02*
X19497571Y28082148D01*
X19497571Y28082148D02*
X18797571Y28082148D01*
X18797571Y28082148D02*
X18797571Y28232148D01*
X18797571Y28232148D02*
X18897571Y28332148D01*
X18897571Y28332148D02*
X19497571Y28332148D01*
G36*
X19497571Y28082148D02*
G01*
X18797571Y28082148D01*
X18797571Y28232148D01*
X18897571Y28332148D01*
X19497571Y28332148D01*
X19497571Y28082148D01*
G37*
X19497571Y28082148D02*
X18797571Y28082148D01*
X18797571Y28232148D01*
X18897571Y28332148D01*
X19497571Y28332148D01*
X19497571Y28082148D01*
X18572885Y29006896D02*
X18322885Y29006896D01*
X18322885Y29006896D02*
X18322885Y28306896D01*
X18322885Y28306896D02*
X18472885Y28306896D01*
X18472885Y28306896D02*
X18572885Y28406896D01*
X18572885Y28406896D02*
X18572885Y29006896D01*
G36*
X18572885Y28406896D02*
G01*
X18472885Y28306896D01*
X18322885Y28306896D01*
X18322885Y29006896D01*
X18572885Y29006896D01*
X18572885Y28406896D01*
G37*
X18572885Y28406896D02*
X18472885Y28306896D01*
X18322885Y28306896D01*
X18322885Y29006896D01*
X18572885Y29006896D01*
X18572885Y28406896D01*
X15822255Y29006896D02*
X16072255Y29006896D01*
X16072255Y29006896D02*
X16072255Y28306896D01*
X16072255Y28306896D02*
X15922255Y28306896D01*
X15922255Y28306896D02*
X15822255Y28406896D01*
X15822255Y28406896D02*
X15822255Y29006896D01*
G36*
X16072255Y28306896D02*
G01*
X15922255Y28306896D01*
X15822255Y28406896D01*
X15822255Y29006896D01*
X16072255Y29006896D01*
X16072255Y28306896D01*
G37*
X16072255Y28306896D02*
X15922255Y28306896D01*
X15822255Y28406896D01*
X15822255Y29006896D01*
X16072255Y29006896D01*
X16072255Y28306896D01*
X14897569Y28332148D02*
X14897569Y28082148D01*
X14897569Y28082148D02*
X15597569Y28082148D01*
X15597569Y28082148D02*
X15597569Y28232148D01*
X15597569Y28232148D02*
X15497569Y28332148D01*
X15497569Y28332148D02*
X14897569Y28332148D01*
G36*
X15597569Y28232148D02*
G01*
X15597569Y28082148D01*
X14897569Y28082148D01*
X14897569Y28332148D01*
X15497569Y28332148D01*
X15597569Y28232148D01*
G37*
X15597569Y28232148D02*
X15597569Y28082148D01*
X14897569Y28082148D01*
X14897569Y28332148D01*
X15497569Y28332148D01*
X15597569Y28232148D01*
%TO.C,U4*%
X24100000Y24430001D02*
X24100000Y23989999D01*
X24100000Y23989999D02*
X24760001Y23989999D01*
X24760001Y23989999D02*
X24760001Y24430001D01*
X24760001Y24430001D02*
X24100000Y24430001D01*
G36*
X24760001Y23989999D02*
G01*
X24100000Y23989999D01*
X24100000Y24430001D01*
X24760001Y24430001D01*
X24760001Y23989999D01*
G37*
X24760001Y23989999D02*
X24100000Y23989999D01*
X24100000Y24430001D01*
X24760001Y24430001D01*
X24760001Y23989999D01*
X23359999Y24930000D02*
X23359999Y24490000D01*
X23359999Y24490000D02*
X24020000Y24490000D01*
X24020000Y24490000D02*
X24020000Y24930000D01*
X24020000Y24930000D02*
X23359999Y24930000D01*
G36*
X24020000Y24490000D02*
G01*
X23359999Y24490000D01*
X23359999Y24930000D01*
X24020000Y24930000D01*
X24020000Y24490000D01*
G37*
X24020000Y24490000D02*
X23359999Y24490000D01*
X23359999Y24930000D01*
X24020000Y24930000D01*
X24020000Y24490000D01*
X23359999Y25430001D02*
X23359999Y24989999D01*
X23359999Y24989999D02*
X24020000Y24989999D01*
X24020000Y24989999D02*
X24020000Y25430001D01*
X24020000Y25430001D02*
X23359999Y25430001D01*
G36*
X24020000Y24989999D02*
G01*
X23359999Y24989999D01*
X23359999Y25430001D01*
X24020000Y25430001D01*
X24020000Y24989999D01*
G37*
X24020000Y24989999D02*
X23359999Y24989999D01*
X23359999Y25430001D01*
X24020000Y25430001D01*
X24020000Y24989999D01*
X24100000Y24930000D02*
X24100000Y24490000D01*
X24100000Y24490000D02*
X24760001Y24490000D01*
X24760001Y24490000D02*
X24760001Y24930000D01*
X24760001Y24930000D02*
X24100000Y24930000D01*
G36*
X24760001Y24490000D02*
G01*
X24100000Y24490000D01*
X24100000Y24930000D01*
X24760001Y24930000D01*
X24760001Y24490000D01*
G37*
X24760001Y24490000D02*
X24100000Y24490000D01*
X24100000Y24930000D01*
X24760001Y24930000D01*
X24760001Y24490000D01*
X24100000Y25430001D02*
X24100000Y24989999D01*
X24100000Y24989999D02*
X24760001Y24989999D01*
X24760001Y24989999D02*
X24760001Y25430001D01*
X24760001Y25430001D02*
X24100000Y25430001D01*
G36*
X24760001Y24989999D02*
G01*
X24100000Y24989999D01*
X24100000Y25430001D01*
X24760001Y25430001D01*
X24760001Y24989999D01*
G37*
X24760001Y24989999D02*
X24100000Y24989999D01*
X24100000Y25430001D01*
X24760001Y25430001D01*
X24760001Y24989999D01*
X23359999Y24430001D02*
X23359999Y23989999D01*
X23359999Y23989999D02*
X24020000Y23989999D01*
X24020000Y23989999D02*
X24020000Y24430001D01*
X24020000Y24430001D02*
X23359999Y24430001D01*
G36*
X24020000Y23989999D02*
G01*
X23359999Y23989999D01*
X23359999Y24430001D01*
X24020000Y24430001D01*
X24020000Y23989999D01*
G37*
X24020000Y23989999D02*
X23359999Y23989999D01*
X23359999Y24430001D01*
X24020000Y24430001D01*
X24020000Y23989999D01*
%TD*%
D11*
%TO.C,J7*%
X32714800Y7464600D03*
X38494800Y7464600D03*
D12*
X32354800Y8909600D03*
X33154800Y8909600D03*
D13*
X34354800Y8909600D03*
X35354800Y8909600D03*
X35854800Y8909600D03*
X36854800Y8909600D03*
D12*
X38054800Y8909600D03*
X38854800Y8909600D03*
X38854800Y8909600D03*
X38054800Y8909600D03*
D13*
X37354800Y8909600D03*
X36354800Y8909600D03*
X34854800Y8909600D03*
X33854800Y8909600D03*
D12*
X33154800Y8909600D03*
X32354800Y8909600D03*
D14*
X31279800Y3814600D03*
D15*
X39929800Y7994600D03*
X31279800Y7994600D03*
D14*
X39929800Y3814600D03*
%TD*%
D16*
%TO.C,C46*%
X24751100Y39084600D03*
X27701100Y39084600D03*
%TD*%
D17*
%TO.C,Q1*%
X31955000Y28787500D03*
X33855000Y28787500D03*
X32905000Y30662500D03*
%TD*%
D18*
%TO.C,R38*%
X2740000Y30137500D03*
X2740000Y31787500D03*
%TD*%
D19*
%TO.C,C24*%
X90915000Y23590000D03*
X92465000Y23590000D03*
%TD*%
D20*
%TO.C,R32*%
X91365000Y37530000D03*
X93015000Y37530000D03*
%TD*%
D21*
%TO.C,C35*%
X31790000Y22410000D03*
X30240000Y22410000D03*
%TD*%
D22*
%TO.C,U6*%
X15947255Y25806896D03*
D23*
X16447381Y26106896D03*
X16947507Y26106896D03*
X17447633Y26106896D03*
X17947759Y26106896D03*
D22*
X18447885Y25756896D03*
X19147571Y26206644D03*
D24*
X19147571Y26706770D03*
X19147571Y27206896D03*
X19147571Y27707022D03*
D22*
X19147571Y28207148D03*
X18447885Y28656896D03*
D23*
X17947759Y28306896D03*
X17447633Y28306896D03*
X16947507Y28306896D03*
X16447381Y28306896D03*
D22*
X15947255Y28656896D03*
X15247569Y28207148D03*
D24*
X15247569Y27707022D03*
X15247569Y27206896D03*
X15247569Y26706770D03*
D22*
X15247569Y26206644D03*
%TD*%
D25*
%TO.C,H4*%
X3604800Y4864600D03*
%TD*%
D26*
%TO.C,U2*%
X71504000Y35731200D03*
X71504000Y34631200D03*
X71504000Y33531200D03*
X71504000Y32431200D03*
X71504000Y31331200D03*
X71504000Y30231200D03*
X71504000Y29131200D03*
X71504000Y28031200D03*
X71504000Y26931200D03*
X71504000Y25831200D03*
X71504000Y24731200D03*
X71504000Y23631200D03*
D27*
X74954000Y20881200D03*
X76054000Y20881200D03*
X77154000Y20881200D03*
X78254000Y20881200D03*
X79354000Y20881200D03*
X80454000Y20881200D03*
X81554000Y20881200D03*
X82654000Y20881200D03*
X83754000Y20881200D03*
D26*
X87204000Y23631200D03*
X87204000Y24731200D03*
X87204000Y25831200D03*
X87204000Y26931200D03*
X87204000Y28031200D03*
X87204000Y29131200D03*
X87204000Y30231200D03*
X87204000Y31331200D03*
X87204000Y32431200D03*
X87204000Y33531200D03*
X87204000Y34631200D03*
X87204000Y35731200D03*
D27*
X83754000Y38481200D03*
X82654000Y38481200D03*
X81554000Y38481200D03*
X80454000Y38481200D03*
X79354000Y38481200D03*
X78254000Y38481200D03*
X77154000Y38481200D03*
X76054000Y38481200D03*
X74954000Y38481200D03*
D28*
X74004000Y34581200D03*
X74004000Y33181200D03*
X74004000Y31781200D03*
X74004000Y30381200D03*
X74004000Y28981200D03*
X74004000Y27581200D03*
X74004000Y26181200D03*
X74004000Y24781200D03*
D29*
X75154000Y23381200D03*
X76554000Y23381200D03*
X77954000Y23381200D03*
X79354000Y23381200D03*
X80754000Y23381200D03*
X82154000Y23381200D03*
X83554000Y23381200D03*
D28*
X84704000Y24781200D03*
X84704000Y26181200D03*
X84704000Y27581200D03*
X84704000Y28981200D03*
X84704000Y30381200D03*
D29*
X82154000Y35981200D03*
X80754000Y35981200D03*
X79354000Y35981200D03*
X77954000Y35981200D03*
X76554000Y35981200D03*
X75154000Y35981200D03*
D30*
X76454000Y33081200D03*
X76454000Y29681200D03*
X76454000Y26281200D03*
X79354000Y26281200D03*
X82254000Y26281200D03*
X82254000Y29681200D03*
X82254000Y33081200D03*
X79354000Y33081200D03*
X79354000Y29681200D03*
%TD*%
D31*
%TO.C,C34*%
X11250000Y32130000D03*
X11250000Y29180000D03*
%TD*%
D32*
%TO.C,R39*%
X42825000Y10150000D03*
X41805000Y10150000D03*
%TD*%
D33*
%TO.C,R30*%
X31665000Y50200000D03*
X31665000Y48550000D03*
%TD*%
D34*
%TO.C,R16*%
X68910000Y25310000D03*
X67260000Y25310000D03*
%TD*%
%TO.C,R28*%
X2550000Y40440000D03*
X900000Y40440000D03*
%TD*%
D20*
%TO.C,R47*%
X86865000Y40580000D03*
X88515000Y40580000D03*
%TD*%
D18*
%TO.C,R48*%
X85950000Y44765000D03*
X85950000Y46415000D03*
%TD*%
D25*
%TO.C,H3*%
X95604800Y4864600D03*
%TD*%
D35*
%TO.C,J4*%
X95085600Y21883200D03*
D36*
X96610601Y20408199D03*
X96610601Y23358201D03*
%TD*%
D37*
%TO.C,C23*%
X89460000Y32407500D03*
X89460000Y30857500D03*
%TD*%
D34*
%TO.C,R7*%
X68910000Y28355000D03*
X67260000Y28355000D03*
%TD*%
D20*
%TO.C,R19*%
X35280000Y23975000D03*
X36930000Y23975000D03*
%TD*%
D38*
%TO.C,D4*%
X33402500Y51860000D03*
X35277500Y51860000D03*
%TD*%
D39*
%TO.C,C19*%
X53100000Y32096300D03*
X53100000Y33646300D03*
%TD*%
D40*
%TO.C,J9*%
X6995000Y37030000D03*
D41*
X6995000Y35030000D03*
%TD*%
D42*
%TO.C,C8*%
X44385000Y18795000D03*
X44385000Y17835000D03*
%TD*%
D43*
%TO.C,R36*%
X28970000Y10720000D03*
X29990000Y10720000D03*
%TD*%
D44*
%TO.C,D2*%
X2857500Y42200000D03*
X982500Y42200000D03*
%TD*%
D33*
%TO.C,R43*%
X43060000Y50180000D03*
X43060000Y48530000D03*
%TD*%
D20*
%TO.C,R18*%
X35280000Y25485000D03*
X36930000Y25485000D03*
%TD*%
D39*
%TO.C,C20*%
X47080000Y36955000D03*
X47080000Y38505000D03*
%TD*%
D42*
%TO.C,C11*%
X41010000Y19760000D03*
X41010000Y18800000D03*
%TD*%
D33*
%TO.C,R22*%
X39265000Y50180000D03*
X39265000Y48530000D03*
%TD*%
D34*
%TO.C,R8*%
X68915000Y34450000D03*
X67265000Y34450000D03*
%TD*%
D18*
%TO.C,R20*%
X92440000Y20425000D03*
X92440000Y22075000D03*
%TD*%
D33*
%TO.C,R45*%
X20055000Y50200000D03*
X20055000Y48550000D03*
%TD*%
%TO.C,R5*%
X52740000Y12425000D03*
X52740000Y10775000D03*
%TD*%
%TO.C,R21*%
X90980000Y32465000D03*
X90980000Y30815000D03*
%TD*%
D45*
%TO.C,CR1*%
X90075000Y8565000D03*
X89425000Y8565000D03*
X88775000Y8565000D03*
X88775000Y6665000D03*
X89425000Y6665000D03*
X90075000Y6665000D03*
%TD*%
D38*
%TO.C,D7*%
X44833300Y51855000D03*
X46708300Y51855000D03*
%TD*%
D46*
%TO.C,U3*%
X47036500Y22202600D03*
X47036500Y22602600D03*
X47036500Y23002600D03*
X47036500Y23402600D03*
X47036500Y23802600D03*
X47036500Y24202600D03*
X47036500Y24602600D03*
X47036500Y25002600D03*
X47036500Y25402600D03*
X47036500Y25802600D03*
X47036500Y26202600D03*
X47036500Y26602600D03*
X47036500Y27002600D03*
X47036500Y27402600D03*
D47*
X46199000Y28240100D03*
X45799000Y28240100D03*
X45399000Y28240100D03*
X44999000Y28240100D03*
X44599000Y28240100D03*
X44199000Y28240100D03*
X43799000Y28240100D03*
X43399000Y28240100D03*
X42999000Y28240100D03*
X42599000Y28240100D03*
X42199000Y28240100D03*
X41799000Y28240100D03*
X41399000Y28240100D03*
X40999000Y28240100D03*
D46*
X40161500Y27402600D03*
X40161500Y27002600D03*
X40161500Y26602600D03*
X40161500Y26202600D03*
X40161500Y25802600D03*
X40161500Y25402600D03*
X40161500Y25002600D03*
X40161500Y24602600D03*
X40161500Y24202600D03*
X40161500Y23802600D03*
X40161500Y23402600D03*
X40161500Y23002600D03*
X40161500Y22602600D03*
X40161500Y22202600D03*
D47*
X40999000Y21365100D03*
X41399000Y21365100D03*
X41799000Y21365100D03*
X42199000Y21365100D03*
X42599000Y21365100D03*
X42999000Y21365100D03*
X43399000Y21365100D03*
X43799000Y21365100D03*
X44199000Y21365100D03*
X44599000Y21365100D03*
X44999000Y21365100D03*
X45399000Y21365100D03*
X45799000Y21365100D03*
X46199000Y21365100D03*
D48*
X43599000Y24802600D03*
%TD*%
D25*
%TO.C,H2*%
X95604800Y48864600D03*
%TD*%
D49*
%TO.C,L2*%
X19714600Y41858400D03*
X19714600Y36158400D03*
%TD*%
D50*
%TO.C,C6*%
X38980000Y18780000D03*
X38980000Y19740000D03*
%TD*%
D33*
%TO.C,R23*%
X35465000Y50200000D03*
X35465000Y48550000D03*
%TD*%
D51*
%TO.C,C12*%
X53110000Y13645000D03*
X54070000Y13645000D03*
%TD*%
D39*
%TO.C,C45*%
X1210000Y26830000D03*
X1210000Y28380000D03*
%TD*%
D52*
%TO.C,U10*%
X25925100Y26607455D03*
X25925100Y27107581D03*
X25925100Y27607707D03*
X25925100Y28107833D03*
X24324900Y28107833D03*
X24324900Y27607707D03*
X24324900Y27107581D03*
X24324900Y26607455D03*
%TD*%
D18*
%TO.C,R34*%
X2740000Y26767500D03*
X2740000Y28417500D03*
%TD*%
D42*
%TO.C,C5*%
X43325000Y31825000D03*
X43325000Y30865000D03*
%TD*%
D34*
%TO.C,R4*%
X68910000Y23790000D03*
X67260000Y23790000D03*
%TD*%
D53*
%TO.C,J3*%
X42945000Y37130000D03*
D54*
X42945000Y35860000D03*
X42945000Y34590000D03*
%TD*%
D16*
%TO.C,C38*%
X24751100Y41523000D03*
X27701100Y41523000D03*
%TD*%
D34*
%TO.C,R12*%
X68925000Y39050000D03*
X67275000Y39050000D03*
%TD*%
D55*
%TO.C,U7*%
X34555000Y20295000D03*
X32255000Y20295000D03*
X29955000Y20295000D03*
D56*
X32255000Y13995000D03*
%TD*%
D38*
%TO.C,D9*%
X21972500Y51860000D03*
X23847500Y51860000D03*
%TD*%
D50*
%TO.C,C1*%
X43195000Y18875000D03*
X43195000Y19835000D03*
%TD*%
D33*
%TO.C,R31*%
X27835000Y50200000D03*
X27835000Y48550000D03*
%TD*%
D51*
%TO.C,C7*%
X37860000Y22615000D03*
X38820000Y22615000D03*
%TD*%
D18*
%TO.C,R37*%
X9130000Y26292500D03*
X9130000Y27942500D03*
%TD*%
D57*
%TO.C,D1*%
X90952500Y29080000D03*
X89377500Y29080000D03*
%TD*%
D38*
%TO.C,D5*%
X29592500Y51860000D03*
X31467500Y51860000D03*
%TD*%
D33*
%TO.C,R13*%
X89340000Y22075000D03*
X89340000Y20425000D03*
%TD*%
D51*
%TO.C,C3*%
X36515000Y26855000D03*
X37475000Y26855000D03*
%TD*%
D17*
%TO.C,Q2*%
X87545000Y44192500D03*
X89445000Y44192500D03*
X88495000Y46067500D03*
%TD*%
D58*
%TO.C,U8*%
X89036100Y37340000D03*
D59*
X89436100Y36861400D03*
X89836100Y36861400D03*
X89836100Y37818600D03*
X89436100Y37818600D03*
%TD*%
D60*
%TO.C,C4*%
X49515000Y25995000D03*
X48555000Y25995000D03*
%TD*%
D20*
%TO.C,R29*%
X5265000Y21920000D03*
X6915000Y21920000D03*
%TD*%
D19*
%TO.C,C36*%
X5315000Y20360000D03*
X6865000Y20360000D03*
%TD*%
D61*
%TO.C,J8*%
X83804999Y6659499D03*
X81264999Y6659499D03*
X78724999Y6659499D03*
X85074999Y7509500D03*
X82534999Y7509500D03*
X79994999Y7509500D03*
D62*
X85124999Y6479499D03*
D63*
X87215000Y3159500D03*
D64*
X86965001Y7659499D03*
D65*
X86965001Y15744499D03*
D66*
X85230000Y17564500D03*
D67*
X83914999Y17349500D03*
D68*
X79465102Y17384499D03*
D69*
X74830001Y17384500D03*
D70*
X71815000Y16209500D03*
X71765000Y10239500D03*
D63*
X71865000Y3159500D03*
%TD*%
D21*
%TO.C,C18*%
X85445000Y42140000D03*
X83895000Y42140000D03*
%TD*%
D34*
%TO.C,R15*%
X68915000Y32920000D03*
X67265000Y32920000D03*
%TD*%
D38*
%TO.C,D8*%
X41023000Y51855000D03*
X42898000Y51855000D03*
%TD*%
D71*
%TO.C,D11*%
X84075000Y46307500D03*
X84075000Y44432500D03*
%TD*%
D34*
%TO.C,R9*%
X68925000Y35985000D03*
X67275000Y35985000D03*
%TD*%
D37*
%TO.C,C22*%
X90860000Y22025000D03*
X90860000Y20475000D03*
%TD*%
D21*
%TO.C,C37*%
X38185000Y16520000D03*
X36635000Y16520000D03*
%TD*%
D34*
%TO.C,R46*%
X88520000Y42145000D03*
X86870000Y42145000D03*
%TD*%
D25*
%TO.C,H1*%
X3604800Y48864600D03*
%TD*%
D72*
%TO.C,Y1*%
X51360000Y32437600D03*
X51360000Y37035000D03*
X48820000Y37035000D03*
X48820000Y32437600D03*
%TD*%
D73*
%TO.C,C13*%
X73955000Y44150000D03*
X73955000Y47225000D03*
%TD*%
D18*
%TO.C,R1*%
X42620000Y15645000D03*
X42620000Y17295000D03*
%TD*%
D52*
%TO.C,U5*%
X25940100Y31799811D03*
X25940100Y32299937D03*
X25940100Y32800063D03*
X25940100Y33300189D03*
X24339900Y33300189D03*
X24339900Y32800063D03*
X24339900Y32299937D03*
X24339900Y31799811D03*
%TD*%
D74*
%TO.C,Z1*%
X81512800Y47492200D03*
X81512800Y44342200D03*
%TD*%
D60*
%TO.C,C2*%
X49925000Y21975000D03*
X48965000Y21975000D03*
%TD*%
D75*
%TO.C,U4*%
X23704987Y25209999D03*
D76*
X23690001Y24710000D03*
X23690001Y24210001D03*
X24429999Y24210001D03*
X24429999Y24710000D03*
X24429999Y25209999D03*
%TD*%
D39*
%TO.C,C16*%
X79560000Y45853400D03*
X79560000Y47403400D03*
%TD*%
D34*
%TO.C,R6*%
X68910000Y26830000D03*
X67260000Y26830000D03*
%TD*%
%TO.C,R3*%
X68910000Y22270000D03*
X67260000Y22270000D03*
%TD*%
%TO.C,R11*%
X68925000Y37515000D03*
X67275000Y37515000D03*
%TD*%
D33*
%TO.C,R44*%
X23860000Y50200000D03*
X23860000Y48550000D03*
%TD*%
D39*
%TO.C,C21*%
X92520000Y30857500D03*
X92520000Y32407500D03*
%TD*%
D33*
%TO.C,R35*%
X20502000Y32569000D03*
X20502000Y30919000D03*
%TD*%
D35*
%TO.C,J10*%
X95085600Y37520000D03*
D36*
X96610601Y36044999D03*
X96610601Y38995001D03*
%TD*%
D38*
%TO.C,D10*%
X18162500Y51860000D03*
X20037500Y51860000D03*
%TD*%
D19*
%TO.C,C32*%
X13065000Y23320000D03*
X14615000Y23320000D03*
%TD*%
D11*
%TO.C,J6*%
X13714800Y7464600D03*
X19494800Y7464600D03*
D12*
X13354800Y8909600D03*
X14154800Y8909600D03*
D13*
X15354800Y8909600D03*
X16354800Y8909600D03*
X16854800Y8909600D03*
X17854800Y8909600D03*
D12*
X19054800Y8909600D03*
X19854800Y8909600D03*
X19854800Y8909600D03*
X19054800Y8909600D03*
D13*
X18354800Y8909600D03*
X17354800Y8909600D03*
X15854800Y8909600D03*
X14854800Y8909600D03*
D12*
X14154800Y8909600D03*
X13354800Y8909600D03*
D15*
X20929800Y7994600D03*
D14*
X12279800Y3814600D03*
X20929800Y3814600D03*
D15*
X12279800Y7994600D03*
%TD*%
D50*
%TO.C,C9*%
X42275000Y30330000D03*
X42275000Y31290000D03*
%TD*%
%TO.C,C10*%
X40010000Y18770000D03*
X40010000Y19730000D03*
%TD*%
D34*
%TO.C,R33*%
X6925000Y23500000D03*
X5275000Y23500000D03*
%TD*%
D77*
%TO.C,R41*%
X12105000Y13670000D03*
X12105000Y12650000D03*
%TD*%
D16*
%TO.C,C31*%
X11970000Y21165000D03*
X14920000Y21165000D03*
%TD*%
D33*
%TO.C,R42*%
X46870000Y50180000D03*
X46870000Y48530000D03*
%TD*%
D38*
%TO.C,D3*%
X37212500Y51850000D03*
X39087500Y51850000D03*
%TD*%
D18*
%TO.C,R17*%
X47080000Y33860000D03*
X47080000Y35510000D03*
%TD*%
D78*
%TO.C,J11*%
X70300000Y51105000D03*
D79*
X67760000Y51105000D03*
X65220000Y51105000D03*
X62680000Y51105000D03*
X60140000Y51105000D03*
X57600000Y51105000D03*
X55060000Y51105000D03*
X52520000Y51105000D03*
X49980000Y51105000D03*
%TD*%
D32*
%TO.C,R49*%
X52215000Y20345000D03*
X51195000Y20345000D03*
%TD*%
D19*
%TO.C,C17*%
X83885000Y40590000D03*
X85435000Y40590000D03*
%TD*%
D35*
%TO.C,J5*%
X95105600Y29830000D03*
D36*
X96630601Y28354999D03*
X96630601Y31305001D03*
%TD*%
D77*
%TO.C,R40*%
X9160000Y13680000D03*
X9160000Y12660000D03*
%TD*%
D80*
%TO.C,J2*%
X39035000Y30675000D03*
X39035000Y34875000D03*
%TD*%
D19*
%TO.C,C26*%
X27565000Y36100000D03*
X29115000Y36100000D03*
%TD*%
D39*
%TO.C,C14*%
X76432800Y45853400D03*
X76432800Y47403400D03*
%TD*%
D34*
%TO.C,R14*%
X68915000Y29875000D03*
X67265000Y29875000D03*
%TD*%
D81*
%TO.C,C33*%
X20525000Y21355000D03*
X20525000Y19455000D03*
%TD*%
D39*
%TO.C,C15*%
X77956800Y45853400D03*
X77956800Y47403400D03*
%TD*%
D18*
%TO.C,R2*%
X41100000Y15645000D03*
X41100000Y17295000D03*
%TD*%
D82*
%TO.C,J1*%
X51420000Y11050000D03*
X47220000Y11050000D03*
%TD*%
D34*
%TO.C,R10*%
X68915000Y31400000D03*
X67265000Y31400000D03*
%TD*%
D37*
%TO.C,C44*%
X18978000Y32468200D03*
X18978000Y30918200D03*
%TD*%
D38*
%TO.C,D6*%
X25782500Y51860000D03*
X27657500Y51860000D03*
%TD*%
D83*
%TO.C,U1*%
X51200000Y19185000D03*
X49930000Y19185000D03*
X48660000Y19185000D03*
X47390000Y19185000D03*
X47390000Y13785000D03*
X48660000Y13785000D03*
X49930000Y13785000D03*
X51200000Y13785000D03*
D84*
X49295000Y16485000D03*
%TD*%
M02*
