%TF.GenerationSoftware,KiCad,Pcbnew,(6.0.2-0)*%
%TF.CreationDate,2022-03-26T21:56:15+01:00*%
%TF.ProjectId,RP2040GPSTracker,52503230-3430-4475-9053-547261636b65,rev?*%
%TF.SameCoordinates,PX4416780PY363af58*%
%TF.FileFunction,Paste,Top*%
%TF.FilePolarity,Positive*%
%FSLAX46Y46*%
G04 Gerber Fmt 4.6, Leading zero omitted, Abs format (unit mm)*
G04 Created by KiCad (PCBNEW (6.0.2-0)) date 2022-03-26 21:56:15*
%MOMM*%
%LPD*%
G01*
G04 APERTURE LIST*
G04 Aperture macros list*
%AMRoundRect*
0 Rectangle with rounded corners*
0 $1 Rounding radius*
0 $2 $3 $4 $5 $6 $7 $8 $9 X,Y pos of 4 corners*
0 Add a 4 corners polygon primitive as box body*
4,1,4,$2,$3,$4,$5,$6,$7,$8,$9,$2,$3,0*
0 Add four circle primitives for the rounded corners*
1,1,$1+$1,$2,$3*
1,1,$1+$1,$4,$5*
1,1,$1+$1,$6,$7*
1,1,$1+$1,$8,$9*
0 Add four rect primitives between the rounded corners*
20,1,$1+$1,$2,$3,$4,$5,0*
20,1,$1+$1,$4,$5,$6,$7,0*
20,1,$1+$1,$6,$7,$8,$9,0*
20,1,$1+$1,$8,$9,$2,$3,0*%
G04 Aperture macros list end*
%ADD10C,0.100000*%
%ADD11C,0.010000*%
%ADD12R,0.600000X1.450000*%
%ADD13R,0.300000X1.450000*%
%ADD14RoundRect,0.250000X-0.325000X-0.650000X0.325000X-0.650000X0.325000X0.650000X-0.325000X0.650000X0*%
%ADD15RoundRect,0.150000X0.150000X-0.587500X0.150000X0.587500X-0.150000X0.587500X-0.150000X-0.587500X0*%
%ADD16RoundRect,0.200000X0.275000X-0.200000X0.275000X0.200000X-0.275000X0.200000X-0.275000X-0.200000X0*%
%ADD17RoundRect,0.225000X-0.225000X-0.250000X0.225000X-0.250000X0.225000X0.250000X-0.225000X0.250000X0*%
%ADD18RoundRect,0.200000X-0.200000X-0.275000X0.200000X-0.275000X0.200000X0.275000X-0.200000X0.275000X0*%
%ADD19RoundRect,0.225000X0.225000X0.250000X-0.225000X0.250000X-0.225000X-0.250000X0.225000X-0.250000X0*%
%ADD20R,0.127000X0.127000*%
%ADD21R,0.250000X1.400000*%
%ADD22R,0.700000X0.250000*%
%ADD23O,1.600000X0.600000*%
%ADD24O,0.600000X1.600000*%
%ADD25RoundRect,0.250000X-0.650000X0.325000X-0.650000X-0.325000X0.650000X-0.325000X0.650000X0.325000X0*%
%ADD26RoundRect,0.135000X0.135000X0.185000X-0.135000X0.185000X-0.135000X-0.185000X0.135000X-0.185000X0*%
%ADD27RoundRect,0.200000X-0.275000X0.200000X-0.275000X-0.200000X0.275000X-0.200000X0.275000X0.200000X0*%
%ADD28RoundRect,0.200000X0.200000X0.275000X-0.200000X0.275000X-0.200000X-0.275000X0.200000X-0.275000X0*%
%ADD29R,1.041400X0.990600*%
%ADD30R,2.209800X1.041400*%
%ADD31RoundRect,0.225000X-0.250000X0.225000X-0.250000X-0.225000X0.250000X-0.225000X0.250000X0.225000X0*%
%ADD32RoundRect,0.243750X-0.243750X-0.456250X0.243750X-0.456250X0.243750X0.456250X-0.243750X0.456250X0*%
%ADD33RoundRect,0.225000X0.250000X-0.225000X0.250000X0.225000X-0.250000X0.225000X-0.250000X-0.225000X0*%
%ADD34RoundRect,0.140000X-0.170000X0.140000X-0.170000X-0.140000X0.170000X-0.140000X0.170000X0.140000X0*%
%ADD35RoundRect,0.135000X-0.135000X-0.185000X0.135000X-0.185000X0.135000X0.185000X-0.135000X0.185000X0*%
%ADD36RoundRect,0.243750X0.243750X0.456250X-0.243750X0.456250X-0.243750X-0.456250X0.243750X-0.456250X0*%
%ADD37R,0.400000X0.650000*%
%ADD38RoundRect,0.250000X0.292217X0.292217X-0.292217X0.292217X-0.292217X-0.292217X0.292217X-0.292217X0*%
%ADD39RoundRect,0.050000X0.387500X0.050000X-0.387500X0.050000X-0.387500X-0.050000X0.387500X-0.050000X0*%
%ADD40RoundRect,0.050000X0.050000X0.387500X-0.050000X0.387500X-0.050000X-0.387500X0.050000X-0.387500X0*%
%ADD41R,3.400000X2.000000*%
%ADD42RoundRect,0.140000X0.170000X-0.140000X0.170000X0.140000X-0.170000X0.140000X-0.170000X-0.140000X0*%
%ADD43RoundRect,0.140000X-0.140000X-0.170000X0.140000X-0.170000X0.140000X0.170000X-0.140000X0.170000X0*%
%ADD44R,0.711200X0.228600*%
%ADD45R,1.500000X2.000000*%
%ADD46R,3.800000X2.000000*%
%ADD47RoundRect,0.218750X0.218750X0.256250X-0.218750X0.256250X-0.218750X-0.256250X0.218750X-0.256250X0*%
%ADD48R,0.203200X0.203200*%
%ADD49R,0.101600X0.635000*%
%ADD50RoundRect,0.140000X0.140000X0.170000X-0.140000X0.170000X-0.140000X-0.170000X0.140000X-0.170000X0*%
%ADD51R,0.838200X0.939800*%
%ADD52R,0.939800X0.787400*%
%ADD53R,0.558800X1.651000*%
%ADD54R,0.558800X1.219200*%
%ADD55R,1.371600X0.609600*%
%ADD56R,0.736600X1.016000*%
%ADD57R,1.346200X0.965200*%
%ADD58R,1.574800X0.965200*%
%ADD59R,0.635000X1.955800*%
%ADD60RoundRect,0.243750X-0.456250X0.243750X-0.456250X-0.243750X0.456250X-0.243750X0.456250X0.243750X0*%
%ADD61R,1.092200X1.193800*%
%ADD62RoundRect,0.250000X0.925000X-0.412500X0.925000X0.412500X-0.925000X0.412500X-0.925000X-0.412500X0*%
%ADD63R,0.950000X0.900000*%
%ADD64RoundRect,0.135000X-0.185000X0.135000X-0.185000X-0.135000X0.185000X-0.135000X0.185000X0.135000X0*%
%ADD65R,2.000000X0.800000*%
%ADD66RoundRect,0.250000X-0.475000X0.250000X-0.475000X-0.250000X0.475000X-0.250000X0.475000X0.250000X0*%
%ADD67R,0.800000X2.000000*%
%ADD68RoundRect,0.250000X-0.615000X0.435000X-0.615000X-0.435000X0.615000X-0.435000X0.615000X0.435000X0*%
%ADD69RoundRect,0.125000X-0.125000X0.250000X-0.125000X-0.250000X0.125000X-0.250000X0.125000X0.250000X0*%
G04 APERTURE END LIST*
D10*
%TO.C,U6*%
X15822255Y29006896D02*
X16072255Y29006896D01*
X16072255Y29006896D02*
X16072255Y28306896D01*
X16072255Y28306896D02*
X15922255Y28306896D01*
X15922255Y28306896D02*
X15822255Y28406896D01*
X15822255Y28406896D02*
X15822255Y29006896D01*
G36*
X16072255Y28306896D02*
G01*
X15922255Y28306896D01*
X15822255Y28406896D01*
X15822255Y29006896D01*
X16072255Y29006896D01*
X16072255Y28306896D01*
G37*
X16072255Y28306896D02*
X15922255Y28306896D01*
X15822255Y28406896D01*
X15822255Y29006896D01*
X16072255Y29006896D01*
X16072255Y28306896D01*
X18572885Y29006896D02*
X18322885Y29006896D01*
X18322885Y29006896D02*
X18322885Y28306896D01*
X18322885Y28306896D02*
X18472885Y28306896D01*
X18472885Y28306896D02*
X18572885Y28406896D01*
X18572885Y28406896D02*
X18572885Y29006896D01*
G36*
X18572885Y28406896D02*
G01*
X18472885Y28306896D01*
X18322885Y28306896D01*
X18322885Y29006896D01*
X18572885Y29006896D01*
X18572885Y28406896D01*
G37*
X18572885Y28406896D02*
X18472885Y28306896D01*
X18322885Y28306896D01*
X18322885Y29006896D01*
X18572885Y29006896D01*
X18572885Y28406896D01*
X14897569Y28332148D02*
X14897569Y28082148D01*
X14897569Y28082148D02*
X15597569Y28082148D01*
X15597569Y28082148D02*
X15597569Y28232148D01*
X15597569Y28232148D02*
X15497569Y28332148D01*
X15497569Y28332148D02*
X14897569Y28332148D01*
G36*
X15597569Y28232148D02*
G01*
X15597569Y28082148D01*
X14897569Y28082148D01*
X14897569Y28332148D01*
X15497569Y28332148D01*
X15597569Y28232148D01*
G37*
X15597569Y28232148D02*
X15597569Y28082148D01*
X14897569Y28082148D01*
X14897569Y28332148D01*
X15497569Y28332148D01*
X15597569Y28232148D01*
X15822255Y25406896D02*
X16072255Y25406896D01*
X16072255Y25406896D02*
X16072255Y26206896D01*
X16072255Y26206896D02*
X15922255Y26206896D01*
X15922255Y26206896D02*
X15822255Y26006896D01*
X15822255Y26006896D02*
X15822255Y25406896D01*
G36*
X16072255Y25406896D02*
G01*
X15822255Y25406896D01*
X15822255Y26006896D01*
X15922255Y26206896D01*
X16072255Y26206896D01*
X16072255Y25406896D01*
G37*
X16072255Y25406896D02*
X15822255Y25406896D01*
X15822255Y26006896D01*
X15922255Y26206896D01*
X16072255Y26206896D01*
X16072255Y25406896D01*
X19497571Y26081644D02*
X19497571Y26331644D01*
X19497571Y26331644D02*
X18797571Y26331644D01*
X18797571Y26331644D02*
X18797571Y26181644D01*
X18797571Y26181644D02*
X18897571Y26081644D01*
X18897571Y26081644D02*
X19497571Y26081644D01*
G36*
X19497571Y26081644D02*
G01*
X18897571Y26081644D01*
X18797571Y26181644D01*
X18797571Y26331644D01*
X19497571Y26331644D01*
X19497571Y26081644D01*
G37*
X19497571Y26081644D02*
X18897571Y26081644D01*
X18797571Y26181644D01*
X18797571Y26331644D01*
X19497571Y26331644D01*
X19497571Y26081644D01*
X18572885Y25406896D02*
X18322885Y25406896D01*
X18322885Y25406896D02*
X18322885Y26106896D01*
X18322885Y26106896D02*
X18472885Y26106896D01*
X18472885Y26106896D02*
X18572885Y26006896D01*
X18572885Y26006896D02*
X18572885Y25406896D01*
G36*
X18572885Y26006896D02*
G01*
X18572885Y25406896D01*
X18322885Y25406896D01*
X18322885Y26106896D01*
X18472885Y26106896D01*
X18572885Y26006896D01*
G37*
X18572885Y26006896D02*
X18572885Y25406896D01*
X18322885Y25406896D01*
X18322885Y26106896D01*
X18472885Y26106896D01*
X18572885Y26006896D01*
X14897569Y26081644D02*
X14897569Y26331644D01*
X14897569Y26331644D02*
X15597569Y26331644D01*
X15597569Y26331644D02*
X15597569Y26181644D01*
X15597569Y26181644D02*
X15497569Y26081644D01*
X15497569Y26081644D02*
X14897569Y26081644D01*
G36*
X15597569Y26181644D02*
G01*
X15497569Y26081644D01*
X14897569Y26081644D01*
X14897569Y26331644D01*
X15597569Y26331644D01*
X15597569Y26181644D01*
G37*
X15597569Y26181644D02*
X15497569Y26081644D01*
X14897569Y26081644D01*
X14897569Y26331644D01*
X15597569Y26331644D01*
X15597569Y26181644D01*
X19497571Y28332148D02*
X19497571Y28082148D01*
X19497571Y28082148D02*
X18797571Y28082148D01*
X18797571Y28082148D02*
X18797571Y28232148D01*
X18797571Y28232148D02*
X18897571Y28332148D01*
X18897571Y28332148D02*
X19497571Y28332148D01*
G36*
X19497571Y28082148D02*
G01*
X18797571Y28082148D01*
X18797571Y28232148D01*
X18897571Y28332148D01*
X19497571Y28332148D01*
X19497571Y28082148D01*
G37*
X19497571Y28082148D02*
X18797571Y28082148D01*
X18797571Y28232148D01*
X18897571Y28332148D01*
X19497571Y28332148D01*
X19497571Y28082148D01*
D11*
%TO.C,U2*%
X80404150Y35931200D02*
X80704000Y35931200D01*
X80704000Y35931200D02*
X80704000Y35502030D01*
X80704000Y35502030D02*
X80404150Y35502030D01*
X80404150Y35502030D02*
X80404150Y35931200D01*
G36*
X80704000Y35502030D02*
G01*
X80404150Y35502030D01*
X80404150Y35931200D01*
X80704000Y35931200D01*
X80704000Y35502030D01*
G37*
X80704000Y35502030D02*
X80404150Y35502030D01*
X80404150Y35931200D01*
X80704000Y35931200D01*
X80704000Y35502030D01*
X77603510Y23331200D02*
X77904000Y23331200D01*
X77904000Y23331200D02*
X77904000Y22899320D01*
X77904000Y22899320D02*
X77603510Y22899320D01*
X77603510Y22899320D02*
X77603510Y23331200D01*
G36*
X77904000Y22899320D02*
G01*
X77603510Y22899320D01*
X77603510Y23331200D01*
X77904000Y23331200D01*
X77904000Y22899320D01*
G37*
X77904000Y22899320D02*
X77603510Y22899320D01*
X77603510Y23331200D01*
X77904000Y23331200D01*
X77904000Y22899320D01*
X76601700Y36461200D02*
X76904000Y36461200D01*
X76904000Y36461200D02*
X76904000Y36036520D01*
X76904000Y36036520D02*
X76601700Y36036520D01*
X76601700Y36036520D02*
X76601700Y36461200D01*
G36*
X76904000Y36036520D02*
G01*
X76601700Y36036520D01*
X76601700Y36461200D01*
X76904000Y36461200D01*
X76904000Y36036520D01*
G37*
X76904000Y36036520D02*
X76601700Y36036520D01*
X76601700Y36461200D01*
X76904000Y36461200D01*
X76904000Y36036520D01*
X82556140Y32781200D02*
X83254000Y32781200D01*
X83254000Y32781200D02*
X83254000Y31832640D01*
X83254000Y31832640D02*
X82556140Y31832640D01*
X82556140Y31832640D02*
X82556140Y32781200D01*
G36*
X83254000Y31832640D02*
G01*
X82556140Y31832640D01*
X82556140Y32781200D01*
X83254000Y32781200D01*
X83254000Y31832640D01*
G37*
X83254000Y31832640D02*
X82556140Y31832640D01*
X82556140Y32781200D01*
X83254000Y32781200D01*
X83254000Y31832640D01*
X80405070Y36461200D02*
X80704000Y36461200D01*
X80704000Y36461200D02*
X80704000Y36037650D01*
X80704000Y36037650D02*
X80405070Y36037650D01*
X80405070Y36037650D02*
X80405070Y36461200D01*
G36*
X80704000Y36037650D02*
G01*
X80405070Y36037650D01*
X80405070Y36461200D01*
X80704000Y36461200D01*
X80704000Y36037650D01*
G37*
X80704000Y36037650D02*
X80405070Y36037650D01*
X80405070Y36461200D01*
X80704000Y36461200D01*
X80704000Y36037650D01*
X73585790Y28996200D02*
X73889000Y28996200D01*
X73889000Y28996200D02*
X73889000Y28565580D01*
X73889000Y28565580D02*
X73585790Y28565580D01*
X73585790Y28565580D02*
X73585790Y28996200D01*
G36*
X73889000Y28565580D02*
G01*
X73585790Y28565580D01*
X73585790Y28996200D01*
X73889000Y28996200D01*
X73889000Y28565580D01*
G37*
X73889000Y28565580D02*
X73585790Y28565580D01*
X73585790Y28996200D01*
X73889000Y28996200D01*
X73889000Y28565580D01*
X79404022Y36461200D02*
X79704000Y36461200D01*
X79704000Y36461200D02*
X79704000Y36033970D01*
X79704000Y36033970D02*
X79404022Y36033970D01*
X79404022Y36033970D02*
X79404022Y36461200D01*
G36*
X79704000Y36033970D02*
G01*
X79404022Y36033970D01*
X79404022Y36461200D01*
X79704000Y36461200D01*
X79704000Y36033970D01*
G37*
X79704000Y36033970D02*
X79404022Y36033970D01*
X79404022Y36461200D01*
X79704000Y36461200D01*
X79704000Y36033970D01*
X82560050Y29381200D02*
X83254000Y29381200D01*
X83254000Y29381200D02*
X83254000Y28428840D01*
X83254000Y28428840D02*
X82560050Y28428840D01*
X82560050Y28428840D02*
X82560050Y29381200D01*
G36*
X83254000Y28428840D02*
G01*
X82560050Y28428840D01*
X82560050Y29381200D01*
X83254000Y29381200D01*
X83254000Y28428840D01*
G37*
X83254000Y28428840D02*
X82560050Y28428840D01*
X82560050Y29381200D01*
X83254000Y29381200D01*
X83254000Y28428840D01*
X78352010Y30931200D02*
X79054000Y30931200D01*
X79054000Y30931200D02*
X79054000Y29981797D01*
X79054000Y29981797D02*
X78352010Y29981797D01*
X78352010Y29981797D02*
X78352010Y30931200D01*
G36*
X79054000Y29981797D02*
G01*
X78352010Y29981797D01*
X78352010Y30931200D01*
X79054000Y30931200D01*
X79054000Y29981797D01*
G37*
X79054000Y29981797D02*
X78352010Y29981797D01*
X78352010Y30931200D01*
X79054000Y30931200D01*
X79054000Y29981797D01*
X76753870Y27531200D02*
X77454000Y27531200D01*
X77454000Y27531200D02*
X77454000Y26581040D01*
X77454000Y26581040D02*
X76753870Y26581040D01*
X76753870Y26581040D02*
X76753870Y27531200D01*
G36*
X77454000Y26581040D02*
G01*
X76753870Y26581040D01*
X76753870Y27531200D01*
X77454000Y27531200D01*
X77454000Y26581040D01*
G37*
X77454000Y26581040D02*
X76753870Y26581040D01*
X76753870Y27531200D01*
X77454000Y27531200D01*
X77454000Y26581040D01*
X79003370Y35931200D02*
X79304000Y35931200D01*
X79304000Y35931200D02*
X79304000Y35511680D01*
X79304000Y35511680D02*
X79003370Y35511680D01*
X79003370Y35511680D02*
X79003370Y35931200D01*
G36*
X79304000Y35511680D02*
G01*
X79003370Y35511680D01*
X79003370Y35931200D01*
X79304000Y35931200D01*
X79304000Y35511680D01*
G37*
X79304000Y35511680D02*
X79003370Y35511680D01*
X79003370Y35931200D01*
X79304000Y35931200D01*
X79304000Y35511680D01*
X82557740Y30931200D02*
X83254000Y30931200D01*
X83254000Y30931200D02*
X83254000Y29981551D01*
X83254000Y29981551D02*
X82557740Y29981551D01*
X82557740Y29981551D02*
X82557740Y30931200D01*
G36*
X83254000Y29981551D02*
G01*
X82557740Y29981551D01*
X82557740Y30931200D01*
X83254000Y30931200D01*
X83254000Y29981551D01*
G37*
X83254000Y29981551D02*
X82557740Y29981551D01*
X82557740Y30931200D01*
X83254000Y30931200D01*
X83254000Y29981551D01*
X77601300Y23861200D02*
X77904000Y23861200D01*
X77904000Y23861200D02*
X77904000Y23421560D01*
X77904000Y23421560D02*
X77601300Y23421560D01*
X77601300Y23421560D02*
X77601300Y23861200D01*
G36*
X77904000Y23421560D02*
G01*
X77601300Y23421560D01*
X77601300Y23861200D01*
X77904000Y23861200D01*
X77904000Y23421560D01*
G37*
X77904000Y23421560D02*
X77601300Y23421560D01*
X77601300Y23861200D01*
X77904000Y23861200D01*
X77904000Y23421560D01*
X75450260Y34331200D02*
X76154000Y34331200D01*
X76154000Y34331200D02*
X76154000Y33384750D01*
X76154000Y33384750D02*
X75450260Y33384750D01*
X75450260Y33384750D02*
X75450260Y34331200D01*
G36*
X76154000Y33384750D02*
G01*
X75450260Y33384750D01*
X75450260Y34331200D01*
X76154000Y34331200D01*
X76154000Y33384750D01*
G37*
X76154000Y33384750D02*
X75450260Y33384750D01*
X75450260Y34331200D01*
X76154000Y34331200D01*
X76154000Y33384750D01*
X74114590Y34996200D02*
X74419000Y34996200D01*
X74419000Y34996200D02*
X74419000Y34570320D01*
X74419000Y34570320D02*
X74114590Y34570320D01*
X74114590Y34570320D02*
X74114590Y34996200D01*
G36*
X74419000Y34570320D02*
G01*
X74114590Y34570320D01*
X74114590Y34996200D01*
X74419000Y34996200D01*
X74419000Y34570320D01*
G37*
X74419000Y34570320D02*
X74114590Y34570320D01*
X74114590Y34996200D01*
X74419000Y34996200D01*
X74419000Y34570320D01*
X74115260Y31796200D02*
X74419000Y31796200D01*
X74419000Y31796200D02*
X74419000Y31367400D01*
X74419000Y31367400D02*
X74115260Y31367400D01*
X74115260Y31367400D02*
X74115260Y31796200D01*
G36*
X74419000Y31367400D02*
G01*
X74115260Y31367400D01*
X74115260Y31796200D01*
X74419000Y31796200D01*
X74419000Y31367400D01*
G37*
X74419000Y31367400D02*
X74115260Y31367400D01*
X74115260Y31796200D01*
X74419000Y31796200D01*
X74419000Y31367400D01*
X81256080Y34331200D02*
X81954000Y34331200D01*
X81954000Y34331200D02*
X81954000Y33385250D01*
X81954000Y33385250D02*
X81256080Y33385250D01*
X81256080Y33385250D02*
X81256080Y34331200D01*
G36*
X81954000Y33385250D02*
G01*
X81256080Y33385250D01*
X81256080Y34331200D01*
X81954000Y34331200D01*
X81954000Y33385250D01*
G37*
X81954000Y33385250D02*
X81256080Y33385250D01*
X81256080Y34331200D01*
X81954000Y34331200D01*
X81954000Y33385250D01*
X74116690Y30396200D02*
X74419000Y30396200D01*
X74419000Y30396200D02*
X74419000Y29966326D01*
X74419000Y29966326D02*
X74116690Y29966326D01*
X74116690Y29966326D02*
X74116690Y30396200D01*
G36*
X74419000Y29966326D02*
G01*
X74116690Y29966326D01*
X74116690Y30396200D01*
X74419000Y30396200D01*
X74419000Y29966326D01*
G37*
X74419000Y29966326D02*
X74116690Y29966326D01*
X74116690Y30396200D01*
X74419000Y30396200D01*
X74419000Y29966326D01*
X84823350Y24796200D02*
X85119000Y24796200D01*
X85119000Y24796200D02*
X85119000Y24361970D01*
X85119000Y24361970D02*
X84823350Y24361970D01*
X84823350Y24361970D02*
X84823350Y24796200D01*
G36*
X85119000Y24361970D02*
G01*
X84823350Y24361970D01*
X84823350Y24796200D01*
X85119000Y24796200D01*
X85119000Y24361970D01*
G37*
X85119000Y24361970D02*
X84823350Y24361970D01*
X84823350Y24796200D01*
X85119000Y24796200D01*
X85119000Y24361970D01*
X74799630Y23861200D02*
X75104000Y23861200D01*
X75104000Y23861200D02*
X75104000Y23425190D01*
X75104000Y23425190D02*
X74799630Y23425190D01*
X74799630Y23425190D02*
X74799630Y23861200D01*
G36*
X75104000Y23425190D02*
G01*
X74799630Y23425190D01*
X74799630Y23861200D01*
X75104000Y23861200D01*
X75104000Y23425190D01*
G37*
X75104000Y23425190D02*
X74799630Y23425190D01*
X74799630Y23861200D01*
X75104000Y23861200D01*
X75104000Y23425190D01*
X82204270Y23861200D02*
X82504000Y23861200D01*
X82504000Y23861200D02*
X82504000Y23430620D01*
X82504000Y23430620D02*
X82204270Y23430620D01*
X82204270Y23430620D02*
X82204270Y23861200D01*
G36*
X82504000Y23430620D02*
G01*
X82204270Y23430620D01*
X82204270Y23861200D01*
X82504000Y23861200D01*
X82504000Y23430620D01*
G37*
X82504000Y23430620D02*
X82204270Y23430620D01*
X82204270Y23861200D01*
X82504000Y23861200D01*
X82504000Y23430620D01*
X73578750Y34996200D02*
X73889000Y34996200D01*
X73889000Y34996200D02*
X73889000Y34574880D01*
X73889000Y34574880D02*
X73578750Y34574880D01*
X73578750Y34574880D02*
X73578750Y34996200D01*
G36*
X73889000Y34574880D02*
G01*
X73578750Y34574880D01*
X73578750Y34996200D01*
X73889000Y34996200D01*
X73889000Y34574880D01*
G37*
X73889000Y34574880D02*
X73578750Y34574880D01*
X73578750Y34996200D01*
X73889000Y34996200D01*
X73889000Y34574880D01*
X84291390Y30396200D02*
X84589000Y30396200D01*
X84589000Y30396200D02*
X84589000Y29966338D01*
X84589000Y29966338D02*
X84291390Y29966338D01*
X84291390Y29966338D02*
X84291390Y30396200D01*
G36*
X84589000Y29966338D02*
G01*
X84291390Y29966338D01*
X84291390Y30396200D01*
X84589000Y30396200D01*
X84589000Y29966338D01*
G37*
X84589000Y29966338D02*
X84291390Y29966338D01*
X84291390Y30396200D01*
X84589000Y30396200D01*
X84589000Y29966338D01*
X74110310Y27996200D02*
X74419000Y27996200D01*
X74419000Y27996200D02*
X74419000Y27562690D01*
X74419000Y27562690D02*
X74110310Y27562690D01*
X74110310Y27562690D02*
X74110310Y27996200D01*
G36*
X74419000Y27562690D02*
G01*
X74110310Y27562690D01*
X74110310Y27996200D01*
X74419000Y27996200D01*
X74419000Y27562690D01*
G37*
X74419000Y27562690D02*
X74110310Y27562690D01*
X74110310Y27996200D01*
X74419000Y27996200D01*
X74419000Y27562690D01*
X84293600Y29396200D02*
X84589000Y29396200D01*
X84589000Y29396200D02*
X84589000Y28965534D01*
X84589000Y28965534D02*
X84293600Y28965534D01*
X84293600Y28965534D02*
X84293600Y29396200D01*
G36*
X84589000Y28965534D02*
G01*
X84293600Y28965534D01*
X84293600Y29396200D01*
X84589000Y29396200D01*
X84589000Y28965534D01*
G37*
X84589000Y28965534D02*
X84293600Y28965534D01*
X84293600Y29396200D01*
X84589000Y29396200D01*
X84589000Y28965534D01*
X84829610Y30396200D02*
X85119000Y30396200D01*
X85119000Y30396200D02*
X85119000Y29966753D01*
X85119000Y29966753D02*
X84829610Y29966753D01*
X84829610Y29966753D02*
X84829610Y30396200D01*
G36*
X85119000Y29966753D02*
G01*
X84829610Y29966753D01*
X84829610Y30396200D01*
X85119000Y30396200D01*
X85119000Y29966753D01*
G37*
X85119000Y29966753D02*
X84829610Y29966753D01*
X84829610Y30396200D01*
X85119000Y30396200D01*
X85119000Y29966753D01*
X74113380Y27596200D02*
X74419000Y27596200D01*
X74419000Y27596200D02*
X74419000Y27163500D01*
X74419000Y27163500D02*
X74113380Y27163500D01*
X74113380Y27163500D02*
X74113380Y27596200D01*
G36*
X74419000Y27163500D02*
G01*
X74113380Y27163500D01*
X74113380Y27596200D01*
X74419000Y27596200D01*
X74419000Y27163500D01*
G37*
X74419000Y27163500D02*
X74113380Y27163500D01*
X74113380Y27596200D01*
X74419000Y27596200D01*
X74419000Y27163500D01*
X75449390Y32781200D02*
X76154000Y32781200D01*
X76154000Y32781200D02*
X76154000Y31833740D01*
X76154000Y31833740D02*
X75449390Y31833740D01*
X75449390Y31833740D02*
X75449390Y32781200D01*
G36*
X76154000Y31833740D02*
G01*
X75449390Y31833740D01*
X75449390Y32781200D01*
X76154000Y32781200D01*
X76154000Y31833740D01*
G37*
X76154000Y31833740D02*
X75449390Y31833740D01*
X75449390Y32781200D01*
X76154000Y32781200D01*
X76154000Y31833740D01*
X74799840Y36461200D02*
X75104000Y36461200D01*
X75104000Y36461200D02*
X75104000Y36037010D01*
X75104000Y36037010D02*
X74799840Y36037010D01*
X74799840Y36037010D02*
X74799840Y36461200D01*
G36*
X75104000Y36037010D02*
G01*
X74799840Y36037010D01*
X74799840Y36461200D01*
X75104000Y36461200D01*
X75104000Y36037010D01*
G37*
X75104000Y36037010D02*
X74799840Y36037010D01*
X74799840Y36461200D01*
X75104000Y36461200D01*
X75104000Y36037010D01*
X84827480Y26196200D02*
X85119000Y26196200D01*
X85119000Y26196200D02*
X85119000Y25760130D01*
X85119000Y25760130D02*
X84827480Y25760130D01*
X84827480Y25760130D02*
X84827480Y26196200D01*
G36*
X85119000Y25760130D02*
G01*
X84827480Y25760130D01*
X84827480Y26196200D01*
X85119000Y26196200D01*
X85119000Y25760130D01*
G37*
X85119000Y25760130D02*
X84827480Y25760130D01*
X84827480Y26196200D01*
X85119000Y26196200D01*
X85119000Y25760130D01*
X80805650Y23861200D02*
X81104000Y23861200D01*
X81104000Y23861200D02*
X81104000Y23424100D01*
X81104000Y23424100D02*
X80805650Y23424100D01*
X80805650Y23424100D02*
X80805650Y23861200D01*
G36*
X81104000Y23424100D02*
G01*
X80805650Y23424100D01*
X80805650Y23861200D01*
X81104000Y23861200D01*
X81104000Y23424100D01*
G37*
X81104000Y23424100D02*
X80805650Y23424100D01*
X80805650Y23861200D01*
X81104000Y23861200D01*
X81104000Y23424100D01*
X78352910Y34331200D02*
X79054000Y34331200D01*
X79054000Y34331200D02*
X79054000Y33385240D01*
X79054000Y33385240D02*
X78352910Y33385240D01*
X78352910Y33385240D02*
X78352910Y34331200D01*
G36*
X79054000Y33385240D02*
G01*
X78352910Y33385240D01*
X78352910Y34331200D01*
X79054000Y34331200D01*
X79054000Y33385240D01*
G37*
X79054000Y33385240D02*
X78352910Y33385240D01*
X78352910Y34331200D01*
X79054000Y34331200D01*
X79054000Y33385240D01*
X76600330Y23331200D02*
X76904000Y23331200D01*
X76904000Y23331200D02*
X76904000Y22892150D01*
X76904000Y22892150D02*
X76600330Y22892150D01*
X76600330Y22892150D02*
X76600330Y23331200D01*
G36*
X76904000Y22892150D02*
G01*
X76600330Y22892150D01*
X76600330Y23331200D01*
X76904000Y23331200D01*
X76904000Y22892150D01*
G37*
X76904000Y22892150D02*
X76600330Y22892150D01*
X76600330Y23331200D01*
X76904000Y23331200D01*
X76904000Y22892150D01*
X81805650Y23861200D02*
X82104000Y23861200D01*
X82104000Y23861200D02*
X82104000Y23427000D01*
X82104000Y23427000D02*
X81805650Y23427000D01*
X81805650Y23427000D02*
X81805650Y23861200D01*
G36*
X82104000Y23427000D02*
G01*
X81805650Y23427000D01*
X81805650Y23861200D01*
X82104000Y23861200D01*
X82104000Y23427000D01*
G37*
X82104000Y23427000D02*
X81805650Y23427000D01*
X81805650Y23861200D01*
X82104000Y23861200D01*
X82104000Y23427000D01*
X79654308Y34331200D02*
X80354000Y34331200D01*
X80354000Y34331200D02*
X80354000Y33385000D01*
X80354000Y33385000D02*
X79654308Y33385000D01*
X79654308Y33385000D02*
X79654308Y34331200D01*
G36*
X80354000Y33385000D02*
G01*
X79654308Y33385000D01*
X79654308Y34331200D01*
X80354000Y34331200D01*
X80354000Y33385000D01*
G37*
X80354000Y33385000D02*
X79654308Y33385000D01*
X79654308Y34331200D01*
X80354000Y34331200D01*
X80354000Y33385000D01*
X79654593Y32781200D02*
X80354000Y32781200D01*
X80354000Y32781200D02*
X80354000Y31835450D01*
X80354000Y31835450D02*
X79654593Y31835450D01*
X79654593Y31835450D02*
X79654593Y32781200D01*
G36*
X80354000Y31835450D02*
G01*
X79654593Y31835450D01*
X79654593Y32781200D01*
X80354000Y32781200D01*
X80354000Y31835450D01*
G37*
X80354000Y31835450D02*
X79654593Y31835450D01*
X79654593Y32781200D01*
X80354000Y32781200D01*
X80354000Y31835450D01*
X78353410Y32781200D02*
X79054000Y32781200D01*
X79054000Y32781200D02*
X79054000Y31832470D01*
X79054000Y31832470D02*
X78353410Y31832470D01*
X78353410Y31832470D02*
X78353410Y32781200D01*
G36*
X79054000Y31832470D02*
G01*
X78353410Y31832470D01*
X78353410Y32781200D01*
X79054000Y32781200D01*
X79054000Y31832470D01*
G37*
X79054000Y31832470D02*
X78353410Y31832470D01*
X78353410Y32781200D01*
X79054000Y32781200D01*
X79054000Y31832470D01*
X75449370Y27531200D02*
X76154000Y27531200D01*
X76154000Y27531200D02*
X76154000Y26577520D01*
X76154000Y26577520D02*
X75449370Y26577520D01*
X75449370Y26577520D02*
X75449370Y27531200D01*
G36*
X76154000Y26577520D02*
G01*
X75449370Y26577520D01*
X75449370Y27531200D01*
X76154000Y27531200D01*
X76154000Y26577520D01*
G37*
X76154000Y26577520D02*
X75449370Y26577520D01*
X75449370Y27531200D01*
X76154000Y27531200D01*
X76154000Y26577520D01*
X79003950Y23861200D02*
X79304000Y23861200D01*
X79304000Y23861200D02*
X79304000Y23430300D01*
X79304000Y23430300D02*
X79003950Y23430300D01*
X79003950Y23430300D02*
X79003950Y23861200D01*
G36*
X79304000Y23430300D02*
G01*
X79003950Y23430300D01*
X79003950Y23861200D01*
X79304000Y23861200D01*
X79304000Y23430300D01*
G37*
X79304000Y23430300D02*
X79003950Y23430300D01*
X79003950Y23861200D01*
X79304000Y23861200D01*
X79304000Y23430300D01*
X73585610Y27596200D02*
X73889000Y27596200D01*
X73889000Y27596200D02*
X73889000Y27164720D01*
X73889000Y27164720D02*
X73585610Y27164720D01*
X73585610Y27164720D02*
X73585610Y27596200D01*
G36*
X73889000Y27164720D02*
G01*
X73585610Y27164720D01*
X73585610Y27596200D01*
X73889000Y27596200D01*
X73889000Y27164720D01*
G37*
X73889000Y27164720D02*
X73585610Y27164720D01*
X73585610Y27596200D01*
X73889000Y27596200D01*
X73889000Y27164720D01*
X80806460Y35931200D02*
X81104000Y35931200D01*
X81104000Y35931200D02*
X81104000Y35511060D01*
X81104000Y35511060D02*
X80806460Y35511060D01*
X80806460Y35511060D02*
X80806460Y35931200D01*
G36*
X81104000Y35511060D02*
G01*
X80806460Y35511060D01*
X80806460Y35931200D01*
X81104000Y35931200D01*
X81104000Y35511060D01*
G37*
X81104000Y35511060D02*
X80806460Y35511060D01*
X80806460Y35931200D01*
X81104000Y35931200D01*
X81104000Y35511060D01*
X84820740Y28996200D02*
X85119000Y28996200D01*
X85119000Y28996200D02*
X85119000Y28565850D01*
X85119000Y28565850D02*
X84820740Y28565850D01*
X84820740Y28565850D02*
X84820740Y28996200D01*
G36*
X85119000Y28565850D02*
G01*
X84820740Y28565850D01*
X84820740Y28996200D01*
X85119000Y28996200D01*
X85119000Y28565850D01*
G37*
X85119000Y28565850D02*
X84820740Y28565850D01*
X84820740Y28996200D01*
X85119000Y28996200D01*
X85119000Y28565850D01*
X74113460Y30796200D02*
X74419000Y30796200D01*
X74419000Y30796200D02*
X74419000Y30366925D01*
X74419000Y30366925D02*
X74113460Y30366925D01*
X74113460Y30366925D02*
X74113460Y30796200D01*
G36*
X74419000Y30366925D02*
G01*
X74113460Y30366925D01*
X74113460Y30796200D01*
X74419000Y30796200D01*
X74419000Y30366925D01*
G37*
X74419000Y30366925D02*
X74113460Y30366925D01*
X74113460Y30796200D01*
X74419000Y30796200D01*
X74419000Y30366925D01*
X82558710Y34331200D02*
X83254000Y34331200D01*
X83254000Y34331200D02*
X83254000Y33386650D01*
X83254000Y33386650D02*
X82558710Y33386650D01*
X82558710Y33386650D02*
X82558710Y34331200D01*
G36*
X83254000Y33386650D02*
G01*
X82558710Y33386650D01*
X82558710Y34331200D01*
X83254000Y34331200D01*
X83254000Y33386650D01*
G37*
X83254000Y33386650D02*
X82558710Y33386650D01*
X82558710Y34331200D01*
X83254000Y34331200D01*
X83254000Y33386650D01*
X84823880Y26596200D02*
X85119000Y26596200D01*
X85119000Y26596200D02*
X85119000Y26163060D01*
X85119000Y26163060D02*
X84823880Y26163060D01*
X84823880Y26163060D02*
X84823880Y26596200D01*
G36*
X85119000Y26163060D02*
G01*
X84823880Y26163060D01*
X84823880Y26596200D01*
X85119000Y26596200D01*
X85119000Y26163060D01*
G37*
X85119000Y26163060D02*
X84823880Y26163060D01*
X84823880Y26596200D01*
X85119000Y26596200D01*
X85119000Y26163060D01*
X78352830Y25981200D02*
X79054000Y25981200D01*
X79054000Y25981200D02*
X79054000Y25025770D01*
X79054000Y25025770D02*
X78352830Y25025770D01*
X78352830Y25025770D02*
X78352830Y25981200D01*
G36*
X79054000Y25025770D02*
G01*
X78352830Y25025770D01*
X78352830Y25981200D01*
X79054000Y25981200D01*
X79054000Y25025770D01*
G37*
X79054000Y25025770D02*
X78352830Y25025770D01*
X78352830Y25981200D01*
X79054000Y25981200D01*
X79054000Y25025770D01*
X84821610Y27996200D02*
X85119000Y27996200D01*
X85119000Y27996200D02*
X85119000Y27565190D01*
X85119000Y27565190D02*
X84821610Y27565190D01*
X84821610Y27565190D02*
X84821610Y27996200D01*
G36*
X85119000Y27565190D02*
G01*
X84821610Y27565190D01*
X84821610Y27996200D01*
X85119000Y27996200D01*
X85119000Y27565190D01*
G37*
X85119000Y27565190D02*
X84821610Y27565190D01*
X84821610Y27996200D01*
X85119000Y27996200D01*
X85119000Y27565190D01*
X73585420Y26596200D02*
X73889000Y26596200D01*
X73889000Y26596200D02*
X73889000Y26164020D01*
X73889000Y26164020D02*
X73585420Y26164020D01*
X73585420Y26164020D02*
X73585420Y26596200D01*
G36*
X73889000Y26164020D02*
G01*
X73585420Y26164020D01*
X73585420Y26596200D01*
X73889000Y26596200D01*
X73889000Y26164020D01*
G37*
X73889000Y26164020D02*
X73585420Y26164020D01*
X73585420Y26596200D01*
X73889000Y26596200D01*
X73889000Y26164020D01*
X76751630Y34331200D02*
X77454000Y34331200D01*
X77454000Y34331200D02*
X77454000Y33384570D01*
X77454000Y33384570D02*
X76751630Y33384570D01*
X76751630Y33384570D02*
X76751630Y34331200D01*
G36*
X77454000Y33384570D02*
G01*
X76751630Y33384570D01*
X76751630Y34331200D01*
X77454000Y34331200D01*
X77454000Y33384570D01*
G37*
X77454000Y33384570D02*
X76751630Y33384570D01*
X76751630Y34331200D01*
X77454000Y34331200D01*
X77454000Y33384570D01*
X84290310Y26596200D02*
X84589000Y26596200D01*
X84589000Y26596200D02*
X84589000Y26165270D01*
X84589000Y26165270D02*
X84290310Y26165270D01*
X84290310Y26165270D02*
X84290310Y26596200D01*
G36*
X84589000Y26165270D02*
G01*
X84290310Y26165270D01*
X84290310Y26596200D01*
X84589000Y26596200D01*
X84589000Y26165270D01*
G37*
X84589000Y26165270D02*
X84290310Y26165270D01*
X84290310Y26596200D01*
X84589000Y26596200D01*
X84589000Y26165270D01*
X78001330Y36461200D02*
X78304000Y36461200D01*
X78304000Y36461200D02*
X78304000Y36043780D01*
X78304000Y36043780D02*
X78001330Y36043780D01*
X78001330Y36043780D02*
X78001330Y36461200D01*
G36*
X78304000Y36043780D02*
G01*
X78001330Y36043780D01*
X78001330Y36461200D01*
X78304000Y36461200D01*
X78304000Y36043780D01*
G37*
X78304000Y36043780D02*
X78001330Y36043780D01*
X78001330Y36461200D01*
X78304000Y36461200D01*
X78304000Y36043780D01*
X76751610Y29381200D02*
X77454000Y29381200D01*
X77454000Y29381200D02*
X77454000Y28430050D01*
X77454000Y28430050D02*
X76751610Y28430050D01*
X76751610Y28430050D02*
X76751610Y29381200D01*
G36*
X77454000Y28430050D02*
G01*
X76751610Y28430050D01*
X76751610Y29381200D01*
X77454000Y29381200D01*
X77454000Y28430050D01*
G37*
X77454000Y28430050D02*
X76751610Y28430050D01*
X76751610Y29381200D01*
X77454000Y29381200D01*
X77454000Y28430050D01*
X77603470Y36461200D02*
X77904000Y36461200D01*
X77904000Y36461200D02*
X77904000Y36033110D01*
X77904000Y36033110D02*
X77603470Y36033110D01*
X77603470Y36033110D02*
X77603470Y36461200D01*
G36*
X77904000Y36033110D02*
G01*
X77603470Y36033110D01*
X77603470Y36461200D01*
X77904000Y36461200D01*
X77904000Y36033110D01*
G37*
X77904000Y36033110D02*
X77603470Y36033110D01*
X77603470Y36461200D01*
X77904000Y36461200D01*
X77904000Y36033110D01*
X82557190Y27531200D02*
X83254000Y27531200D01*
X83254000Y27531200D02*
X83254000Y26578110D01*
X83254000Y26578110D02*
X82557190Y26578110D01*
X82557190Y26578110D02*
X82557190Y27531200D01*
G36*
X83254000Y26578110D02*
G01*
X82557190Y26578110D01*
X82557190Y27531200D01*
X83254000Y27531200D01*
X83254000Y26578110D01*
G37*
X83254000Y26578110D02*
X82557190Y26578110D01*
X82557190Y27531200D01*
X83254000Y27531200D01*
X83254000Y26578110D01*
X73580130Y30396200D02*
X73889000Y30396200D01*
X73889000Y30396200D02*
X73889000Y29966639D01*
X73889000Y29966639D02*
X73580130Y29966639D01*
X73580130Y29966639D02*
X73580130Y30396200D01*
G36*
X73889000Y29966639D02*
G01*
X73580130Y29966639D01*
X73580130Y30396200D01*
X73889000Y30396200D01*
X73889000Y29966639D01*
G37*
X73889000Y29966639D02*
X73580130Y29966639D01*
X73580130Y30396200D01*
X73889000Y30396200D01*
X73889000Y29966639D01*
X73587150Y31796200D02*
X73889000Y31796200D01*
X73889000Y31796200D02*
X73889000Y31366740D01*
X73889000Y31366740D02*
X73587150Y31366740D01*
X73587150Y31366740D02*
X73587150Y31796200D01*
G36*
X73889000Y31366740D02*
G01*
X73587150Y31366740D01*
X73587150Y31796200D01*
X73889000Y31796200D01*
X73889000Y31366740D01*
G37*
X73889000Y31366740D02*
X73587150Y31366740D01*
X73587150Y31796200D01*
X73889000Y31796200D01*
X73889000Y31366740D01*
X79654488Y27531200D02*
X80354000Y27531200D01*
X80354000Y27531200D02*
X80354000Y26576150D01*
X80354000Y26576150D02*
X79654488Y26576150D01*
X79654488Y26576150D02*
X79654488Y27531200D01*
G36*
X80354000Y26576150D02*
G01*
X79654488Y26576150D01*
X79654488Y27531200D01*
X80354000Y27531200D01*
X80354000Y26576150D01*
G37*
X80354000Y26576150D02*
X79654488Y26576150D01*
X79654488Y27531200D01*
X80354000Y27531200D01*
X80354000Y26576150D01*
X78002500Y23331200D02*
X78304000Y23331200D01*
X78304000Y23331200D02*
X78304000Y22893670D01*
X78304000Y22893670D02*
X78002500Y22893670D01*
X78002500Y22893670D02*
X78002500Y23331200D01*
G36*
X78304000Y22893670D02*
G01*
X78002500Y22893670D01*
X78002500Y23331200D01*
X78304000Y23331200D01*
X78304000Y22893670D01*
G37*
X78304000Y22893670D02*
X78002500Y22893670D01*
X78002500Y23331200D01*
X78304000Y23331200D01*
X78304000Y22893670D01*
X82556030Y25981200D02*
X83254000Y25981200D01*
X83254000Y25981200D02*
X83254000Y25028250D01*
X83254000Y25028250D02*
X82556030Y25028250D01*
X82556030Y25028250D02*
X82556030Y25981200D01*
G36*
X83254000Y25028250D02*
G01*
X82556030Y25028250D01*
X82556030Y25981200D01*
X83254000Y25981200D01*
X83254000Y25028250D01*
G37*
X83254000Y25028250D02*
X82556030Y25028250D01*
X82556030Y25981200D01*
X83254000Y25981200D01*
X83254000Y25028250D01*
X81256220Y32781200D02*
X81954000Y32781200D01*
X81954000Y32781200D02*
X81954000Y31833720D01*
X81954000Y31833720D02*
X81256220Y31833720D01*
X81256220Y31833720D02*
X81256220Y32781200D01*
G36*
X81954000Y31833720D02*
G01*
X81256220Y31833720D01*
X81256220Y32781200D01*
X81954000Y32781200D01*
X81954000Y31833720D01*
G37*
X81954000Y31833720D02*
X81256220Y31833720D01*
X81256220Y32781200D01*
X81954000Y32781200D01*
X81954000Y31833720D01*
X75451460Y29381200D02*
X76154000Y29381200D01*
X76154000Y29381200D02*
X76154000Y28430380D01*
X76154000Y28430380D02*
X75451460Y28430380D01*
X75451460Y28430380D02*
X75451460Y29381200D01*
G36*
X76154000Y28430380D02*
G01*
X75451460Y28430380D01*
X75451460Y29381200D01*
X76154000Y29381200D01*
X76154000Y28430380D01*
G37*
X76154000Y28430380D02*
X75451460Y28430380D01*
X75451460Y29381200D01*
X76154000Y29381200D01*
X76154000Y28430380D01*
X76200350Y23331200D02*
X76504000Y23331200D01*
X76504000Y23331200D02*
X76504000Y22893350D01*
X76504000Y22893350D02*
X76200350Y22893350D01*
X76200350Y22893350D02*
X76200350Y23331200D01*
G36*
X76504000Y22893350D02*
G01*
X76200350Y22893350D01*
X76200350Y23331200D01*
X76504000Y23331200D01*
X76504000Y22893350D01*
G37*
X76504000Y22893350D02*
X76200350Y22893350D01*
X76200350Y23331200D01*
X76504000Y23331200D01*
X76504000Y22893350D01*
X74110030Y24796200D02*
X74419000Y24796200D01*
X74419000Y24796200D02*
X74419000Y24357090D01*
X74419000Y24357090D02*
X74110030Y24357090D01*
X74110030Y24357090D02*
X74110030Y24796200D01*
G36*
X74419000Y24357090D02*
G01*
X74110030Y24357090D01*
X74110030Y24796200D01*
X74419000Y24796200D01*
X74419000Y24357090D01*
G37*
X74419000Y24357090D02*
X74110030Y24357090D01*
X74110030Y24796200D01*
X74419000Y24796200D01*
X74419000Y24357090D01*
X74109870Y29396200D02*
X74419000Y29396200D01*
X74419000Y29396200D02*
X74419000Y28964953D01*
X74419000Y28964953D02*
X74109870Y28964953D01*
X74109870Y28964953D02*
X74109870Y29396200D01*
G36*
X74419000Y28964953D02*
G01*
X74109870Y28964953D01*
X74109870Y29396200D01*
X74419000Y29396200D01*
X74419000Y28964953D01*
G37*
X74419000Y28964953D02*
X74109870Y28964953D01*
X74109870Y29396200D01*
X74419000Y29396200D01*
X74419000Y28964953D01*
X81807430Y35931200D02*
X82104000Y35931200D01*
X82104000Y35931200D02*
X82104000Y35509350D01*
X82104000Y35509350D02*
X81807430Y35509350D01*
X81807430Y35509350D02*
X81807430Y35931200D01*
G36*
X82104000Y35509350D02*
G01*
X81807430Y35509350D01*
X81807430Y35931200D01*
X82104000Y35931200D01*
X82104000Y35509350D01*
G37*
X82104000Y35509350D02*
X81807430Y35509350D01*
X81807430Y35931200D01*
X82104000Y35931200D01*
X82104000Y35509350D01*
X74798600Y35931200D02*
X75104000Y35931200D01*
X75104000Y35931200D02*
X75104000Y35508100D01*
X75104000Y35508100D02*
X74798600Y35508100D01*
X74798600Y35508100D02*
X74798600Y35931200D01*
G36*
X75104000Y35508100D02*
G01*
X74798600Y35508100D01*
X74798600Y35931200D01*
X75104000Y35931200D01*
X75104000Y35508100D01*
G37*
X75104000Y35508100D02*
X74798600Y35508100D01*
X74798600Y35931200D01*
X75104000Y35931200D01*
X75104000Y35508100D01*
X76202750Y23861200D02*
X76504000Y23861200D01*
X76504000Y23861200D02*
X76504000Y23428720D01*
X76504000Y23428720D02*
X76202750Y23428720D01*
X76202750Y23428720D02*
X76202750Y23861200D01*
G36*
X76504000Y23428720D02*
G01*
X76202750Y23428720D01*
X76202750Y23861200D01*
X76504000Y23861200D01*
X76504000Y23428720D01*
G37*
X76504000Y23428720D02*
X76202750Y23428720D01*
X76202750Y23861200D01*
X76504000Y23861200D01*
X76504000Y23428720D01*
X73578620Y32196200D02*
X73889000Y32196200D01*
X73889000Y32196200D02*
X73889000Y31769950D01*
X73889000Y31769950D02*
X73578620Y31769950D01*
X73578620Y31769950D02*
X73578620Y32196200D01*
G36*
X73889000Y31769950D02*
G01*
X73578620Y31769950D01*
X73578620Y32196200D01*
X73889000Y32196200D01*
X73889000Y31769950D01*
G37*
X73889000Y31769950D02*
X73578620Y31769950D01*
X73578620Y32196200D01*
X73889000Y32196200D01*
X73889000Y31769950D01*
X73588110Y30796200D02*
X73889000Y30796200D01*
X73889000Y30796200D02*
X73889000Y30366306D01*
X73889000Y30366306D02*
X73588110Y30366306D01*
X73588110Y30366306D02*
X73588110Y30796200D01*
G36*
X73889000Y30366306D02*
G01*
X73588110Y30366306D01*
X73588110Y30796200D01*
X73889000Y30796200D01*
X73889000Y30366306D01*
G37*
X73889000Y30366306D02*
X73588110Y30366306D01*
X73588110Y30796200D01*
X73889000Y30796200D01*
X73889000Y30366306D01*
X81807240Y36461200D02*
X82104000Y36461200D01*
X82104000Y36461200D02*
X82104000Y36039610D01*
X82104000Y36039610D02*
X81807240Y36039610D01*
X81807240Y36039610D02*
X81807240Y36461200D01*
G36*
X82104000Y36039610D02*
G01*
X81807240Y36039610D01*
X81807240Y36461200D01*
X82104000Y36461200D01*
X82104000Y36039610D01*
G37*
X82104000Y36039610D02*
X81807240Y36039610D01*
X81807240Y36461200D01*
X82104000Y36461200D01*
X82104000Y36039610D01*
X84294660Y25196200D02*
X84589000Y25196200D01*
X84589000Y25196200D02*
X84589000Y24760560D01*
X84589000Y24760560D02*
X84294660Y24760560D01*
X84294660Y24760560D02*
X84294660Y25196200D01*
G36*
X84589000Y24760560D02*
G01*
X84294660Y24760560D01*
X84294660Y25196200D01*
X84589000Y25196200D01*
X84589000Y24760560D01*
G37*
X84589000Y24760560D02*
X84294660Y24760560D01*
X84294660Y25196200D01*
X84589000Y25196200D01*
X84589000Y24760560D01*
X84291450Y30796200D02*
X84589000Y30796200D01*
X84589000Y30796200D02*
X84589000Y30366540D01*
X84589000Y30366540D02*
X84291450Y30366540D01*
X84291450Y30366540D02*
X84291450Y30796200D01*
G36*
X84589000Y30366540D02*
G01*
X84291450Y30366540D01*
X84291450Y30796200D01*
X84589000Y30796200D01*
X84589000Y30366540D01*
G37*
X84589000Y30366540D02*
X84291450Y30366540D01*
X84291450Y30796200D01*
X84589000Y30796200D01*
X84589000Y30366540D01*
X78352400Y27531200D02*
X79054000Y27531200D01*
X79054000Y27531200D02*
X79054000Y26576230D01*
X79054000Y26576230D02*
X78352400Y26576230D01*
X78352400Y26576230D02*
X78352400Y27531200D01*
G36*
X79054000Y26576230D02*
G01*
X78352400Y26576230D01*
X78352400Y27531200D01*
X79054000Y27531200D01*
X79054000Y26576230D01*
G37*
X79054000Y26576230D02*
X78352400Y26576230D01*
X78352400Y27531200D01*
X79054000Y27531200D01*
X79054000Y26576230D01*
X79654477Y30931200D02*
X80354000Y30931200D01*
X80354000Y30931200D02*
X80354000Y29981677D01*
X80354000Y29981677D02*
X79654477Y29981677D01*
X79654477Y29981677D02*
X79654477Y30931200D01*
G36*
X80354000Y29981677D02*
G01*
X79654477Y29981677D01*
X79654477Y30931200D01*
X80354000Y30931200D01*
X80354000Y29981677D01*
G37*
X80354000Y29981677D02*
X79654477Y29981677D01*
X79654477Y30931200D01*
X80354000Y30931200D01*
X80354000Y29981677D01*
X73580860Y24796200D02*
X73889000Y24796200D01*
X73889000Y24796200D02*
X73889000Y24358700D01*
X73889000Y24358700D02*
X73580860Y24358700D01*
X73580860Y24358700D02*
X73580860Y24796200D01*
G36*
X73889000Y24358700D02*
G01*
X73580860Y24358700D01*
X73580860Y24796200D01*
X73889000Y24796200D01*
X73889000Y24358700D01*
G37*
X73889000Y24358700D02*
X73580860Y24358700D01*
X73580860Y24796200D01*
X73889000Y24796200D01*
X73889000Y24358700D01*
X84829110Y25196200D02*
X85119000Y25196200D01*
X85119000Y25196200D02*
X85119000Y24757100D01*
X85119000Y24757100D02*
X84829110Y24757100D01*
X84829110Y24757100D02*
X84829110Y25196200D01*
G36*
X85119000Y24757100D02*
G01*
X84829110Y24757100D01*
X84829110Y25196200D01*
X85119000Y25196200D01*
X85119000Y24757100D01*
G37*
X85119000Y24757100D02*
X84829110Y24757100D01*
X84829110Y25196200D01*
X85119000Y25196200D01*
X85119000Y24757100D01*
X76201070Y36461200D02*
X76504000Y36461200D01*
X76504000Y36461200D02*
X76504000Y36037100D01*
X76504000Y36037100D02*
X76201070Y36037100D01*
X76201070Y36037100D02*
X76201070Y36461200D01*
G36*
X76504000Y36037100D02*
G01*
X76201070Y36037100D01*
X76201070Y36461200D01*
X76504000Y36461200D01*
X76504000Y36037100D01*
G37*
X76504000Y36037100D02*
X76201070Y36037100D01*
X76201070Y36461200D01*
X76504000Y36461200D01*
X76504000Y36037100D01*
X75449270Y25981200D02*
X76154000Y25981200D01*
X76154000Y25981200D02*
X76154000Y25025560D01*
X76154000Y25025560D02*
X75449270Y25025560D01*
X75449270Y25025560D02*
X75449270Y25981200D01*
G36*
X76154000Y25025560D02*
G01*
X75449270Y25025560D01*
X75449270Y25981200D01*
X76154000Y25981200D01*
X76154000Y25025560D01*
G37*
X76154000Y25025560D02*
X75449270Y25025560D01*
X75449270Y25981200D01*
X76154000Y25981200D01*
X76154000Y25025560D01*
X84821800Y29396200D02*
X85119000Y29396200D01*
X85119000Y29396200D02*
X85119000Y28965834D01*
X85119000Y28965834D02*
X84821800Y28965834D01*
X84821800Y28965834D02*
X84821800Y29396200D01*
G36*
X85119000Y28965834D02*
G01*
X84821800Y28965834D01*
X84821800Y29396200D01*
X85119000Y29396200D01*
X85119000Y28965834D01*
G37*
X85119000Y28965834D02*
X84821800Y28965834D01*
X84821800Y29396200D01*
X85119000Y29396200D01*
X85119000Y28965834D01*
X78003030Y35931200D02*
X78304000Y35931200D01*
X78304000Y35931200D02*
X78304000Y35505360D01*
X78304000Y35505360D02*
X78003030Y35505360D01*
X78003030Y35505360D02*
X78003030Y35931200D01*
G36*
X78304000Y35505360D02*
G01*
X78003030Y35505360D01*
X78003030Y35931200D01*
X78304000Y35931200D01*
X78304000Y35505360D01*
G37*
X78304000Y35505360D02*
X78003030Y35505360D01*
X78003030Y35931200D01*
X78304000Y35931200D01*
X78304000Y35505360D01*
X84826070Y27596200D02*
X85119000Y27596200D01*
X85119000Y27596200D02*
X85119000Y27162940D01*
X85119000Y27162940D02*
X84826070Y27162940D01*
X84826070Y27162940D02*
X84826070Y27596200D01*
G36*
X85119000Y27162940D02*
G01*
X84826070Y27162940D01*
X84826070Y27596200D01*
X85119000Y27596200D01*
X85119000Y27162940D01*
G37*
X85119000Y27162940D02*
X84826070Y27162940D01*
X84826070Y27596200D01*
X85119000Y27596200D01*
X85119000Y27162940D01*
X74111000Y28996200D02*
X74419000Y28996200D01*
X74419000Y28996200D02*
X74419000Y28564500D01*
X74419000Y28564500D02*
X74111000Y28564500D01*
X74111000Y28564500D02*
X74111000Y28996200D01*
G36*
X74419000Y28564500D02*
G01*
X74111000Y28564500D01*
X74111000Y28996200D01*
X74419000Y28996200D01*
X74419000Y28564500D01*
G37*
X74419000Y28564500D02*
X74111000Y28564500D01*
X74111000Y28996200D01*
X74419000Y28996200D01*
X74419000Y28564500D01*
X84298290Y24796200D02*
X84589000Y24796200D01*
X84589000Y24796200D02*
X84589000Y24356190D01*
X84589000Y24356190D02*
X84298290Y24356190D01*
X84298290Y24356190D02*
X84298290Y24796200D01*
G36*
X84589000Y24356190D02*
G01*
X84298290Y24356190D01*
X84298290Y24796200D01*
X84589000Y24796200D01*
X84589000Y24356190D01*
G37*
X84589000Y24356190D02*
X84298290Y24356190D01*
X84298290Y24796200D01*
X84589000Y24796200D01*
X84589000Y24356190D01*
X80805250Y36461200D02*
X81104000Y36461200D01*
X81104000Y36461200D02*
X81104000Y36036680D01*
X81104000Y36036680D02*
X80805250Y36036680D01*
X80805250Y36036680D02*
X80805250Y36461200D01*
G36*
X81104000Y36036680D02*
G01*
X80805250Y36036680D01*
X80805250Y36461200D01*
X81104000Y36461200D01*
X81104000Y36036680D01*
G37*
X81104000Y36036680D02*
X80805250Y36036680D01*
X80805250Y36461200D01*
X81104000Y36461200D01*
X81104000Y36036680D01*
X75202900Y23331200D02*
X75504000Y23331200D01*
X75504000Y23331200D02*
X75504000Y22899400D01*
X75504000Y22899400D02*
X75202900Y22899400D01*
X75202900Y22899400D02*
X75202900Y23331200D01*
G36*
X75504000Y22899400D02*
G01*
X75202900Y22899400D01*
X75202900Y23331200D01*
X75504000Y23331200D01*
X75504000Y22899400D01*
G37*
X75504000Y22899400D02*
X75202900Y22899400D01*
X75202900Y23331200D01*
X75504000Y23331200D01*
X75504000Y22899400D01*
X75198810Y35931200D02*
X75504000Y35931200D01*
X75504000Y35931200D02*
X75504000Y35508480D01*
X75504000Y35508480D02*
X75198810Y35508480D01*
X75198810Y35508480D02*
X75198810Y35931200D01*
G36*
X75504000Y35508480D02*
G01*
X75198810Y35508480D01*
X75198810Y35931200D01*
X75504000Y35931200D01*
X75504000Y35508480D01*
G37*
X75504000Y35508480D02*
X75198810Y35508480D01*
X75198810Y35931200D01*
X75504000Y35931200D01*
X75504000Y35508480D01*
X74113670Y26596200D02*
X74419000Y26596200D01*
X74419000Y26596200D02*
X74419000Y26162620D01*
X74419000Y26162620D02*
X74113670Y26162620D01*
X74113670Y26162620D02*
X74113670Y26596200D01*
G36*
X74419000Y26162620D02*
G01*
X74113670Y26162620D01*
X74113670Y26596200D01*
X74419000Y26596200D01*
X74419000Y26162620D01*
G37*
X74419000Y26162620D02*
X74113670Y26162620D01*
X74113670Y26596200D01*
X74419000Y26596200D01*
X74419000Y26162620D01*
X81254020Y27531200D02*
X81954000Y27531200D01*
X81954000Y27531200D02*
X81954000Y26581170D01*
X81954000Y26581170D02*
X81254020Y26581170D01*
X81254020Y26581170D02*
X81254020Y27531200D01*
G36*
X81954000Y26581170D02*
G01*
X81254020Y26581170D01*
X81254020Y27531200D01*
X81954000Y27531200D01*
X81954000Y26581170D01*
G37*
X81954000Y26581170D02*
X81254020Y26581170D01*
X81254020Y27531200D01*
X81954000Y27531200D01*
X81954000Y26581170D01*
X80805130Y23331200D02*
X81104000Y23331200D01*
X81104000Y23331200D02*
X81104000Y22895900D01*
X81104000Y22895900D02*
X80805130Y22895900D01*
X80805130Y22895900D02*
X80805130Y23331200D01*
G36*
X81104000Y22895900D02*
G01*
X80805130Y22895900D01*
X80805130Y23331200D01*
X81104000Y23331200D01*
X81104000Y22895900D01*
G37*
X81104000Y22895900D02*
X80805130Y22895900D01*
X80805130Y23331200D01*
X81104000Y23331200D01*
X81104000Y22895900D01*
X84297320Y26196200D02*
X84589000Y26196200D01*
X84589000Y26196200D02*
X84589000Y25759600D01*
X84589000Y25759600D02*
X84297320Y25759600D01*
X84297320Y25759600D02*
X84297320Y26196200D01*
G36*
X84589000Y25759600D02*
G01*
X84297320Y25759600D01*
X84297320Y26196200D01*
X84589000Y26196200D01*
X84589000Y25759600D01*
G37*
X84589000Y25759600D02*
X84297320Y25759600D01*
X84297320Y26196200D01*
X84589000Y26196200D01*
X84589000Y25759600D01*
X75197560Y23861200D02*
X75504000Y23861200D01*
X75504000Y23861200D02*
X75504000Y23421500D01*
X75504000Y23421500D02*
X75197560Y23421500D01*
X75197560Y23421500D02*
X75197560Y23861200D01*
G36*
X75504000Y23421500D02*
G01*
X75197560Y23421500D01*
X75197560Y23861200D01*
X75504000Y23861200D01*
X75504000Y23421500D01*
G37*
X75504000Y23421500D02*
X75197560Y23421500D01*
X75197560Y23861200D01*
X75504000Y23861200D01*
X75504000Y23421500D01*
X84290520Y27996200D02*
X84589000Y27996200D01*
X84589000Y27996200D02*
X84589000Y27565550D01*
X84589000Y27565550D02*
X84290520Y27565550D01*
X84290520Y27565550D02*
X84290520Y27996200D01*
G36*
X84589000Y27565550D02*
G01*
X84290520Y27565550D01*
X84290520Y27996200D01*
X84589000Y27996200D01*
X84589000Y27565550D01*
G37*
X84589000Y27565550D02*
X84290520Y27565550D01*
X84290520Y27996200D01*
X84589000Y27996200D01*
X84589000Y27565550D01*
X74110140Y33596200D02*
X74419000Y33596200D01*
X74419000Y33596200D02*
X74419000Y33172100D01*
X74419000Y33172100D02*
X74110140Y33172100D01*
X74110140Y33172100D02*
X74110140Y33596200D01*
G36*
X74419000Y33172100D02*
G01*
X74110140Y33172100D01*
X74110140Y33596200D01*
X74419000Y33596200D01*
X74419000Y33172100D01*
G37*
X74419000Y33172100D02*
X74110140Y33172100D01*
X74110140Y33596200D01*
X74419000Y33596200D01*
X74419000Y33172100D01*
X76198720Y35931200D02*
X76504000Y35931200D01*
X76504000Y35931200D02*
X76504000Y35510960D01*
X76504000Y35510960D02*
X76198720Y35510960D01*
X76198720Y35510960D02*
X76198720Y35931200D01*
G36*
X76504000Y35510960D02*
G01*
X76198720Y35510960D01*
X76198720Y35931200D01*
X76504000Y35931200D01*
X76504000Y35510960D01*
G37*
X76504000Y35510960D02*
X76198720Y35510960D01*
X76198720Y35931200D01*
X76504000Y35931200D01*
X76504000Y35510960D01*
X73587860Y27996200D02*
X73889000Y27996200D01*
X73889000Y27996200D02*
X73889000Y27565780D01*
X73889000Y27565780D02*
X73587860Y27565780D01*
X73587860Y27565780D02*
X73587860Y27996200D01*
G36*
X73889000Y27565780D02*
G01*
X73587860Y27565780D01*
X73587860Y27996200D01*
X73889000Y27996200D01*
X73889000Y27565780D01*
G37*
X73889000Y27565780D02*
X73587860Y27565780D01*
X73587860Y27996200D01*
X73889000Y27996200D01*
X73889000Y27565780D01*
X73584390Y25196200D02*
X73889000Y25196200D01*
X73889000Y25196200D02*
X73889000Y24762270D01*
X73889000Y24762270D02*
X73584390Y24762270D01*
X73584390Y24762270D02*
X73584390Y25196200D01*
G36*
X73889000Y24762270D02*
G01*
X73584390Y24762270D01*
X73584390Y25196200D01*
X73889000Y25196200D01*
X73889000Y24762270D01*
G37*
X73889000Y24762270D02*
X73584390Y24762270D01*
X73584390Y25196200D01*
X73889000Y25196200D01*
X73889000Y24762270D01*
X79654021Y29381200D02*
X80354000Y29381200D01*
X80354000Y29381200D02*
X80354000Y28431110D01*
X80354000Y28431110D02*
X79654021Y28431110D01*
X79654021Y28431110D02*
X79654021Y29381200D01*
G36*
X80354000Y28431110D02*
G01*
X79654021Y28431110D01*
X79654021Y29381200D01*
X80354000Y29381200D01*
X80354000Y28431110D01*
G37*
X80354000Y28431110D02*
X79654021Y28431110D01*
X79654021Y29381200D01*
X80354000Y29381200D01*
X80354000Y28431110D01*
X81256860Y30931200D02*
X81954000Y30931200D01*
X81954000Y30931200D02*
X81954000Y29981652D01*
X81954000Y29981652D02*
X81256860Y29981652D01*
X81256860Y29981652D02*
X81256860Y30931200D01*
G36*
X81954000Y29981652D02*
G01*
X81256860Y29981652D01*
X81256860Y30931200D01*
X81954000Y30931200D01*
X81954000Y29981652D01*
G37*
X81954000Y29981652D02*
X81256860Y29981652D01*
X81256860Y30931200D01*
X81954000Y30931200D01*
X81954000Y29981652D01*
X77603180Y35931200D02*
X77904000Y35931200D01*
X77904000Y35931200D02*
X77904000Y35503930D01*
X77904000Y35503930D02*
X77603180Y35503930D01*
X77603180Y35503930D02*
X77603180Y35931200D01*
G36*
X77904000Y35503930D02*
G01*
X77603180Y35503930D01*
X77603180Y35931200D01*
X77904000Y35931200D01*
X77904000Y35503930D01*
G37*
X77904000Y35503930D02*
X77603180Y35503930D01*
X77603180Y35931200D01*
X77904000Y35931200D01*
X77904000Y35503930D01*
X73579650Y34596200D02*
X73889000Y34596200D01*
X73889000Y34596200D02*
X73889000Y34173470D01*
X73889000Y34173470D02*
X73579650Y34173470D01*
X73579650Y34173470D02*
X73579650Y34596200D01*
G36*
X73889000Y34173470D02*
G01*
X73579650Y34173470D01*
X73579650Y34596200D01*
X73889000Y34596200D01*
X73889000Y34173470D01*
G37*
X73889000Y34173470D02*
X73579650Y34173470D01*
X73579650Y34596200D01*
X73889000Y34596200D01*
X73889000Y34173470D01*
X75446910Y30931200D02*
X76154000Y30931200D01*
X76154000Y30931200D02*
X76154000Y29981745D01*
X76154000Y29981745D02*
X75446910Y29981745D01*
X75446910Y29981745D02*
X75446910Y30931200D01*
G36*
X76154000Y29981745D02*
G01*
X75446910Y29981745D01*
X75446910Y30931200D01*
X76154000Y30931200D01*
X76154000Y29981745D01*
G37*
X76154000Y29981745D02*
X75446910Y29981745D01*
X75446910Y30931200D01*
X76154000Y30931200D01*
X76154000Y29981745D01*
X76599820Y23861200D02*
X76904000Y23861200D01*
X76904000Y23861200D02*
X76904000Y23421700D01*
X76904000Y23421700D02*
X76599820Y23421700D01*
X76599820Y23421700D02*
X76599820Y23861200D01*
G36*
X76904000Y23421700D02*
G01*
X76599820Y23421700D01*
X76599820Y23861200D01*
X76904000Y23861200D01*
X76904000Y23421700D01*
G37*
X76904000Y23421700D02*
X76599820Y23421700D01*
X76599820Y23861200D01*
X76904000Y23861200D01*
X76904000Y23421700D01*
X83204580Y23331200D02*
X83504000Y23331200D01*
X83504000Y23331200D02*
X83504000Y22900190D01*
X83504000Y22900190D02*
X83204580Y22900190D01*
X83204580Y22900190D02*
X83204580Y23331200D01*
G36*
X83504000Y22900190D02*
G01*
X83204580Y22900190D01*
X83204580Y23331200D01*
X83504000Y23331200D01*
X83504000Y22900190D01*
G37*
X83504000Y22900190D02*
X83204580Y22900190D01*
X83204580Y23331200D01*
X83504000Y23331200D01*
X83504000Y22900190D01*
X82208210Y35931200D02*
X82504000Y35931200D01*
X82504000Y35931200D02*
X82504000Y35509800D01*
X82504000Y35509800D02*
X82208210Y35509800D01*
X82208210Y35509800D02*
X82208210Y35931200D01*
G36*
X82504000Y35509800D02*
G01*
X82208210Y35509800D01*
X82208210Y35931200D01*
X82504000Y35931200D01*
X82504000Y35509800D01*
G37*
X82504000Y35509800D02*
X82208210Y35509800D01*
X82208210Y35931200D01*
X82504000Y35931200D01*
X82504000Y35509800D01*
X73587890Y29396200D02*
X73889000Y29396200D01*
X73889000Y29396200D02*
X73889000Y28966062D01*
X73889000Y28966062D02*
X73587890Y28966062D01*
X73587890Y28966062D02*
X73587890Y29396200D01*
G36*
X73889000Y28966062D02*
G01*
X73587890Y28966062D01*
X73587890Y29396200D01*
X73889000Y29396200D01*
X73889000Y28966062D01*
G37*
X73889000Y28966062D02*
X73587890Y28966062D01*
X73587890Y29396200D01*
X73889000Y29396200D01*
X73889000Y28966062D01*
X79404081Y35931200D02*
X79704000Y35931200D01*
X79704000Y35931200D02*
X79704000Y35510670D01*
X79704000Y35510670D02*
X79404081Y35510670D01*
X79404081Y35510670D02*
X79404081Y35931200D01*
G36*
X79704000Y35510670D02*
G01*
X79404081Y35510670D01*
X79404081Y35931200D01*
X79704000Y35931200D01*
X79704000Y35510670D01*
G37*
X79704000Y35510670D02*
X79404081Y35510670D01*
X79404081Y35931200D01*
X79704000Y35931200D01*
X79704000Y35510670D01*
X84821430Y30796200D02*
X85119000Y30796200D01*
X85119000Y30796200D02*
X85119000Y30366505D01*
X85119000Y30366505D02*
X84821430Y30366505D01*
X84821430Y30366505D02*
X84821430Y30796200D01*
G36*
X85119000Y30366505D02*
G01*
X84821430Y30366505D01*
X84821430Y30796200D01*
X85119000Y30796200D01*
X85119000Y30366505D01*
G37*
X85119000Y30366505D02*
X84821430Y30366505D01*
X84821430Y30796200D01*
X85119000Y30796200D01*
X85119000Y30366505D01*
X76750720Y32781200D02*
X77454000Y32781200D01*
X77454000Y32781200D02*
X77454000Y31833910D01*
X77454000Y31833910D02*
X76750720Y31833910D01*
X76750720Y31833910D02*
X76750720Y32781200D01*
G36*
X77454000Y31833910D02*
G01*
X76750720Y31833910D01*
X76750720Y32781200D01*
X77454000Y32781200D01*
X77454000Y31833910D01*
G37*
X77454000Y31833910D02*
X76750720Y31833910D01*
X76750720Y32781200D01*
X77454000Y32781200D01*
X77454000Y31833910D01*
X73578020Y33196200D02*
X73889000Y33196200D01*
X73889000Y33196200D02*
X73889000Y32772080D01*
X73889000Y32772080D02*
X73578020Y32772080D01*
X73578020Y32772080D02*
X73578020Y33196200D01*
G36*
X73889000Y32772080D02*
G01*
X73578020Y32772080D01*
X73578020Y33196200D01*
X73889000Y33196200D01*
X73889000Y32772080D01*
G37*
X73889000Y32772080D02*
X73578020Y32772080D01*
X73578020Y33196200D01*
X73889000Y33196200D01*
X73889000Y32772080D01*
X74112800Y33196200D02*
X74419000Y33196200D01*
X74419000Y33196200D02*
X74419000Y32769850D01*
X74419000Y32769850D02*
X74112800Y32769850D01*
X74112800Y32769850D02*
X74112800Y33196200D01*
G36*
X74419000Y32769850D02*
G01*
X74112800Y32769850D01*
X74112800Y33196200D01*
X74419000Y33196200D01*
X74419000Y32769850D01*
G37*
X74419000Y32769850D02*
X74112800Y32769850D01*
X74112800Y33196200D01*
X74419000Y33196200D01*
X74419000Y32769850D01*
X79654062Y25981200D02*
X80354000Y25981200D01*
X80354000Y25981200D02*
X80354000Y25030230D01*
X80354000Y25030230D02*
X79654062Y25030230D01*
X79654062Y25030230D02*
X79654062Y25981200D01*
G36*
X80354000Y25030230D02*
G01*
X79654062Y25030230D01*
X79654062Y25981200D01*
X80354000Y25981200D01*
X80354000Y25030230D01*
G37*
X80354000Y25030230D02*
X79654062Y25030230D01*
X79654062Y25981200D01*
X80354000Y25981200D01*
X80354000Y25030230D01*
X83611570Y23861200D02*
X83904000Y23861200D01*
X83904000Y23861200D02*
X83904000Y23420060D01*
X83904000Y23420060D02*
X83611570Y23420060D01*
X83611570Y23420060D02*
X83611570Y23861200D01*
G36*
X83904000Y23420060D02*
G01*
X83611570Y23420060D01*
X83611570Y23861200D01*
X83904000Y23861200D01*
X83904000Y23420060D01*
G37*
X83904000Y23420060D02*
X83611570Y23420060D01*
X83611570Y23861200D01*
X83904000Y23861200D01*
X83904000Y23420060D01*
X80405150Y23331200D02*
X80704000Y23331200D01*
X80704000Y23331200D02*
X80704000Y22893740D01*
X80704000Y22893740D02*
X80405150Y22893740D01*
X80405150Y22893740D02*
X80405150Y23331200D01*
G36*
X80704000Y22893740D02*
G01*
X80405150Y22893740D01*
X80405150Y23331200D01*
X80704000Y23331200D01*
X80704000Y22893740D01*
G37*
X80704000Y22893740D02*
X80405150Y22893740D01*
X80405150Y23331200D01*
X80704000Y23331200D01*
X80704000Y22893740D01*
X74113380Y25196200D02*
X74419000Y25196200D01*
X74419000Y25196200D02*
X74419000Y24760930D01*
X74419000Y24760930D02*
X74113380Y24760930D01*
X74113380Y24760930D02*
X74113380Y25196200D01*
G36*
X74419000Y24760930D02*
G01*
X74113380Y24760930D01*
X74113380Y25196200D01*
X74419000Y25196200D01*
X74419000Y24760930D01*
G37*
X74419000Y24760930D02*
X74113380Y24760930D01*
X74113380Y25196200D01*
X74419000Y25196200D01*
X74419000Y24760930D01*
X73578880Y33596200D02*
X73889000Y33596200D01*
X73889000Y33596200D02*
X73889000Y33172320D01*
X73889000Y33172320D02*
X73578880Y33172320D01*
X73578880Y33172320D02*
X73578880Y33596200D01*
G36*
X73889000Y33172320D02*
G01*
X73578880Y33172320D01*
X73578880Y33596200D01*
X73889000Y33596200D01*
X73889000Y33172320D01*
G37*
X73889000Y33172320D02*
X73578880Y33172320D01*
X73578880Y33596200D01*
X73889000Y33596200D01*
X73889000Y33172320D01*
X80404400Y23861200D02*
X80704000Y23861200D01*
X80704000Y23861200D02*
X80704000Y23428810D01*
X80704000Y23428810D02*
X80404400Y23428810D01*
X80404400Y23428810D02*
X80404400Y23861200D01*
G36*
X80704000Y23428810D02*
G01*
X80404400Y23428810D01*
X80404400Y23861200D01*
X80704000Y23861200D01*
X80704000Y23428810D01*
G37*
X80704000Y23428810D02*
X80404400Y23428810D01*
X80404400Y23861200D01*
X80704000Y23861200D01*
X80704000Y23428810D01*
X84296820Y28996200D02*
X84589000Y28996200D01*
X84589000Y28996200D02*
X84589000Y28564430D01*
X84589000Y28564430D02*
X84296820Y28564430D01*
X84296820Y28564430D02*
X84296820Y28996200D01*
G36*
X84589000Y28564430D02*
G01*
X84296820Y28564430D01*
X84296820Y28996200D01*
X84589000Y28996200D01*
X84589000Y28564430D01*
G37*
X84589000Y28564430D02*
X84296820Y28564430D01*
X84296820Y28996200D01*
X84589000Y28996200D01*
X84589000Y28564430D01*
X79003922Y36461200D02*
X79304000Y36461200D01*
X79304000Y36461200D02*
X79304000Y36032610D01*
X79304000Y36032610D02*
X79003922Y36032610D01*
X79003922Y36032610D02*
X79003922Y36461200D01*
G36*
X79304000Y36032610D02*
G01*
X79003922Y36032610D01*
X79003922Y36461200D01*
X79304000Y36461200D01*
X79304000Y36032610D01*
G37*
X79304000Y36032610D02*
X79003922Y36032610D01*
X79003922Y36461200D01*
X79304000Y36461200D01*
X79304000Y36032610D01*
X76602360Y35931200D02*
X76904000Y35931200D01*
X76904000Y35931200D02*
X76904000Y35504670D01*
X76904000Y35504670D02*
X76602360Y35504670D01*
X76602360Y35504670D02*
X76602360Y35931200D01*
G36*
X76904000Y35504670D02*
G01*
X76602360Y35504670D01*
X76602360Y35931200D01*
X76904000Y35931200D01*
X76904000Y35504670D01*
G37*
X76904000Y35504670D02*
X76602360Y35504670D01*
X76602360Y35931200D01*
X76904000Y35931200D01*
X76904000Y35504670D01*
X79003956Y23331200D02*
X79304000Y23331200D01*
X79304000Y23331200D02*
X79304000Y22900340D01*
X79304000Y22900340D02*
X79003956Y22900340D01*
X79003956Y22900340D02*
X79003956Y23331200D01*
G36*
X79304000Y22900340D02*
G01*
X79003956Y22900340D01*
X79003956Y23331200D01*
X79304000Y23331200D01*
X79304000Y22900340D01*
G37*
X79304000Y22900340D02*
X79003956Y22900340D01*
X79003956Y23331200D01*
X79304000Y23331200D01*
X79304000Y22900340D01*
X75201030Y36461200D02*
X75504000Y36461200D01*
X75504000Y36461200D02*
X75504000Y36035740D01*
X75504000Y36035740D02*
X75201030Y36035740D01*
X75201030Y36035740D02*
X75201030Y36461200D01*
G36*
X75504000Y36035740D02*
G01*
X75201030Y36035740D01*
X75201030Y36461200D01*
X75504000Y36461200D01*
X75504000Y36035740D01*
G37*
X75504000Y36035740D02*
X75201030Y36035740D01*
X75201030Y36461200D01*
X75504000Y36461200D01*
X75504000Y36035740D01*
X76753590Y30931200D02*
X77454000Y30931200D01*
X77454000Y30931200D02*
X77454000Y29981247D01*
X77454000Y29981247D02*
X76753590Y29981247D01*
X76753590Y29981247D02*
X76753590Y30931200D01*
G36*
X77454000Y29981247D02*
G01*
X76753590Y29981247D01*
X76753590Y30931200D01*
X77454000Y30931200D01*
X77454000Y29981247D01*
G37*
X77454000Y29981247D02*
X76753590Y29981247D01*
X76753590Y30931200D01*
X77454000Y30931200D01*
X77454000Y29981247D01*
X82204500Y23331200D02*
X82504000Y23331200D01*
X82504000Y23331200D02*
X82504000Y22900010D01*
X82504000Y22900010D02*
X82204500Y22900010D01*
X82204500Y22900010D02*
X82204500Y23331200D01*
G36*
X82504000Y22900010D02*
G01*
X82204500Y22900010D01*
X82204500Y23331200D01*
X82504000Y23331200D01*
X82504000Y22900010D01*
G37*
X82504000Y22900010D02*
X82204500Y22900010D01*
X82204500Y23331200D01*
X82504000Y23331200D01*
X82504000Y22900010D01*
X78001980Y23861200D02*
X78304000Y23861200D01*
X78304000Y23861200D02*
X78304000Y23421860D01*
X78304000Y23421860D02*
X78001980Y23421860D01*
X78001980Y23421860D02*
X78001980Y23861200D01*
G36*
X78304000Y23421860D02*
G01*
X78001980Y23421860D01*
X78001980Y23861200D01*
X78304000Y23861200D01*
X78304000Y23421860D01*
G37*
X78304000Y23421860D02*
X78001980Y23421860D01*
X78001980Y23861200D01*
X78304000Y23861200D01*
X78304000Y23421860D01*
X79404031Y23861200D02*
X79704000Y23861200D01*
X79704000Y23861200D02*
X79704000Y23427330D01*
X79704000Y23427330D02*
X79404031Y23427330D01*
X79404031Y23427330D02*
X79404031Y23861200D01*
G36*
X79704000Y23427330D02*
G01*
X79404031Y23427330D01*
X79404031Y23861200D01*
X79704000Y23861200D01*
X79704000Y23427330D01*
G37*
X79704000Y23427330D02*
X79404031Y23427330D01*
X79404031Y23861200D01*
X79704000Y23861200D01*
X79704000Y23427330D01*
X74116890Y26196200D02*
X74419000Y26196200D01*
X74419000Y26196200D02*
X74419000Y25764620D01*
X74419000Y25764620D02*
X74116890Y25764620D01*
X74116890Y25764620D02*
X74116890Y26196200D01*
G36*
X74419000Y25764620D02*
G01*
X74116890Y25764620D01*
X74116890Y26196200D01*
X74419000Y26196200D01*
X74419000Y25764620D01*
G37*
X74419000Y25764620D02*
X74116890Y25764620D01*
X74116890Y26196200D01*
X74419000Y26196200D01*
X74419000Y25764620D01*
X74799730Y23331200D02*
X75104000Y23331200D01*
X75104000Y23331200D02*
X75104000Y22894830D01*
X75104000Y22894830D02*
X74799730Y22894830D01*
X74799730Y22894830D02*
X74799730Y23331200D01*
G36*
X75104000Y22894830D02*
G01*
X74799730Y22894830D01*
X74799730Y23331200D01*
X75104000Y23331200D01*
X75104000Y22894830D01*
G37*
X75104000Y22894830D02*
X74799730Y22894830D01*
X74799730Y23331200D01*
X75104000Y23331200D01*
X75104000Y22894830D01*
X76749590Y25981200D02*
X77454000Y25981200D01*
X77454000Y25981200D02*
X77454000Y25023320D01*
X77454000Y25023320D02*
X76749590Y25023320D01*
X76749590Y25023320D02*
X76749590Y25981200D01*
G36*
X77454000Y25023320D02*
G01*
X76749590Y25023320D01*
X76749590Y25981200D01*
X77454000Y25981200D01*
X77454000Y25023320D01*
G37*
X77454000Y25023320D02*
X76749590Y25023320D01*
X76749590Y25981200D01*
X77454000Y25981200D01*
X77454000Y25023320D01*
X73586410Y26196200D02*
X73889000Y26196200D01*
X73889000Y26196200D02*
X73889000Y25764440D01*
X73889000Y25764440D02*
X73586410Y25764440D01*
X73586410Y25764440D02*
X73586410Y26196200D01*
G36*
X73889000Y25764440D02*
G01*
X73586410Y25764440D01*
X73586410Y26196200D01*
X73889000Y26196200D01*
X73889000Y25764440D01*
G37*
X73889000Y25764440D02*
X73586410Y25764440D01*
X73586410Y26196200D01*
X73889000Y26196200D01*
X73889000Y25764440D01*
X78353360Y29381200D02*
X79054000Y29381200D01*
X79054000Y29381200D02*
X79054000Y28430400D01*
X79054000Y28430400D02*
X78353360Y28430400D01*
X78353360Y28430400D02*
X78353360Y29381200D01*
G36*
X79054000Y28430400D02*
G01*
X78353360Y28430400D01*
X78353360Y29381200D01*
X79054000Y29381200D01*
X79054000Y28430400D01*
G37*
X79054000Y28430400D02*
X78353360Y28430400D01*
X78353360Y29381200D01*
X79054000Y29381200D01*
X79054000Y28430400D01*
X74109520Y34596200D02*
X74419000Y34596200D01*
X74419000Y34596200D02*
X74419000Y34174320D01*
X74419000Y34174320D02*
X74109520Y34174320D01*
X74109520Y34174320D02*
X74109520Y34596200D01*
G36*
X74419000Y34174320D02*
G01*
X74109520Y34174320D01*
X74109520Y34596200D01*
X74419000Y34596200D01*
X74419000Y34174320D01*
G37*
X74419000Y34174320D02*
X74109520Y34174320D01*
X74109520Y34596200D01*
X74419000Y34596200D01*
X74419000Y34174320D01*
X81808170Y23331200D02*
X82104000Y23331200D01*
X82104000Y23331200D02*
X82104000Y22889650D01*
X82104000Y22889650D02*
X81808170Y22889650D01*
X81808170Y22889650D02*
X81808170Y23331200D01*
G36*
X82104000Y22889650D02*
G01*
X81808170Y22889650D01*
X81808170Y23331200D01*
X82104000Y23331200D01*
X82104000Y22889650D01*
G37*
X82104000Y22889650D02*
X81808170Y22889650D01*
X81808170Y23331200D01*
X82104000Y23331200D01*
X82104000Y22889650D01*
X79404084Y23331200D02*
X79704000Y23331200D01*
X79704000Y23331200D02*
X79704000Y22889830D01*
X79704000Y22889830D02*
X79404084Y22889830D01*
X79404084Y22889830D02*
X79404084Y23331200D01*
G36*
X79704000Y22889830D02*
G01*
X79404084Y22889830D01*
X79404084Y23331200D01*
X79704000Y23331200D01*
X79704000Y22889830D01*
G37*
X79704000Y22889830D02*
X79404084Y22889830D01*
X79404084Y23331200D01*
X79704000Y23331200D01*
X79704000Y22889830D01*
X74115830Y32196200D02*
X74419000Y32196200D01*
X74419000Y32196200D02*
X74419000Y31767460D01*
X74419000Y31767460D02*
X74115830Y31767460D01*
X74115830Y31767460D02*
X74115830Y32196200D01*
G36*
X74419000Y31767460D02*
G01*
X74115830Y31767460D01*
X74115830Y32196200D01*
X74419000Y32196200D01*
X74419000Y31767460D01*
G37*
X74419000Y31767460D02*
X74115830Y31767460D01*
X74115830Y32196200D01*
X74419000Y32196200D01*
X74419000Y31767460D01*
X83205420Y23861200D02*
X83504000Y23861200D01*
X83504000Y23861200D02*
X83504000Y23428890D01*
X83504000Y23428890D02*
X83205420Y23428890D01*
X83205420Y23428890D02*
X83205420Y23861200D01*
G36*
X83504000Y23428890D02*
G01*
X83205420Y23428890D01*
X83205420Y23861200D01*
X83504000Y23861200D01*
X83504000Y23428890D01*
G37*
X83504000Y23428890D02*
X83205420Y23428890D01*
X83205420Y23861200D01*
X83504000Y23861200D01*
X83504000Y23428890D01*
X84295950Y27596200D02*
X84589000Y27596200D01*
X84589000Y27596200D02*
X84589000Y27162660D01*
X84589000Y27162660D02*
X84295950Y27162660D01*
X84295950Y27162660D02*
X84295950Y27596200D01*
G36*
X84589000Y27162660D02*
G01*
X84295950Y27162660D01*
X84295950Y27596200D01*
X84589000Y27596200D01*
X84589000Y27162660D01*
G37*
X84589000Y27162660D02*
X84295950Y27162660D01*
X84295950Y27596200D01*
X84589000Y27596200D01*
X84589000Y27162660D01*
X83605280Y23331200D02*
X83904000Y23331200D01*
X83904000Y23331200D02*
X83904000Y22899150D01*
X83904000Y22899150D02*
X83605280Y22899150D01*
X83605280Y22899150D02*
X83605280Y23331200D01*
G36*
X83904000Y22899150D02*
G01*
X83605280Y22899150D01*
X83605280Y23331200D01*
X83904000Y23331200D01*
X83904000Y22899150D01*
G37*
X83904000Y22899150D02*
X83605280Y22899150D01*
X83605280Y23331200D01*
X83904000Y23331200D01*
X83904000Y22899150D01*
X81256700Y25981200D02*
X81954000Y25981200D01*
X81954000Y25981200D02*
X81954000Y25024600D01*
X81954000Y25024600D02*
X81256700Y25024600D01*
X81256700Y25024600D02*
X81256700Y25981200D01*
G36*
X81954000Y25024600D02*
G01*
X81256700Y25024600D01*
X81256700Y25981200D01*
X81954000Y25981200D01*
X81954000Y25024600D01*
G37*
X81954000Y25024600D02*
X81256700Y25024600D01*
X81256700Y25981200D01*
X81954000Y25981200D01*
X81954000Y25024600D01*
X82206530Y36461200D02*
X82504000Y36461200D01*
X82504000Y36461200D02*
X82504000Y36036840D01*
X82504000Y36036840D02*
X82206530Y36036840D01*
X82206530Y36036840D02*
X82206530Y36461200D01*
G36*
X82504000Y36036840D02*
G01*
X82206530Y36036840D01*
X82206530Y36461200D01*
X82504000Y36461200D01*
X82504000Y36036840D01*
G37*
X82504000Y36036840D02*
X82206530Y36036840D01*
X82206530Y36461200D01*
X82504000Y36461200D01*
X82504000Y36036840D01*
X81256640Y29381200D02*
X81954000Y29381200D01*
X81954000Y29381200D02*
X81954000Y28429460D01*
X81954000Y28429460D02*
X81256640Y28429460D01*
X81256640Y28429460D02*
X81256640Y29381200D01*
G36*
X81954000Y28429460D02*
G01*
X81256640Y28429460D01*
X81256640Y29381200D01*
X81954000Y29381200D01*
X81954000Y28429460D01*
G37*
X81954000Y28429460D02*
X81256640Y28429460D01*
X81256640Y29381200D01*
X81954000Y29381200D01*
X81954000Y28429460D01*
D10*
%TO.C,Y1*%
X49355000Y34836300D02*
X49355000Y35906300D01*
X49355000Y35906300D02*
X48285000Y35906300D01*
X48285000Y35906300D02*
X48285000Y34836300D01*
X48285000Y34836300D02*
X49355000Y34836300D01*
G36*
X49355000Y34836300D02*
G01*
X48285000Y34836300D01*
X48285000Y35906300D01*
X49355000Y35906300D01*
X49355000Y34836300D01*
G37*
X49355000Y34836300D02*
X48285000Y34836300D01*
X48285000Y35906300D01*
X49355000Y35906300D01*
X49355000Y34836300D01*
X49355000Y34836300D02*
X49355000Y35906300D01*
X49355000Y35906300D02*
X48285000Y35906300D01*
X48285000Y35906300D02*
X48285000Y34836300D01*
X48285000Y34836300D02*
X49355000Y34836300D01*
G36*
X49355000Y34836300D02*
G01*
X48285000Y34836300D01*
X48285000Y35906300D01*
X49355000Y35906300D01*
X49355000Y34836300D01*
G37*
X49355000Y34836300D02*
X48285000Y34836300D01*
X48285000Y35906300D01*
X49355000Y35906300D01*
X49355000Y34836300D01*
X49355000Y33566300D02*
X49355000Y34636300D01*
X49355000Y34636300D02*
X48285000Y34636300D01*
X48285000Y34636300D02*
X48285000Y33566300D01*
X48285000Y33566300D02*
X49355000Y33566300D01*
G36*
X49355000Y33566300D02*
G01*
X48285000Y33566300D01*
X48285000Y34636300D01*
X49355000Y34636300D01*
X49355000Y33566300D01*
G37*
X49355000Y33566300D02*
X48285000Y33566300D01*
X48285000Y34636300D01*
X49355000Y34636300D01*
X49355000Y33566300D01*
X51895000Y36106300D02*
X51895000Y37176300D01*
X51895000Y37176300D02*
X50825000Y37176300D01*
X50825000Y37176300D02*
X50825000Y36106300D01*
X50825000Y36106300D02*
X51895000Y36106300D01*
G36*
X51895000Y36106300D02*
G01*
X50825000Y36106300D01*
X50825000Y37176300D01*
X51895000Y37176300D01*
X51895000Y36106300D01*
G37*
X51895000Y36106300D02*
X50825000Y36106300D01*
X50825000Y37176300D01*
X51895000Y37176300D01*
X51895000Y36106300D01*
X50625000Y33566300D02*
X50625000Y34636300D01*
X50625000Y34636300D02*
X49555000Y34636300D01*
X49555000Y34636300D02*
X49555000Y33566300D01*
X49555000Y33566300D02*
X50625000Y33566300D01*
G36*
X50625000Y33566300D02*
G01*
X49555000Y33566300D01*
X49555000Y34636300D01*
X50625000Y34636300D01*
X50625000Y33566300D01*
G37*
X50625000Y33566300D02*
X49555000Y33566300D01*
X49555000Y34636300D01*
X50625000Y34636300D01*
X50625000Y33566300D01*
X49355000Y36106300D02*
X49355000Y37176300D01*
X49355000Y37176300D02*
X48285000Y37176300D01*
X48285000Y37176300D02*
X48285000Y36106300D01*
X48285000Y36106300D02*
X49355000Y36106300D01*
G36*
X49355000Y36106300D02*
G01*
X48285000Y36106300D01*
X48285000Y37176300D01*
X49355000Y37176300D01*
X49355000Y36106300D01*
G37*
X49355000Y36106300D02*
X48285000Y36106300D01*
X48285000Y37176300D01*
X49355000Y37176300D01*
X49355000Y36106300D01*
X50625000Y34836300D02*
X50625000Y35906300D01*
X50625000Y35906300D02*
X49555000Y35906300D01*
X49555000Y35906300D02*
X49555000Y34836300D01*
X49555000Y34836300D02*
X50625000Y34836300D01*
G36*
X50625000Y34836300D02*
G01*
X49555000Y34836300D01*
X49555000Y35906300D01*
X50625000Y35906300D01*
X50625000Y34836300D01*
G37*
X50625000Y34836300D02*
X49555000Y34836300D01*
X49555000Y35906300D01*
X50625000Y35906300D01*
X50625000Y34836300D01*
X49355000Y36106300D02*
X49355000Y37176300D01*
X49355000Y37176300D02*
X48285000Y37176300D01*
X48285000Y37176300D02*
X48285000Y36106300D01*
X48285000Y36106300D02*
X49355000Y36106300D01*
G36*
X49355000Y36106300D02*
G01*
X48285000Y36106300D01*
X48285000Y37176300D01*
X49355000Y37176300D01*
X49355000Y36106300D01*
G37*
X49355000Y36106300D02*
X48285000Y36106300D01*
X48285000Y37176300D01*
X49355000Y37176300D01*
X49355000Y36106300D01*
X51895000Y33566300D02*
X51895000Y34636300D01*
X51895000Y34636300D02*
X50825000Y34636300D01*
X50825000Y34636300D02*
X50825000Y33566300D01*
X50825000Y33566300D02*
X51895000Y33566300D01*
G36*
X51895000Y33566300D02*
G01*
X50825000Y33566300D01*
X50825000Y34636300D01*
X51895000Y34636300D01*
X51895000Y33566300D01*
G37*
X51895000Y33566300D02*
X50825000Y33566300D01*
X50825000Y34636300D01*
X51895000Y34636300D01*
X51895000Y33566300D01*
X49355000Y33566300D02*
X49355000Y34636300D01*
X49355000Y34636300D02*
X48285000Y34636300D01*
X48285000Y34636300D02*
X48285000Y33566300D01*
X48285000Y33566300D02*
X49355000Y33566300D01*
G36*
X49355000Y33566300D02*
G01*
X48285000Y33566300D01*
X48285000Y34636300D01*
X49355000Y34636300D01*
X49355000Y33566300D01*
G37*
X49355000Y33566300D02*
X48285000Y33566300D01*
X48285000Y34636300D01*
X49355000Y34636300D01*
X49355000Y33566300D01*
X50625000Y36106300D02*
X50625000Y37176300D01*
X50625000Y37176300D02*
X49555000Y37176300D01*
X49555000Y37176300D02*
X49555000Y36106300D01*
X49555000Y36106300D02*
X50625000Y36106300D01*
G36*
X50625000Y36106300D02*
G01*
X49555000Y36106300D01*
X49555000Y37176300D01*
X50625000Y37176300D01*
X50625000Y36106300D01*
G37*
X50625000Y36106300D02*
X49555000Y36106300D01*
X49555000Y37176300D01*
X50625000Y37176300D01*
X50625000Y36106300D01*
X49355000Y32296300D02*
X49355000Y33366300D01*
X49355000Y33366300D02*
X48285000Y33366300D01*
X48285000Y33366300D02*
X48285000Y32296300D01*
X48285000Y32296300D02*
X49355000Y32296300D01*
G36*
X49355000Y32296300D02*
G01*
X48285000Y32296300D01*
X48285000Y33366300D01*
X49355000Y33366300D01*
X49355000Y32296300D01*
G37*
X49355000Y32296300D02*
X48285000Y32296300D01*
X48285000Y33366300D01*
X49355000Y33366300D01*
X49355000Y32296300D01*
X51895000Y32296300D02*
X51895000Y33366300D01*
X51895000Y33366300D02*
X50825000Y33366300D01*
X50825000Y33366300D02*
X50825000Y32296300D01*
X50825000Y32296300D02*
X51895000Y32296300D01*
G36*
X51895000Y32296300D02*
G01*
X50825000Y32296300D01*
X50825000Y33366300D01*
X51895000Y33366300D01*
X51895000Y32296300D01*
G37*
X51895000Y32296300D02*
X50825000Y32296300D01*
X50825000Y33366300D01*
X51895000Y33366300D01*
X51895000Y32296300D01*
X51895000Y32296300D02*
X51895000Y33366300D01*
X51895000Y33366300D02*
X50825000Y33366300D01*
X50825000Y33366300D02*
X50825000Y32296300D01*
X50825000Y32296300D02*
X51895000Y32296300D01*
G36*
X51895000Y32296300D02*
G01*
X50825000Y32296300D01*
X50825000Y33366300D01*
X51895000Y33366300D01*
X51895000Y32296300D01*
G37*
X51895000Y32296300D02*
X50825000Y32296300D01*
X50825000Y33366300D01*
X51895000Y33366300D01*
X51895000Y32296300D01*
X51895000Y34836300D02*
X51895000Y35906300D01*
X51895000Y35906300D02*
X50825000Y35906300D01*
X50825000Y35906300D02*
X50825000Y34836300D01*
X50825000Y34836300D02*
X51895000Y34836300D01*
G36*
X51895000Y34836300D02*
G01*
X50825000Y34836300D01*
X50825000Y35906300D01*
X51895000Y35906300D01*
X51895000Y34836300D01*
G37*
X51895000Y34836300D02*
X50825000Y34836300D01*
X50825000Y35906300D01*
X51895000Y35906300D01*
X51895000Y34836300D01*
X51895000Y34836300D02*
X51895000Y35906300D01*
X51895000Y35906300D02*
X50825000Y35906300D01*
X50825000Y35906300D02*
X50825000Y34836300D01*
X50825000Y34836300D02*
X51895000Y34836300D01*
G36*
X51895000Y34836300D02*
G01*
X50825000Y34836300D01*
X50825000Y35906300D01*
X51895000Y35906300D01*
X51895000Y34836300D01*
G37*
X51895000Y34836300D02*
X50825000Y34836300D01*
X50825000Y35906300D01*
X51895000Y35906300D01*
X51895000Y34836300D01*
X50625000Y32296300D02*
X50625000Y33366300D01*
X50625000Y33366300D02*
X49555000Y33366300D01*
X49555000Y33366300D02*
X49555000Y32296300D01*
X49555000Y32296300D02*
X50625000Y32296300D01*
G36*
X50625000Y32296300D02*
G01*
X49555000Y32296300D01*
X49555000Y33366300D01*
X50625000Y33366300D01*
X50625000Y32296300D01*
G37*
X50625000Y32296300D02*
X49555000Y32296300D01*
X49555000Y33366300D01*
X50625000Y33366300D01*
X50625000Y32296300D01*
X51895000Y36106300D02*
X51895000Y37176300D01*
X51895000Y37176300D02*
X50825000Y37176300D01*
X50825000Y37176300D02*
X50825000Y36106300D01*
X50825000Y36106300D02*
X51895000Y36106300D01*
G36*
X51895000Y36106300D02*
G01*
X50825000Y36106300D01*
X50825000Y37176300D01*
X51895000Y37176300D01*
X51895000Y36106300D01*
G37*
X51895000Y36106300D02*
X50825000Y36106300D01*
X50825000Y37176300D01*
X51895000Y37176300D01*
X51895000Y36106300D01*
X51895000Y33566300D02*
X51895000Y34636300D01*
X51895000Y34636300D02*
X50825000Y34636300D01*
X50825000Y34636300D02*
X50825000Y33566300D01*
X50825000Y33566300D02*
X51895000Y33566300D01*
G36*
X51895000Y33566300D02*
G01*
X50825000Y33566300D01*
X50825000Y34636300D01*
X51895000Y34636300D01*
X51895000Y33566300D01*
G37*
X51895000Y33566300D02*
X50825000Y33566300D01*
X50825000Y34636300D01*
X51895000Y34636300D01*
X51895000Y33566300D01*
X50625000Y36106300D02*
X50625000Y37176300D01*
X50625000Y37176300D02*
X49555000Y37176300D01*
X49555000Y37176300D02*
X49555000Y36106300D01*
X49555000Y36106300D02*
X50625000Y36106300D01*
G36*
X50625000Y36106300D02*
G01*
X49555000Y36106300D01*
X49555000Y37176300D01*
X50625000Y37176300D01*
X50625000Y36106300D01*
G37*
X50625000Y36106300D02*
X49555000Y36106300D01*
X49555000Y37176300D01*
X50625000Y37176300D01*
X50625000Y36106300D01*
X50625000Y34836300D02*
X50625000Y35906300D01*
X50625000Y35906300D02*
X49555000Y35906300D01*
X49555000Y35906300D02*
X49555000Y34836300D01*
X49555000Y34836300D02*
X50625000Y34836300D01*
G36*
X50625000Y34836300D02*
G01*
X49555000Y34836300D01*
X49555000Y35906300D01*
X50625000Y35906300D01*
X50625000Y34836300D01*
G37*
X50625000Y34836300D02*
X49555000Y34836300D01*
X49555000Y35906300D01*
X50625000Y35906300D01*
X50625000Y34836300D01*
X50625000Y32296300D02*
X50625000Y33366300D01*
X50625000Y33366300D02*
X49555000Y33366300D01*
X49555000Y33366300D02*
X49555000Y32296300D01*
X49555000Y32296300D02*
X50625000Y32296300D01*
G36*
X50625000Y32296300D02*
G01*
X49555000Y32296300D01*
X49555000Y33366300D01*
X50625000Y33366300D01*
X50625000Y32296300D01*
G37*
X50625000Y32296300D02*
X49555000Y32296300D01*
X49555000Y33366300D01*
X50625000Y33366300D01*
X50625000Y32296300D01*
X49355000Y32296300D02*
X49355000Y33366300D01*
X49355000Y33366300D02*
X48285000Y33366300D01*
X48285000Y33366300D02*
X48285000Y32296300D01*
X48285000Y32296300D02*
X49355000Y32296300D01*
G36*
X49355000Y32296300D02*
G01*
X48285000Y32296300D01*
X48285000Y33366300D01*
X49355000Y33366300D01*
X49355000Y32296300D01*
G37*
X49355000Y32296300D02*
X48285000Y32296300D01*
X48285000Y33366300D01*
X49355000Y33366300D01*
X49355000Y32296300D01*
X50625000Y33566300D02*
X50625000Y34636300D01*
X50625000Y34636300D02*
X49555000Y34636300D01*
X49555000Y34636300D02*
X49555000Y33566300D01*
X49555000Y33566300D02*
X50625000Y33566300D01*
G36*
X50625000Y33566300D02*
G01*
X49555000Y33566300D01*
X49555000Y34636300D01*
X50625000Y34636300D01*
X50625000Y33566300D01*
G37*
X50625000Y33566300D02*
X49555000Y33566300D01*
X49555000Y34636300D01*
X50625000Y34636300D01*
X50625000Y33566300D01*
%TO.C,U4*%
X23454893Y24835108D02*
X23454893Y24584892D01*
X23454893Y24584892D02*
X23925108Y24584892D01*
X23925108Y24584892D02*
X23925108Y24835108D01*
X23925108Y24835108D02*
X23454893Y24835108D01*
G36*
X23925108Y24584892D02*
G01*
X23454893Y24584892D01*
X23454893Y24835108D01*
X23925108Y24835108D01*
X23925108Y24584892D01*
G37*
X23925108Y24584892D02*
X23454893Y24584892D01*
X23454893Y24835108D01*
X23925108Y24835108D01*
X23925108Y24584892D01*
X24194892Y24835108D02*
X24194892Y24584892D01*
X24194892Y24584892D02*
X24665107Y24584892D01*
X24665107Y24584892D02*
X24665107Y24835108D01*
X24665107Y24835108D02*
X24194892Y24835108D01*
G36*
X24665107Y24584892D02*
G01*
X24194892Y24584892D01*
X24194892Y24835108D01*
X24665107Y24835108D01*
X24665107Y24584892D01*
G37*
X24665107Y24584892D02*
X24194892Y24584892D01*
X24194892Y24835108D01*
X24665107Y24835108D01*
X24665107Y24584892D01*
X23454893Y25335107D02*
X23454893Y25084891D01*
X23454893Y25084891D02*
X23955080Y25084891D01*
X23955080Y25084891D02*
X23955080Y25335107D01*
X23955080Y25335107D02*
X23454893Y25335107D01*
G36*
X23955080Y25084891D02*
G01*
X23454893Y25084891D01*
X23454893Y25335107D01*
X23955080Y25335107D01*
X23955080Y25084891D01*
G37*
X23955080Y25084891D02*
X23454893Y25084891D01*
X23454893Y25335107D01*
X23955080Y25335107D01*
X23955080Y25084891D01*
X24194892Y25335107D02*
X24194892Y25084891D01*
X24194892Y25084891D02*
X24665107Y25084891D01*
X24665107Y25084891D02*
X24665107Y25335107D01*
X24665107Y25335107D02*
X24194892Y25335107D01*
G36*
X24665107Y25084891D02*
G01*
X24194892Y25084891D01*
X24194892Y25335107D01*
X24665107Y25335107D01*
X24665107Y25084891D01*
G37*
X24665107Y25084891D02*
X24194892Y25084891D01*
X24194892Y25335107D01*
X24665107Y25335107D01*
X24665107Y25084891D01*
X23454893Y24335109D02*
X23454893Y24084893D01*
X23454893Y24084893D02*
X23925108Y24084893D01*
X23925108Y24084893D02*
X23925108Y24335109D01*
X23925108Y24335109D02*
X23454893Y24335109D01*
G36*
X23925108Y24084893D02*
G01*
X23454893Y24084893D01*
X23454893Y24335109D01*
X23925108Y24335109D01*
X23925108Y24084893D01*
G37*
X23925108Y24084893D02*
X23454893Y24084893D01*
X23454893Y24335109D01*
X23925108Y24335109D01*
X23925108Y24084893D01*
X24194892Y24335109D02*
X24194892Y24084893D01*
X24194892Y24084893D02*
X24665107Y24084893D01*
X24665107Y24084893D02*
X24665107Y24335109D01*
X24665107Y24335109D02*
X24194892Y24335109D01*
G36*
X24665107Y24084893D02*
G01*
X24194892Y24084893D01*
X24194892Y24335109D01*
X24665107Y24335109D01*
X24665107Y24084893D01*
G37*
X24665107Y24084893D02*
X24194892Y24084893D01*
X24194892Y24335109D01*
X24665107Y24335109D01*
X24665107Y24084893D01*
%TD*%
D12*
%TO.C,J7*%
X32354800Y8909600D03*
X33154800Y8909600D03*
D13*
X34354800Y8909600D03*
X35354800Y8909600D03*
X35854800Y8909600D03*
X36854800Y8909600D03*
D12*
X38054800Y8909600D03*
X38854800Y8909600D03*
X38854800Y8909600D03*
X38054800Y8909600D03*
D13*
X37354800Y8909600D03*
X36354800Y8909600D03*
X34854800Y8909600D03*
X33854800Y8909600D03*
D12*
X33154800Y8909600D03*
X32354800Y8909600D03*
%TD*%
D14*
%TO.C,C46*%
X24751100Y39084600D03*
X27701100Y39084600D03*
%TD*%
D15*
%TO.C,Q1*%
X31955000Y28787500D03*
X33855000Y28787500D03*
X32905000Y30662500D03*
%TD*%
D16*
%TO.C,R38*%
X2740000Y30137500D03*
X2740000Y31787500D03*
%TD*%
D17*
%TO.C,C24*%
X90915000Y23590000D03*
X92465000Y23590000D03*
%TD*%
D18*
%TO.C,R32*%
X91365000Y37530000D03*
X93015000Y37530000D03*
%TD*%
D19*
%TO.C,C35*%
X31790000Y22410000D03*
X30240000Y22410000D03*
%TD*%
D20*
%TO.C,U6*%
X15947255Y25806896D03*
D21*
X16447381Y26106896D03*
X16947507Y26106896D03*
X17447633Y26106896D03*
X17947759Y26106896D03*
D20*
X18447885Y25756896D03*
X19147571Y26206644D03*
D22*
X19147571Y26706770D03*
X19147571Y27206896D03*
X19147571Y27707022D03*
D20*
X19147571Y28207148D03*
X18447885Y28656896D03*
D21*
X17947759Y28306896D03*
X17447633Y28306896D03*
X16947507Y28306896D03*
X16447381Y28306896D03*
D20*
X15947255Y28656896D03*
X15247569Y28207148D03*
D22*
X15247569Y27707022D03*
X15247569Y27206896D03*
X15247569Y26706770D03*
D20*
X15247569Y26206644D03*
%TD*%
D23*
%TO.C,U2*%
X71504000Y35731200D03*
X71504000Y34631200D03*
X71504000Y33531200D03*
X71504000Y32431200D03*
X71504000Y31331200D03*
X71504000Y30231200D03*
X71504000Y29131200D03*
X71504000Y28031200D03*
X71504000Y26931200D03*
X71504000Y25831200D03*
X71504000Y24731200D03*
X71504000Y23631200D03*
D24*
X74954000Y20881200D03*
X76054000Y20881200D03*
X77154000Y20881200D03*
X78254000Y20881200D03*
X79354000Y20881200D03*
X80454000Y20881200D03*
X81554000Y20881200D03*
X82654000Y20881200D03*
X83754000Y20881200D03*
D23*
X87204000Y23631200D03*
X87204000Y24731200D03*
X87204000Y25831200D03*
X87204000Y26931200D03*
X87204000Y28031200D03*
X87204000Y29131200D03*
X87204000Y30231200D03*
X87204000Y31331200D03*
X87204000Y32431200D03*
X87204000Y33531200D03*
X87204000Y34631200D03*
X87204000Y35731200D03*
D24*
X83754000Y38481200D03*
X82654000Y38481200D03*
X81554000Y38481200D03*
X80454000Y38481200D03*
X79354000Y38481200D03*
X78254000Y38481200D03*
X77154000Y38481200D03*
X76054000Y38481200D03*
X74954000Y38481200D03*
%TD*%
D25*
%TO.C,C34*%
X11250000Y32130000D03*
X11250000Y29180000D03*
%TD*%
D26*
%TO.C,R39*%
X42825000Y10150000D03*
X41805000Y10150000D03*
%TD*%
D27*
%TO.C,R30*%
X31665000Y50200000D03*
X31665000Y48550000D03*
%TD*%
D28*
%TO.C,R16*%
X68910000Y25310000D03*
X67260000Y25310000D03*
%TD*%
%TO.C,R28*%
X2550000Y40440000D03*
X900000Y40440000D03*
%TD*%
D18*
%TO.C,R47*%
X86865000Y40580000D03*
X88515000Y40580000D03*
%TD*%
D16*
%TO.C,R48*%
X85950000Y44765000D03*
X85950000Y46415000D03*
%TD*%
D29*
%TO.C,J4*%
X95085600Y21883200D03*
D30*
X96610601Y20408199D03*
X96610601Y23358201D03*
%TD*%
D31*
%TO.C,C23*%
X89460000Y32407500D03*
X89460000Y30857500D03*
%TD*%
D28*
%TO.C,R7*%
X68910000Y28355000D03*
X67260000Y28355000D03*
%TD*%
D18*
%TO.C,R19*%
X35280000Y23975000D03*
X36930000Y23975000D03*
%TD*%
D32*
%TO.C,D4*%
X33402500Y51860000D03*
X35277500Y51860000D03*
%TD*%
D33*
%TO.C,C19*%
X53100000Y32096300D03*
X53100000Y33646300D03*
%TD*%
D34*
%TO.C,C8*%
X44385000Y18795000D03*
X44385000Y17835000D03*
%TD*%
D35*
%TO.C,R36*%
X28970000Y10720000D03*
X29990000Y10720000D03*
%TD*%
D36*
%TO.C,D2*%
X2857500Y42200000D03*
X982500Y42200000D03*
%TD*%
D27*
%TO.C,R43*%
X43060000Y50180000D03*
X43060000Y48530000D03*
%TD*%
D18*
%TO.C,R18*%
X35280000Y25485000D03*
X36930000Y25485000D03*
%TD*%
D33*
%TO.C,C20*%
X47080000Y36955000D03*
X47080000Y38505000D03*
%TD*%
D34*
%TO.C,C11*%
X41010000Y19760000D03*
X41010000Y18800000D03*
%TD*%
D27*
%TO.C,R22*%
X39265000Y50180000D03*
X39265000Y48530000D03*
%TD*%
D28*
%TO.C,R8*%
X68915000Y34450000D03*
X67265000Y34450000D03*
%TD*%
D16*
%TO.C,R20*%
X92440000Y20425000D03*
X92440000Y22075000D03*
%TD*%
D27*
%TO.C,R45*%
X20055000Y50200000D03*
X20055000Y48550000D03*
%TD*%
%TO.C,R5*%
X52740000Y12425000D03*
X52740000Y10775000D03*
%TD*%
%TO.C,R21*%
X90980000Y32465000D03*
X90980000Y30815000D03*
%TD*%
D37*
%TO.C,CR1*%
X90075000Y8565000D03*
X89425000Y8565000D03*
X88775000Y8565000D03*
X88775000Y6665000D03*
X89425000Y6665000D03*
X90075000Y6665000D03*
%TD*%
D32*
%TO.C,D7*%
X44833300Y51855000D03*
X46708300Y51855000D03*
%TD*%
D38*
%TO.C,U3*%
X44236500Y25440100D03*
X42961500Y24165100D03*
X42961500Y25440100D03*
X44236500Y24165100D03*
D39*
X47036500Y22202600D03*
X47036500Y22602600D03*
X47036500Y23002600D03*
X47036500Y23402600D03*
X47036500Y23802600D03*
X47036500Y24202600D03*
X47036500Y24602600D03*
X47036500Y25002600D03*
X47036500Y25402600D03*
X47036500Y25802600D03*
X47036500Y26202600D03*
X47036500Y26602600D03*
X47036500Y27002600D03*
X47036500Y27402600D03*
D40*
X46199000Y28240100D03*
X45799000Y28240100D03*
X45399000Y28240100D03*
X44999000Y28240100D03*
X44599000Y28240100D03*
X44199000Y28240100D03*
X43799000Y28240100D03*
X43399000Y28240100D03*
X42999000Y28240100D03*
X42599000Y28240100D03*
X42199000Y28240100D03*
X41799000Y28240100D03*
X41399000Y28240100D03*
X40999000Y28240100D03*
D39*
X40161500Y27402600D03*
X40161500Y27002600D03*
X40161500Y26602600D03*
X40161500Y26202600D03*
X40161500Y25802600D03*
X40161500Y25402600D03*
X40161500Y25002600D03*
X40161500Y24602600D03*
X40161500Y24202600D03*
X40161500Y23802600D03*
X40161500Y23402600D03*
X40161500Y23002600D03*
X40161500Y22602600D03*
X40161500Y22202600D03*
D40*
X40999000Y21365100D03*
X41399000Y21365100D03*
X41799000Y21365100D03*
X42199000Y21365100D03*
X42599000Y21365100D03*
X42999000Y21365100D03*
X43399000Y21365100D03*
X43799000Y21365100D03*
X44199000Y21365100D03*
X44599000Y21365100D03*
X44999000Y21365100D03*
X45399000Y21365100D03*
X45799000Y21365100D03*
X46199000Y21365100D03*
%TD*%
D41*
%TO.C,L2*%
X19714600Y41858400D03*
X19714600Y36158400D03*
%TD*%
D42*
%TO.C,C6*%
X38980000Y18780000D03*
X38980000Y19740000D03*
%TD*%
D27*
%TO.C,R23*%
X35465000Y50200000D03*
X35465000Y48550000D03*
%TD*%
D43*
%TO.C,C12*%
X53110000Y13645000D03*
X54070000Y13645000D03*
%TD*%
D33*
%TO.C,C45*%
X1210000Y26830000D03*
X1210000Y28380000D03*
%TD*%
D44*
%TO.C,U10*%
X25925100Y26607455D03*
X25925100Y27107581D03*
X25925100Y27607707D03*
X25925100Y28107833D03*
X24324900Y28107833D03*
X24324900Y27607707D03*
X24324900Y27107581D03*
X24324900Y26607455D03*
%TD*%
D16*
%TO.C,R34*%
X2740000Y26767500D03*
X2740000Y28417500D03*
%TD*%
D34*
%TO.C,C5*%
X43325000Y31825000D03*
X43325000Y30865000D03*
%TD*%
D28*
%TO.C,R4*%
X68910000Y23790000D03*
X67260000Y23790000D03*
%TD*%
D14*
%TO.C,C38*%
X24751100Y41523000D03*
X27701100Y41523000D03*
%TD*%
D28*
%TO.C,R12*%
X68925000Y39050000D03*
X67275000Y39050000D03*
%TD*%
D45*
%TO.C,U7*%
X34555000Y20295000D03*
X32255000Y20295000D03*
X29955000Y20295000D03*
D46*
X32255000Y13995000D03*
%TD*%
D32*
%TO.C,D9*%
X21972500Y51860000D03*
X23847500Y51860000D03*
%TD*%
D42*
%TO.C,C1*%
X43195000Y18875000D03*
X43195000Y19835000D03*
%TD*%
D27*
%TO.C,R31*%
X27835000Y50200000D03*
X27835000Y48550000D03*
%TD*%
D43*
%TO.C,C7*%
X37860000Y22615000D03*
X38820000Y22615000D03*
%TD*%
D16*
%TO.C,R37*%
X9130000Y26292500D03*
X9130000Y27942500D03*
%TD*%
D47*
%TO.C,D1*%
X90952500Y29080000D03*
X89377500Y29080000D03*
%TD*%
D32*
%TO.C,D5*%
X29592500Y51860000D03*
X31467500Y51860000D03*
%TD*%
D27*
%TO.C,R13*%
X89340000Y22075000D03*
X89340000Y20425000D03*
%TD*%
D43*
%TO.C,C3*%
X36515000Y26855000D03*
X37475000Y26855000D03*
%TD*%
D15*
%TO.C,Q2*%
X87545000Y44192500D03*
X89445000Y44192500D03*
X88495000Y46067500D03*
%TD*%
D48*
%TO.C,U8*%
X89036100Y37340000D03*
D49*
X89436100Y36861400D03*
X89836100Y36861400D03*
X89836100Y37818600D03*
X89436100Y37818600D03*
%TD*%
D50*
%TO.C,C4*%
X49515000Y25995000D03*
X48555000Y25995000D03*
%TD*%
D18*
%TO.C,R29*%
X5265000Y21920000D03*
X6915000Y21920000D03*
%TD*%
D17*
%TO.C,C36*%
X5315000Y20360000D03*
X6865000Y20360000D03*
%TD*%
D51*
%TO.C,J8*%
X83804999Y6659499D03*
X81264999Y6659499D03*
X78724999Y6659499D03*
X85074999Y7509500D03*
X82534999Y7509500D03*
X79994999Y7509500D03*
D52*
X85124999Y6479499D03*
D53*
X86965001Y7659499D03*
D54*
X86965001Y15744499D03*
D55*
X85230000Y17564500D03*
D56*
X83914999Y17349500D03*
D57*
X79465102Y17384499D03*
D58*
X74830001Y17384500D03*
D59*
X71815000Y16209500D03*
X71765000Y10239500D03*
%TD*%
D19*
%TO.C,C18*%
X85445000Y42140000D03*
X83895000Y42140000D03*
%TD*%
D28*
%TO.C,R15*%
X68915000Y32920000D03*
X67265000Y32920000D03*
%TD*%
D32*
%TO.C,D8*%
X41023000Y51855000D03*
X42898000Y51855000D03*
%TD*%
D60*
%TO.C,D11*%
X84075000Y46307500D03*
X84075000Y44432500D03*
%TD*%
D28*
%TO.C,R9*%
X68925000Y35985000D03*
X67275000Y35985000D03*
%TD*%
D31*
%TO.C,C22*%
X90860000Y22025000D03*
X90860000Y20475000D03*
%TD*%
D19*
%TO.C,C37*%
X38185000Y16520000D03*
X36635000Y16520000D03*
%TD*%
D28*
%TO.C,R46*%
X88520000Y42145000D03*
X86870000Y42145000D03*
%TD*%
D61*
%TO.C,Y1*%
X51360000Y32437600D03*
X51360000Y37035000D03*
X48820000Y37035000D03*
X48820000Y32437600D03*
%TD*%
D62*
%TO.C,C13*%
X73955000Y44150000D03*
X73955000Y47225000D03*
%TD*%
D16*
%TO.C,R1*%
X42620000Y15645000D03*
X42620000Y17295000D03*
%TD*%
D44*
%TO.C,U5*%
X25940100Y31799811D03*
X25940100Y32299937D03*
X25940100Y32800063D03*
X25940100Y33300189D03*
X24339900Y33300189D03*
X24339900Y32800063D03*
X24339900Y32299937D03*
X24339900Y31799811D03*
%TD*%
D63*
%TO.C,Z1*%
X81512800Y47492200D03*
X81512800Y44342200D03*
%TD*%
D50*
%TO.C,C2*%
X49925000Y21975000D03*
X48965000Y21975000D03*
%TD*%
D33*
%TO.C,C16*%
X79560000Y45853400D03*
X79560000Y47403400D03*
%TD*%
D28*
%TO.C,R6*%
X68910000Y26830000D03*
X67260000Y26830000D03*
%TD*%
%TO.C,R3*%
X68910000Y22270000D03*
X67260000Y22270000D03*
%TD*%
%TO.C,R11*%
X68925000Y37515000D03*
X67275000Y37515000D03*
%TD*%
D27*
%TO.C,R44*%
X23860000Y50200000D03*
X23860000Y48550000D03*
%TD*%
D33*
%TO.C,C21*%
X92520000Y30857500D03*
X92520000Y32407500D03*
%TD*%
D27*
%TO.C,R35*%
X20502000Y32569000D03*
X20502000Y30919000D03*
%TD*%
D29*
%TO.C,J10*%
X95085600Y37520000D03*
D30*
X96610601Y36044999D03*
X96610601Y38995001D03*
%TD*%
D32*
%TO.C,D10*%
X18162500Y51860000D03*
X20037500Y51860000D03*
%TD*%
D17*
%TO.C,C32*%
X13065000Y23320000D03*
X14615000Y23320000D03*
%TD*%
D12*
%TO.C,J6*%
X13354800Y8909600D03*
X14154800Y8909600D03*
D13*
X15354800Y8909600D03*
X16354800Y8909600D03*
X16854800Y8909600D03*
X17854800Y8909600D03*
D12*
X19054800Y8909600D03*
X19854800Y8909600D03*
X19854800Y8909600D03*
X19054800Y8909600D03*
D13*
X18354800Y8909600D03*
X17354800Y8909600D03*
X15854800Y8909600D03*
X14854800Y8909600D03*
D12*
X14154800Y8909600D03*
X13354800Y8909600D03*
%TD*%
D42*
%TO.C,C9*%
X42275000Y30330000D03*
X42275000Y31290000D03*
%TD*%
%TO.C,C10*%
X40010000Y18770000D03*
X40010000Y19730000D03*
%TD*%
D28*
%TO.C,R33*%
X6925000Y23500000D03*
X5275000Y23500000D03*
%TD*%
D64*
%TO.C,R41*%
X12105000Y13670000D03*
X12105000Y12650000D03*
%TD*%
D14*
%TO.C,C31*%
X11970000Y21165000D03*
X14920000Y21165000D03*
%TD*%
D27*
%TO.C,R42*%
X46870000Y50180000D03*
X46870000Y48530000D03*
%TD*%
D32*
%TO.C,D3*%
X37212500Y51850000D03*
X39087500Y51850000D03*
%TD*%
D16*
%TO.C,R17*%
X47080000Y33860000D03*
X47080000Y35510000D03*
%TD*%
D26*
%TO.C,R49*%
X52215000Y20345000D03*
X51195000Y20345000D03*
%TD*%
D17*
%TO.C,C17*%
X83885000Y40590000D03*
X85435000Y40590000D03*
%TD*%
D29*
%TO.C,J5*%
X95105600Y29830000D03*
D30*
X96630601Y28354999D03*
X96630601Y31305001D03*
%TD*%
D64*
%TO.C,R40*%
X9160000Y13680000D03*
X9160000Y12660000D03*
%TD*%
D65*
%TO.C,J2*%
X39035000Y30675000D03*
X39035000Y34875000D03*
%TD*%
D17*
%TO.C,C26*%
X27565000Y36100000D03*
X29115000Y36100000D03*
%TD*%
D33*
%TO.C,C14*%
X76432800Y45853400D03*
X76432800Y47403400D03*
%TD*%
D28*
%TO.C,R14*%
X68915000Y29875000D03*
X67265000Y29875000D03*
%TD*%
D66*
%TO.C,C33*%
X20525000Y21355000D03*
X20525000Y19455000D03*
%TD*%
D33*
%TO.C,C15*%
X77956800Y45853400D03*
X77956800Y47403400D03*
%TD*%
D16*
%TO.C,R2*%
X41100000Y15645000D03*
X41100000Y17295000D03*
%TD*%
D67*
%TO.C,J1*%
X51420000Y11050000D03*
X47220000Y11050000D03*
%TD*%
D28*
%TO.C,R10*%
X68915000Y31400000D03*
X67265000Y31400000D03*
%TD*%
D31*
%TO.C,C44*%
X18978000Y32468200D03*
X18978000Y30918200D03*
%TD*%
D32*
%TO.C,D6*%
X25782500Y51860000D03*
X27657500Y51860000D03*
%TD*%
D68*
%TO.C,U1*%
X48220000Y15635000D03*
X50370000Y17335000D03*
X48220000Y17335000D03*
X50370000Y15635000D03*
D69*
X51200000Y19185000D03*
X49930000Y19185000D03*
X48660000Y19185000D03*
X47390000Y19185000D03*
X47390000Y13785000D03*
X48660000Y13785000D03*
X49930000Y13785000D03*
X51200000Y13785000D03*
%TD*%
M02*
