%TF.GenerationSoftware,KiCad,Pcbnew,(6.0.2-0)*%
%TF.CreationDate,2022-03-19T00:24:53+01:00*%
%TF.ProjectId,RP2040GPSTracker,52503230-3430-4475-9053-547261636b65,rev?*%
%TF.SameCoordinates,PX4416780PY363af58*%
%TF.FileFunction,Soldermask,Top*%
%TF.FilePolarity,Negative*%
%FSLAX46Y46*%
G04 Gerber Fmt 4.6, Leading zero omitted, Abs format (unit mm)*
G04 Created by KiCad (PCBNEW (6.0.2-0)) date 2022-03-19 00:24:53*
%MOMM*%
%LPD*%
G01*
G04 APERTURE LIST*
G04 Aperture macros list*
%AMRoundRect*
0 Rectangle with rounded corners*
0 $1 Rounding radius*
0 $2 $3 $4 $5 $6 $7 $8 $9 X,Y pos of 4 corners*
0 Add a 4 corners polygon primitive as box body*
4,1,4,$2,$3,$4,$5,$6,$7,$8,$9,$2,$3,0*
0 Add four circle primitives for the rounded corners*
1,1,$1+$1,$2,$3*
1,1,$1+$1,$4,$5*
1,1,$1+$1,$6,$7*
1,1,$1+$1,$8,$9*
0 Add four rect primitives between the rounded corners*
20,1,$1+$1,$2,$3,$4,$5,0*
20,1,$1+$1,$4,$5,$6,$7,0*
20,1,$1+$1,$6,$7,$8,$9,0*
20,1,$1+$1,$8,$9,$2,$3,0*%
G04 Aperture macros list end*
%ADD10C,0.100000*%
%ADD11RoundRect,0.243750X-0.243750X-0.456250X0.243750X-0.456250X0.243750X0.456250X-0.243750X0.456250X0*%
%ADD12RoundRect,0.243750X0.243750X0.456250X-0.243750X0.456250X-0.243750X-0.456250X0.243750X-0.456250X0*%
%ADD13RoundRect,0.218750X0.256250X-0.218750X0.256250X0.218750X-0.256250X0.218750X-0.256250X-0.218750X0*%
%ADD14R,0.650000X0.400000*%
%ADD15RoundRect,0.250000X-0.325000X-0.650000X0.325000X-0.650000X0.325000X0.650000X-0.325000X0.650000X0*%
%ADD16RoundRect,0.250000X-0.650000X0.325000X-0.650000X-0.325000X0.650000X-0.325000X0.650000X0.325000X0*%
%ADD17RoundRect,0.250000X-0.475000X0.250000X-0.475000X-0.250000X0.475000X-0.250000X0.475000X0.250000X0*%
%ADD18RoundRect,0.200000X-0.275000X0.200000X-0.275000X-0.200000X0.275000X-0.200000X0.275000X0.200000X0*%
%ADD19O,1.700000X1.700000*%
%ADD20R,1.700000X1.700000*%
%ADD21O,0.900000X1.700000*%
%ADD22O,1.000000X2.100000*%
%ADD23R,0.600000X1.450000*%
%ADD24R,0.300000X1.450000*%
%ADD25C,0.650000*%
%ADD26RoundRect,0.200000X0.275000X-0.200000X0.275000X0.200000X-0.275000X0.200000X-0.275000X-0.200000X0*%
%ADD27RoundRect,0.225000X-0.250000X0.225000X-0.250000X-0.225000X0.250000X-0.225000X0.250000X0.225000X0*%
%ADD28RoundRect,0.200000X-0.200000X-0.275000X0.200000X-0.275000X0.200000X0.275000X-0.200000X0.275000X0*%
%ADD29RoundRect,0.225000X0.250000X-0.225000X0.250000X0.225000X-0.250000X0.225000X-0.250000X-0.225000X0*%
%ADD30RoundRect,0.225000X0.225000X0.250000X-0.225000X0.250000X-0.225000X-0.250000X0.225000X-0.250000X0*%
%ADD31R,0.127000X0.127000*%
%ADD32R,0.700000X0.250000*%
%ADD33R,0.250000X1.400000*%
%ADD34C,6.400000*%
%ADD35R,2.600000X3.100000*%
%ADD36R,0.900000X1.100000*%
%ADD37R,1.100000X0.900000*%
%ADD38O,0.600000X1.600000*%
%ADD39O,1.600000X0.600000*%
%ADD40RoundRect,0.200000X0.200000X0.275000X-0.200000X0.275000X-0.200000X-0.275000X0.200000X-0.275000X0*%
%ADD41R,2.209800X1.041400*%
%ADD42R,1.041400X0.990600*%
%ADD43O,1.200000X1.750000*%
%ADD44RoundRect,0.250000X-0.350000X-0.625000X0.350000X-0.625000X0.350000X0.625000X-0.350000X0.625000X0*%
%ADD45RoundRect,0.225000X-0.225000X-0.250000X0.225000X-0.250000X0.225000X0.250000X-0.225000X0.250000X0*%
%ADD46RoundRect,0.144000X1.456000X1.456000X-1.456000X1.456000X-1.456000X-1.456000X1.456000X-1.456000X0*%
%ADD47RoundRect,0.050000X0.050000X0.387500X-0.050000X0.387500X-0.050000X-0.387500X0.050000X-0.387500X0*%
%ADD48RoundRect,0.050000X0.387500X0.050000X-0.387500X0.050000X-0.387500X-0.050000X0.387500X-0.050000X0*%
%ADD49R,3.400000X2.000000*%
%ADD50R,0.711200X0.228600*%
%ADD51O,1.000000X1.000000*%
%ADD52R,1.000000X1.000000*%
%ADD53R,3.800000X2.000000*%
%ADD54R,1.500000X2.000000*%
%ADD55R,0.101600X0.635000*%
%ADD56R,0.203200X0.203200*%
%ADD57O,1.270000X2.565400*%
%ADD58R,0.635000X1.955800*%
%ADD59R,1.574800X0.965200*%
%ADD60R,1.346200X0.965200*%
%ADD61R,0.736600X1.016000*%
%ADD62R,1.371600X0.609600*%
%ADD63R,0.558800X1.219200*%
%ADD64R,0.558800X1.651000*%
%ADD65R,0.939800X0.787400*%
%ADD66R,0.838200X0.939800*%
%ADD67R,4.500000X2.000000*%
%ADD68RoundRect,0.250000X0.925000X-0.412500X0.925000X0.412500X-0.925000X0.412500X-0.925000X-0.412500X0*%
%ADD69R,0.950000X0.900000*%
%ADD70R,0.520000X0.300000*%
%ADD71R,0.550000X0.300000*%
%ADD72R,0.650000X1.200000*%
%ADD73R,1.200000X0.650000*%
%ADD74RoundRect,0.150000X0.650000X0.150000X-0.650000X0.150000X-0.650000X-0.150000X0.650000X-0.150000X0*%
G04 APERTURE END LIST*
D10*
%TO.C,U6*%
X14897569Y28332148D02*
X14897569Y28082148D01*
X14897569Y28082148D02*
X15597569Y28082148D01*
X15597569Y28082148D02*
X15597569Y28232148D01*
X15597569Y28232148D02*
X15497569Y28332148D01*
X15497569Y28332148D02*
X14897569Y28332148D01*
G36*
X15597569Y28232148D02*
G01*
X15597569Y28082148D01*
X14897569Y28082148D01*
X14897569Y28332148D01*
X15497569Y28332148D01*
X15597569Y28232148D01*
G37*
X15597569Y28232148D02*
X15597569Y28082148D01*
X14897569Y28082148D01*
X14897569Y28332148D01*
X15497569Y28332148D01*
X15597569Y28232148D01*
X15822255Y29006896D02*
X16072255Y29006896D01*
X16072255Y29006896D02*
X16072255Y28306896D01*
X16072255Y28306896D02*
X15922255Y28306896D01*
X15922255Y28306896D02*
X15822255Y28406896D01*
X15822255Y28406896D02*
X15822255Y29006896D01*
G36*
X16072255Y28306896D02*
G01*
X15922255Y28306896D01*
X15822255Y28406896D01*
X15822255Y29006896D01*
X16072255Y29006896D01*
X16072255Y28306896D01*
G37*
X16072255Y28306896D02*
X15922255Y28306896D01*
X15822255Y28406896D01*
X15822255Y29006896D01*
X16072255Y29006896D01*
X16072255Y28306896D01*
X18572885Y29006896D02*
X18322885Y29006896D01*
X18322885Y29006896D02*
X18322885Y28306896D01*
X18322885Y28306896D02*
X18472885Y28306896D01*
X18472885Y28306896D02*
X18572885Y28406896D01*
X18572885Y28406896D02*
X18572885Y29006896D01*
G36*
X18572885Y28406896D02*
G01*
X18472885Y28306896D01*
X18322885Y28306896D01*
X18322885Y29006896D01*
X18572885Y29006896D01*
X18572885Y28406896D01*
G37*
X18572885Y28406896D02*
X18472885Y28306896D01*
X18322885Y28306896D01*
X18322885Y29006896D01*
X18572885Y29006896D01*
X18572885Y28406896D01*
X19497571Y28332148D02*
X19497571Y28082148D01*
X19497571Y28082148D02*
X18797571Y28082148D01*
X18797571Y28082148D02*
X18797571Y28232148D01*
X18797571Y28232148D02*
X18897571Y28332148D01*
X18897571Y28332148D02*
X19497571Y28332148D01*
G36*
X19497571Y28082148D02*
G01*
X18797571Y28082148D01*
X18797571Y28232148D01*
X18897571Y28332148D01*
X19497571Y28332148D01*
X19497571Y28082148D01*
G37*
X19497571Y28082148D02*
X18797571Y28082148D01*
X18797571Y28232148D01*
X18897571Y28332148D01*
X19497571Y28332148D01*
X19497571Y28082148D01*
X15822255Y25406896D02*
X16072255Y25406896D01*
X16072255Y25406896D02*
X16072255Y26206896D01*
X16072255Y26206896D02*
X15922255Y26206896D01*
X15922255Y26206896D02*
X15822255Y26006896D01*
X15822255Y26006896D02*
X15822255Y25406896D01*
G36*
X16072255Y25406896D02*
G01*
X15822255Y25406896D01*
X15822255Y26006896D01*
X15922255Y26206896D01*
X16072255Y26206896D01*
X16072255Y25406896D01*
G37*
X16072255Y25406896D02*
X15822255Y25406896D01*
X15822255Y26006896D01*
X15922255Y26206896D01*
X16072255Y26206896D01*
X16072255Y25406896D01*
X18572885Y25406896D02*
X18322885Y25406896D01*
X18322885Y25406896D02*
X18322885Y26106896D01*
X18322885Y26106896D02*
X18472885Y26106896D01*
X18472885Y26106896D02*
X18572885Y26006896D01*
X18572885Y26006896D02*
X18572885Y25406896D01*
G36*
X18572885Y26006896D02*
G01*
X18572885Y25406896D01*
X18322885Y25406896D01*
X18322885Y26106896D01*
X18472885Y26106896D01*
X18572885Y26006896D01*
G37*
X18572885Y26006896D02*
X18572885Y25406896D01*
X18322885Y25406896D01*
X18322885Y26106896D01*
X18472885Y26106896D01*
X18572885Y26006896D01*
X14897569Y26081644D02*
X14897569Y26331644D01*
X14897569Y26331644D02*
X15597569Y26331644D01*
X15597569Y26331644D02*
X15597569Y26181644D01*
X15597569Y26181644D02*
X15497569Y26081644D01*
X15497569Y26081644D02*
X14897569Y26081644D01*
G36*
X15597569Y26181644D02*
G01*
X15497569Y26081644D01*
X14897569Y26081644D01*
X14897569Y26331644D01*
X15597569Y26331644D01*
X15597569Y26181644D01*
G37*
X15597569Y26181644D02*
X15497569Y26081644D01*
X14897569Y26081644D01*
X14897569Y26331644D01*
X15597569Y26331644D01*
X15597569Y26181644D01*
X19497571Y26081644D02*
X19497571Y26331644D01*
X19497571Y26331644D02*
X18797571Y26331644D01*
X18797571Y26331644D02*
X18797571Y26181644D01*
X18797571Y26181644D02*
X18897571Y26081644D01*
X18897571Y26081644D02*
X19497571Y26081644D01*
G36*
X19497571Y26081644D02*
G01*
X18897571Y26081644D01*
X18797571Y26181644D01*
X18797571Y26331644D01*
X19497571Y26331644D01*
X19497571Y26081644D01*
G37*
X19497571Y26081644D02*
X18897571Y26081644D01*
X18797571Y26181644D01*
X18797571Y26331644D01*
X19497571Y26331644D01*
X19497571Y26081644D01*
%TO.C,U4*%
X23359999Y24430001D02*
X23359999Y23989999D01*
X23359999Y23989999D02*
X24020000Y23989999D01*
X24020000Y23989999D02*
X24020000Y24430001D01*
X24020000Y24430001D02*
X23359999Y24430001D01*
G36*
X24020000Y23989999D02*
G01*
X23359999Y23989999D01*
X23359999Y24430001D01*
X24020000Y24430001D01*
X24020000Y23989999D01*
G37*
X24020000Y23989999D02*
X23359999Y23989999D01*
X23359999Y24430001D01*
X24020000Y24430001D01*
X24020000Y23989999D01*
X24100000Y25430001D02*
X24100000Y24989999D01*
X24100000Y24989999D02*
X24760001Y24989999D01*
X24760001Y24989999D02*
X24760001Y25430001D01*
X24760001Y25430001D02*
X24100000Y25430001D01*
G36*
X24760001Y24989999D02*
G01*
X24100000Y24989999D01*
X24100000Y25430001D01*
X24760001Y25430001D01*
X24760001Y24989999D01*
G37*
X24760001Y24989999D02*
X24100000Y24989999D01*
X24100000Y25430001D01*
X24760001Y25430001D01*
X24760001Y24989999D01*
X24100000Y24930000D02*
X24100000Y24490000D01*
X24100000Y24490000D02*
X24760001Y24490000D01*
X24760001Y24490000D02*
X24760001Y24930000D01*
X24760001Y24930000D02*
X24100000Y24930000D01*
G36*
X24760001Y24490000D02*
G01*
X24100000Y24490000D01*
X24100000Y24930000D01*
X24760001Y24930000D01*
X24760001Y24490000D01*
G37*
X24760001Y24490000D02*
X24100000Y24490000D01*
X24100000Y24930000D01*
X24760001Y24930000D01*
X24760001Y24490000D01*
X23359999Y25430001D02*
X23359999Y24989999D01*
X23359999Y24989999D02*
X24020000Y24989999D01*
X24020000Y24989999D02*
X24020000Y25430001D01*
X24020000Y25430001D02*
X23359999Y25430001D01*
G36*
X24020000Y24989999D02*
G01*
X23359999Y24989999D01*
X23359999Y25430001D01*
X24020000Y25430001D01*
X24020000Y24989999D01*
G37*
X24020000Y24989999D02*
X23359999Y24989999D01*
X23359999Y25430001D01*
X24020000Y25430001D01*
X24020000Y24989999D01*
X23359999Y24930000D02*
X23359999Y24490000D01*
X23359999Y24490000D02*
X24020000Y24490000D01*
X24020000Y24490000D02*
X24020000Y24930000D01*
X24020000Y24930000D02*
X23359999Y24930000D01*
G36*
X24020000Y24490000D02*
G01*
X23359999Y24490000D01*
X23359999Y24930000D01*
X24020000Y24930000D01*
X24020000Y24490000D01*
G37*
X24020000Y24490000D02*
X23359999Y24490000D01*
X23359999Y24930000D01*
X24020000Y24930000D01*
X24020000Y24490000D01*
X24100000Y24430001D02*
X24100000Y23989999D01*
X24100000Y23989999D02*
X24760001Y23989999D01*
X24760001Y23989999D02*
X24760001Y24430001D01*
X24760001Y24430001D02*
X24100000Y24430001D01*
G36*
X24760001Y23989999D02*
G01*
X24100000Y23989999D01*
X24100000Y24430001D01*
X24760001Y24430001D01*
X24760001Y23989999D01*
G37*
X24760001Y23989999D02*
X24100000Y23989999D01*
X24100000Y24430001D01*
X24760001Y24430001D01*
X24760001Y23989999D01*
%TD*%
D11*
%TO.C,D8*%
X42880000Y51855000D03*
X41005000Y51855000D03*
%TD*%
%TO.C,D7*%
X46682500Y51855000D03*
X44807500Y51855000D03*
%TD*%
%TO.C,D6*%
X27657500Y51860000D03*
X25782500Y51860000D03*
%TD*%
%TO.C,D5*%
X31467500Y51860000D03*
X29592500Y51860000D03*
%TD*%
%TO.C,D4*%
X35272500Y51860000D03*
X33397500Y51860000D03*
%TD*%
%TO.C,D3*%
X39077500Y51850000D03*
X37202500Y51850000D03*
%TD*%
D12*
%TO.C,D2*%
X1202500Y40750000D03*
X3077500Y40750000D03*
%TD*%
D13*
%TO.C,D1*%
X89460000Y29045000D03*
X89460000Y27470000D03*
%TD*%
D14*
%TO.C,CR1*%
X63510000Y17900000D03*
X63510000Y18550000D03*
X63510000Y19200000D03*
X65410000Y19200000D03*
X65410000Y18550000D03*
X65410000Y17900000D03*
%TD*%
D15*
%TO.C,C46*%
X27701100Y39084600D03*
X24751100Y39084600D03*
%TD*%
%TO.C,C38*%
X27701100Y41523000D03*
X24751100Y41523000D03*
%TD*%
D16*
%TO.C,C34*%
X10965000Y29850000D03*
X10965000Y32800000D03*
%TD*%
D17*
%TO.C,C33*%
X20525000Y19455000D03*
X20525000Y21355000D03*
%TD*%
D15*
%TO.C,C31*%
X14515000Y21330000D03*
X11565000Y21330000D03*
%TD*%
D18*
%TO.C,R43*%
X43060000Y48530000D03*
X43060000Y50180000D03*
%TD*%
%TO.C,R42*%
X46870000Y48530000D03*
X46870000Y50180000D03*
%TD*%
D19*
%TO.C,J11*%
X52520000Y51105000D03*
X55060000Y51105000D03*
X57600000Y51105000D03*
X60140000Y51105000D03*
X62680000Y51105000D03*
X65220000Y51105000D03*
X67760000Y51105000D03*
D20*
X70300000Y51105000D03*
%TD*%
D21*
%TO.C,J7*%
X39929800Y3814600D03*
D22*
X31279800Y7994600D03*
X39929800Y7994600D03*
D21*
X31279800Y3814600D03*
D23*
X32354800Y8909600D03*
X33154800Y8909600D03*
D24*
X33854800Y8909600D03*
X34854800Y8909600D03*
X36354800Y8909600D03*
X37354800Y8909600D03*
D23*
X38054800Y8909600D03*
X38854800Y8909600D03*
X38854800Y8909600D03*
X38054800Y8909600D03*
D24*
X36854800Y8909600D03*
X35854800Y8909600D03*
X35354800Y8909600D03*
X34354800Y8909600D03*
D23*
X33154800Y8909600D03*
X32354800Y8909600D03*
D25*
X38494800Y7464600D03*
X32714800Y7464600D03*
%TD*%
D26*
%TO.C,R38*%
X2740000Y31787500D03*
X2740000Y30137500D03*
%TD*%
D27*
%TO.C,C24*%
X92440000Y23855000D03*
X92440000Y25405000D03*
%TD*%
D28*
%TO.C,R32*%
X93015000Y37530000D03*
X91365000Y37530000D03*
%TD*%
D29*
%TO.C,C28*%
X68180000Y8395000D03*
X68180000Y6845000D03*
%TD*%
D30*
%TO.C,C35*%
X30160000Y20885000D03*
X31710000Y20885000D03*
%TD*%
D31*
%TO.C,U6*%
X15247569Y26206644D03*
D32*
X15247569Y26706770D03*
X15247569Y27206896D03*
X15247569Y27707022D03*
D31*
X15247569Y28207148D03*
X15947255Y28656896D03*
D33*
X16447381Y28306896D03*
X16947507Y28306896D03*
X17447633Y28306896D03*
X17947759Y28306896D03*
D31*
X18447885Y28656896D03*
X19147571Y28207148D03*
D32*
X19147571Y27707022D03*
X19147571Y27206896D03*
X19147571Y26706770D03*
D31*
X19147571Y26206644D03*
X18447885Y25756896D03*
D33*
X17947759Y26106896D03*
X17447633Y26106896D03*
X16947507Y26106896D03*
X16447381Y26106896D03*
D31*
X15947255Y25806896D03*
%TD*%
D34*
%TO.C,H4*%
X3604800Y4864600D03*
%TD*%
D35*
%TO.C,U2*%
X79354000Y29681200D03*
X79354000Y33081200D03*
X82254000Y33081200D03*
X82254000Y29681200D03*
X82254000Y26281200D03*
X79354000Y26281200D03*
X76454000Y26281200D03*
X76454000Y29681200D03*
X76454000Y33081200D03*
D36*
X75154000Y35981200D03*
X76554000Y35981200D03*
X77954000Y35981200D03*
X79354000Y35981200D03*
X80754000Y35981200D03*
X82154000Y35981200D03*
D37*
X84704000Y30381200D03*
X84704000Y28981200D03*
X84704000Y27581200D03*
X84704000Y26181200D03*
X84704000Y24781200D03*
D36*
X83554000Y23381200D03*
X82154000Y23381200D03*
X80754000Y23381200D03*
X79354000Y23381200D03*
X77954000Y23381200D03*
X76554000Y23381200D03*
X75154000Y23381200D03*
D37*
X74004000Y24781200D03*
X74004000Y26181200D03*
X74004000Y27581200D03*
X74004000Y28981200D03*
X74004000Y30381200D03*
X74004000Y31781200D03*
X74004000Y33181200D03*
X74004000Y34581200D03*
D38*
X74954000Y38481200D03*
X76054000Y38481200D03*
X77154000Y38481200D03*
X78254000Y38481200D03*
X79354000Y38481200D03*
X80454000Y38481200D03*
X81554000Y38481200D03*
X82654000Y38481200D03*
X83754000Y38481200D03*
D39*
X87204000Y35731200D03*
X87204000Y34631200D03*
X87204000Y33531200D03*
X87204000Y32431200D03*
X87204000Y31331200D03*
X87204000Y30231200D03*
X87204000Y29131200D03*
X87204000Y28031200D03*
X87204000Y26931200D03*
X87204000Y25831200D03*
X87204000Y24731200D03*
X87204000Y23631200D03*
D38*
X83754000Y20881200D03*
X82654000Y20881200D03*
X81554000Y20881200D03*
X80454000Y20881200D03*
X79354000Y20881200D03*
X78254000Y20881200D03*
X77154000Y20881200D03*
X76054000Y20881200D03*
X74954000Y20881200D03*
D39*
X71504000Y23631200D03*
X71504000Y24731200D03*
X71504000Y25831200D03*
X71504000Y26931200D03*
X71504000Y28031200D03*
X71504000Y29131200D03*
X71504000Y30231200D03*
X71504000Y31331200D03*
X71504000Y32431200D03*
X71504000Y33531200D03*
X71504000Y34631200D03*
X71504000Y35731200D03*
%TD*%
D40*
%TO.C,R39*%
X41990000Y10515000D03*
X43640000Y10515000D03*
%TD*%
D18*
%TO.C,R30*%
X31665000Y50200000D03*
X31665000Y48550000D03*
%TD*%
D28*
%TO.C,R16*%
X62590000Y24300000D03*
X60940000Y24300000D03*
%TD*%
D40*
%TO.C,R28*%
X1202500Y38925000D03*
X2852500Y38925000D03*
%TD*%
D34*
%TO.C,H3*%
X95604800Y4864600D03*
%TD*%
D41*
%TO.C,J4*%
X96610601Y23358201D03*
X96610601Y20408199D03*
D42*
X95085600Y21883200D03*
%TD*%
D27*
%TO.C,C23*%
X89460000Y30857500D03*
X89460000Y32407500D03*
%TD*%
D40*
%TO.C,R7*%
X67415000Y31200000D03*
X69065000Y31200000D03*
%TD*%
D28*
%TO.C,R19*%
X35895000Y23965000D03*
X34245000Y23965000D03*
%TD*%
D30*
%TO.C,C19*%
X54350000Y33385000D03*
X55900000Y33385000D03*
%TD*%
D43*
%TO.C,J9*%
X10850000Y40422000D03*
D44*
X8850000Y40422000D03*
%TD*%
D27*
%TO.C,C8*%
X45631000Y15418100D03*
X45631000Y16968100D03*
%TD*%
D28*
%TO.C,R36*%
X29515000Y10330000D03*
X27865000Y10330000D03*
%TD*%
%TO.C,R18*%
X35895000Y25470000D03*
X34245000Y25470000D03*
%TD*%
D45*
%TO.C,C20*%
X52700000Y33385000D03*
X51150000Y33385000D03*
%TD*%
D28*
%TO.C,R27*%
X72915000Y18830000D03*
X71265000Y18830000D03*
%TD*%
D27*
%TO.C,C11*%
X39408000Y15492100D03*
X39408000Y17042100D03*
%TD*%
D18*
%TO.C,R22*%
X39265000Y50180000D03*
X39265000Y48530000D03*
%TD*%
D40*
%TO.C,R8*%
X67415000Y34200000D03*
X69065000Y34200000D03*
%TD*%
D26*
%TO.C,R25*%
X65140000Y10127500D03*
X65140000Y11777500D03*
%TD*%
%TO.C,R20*%
X92440000Y22075000D03*
X92440000Y20425000D03*
%TD*%
D18*
%TO.C,R5*%
X56553000Y10031100D03*
X56553000Y11681100D03*
%TD*%
%TO.C,R21*%
X90980000Y30815000D03*
X90980000Y32465000D03*
%TD*%
D46*
%TO.C,U3*%
X43599000Y24802600D03*
D47*
X46199000Y21365100D03*
X45799000Y21365100D03*
X45399000Y21365100D03*
X44999000Y21365100D03*
X44599000Y21365100D03*
X44199000Y21365100D03*
X43799000Y21365100D03*
X43399000Y21365100D03*
X42999000Y21365100D03*
X42599000Y21365100D03*
X42199000Y21365100D03*
X41799000Y21365100D03*
X41399000Y21365100D03*
X40999000Y21365100D03*
D48*
X40161500Y22202600D03*
X40161500Y22602600D03*
X40161500Y23002600D03*
X40161500Y23402600D03*
X40161500Y23802600D03*
X40161500Y24202600D03*
X40161500Y24602600D03*
X40161500Y25002600D03*
X40161500Y25402600D03*
X40161500Y25802600D03*
X40161500Y26202600D03*
X40161500Y26602600D03*
X40161500Y27002600D03*
X40161500Y27402600D03*
D47*
X40999000Y28240100D03*
X41399000Y28240100D03*
X41799000Y28240100D03*
X42199000Y28240100D03*
X42599000Y28240100D03*
X42999000Y28240100D03*
X43399000Y28240100D03*
X43799000Y28240100D03*
X44199000Y28240100D03*
X44599000Y28240100D03*
X44999000Y28240100D03*
X45399000Y28240100D03*
X45799000Y28240100D03*
X46199000Y28240100D03*
D48*
X47036500Y27402600D03*
X47036500Y27002600D03*
X47036500Y26602600D03*
X47036500Y26202600D03*
X47036500Y25802600D03*
X47036500Y25402600D03*
X47036500Y25002600D03*
X47036500Y24602600D03*
X47036500Y24202600D03*
X47036500Y23802600D03*
X47036500Y23402600D03*
X47036500Y23002600D03*
X47036500Y22602600D03*
X47036500Y22202600D03*
%TD*%
D34*
%TO.C,H2*%
X95604800Y48864600D03*
%TD*%
D49*
%TO.C,L2*%
X19714600Y36158400D03*
X19714600Y41858400D03*
%TD*%
D45*
%TO.C,C6*%
X37015000Y20900000D03*
X35465000Y20900000D03*
%TD*%
D18*
%TO.C,R23*%
X35465000Y50200000D03*
X35465000Y48550000D03*
%TD*%
D30*
%TO.C,C12*%
X45577000Y12270000D03*
X47127000Y12270000D03*
%TD*%
D29*
%TO.C,C45*%
X1210000Y28380000D03*
X1210000Y26830000D03*
%TD*%
D50*
%TO.C,U10*%
X24324900Y26607455D03*
X24324900Y27107581D03*
X24324900Y27607707D03*
X24324900Y28107833D03*
X25925100Y28107833D03*
X25925100Y27607707D03*
X25925100Y27107581D03*
X25925100Y26607455D03*
%TD*%
D26*
%TO.C,R34*%
X2740000Y28417500D03*
X2740000Y26767500D03*
%TD*%
D27*
%TO.C,C5*%
X43954600Y31292000D03*
X43954600Y32842000D03*
%TD*%
D40*
%TO.C,R4*%
X67413550Y28200000D03*
X69063550Y28200000D03*
%TD*%
D51*
%TO.C,J3*%
X39645000Y34065000D03*
X39645000Y32795000D03*
D52*
X39645000Y31525000D03*
%TD*%
D29*
%TO.C,C27*%
X88660000Y12125000D03*
X88660000Y10575000D03*
%TD*%
D40*
%TO.C,R12*%
X69065000Y38800000D03*
X67415000Y38800000D03*
%TD*%
D26*
%TO.C,R26*%
X62350000Y11815000D03*
X62350000Y10165000D03*
%TD*%
D53*
%TO.C,U7*%
X32190000Y12450000D03*
D54*
X29890000Y18750000D03*
X32190000Y18750000D03*
X34490000Y18750000D03*
%TD*%
D29*
%TO.C,C1*%
X44107000Y16968100D03*
X44107000Y15418100D03*
%TD*%
D18*
%TO.C,R31*%
X27835000Y50200000D03*
X27835000Y48550000D03*
%TD*%
D45*
%TO.C,C7*%
X37015000Y22450000D03*
X35465000Y22450000D03*
%TD*%
D26*
%TO.C,R37*%
X9130000Y27942500D03*
X9130000Y26292500D03*
%TD*%
D18*
%TO.C,R13*%
X89340000Y20425000D03*
X89340000Y22075000D03*
%TD*%
D29*
%TO.C,C30*%
X62350000Y8415000D03*
X62350000Y6865000D03*
%TD*%
D45*
%TO.C,C3*%
X35840000Y26985000D03*
X34290000Y26985000D03*
%TD*%
D55*
%TO.C,U8*%
X89436100Y37818600D03*
X89836100Y37818600D03*
X89836100Y36861400D03*
X89436100Y36861400D03*
D56*
X89036100Y37340000D03*
%TD*%
D29*
%TO.C,C29*%
X65140000Y8372500D03*
X65140000Y6822500D03*
%TD*%
D30*
%TO.C,C4*%
X50009800Y26305400D03*
X51559800Y26305400D03*
%TD*%
D26*
%TO.C,R24*%
X68180000Y11795000D03*
X68180000Y10145000D03*
%TD*%
D28*
%TO.C,R29*%
X6915000Y21920000D03*
X5265000Y21920000D03*
%TD*%
D45*
%TO.C,C36*%
X6865000Y20360000D03*
X5315000Y20360000D03*
%TD*%
D57*
%TO.C,J8*%
X71865000Y3159500D03*
D58*
X71765000Y10239500D03*
X71815000Y16209500D03*
D59*
X74830001Y17384500D03*
D60*
X79465102Y17384499D03*
D61*
X83914999Y17349500D03*
D62*
X85230000Y17564500D03*
D63*
X86965001Y15744499D03*
D64*
X86965001Y7659499D03*
D57*
X87215000Y3159500D03*
D65*
X85124999Y6479499D03*
D66*
X79994999Y7509500D03*
X82534999Y7509500D03*
X85074999Y7509500D03*
X78724999Y6659499D03*
X81264999Y6659499D03*
X83804999Y6659499D03*
%TD*%
D30*
%TO.C,C18*%
X83845000Y42790000D03*
X85395000Y42790000D03*
%TD*%
D28*
%TO.C,R15*%
X62568300Y28699000D03*
X60918300Y28699000D03*
%TD*%
D40*
%TO.C,R9*%
X67413550Y35700000D03*
X69063550Y35700000D03*
%TD*%
D27*
%TO.C,C22*%
X90860000Y20475000D03*
X90860000Y22025000D03*
%TD*%
D30*
%TO.C,C37*%
X38300000Y12610000D03*
X39850000Y12610000D03*
%TD*%
D34*
%TO.C,H1*%
X3604800Y48864600D03*
%TD*%
D67*
%TO.C,Y1*%
X49315000Y36865000D03*
X57815000Y36865000D03*
%TD*%
D68*
%TO.C,C13*%
X73910000Y48960000D03*
X73910000Y45885000D03*
%TD*%
D26*
%TO.C,R1*%
X42583000Y18365100D03*
X42583000Y16715100D03*
%TD*%
D50*
%TO.C,U5*%
X24339900Y31799811D03*
X24339900Y32299937D03*
X24339900Y32800063D03*
X24339900Y33300189D03*
X25940100Y33300189D03*
X25940100Y32800063D03*
X25940100Y32299937D03*
X25940100Y31799811D03*
%TD*%
D69*
%TO.C,Z1*%
X81512800Y44342200D03*
X81512800Y47492200D03*
%TD*%
D30*
%TO.C,C2*%
X50100050Y21700000D03*
X51650050Y21700000D03*
%TD*%
D70*
%TO.C,U4*%
X24429999Y25209999D03*
X24429999Y24710000D03*
X24429999Y24210001D03*
X23690001Y24210001D03*
X23690001Y24710000D03*
D71*
X23704987Y25209999D03*
%TD*%
D29*
%TO.C,C16*%
X79560000Y47403400D03*
X79560000Y45853400D03*
%TD*%
D40*
%TO.C,R6*%
X67413550Y29700000D03*
X69063550Y29700000D03*
%TD*%
%TO.C,R3*%
X67415000Y26700000D03*
X69065000Y26700000D03*
%TD*%
%TO.C,R11*%
X69070000Y37245000D03*
X67420000Y37245000D03*
%TD*%
D29*
%TO.C,C21*%
X92520000Y32407500D03*
X92520000Y30857500D03*
%TD*%
D18*
%TO.C,R35*%
X20502000Y30919000D03*
X20502000Y32569000D03*
%TD*%
D41*
%TO.C,J10*%
X96610601Y38995001D03*
X96610601Y36044999D03*
D42*
X95085600Y37520000D03*
%TD*%
D45*
%TO.C,C32*%
X14615000Y23320000D03*
X13065000Y23320000D03*
%TD*%
D22*
%TO.C,J6*%
X12279800Y7994600D03*
D21*
X20929800Y3814600D03*
X12279800Y3814600D03*
D22*
X20929800Y7994600D03*
D23*
X13354800Y8909600D03*
X14154800Y8909600D03*
D24*
X14854800Y8909600D03*
X15854800Y8909600D03*
X17354800Y8909600D03*
X18354800Y8909600D03*
D23*
X19054800Y8909600D03*
X19854800Y8909600D03*
X19854800Y8909600D03*
X19054800Y8909600D03*
D24*
X17854800Y8909600D03*
X16854800Y8909600D03*
X16354800Y8909600D03*
X15354800Y8909600D03*
D23*
X14154800Y8909600D03*
X13354800Y8909600D03*
D25*
X19494800Y7464600D03*
X13714800Y7464600D03*
%TD*%
D29*
%TO.C,C9*%
X42405200Y32842000D03*
X42405200Y31292000D03*
%TD*%
%TO.C,C10*%
X37884000Y17068600D03*
X37884000Y15518600D03*
%TD*%
D40*
%TO.C,R33*%
X5275000Y23500000D03*
X6925000Y23500000D03*
%TD*%
D18*
%TO.C,R41*%
X12105000Y12335000D03*
X12105000Y13985000D03*
%TD*%
D26*
%TO.C,R17*%
X45485000Y32885000D03*
X45485000Y31235000D03*
%TD*%
D45*
%TO.C,C17*%
X85395000Y41240000D03*
X83845000Y41240000D03*
%TD*%
D41*
%TO.C,J5*%
X96630601Y31305001D03*
X96630601Y28354999D03*
D42*
X95105600Y29830000D03*
%TD*%
D18*
%TO.C,R40*%
X9160000Y12345000D03*
X9160000Y13995000D03*
%TD*%
D72*
%TO.C,J2*%
X34845000Y35370000D03*
X34845000Y31070000D03*
X36995000Y35370000D03*
X36995000Y31070000D03*
%TD*%
D45*
%TO.C,C26*%
X29115000Y36100000D03*
X27565000Y36100000D03*
%TD*%
D29*
%TO.C,C14*%
X76432800Y47403400D03*
X76432800Y45853400D03*
%TD*%
D28*
%TO.C,R14*%
X62566400Y26844800D03*
X60916400Y26844800D03*
%TD*%
D29*
%TO.C,C15*%
X77956800Y47403400D03*
X77956800Y45853400D03*
%TD*%
D26*
%TO.C,R2*%
X41059000Y18412100D03*
X41059000Y16762100D03*
%TD*%
D73*
%TO.C,J1*%
X50491400Y10459800D03*
X54791400Y10459800D03*
X54791400Y8309800D03*
X50491400Y8309800D03*
%TD*%
D40*
%TO.C,R10*%
X67415000Y32700000D03*
X69065000Y32700000D03*
%TD*%
D27*
%TO.C,C44*%
X18978000Y30918200D03*
X18978000Y32468200D03*
%TD*%
D74*
%TO.C,U1*%
X47880000Y14535000D03*
X47880000Y15805000D03*
X47880000Y17075000D03*
X47880000Y18345000D03*
X55080000Y18345000D03*
X55080000Y17075000D03*
X55080000Y15805000D03*
X55080000Y14535000D03*
%TD*%
M02*
