M48
; DRILL file {KiCad (6.0.2-0)} date 2022 March 19, Saturday 00:24:55
; FORMAT={-:-/ absolute / metric / decimal}
; #@! TF.CreationDate,2022-03-19T00:24:55+01:00
; #@! TF.GenerationSoftware,Kicad,Pcbnew,(6.0.2-0)
; #@! TF.FileFunction,Plated,1,2,PTH
FMAT,2
METRIC
; #@! TA.AperFunction,Plated,PTH,ViaDrill
T1C0.200
; #@! TA.AperFunction,Plated,PTH,ViaDrill
T2C0.350
; #@! TA.AperFunction,Plated,PTH,ComponentDrill
T3C0.350
; #@! TA.AperFunction,Plated,PTH,ComponentDrill
T4C0.600
; #@! TA.AperFunction,Plated,PTH,ComponentDrill
T5C0.700
; #@! TA.AperFunction,Plated,PTH,ComponentDrill
T6C0.750
; #@! TA.AperFunction,Plated,PTH,ComponentDrill
T7C0.800
; #@! TA.AperFunction,Plated,PTH,ComponentDrill
T8C1.000
; #@! TA.AperFunction,Plated,PTH,ComponentDrill
T9C3.200
%
G90
G05
T1
X1.065Y29.7
X1.565Y30.375
X2.74Y32.925
X3.74Y29.25
X3.8Y26.555
X5.19Y28.925
X5.295Y26.14
X9.16Y14.98
X9.615Y29.425
X11.065Y25.425
X12.06Y26.4
X12.105Y14.86
X13.94Y28.45
X13.99Y29.325
X18.978Y24.962
X19.765Y28.899
X19.93Y28.07
X19.994Y24.886
X20.002Y26.672
X20.002Y25.656
X20.02Y27.4
X22.65Y25.58
X23.84Y28.62
X24.909Y35.668
X25.02Y30.76
X25.502Y50.462
X25.658Y25.826
X26.776Y28.213
X26.852Y33.395
X27.57Y37.355
X27.83Y46.43
X28.145Y11.59
X29.29Y50.425
X31.105Y38.965
X31.71Y46.41
X31.855Y38.965
X32.605Y38.965
X32.64Y24.22
X32.915Y50.425
X33.185Y25.265
X33.22Y26.985
X33.355Y38.965
X34.105Y38.965
X34.855Y38.965
X35.455Y46.4
X36.94Y50.45
X39.28Y46.405
X40.745Y50.41
X42.515Y30.125
X43.07Y46.445
X43.615Y9.62
X44.715Y50.425
X44.945Y29.58
X46.885Y46.39
X53.54Y32.24
X60.755Y39.115
X60.755Y46.465
X61.605Y39.115
X61.605Y46.465
X62.455Y39.115
X62.455Y46.465
X63.355Y39.115
X63.355Y46.465
X64.205Y39.115
X64.205Y46.465
X65.055Y39.115
X65.055Y46.465
X65.905Y39.115
X65.905Y46.465
T2
X4.04Y23.5
X5.38Y19.05
X11.29Y26.25
X11.985Y22.9
X20.34Y18.15
X22.94Y23.2
X24.51Y29.47
X25.11Y28.83
X25.68Y29.44
X29.23Y25.2
X29.79Y24.55
X30.39Y25.2
X32.775Y20.915
X33.84Y20.55
X34.275Y21.75
X35.95Y36.06
X39.275Y14.075
X40.53Y15.035
X42.126Y22.593
X42.405Y34.15
X42.999Y26.91
X43.955Y34.15
X44.107Y14.135
X44.32Y12.27
X45.06Y18.405
X45.631Y14.135
X49.314Y10.452
X52.775Y26.235
X52.932Y21.7
X53.11Y18.345
X54.724Y25.336
X59.661Y28.579
X59.665Y24.3
X59.69Y27.75
X59.735Y26.845
X60.84Y18.39
X62.35Y5.6
X63.76Y11.27
X64.48Y20.405
X65.14Y5.62
X66.65Y11.26
X68.26Y18.3
X68.86Y5.741
X69.0Y16.06
X71.988Y38.063
X72.12Y22.58
X72.46Y15.02
X72.64Y11.08
X73.7Y15.36
X73.94Y23.55
X75.19Y13.87
X75.463Y27.467
X75.483Y30.847
X75.493Y34.287
X75.78Y18.65
X76.115Y12.985
X77.413Y31.897
X77.413Y28.527
X77.413Y25.097
X78.115Y48.8
X78.363Y27.467
X78.403Y34.277
X78.403Y30.887
X79.46Y16.27
X79.836Y39.821
X80.293Y31.877
X80.313Y25.087
X80.333Y28.497
X81.243Y30.897
X81.253Y27.467
X81.313Y34.287
X83.163Y31.907
X83.233Y25.117
X83.243Y28.447
X83.273Y35.977
X84.71Y8.56
X84.713Y26.176
X84.713Y23.534
X85.23Y16.45
X85.374Y44.088
X85.932Y30.728
X86.06Y28.64
X86.06Y24.169
X86.63Y9.42
X86.822Y21.299
X88.68Y9.26
X88.834Y36.259
X89.436Y38.78
X89.46Y33.804
X90.88Y24.48
X90.89Y26.99
X93.61Y30.47
X96.67Y29.79
X97.09Y37.52
X97.15Y21.87
T3
X42.324Y26.078
X42.324Y24.803
X42.324Y23.528
X43.599Y26.078
X43.599Y24.803
X43.599Y23.528
X44.874Y26.078
X44.874Y24.803
X44.874Y23.528
T5
X39.645Y34.065
X39.645Y32.795
X39.645Y31.525
T6
X8.85Y40.422
X10.85Y40.422
T8
X52.52Y51.105
X55.06Y51.105
X57.6Y51.105
X60.14Y51.105
X62.68Y51.105
X65.22Y51.105
X67.76Y51.105
X70.3Y51.105
T9
X3.605Y48.865
X3.605Y4.865
X95.605Y48.865
X95.605Y4.865
T4
G00X12.28Y8.545
M15
G01X12.28Y7.445
M16
G05
G00X12.28Y4.215
M15
G01X12.28Y3.415
M16
G05
G00X20.93Y8.545
M15
G01X20.93Y7.445
M16
G05
G00X20.93Y4.215
M15
G01X20.93Y3.415
M16
G05
G00X31.28Y8.545
M15
G01X31.28Y7.445
M16
G05
G00X31.28Y4.215
M15
G01X31.28Y3.415
M16
G05
G00X39.93Y8.545
M15
G01X39.93Y7.445
M16
G05
G00X39.93Y4.215
M15
G01X39.93Y3.415
M16
G05
T7
G00X71.865Y2.51
M15
G01X71.865Y3.809
M16
G05
G00X87.215Y2.51
M15
G01X87.215Y3.809
M16
G05
T0
M30
