%TF.GenerationSoftware,KiCad,Pcbnew,(6.0.2-0)*%
%TF.CreationDate,2022-03-15T20:23:42+01:00*%
%TF.ProjectId,RP2040GPSTracker,52503230-3430-4475-9053-547261636b65,rev?*%
%TF.SameCoordinates,PX4416780PY363af58*%
%TF.FileFunction,Legend,Top*%
%TF.FilePolarity,Positive*%
%FSLAX46Y46*%
G04 Gerber Fmt 4.6, Leading zero omitted, Abs format (unit mm)*
G04 Created by KiCad (PCBNEW (6.0.2-0)) date 2022-03-15 20:23:42*
%MOMM*%
%LPD*%
G01*
G04 APERTURE LIST*
%ADD10C,0.250000*%
%ADD11C,0.300000*%
%ADD12C,0.200000*%
%ADD13C,0.100000*%
%ADD14C,0.150000*%
%ADD15C,0.120000*%
%ADD16C,0.127000*%
G04 APERTURE END LIST*
D10*
X38817619Y41138096D02*
X39817619Y41138096D01*
X39817619Y40900000D01*
X39770000Y40757143D01*
X39674761Y40661905D01*
X39579523Y40614286D01*
X39389047Y40566667D01*
X39246190Y40566667D01*
X39055714Y40614286D01*
X38960476Y40661905D01*
X38865238Y40757143D01*
X38817619Y40900000D01*
X38817619Y41138096D01*
X39341428Y40138096D02*
X39341428Y39804762D01*
X38817619Y39661905D02*
X38817619Y40138096D01*
X39817619Y40138096D01*
X39817619Y39661905D01*
X39341428Y38900000D02*
X39293809Y38757143D01*
X39246190Y38709524D01*
X39150952Y38661905D01*
X39008095Y38661905D01*
X38912857Y38709524D01*
X38865238Y38757143D01*
X38817619Y38852381D01*
X38817619Y39233334D01*
X39817619Y39233334D01*
X39817619Y38900000D01*
X39770000Y38804762D01*
X39722380Y38757143D01*
X39627142Y38709524D01*
X39531904Y38709524D01*
X39436666Y38757143D01*
X39389047Y38804762D01*
X39341428Y38900000D01*
X39341428Y39233334D01*
X39817619Y38233334D02*
X39008095Y38233334D01*
X38912857Y38185715D01*
X38865238Y38138096D01*
X38817619Y38042858D01*
X38817619Y37852381D01*
X38865238Y37757143D01*
X38912857Y37709524D01*
X39008095Y37661905D01*
X39817619Y37661905D01*
X39770000Y36661905D02*
X39817619Y36757143D01*
X39817619Y36900000D01*
X39770000Y37042858D01*
X39674761Y37138096D01*
X39579523Y37185715D01*
X39389047Y37233334D01*
X39246190Y37233334D01*
X39055714Y37185715D01*
X38960476Y37138096D01*
X38865238Y37042858D01*
X38817619Y36900000D01*
X38817619Y36804762D01*
X38865238Y36661905D01*
X38912857Y36614286D01*
X39246190Y36614286D01*
X39246190Y36804762D01*
D11*
X43218571Y946429D02*
X41718571Y946429D01*
X41718571Y1517858D01*
X41790000Y1660715D01*
X41861428Y1732143D01*
X42004285Y1803572D01*
X42218571Y1803572D01*
X42361428Y1732143D01*
X42432857Y1660715D01*
X42504285Y1517858D01*
X42504285Y946429D01*
X43218571Y3303572D02*
X42504285Y2803572D01*
X43218571Y2446429D02*
X41718571Y2446429D01*
X41718571Y3017858D01*
X41790000Y3160715D01*
X41861428Y3232143D01*
X42004285Y3303572D01*
X42218571Y3303572D01*
X42361428Y3232143D01*
X42432857Y3160715D01*
X42504285Y3017858D01*
X42504285Y2446429D01*
X41718571Y4232143D02*
X41718571Y4517858D01*
X41790000Y4660715D01*
X41932857Y4803572D01*
X42218571Y4875000D01*
X42718571Y4875000D01*
X43004285Y4803572D01*
X43147142Y4660715D01*
X43218571Y4517858D01*
X43218571Y4232143D01*
X43147142Y4089286D01*
X43004285Y3946429D01*
X42718571Y3875000D01*
X42218571Y3875000D01*
X41932857Y3946429D01*
X41790000Y4089286D01*
X41718571Y4232143D01*
X41790000Y6303572D02*
X41718571Y6160715D01*
X41718571Y5946429D01*
X41790000Y5732143D01*
X41932857Y5589286D01*
X42075714Y5517858D01*
X42361428Y5446429D01*
X42575714Y5446429D01*
X42861428Y5517858D01*
X43004285Y5589286D01*
X43147142Y5732143D01*
X43218571Y5946429D01*
X43218571Y6089286D01*
X43147142Y6303572D01*
X43075714Y6375000D01*
X42575714Y6375000D01*
X42575714Y6089286D01*
X43218571Y7875000D02*
X42504285Y7375000D01*
X43218571Y7017858D02*
X41718571Y7017858D01*
X41718571Y7589286D01*
X41790000Y7732143D01*
X41861428Y7803572D01*
X42004285Y7875000D01*
X42218571Y7875000D01*
X42361428Y7803572D01*
X42432857Y7732143D01*
X42504285Y7589286D01*
X42504285Y7017858D01*
X42790000Y8446429D02*
X42790000Y9160715D01*
X43218571Y8303572D02*
X41718571Y8803572D01*
X43218571Y9303572D01*
X43218571Y9803572D02*
X41718571Y9803572D01*
X42790000Y10303572D01*
X41718571Y10803572D01*
X43218571Y10803572D01*
D12*
X46270952Y50302620D02*
X45937619Y50778810D01*
X45699523Y50302620D02*
X45699523Y51302620D01*
X46080476Y51302620D01*
X46175714Y51255000D01*
X46223333Y51207381D01*
X46270952Y51112143D01*
X46270952Y50969286D01*
X46223333Y50874048D01*
X46175714Y50826429D01*
X46080476Y50778810D01*
X45699523Y50778810D01*
X46699523Y50302620D02*
X46699523Y51302620D01*
X47080476Y51302620D01*
X47175714Y51255000D01*
X47223333Y51207381D01*
X47270952Y51112143D01*
X47270952Y50969286D01*
X47223333Y50874048D01*
X47175714Y50826429D01*
X47080476Y50778810D01*
X46699523Y50778810D01*
X47699523Y50302620D02*
X47699523Y50969286D01*
X47699523Y51302620D02*
X47651904Y51255000D01*
X47699523Y51207381D01*
X47747142Y51255000D01*
X47699523Y51302620D01*
X47699523Y51207381D01*
X49509047Y50302620D02*
X49175714Y50778810D01*
X48937619Y50302620D02*
X48937619Y51302620D01*
X49318571Y51302620D01*
X49413809Y51255000D01*
X49461428Y51207381D01*
X49509047Y51112143D01*
X49509047Y50969286D01*
X49461428Y50874048D01*
X49413809Y50826429D01*
X49318571Y50778810D01*
X48937619Y50778810D01*
X49937619Y50302620D02*
X49937619Y51302620D01*
X50318571Y51302620D01*
X50413809Y51255000D01*
X50461428Y51207381D01*
X50509047Y51112143D01*
X50509047Y50969286D01*
X50461428Y50874048D01*
X50413809Y50826429D01*
X50318571Y50778810D01*
X49937619Y50778810D01*
X50890000Y51207381D02*
X50937619Y51255000D01*
X51032857Y51302620D01*
X51270952Y51302620D01*
X51366190Y51255000D01*
X51413809Y51207381D01*
X51461428Y51112143D01*
X51461428Y51016905D01*
X51413809Y50874048D01*
X50842380Y50302620D01*
X51461428Y50302620D01*
X52080476Y51302620D02*
X52175714Y51302620D01*
X52270952Y51255000D01*
X52318571Y51207381D01*
X52366190Y51112143D01*
X52413809Y50921667D01*
X52413809Y50683572D01*
X52366190Y50493096D01*
X52318571Y50397858D01*
X52270952Y50350239D01*
X52175714Y50302620D01*
X52080476Y50302620D01*
X51985238Y50350239D01*
X51937619Y50397858D01*
X51890000Y50493096D01*
X51842380Y50683572D01*
X51842380Y50921667D01*
X51890000Y51112143D01*
X51937619Y51207381D01*
X51985238Y51255000D01*
X52080476Y51302620D01*
X53270952Y50969286D02*
X53270952Y50302620D01*
X53032857Y51350239D02*
X52794761Y50635953D01*
X53413809Y50635953D01*
X53985238Y51302620D02*
X54080476Y51302620D01*
X54175714Y51255000D01*
X54223333Y51207381D01*
X54270952Y51112143D01*
X54318571Y50921667D01*
X54318571Y50683572D01*
X54270952Y50493096D01*
X54223333Y50397858D01*
X54175714Y50350239D01*
X54080476Y50302620D01*
X53985238Y50302620D01*
X53890000Y50350239D01*
X53842380Y50397858D01*
X53794761Y50493096D01*
X53747142Y50683572D01*
X53747142Y50921667D01*
X53794761Y51112143D01*
X53842380Y51207381D01*
X53890000Y51255000D01*
X53985238Y51302620D01*
X56032857Y51255000D02*
X55937619Y51302620D01*
X55794761Y51302620D01*
X55651904Y51255000D01*
X55556666Y51159762D01*
X55509047Y51064524D01*
X55461428Y50874048D01*
X55461428Y50731191D01*
X55509047Y50540715D01*
X55556666Y50445477D01*
X55651904Y50350239D01*
X55794761Y50302620D01*
X55890000Y50302620D01*
X56032857Y50350239D01*
X56080476Y50397858D01*
X56080476Y50731191D01*
X55890000Y50731191D01*
X56461428Y50350239D02*
X56604285Y50302620D01*
X56842380Y50302620D01*
X56937619Y50350239D01*
X56985238Y50397858D01*
X57032857Y50493096D01*
X57032857Y50588334D01*
X56985238Y50683572D01*
X56937619Y50731191D01*
X56842380Y50778810D01*
X56651904Y50826429D01*
X56556666Y50874048D01*
X56509047Y50921667D01*
X56461428Y51016905D01*
X56461428Y51112143D01*
X56509047Y51207381D01*
X56556666Y51255000D01*
X56651904Y51302620D01*
X56890000Y51302620D01*
X57032857Y51255000D01*
X57461428Y50302620D02*
X57461428Y51302620D01*
X57794761Y50588334D01*
X58128095Y51302620D01*
X58128095Y50302620D01*
X59318571Y51350239D02*
X58461428Y50064524D01*
X60175714Y51255000D02*
X60080476Y51302620D01*
X59937619Y51302620D01*
X59794761Y51255000D01*
X59699523Y51159762D01*
X59651904Y51064524D01*
X59604285Y50874048D01*
X59604285Y50731191D01*
X59651904Y50540715D01*
X59699523Y50445477D01*
X59794761Y50350239D01*
X59937619Y50302620D01*
X60032857Y50302620D01*
X60175714Y50350239D01*
X60223333Y50397858D01*
X60223333Y50731191D01*
X60032857Y50731191D01*
X60651904Y50302620D02*
X60651904Y51302620D01*
X61223333Y50302620D01*
X61223333Y51302620D01*
X61651904Y50350239D02*
X61794761Y50302620D01*
X62032857Y50302620D01*
X62128095Y50350239D01*
X62175714Y50397858D01*
X62223333Y50493096D01*
X62223333Y50588334D01*
X62175714Y50683572D01*
X62128095Y50731191D01*
X62032857Y50778810D01*
X61842380Y50826429D01*
X61747142Y50874048D01*
X61699523Y50921667D01*
X61651904Y51016905D01*
X61651904Y51112143D01*
X61699523Y51207381D01*
X61747142Y51255000D01*
X61842380Y51302620D01*
X62080476Y51302620D01*
X62223333Y51255000D01*
X62604285Y50350239D02*
X62747142Y50302620D01*
X62985238Y50302620D01*
X63080476Y50350239D01*
X63128095Y50397858D01*
X63175714Y50493096D01*
X63175714Y50588334D01*
X63128095Y50683572D01*
X63080476Y50731191D01*
X62985238Y50778810D01*
X62794761Y50826429D01*
X62699523Y50874048D01*
X62651904Y50921667D01*
X62604285Y51016905D01*
X62604285Y51112143D01*
X62651904Y51207381D01*
X62699523Y51255000D01*
X62794761Y51302620D01*
X63032857Y51302620D01*
X63175714Y51255000D01*
X64318571Y51350239D02*
X63461428Y50064524D01*
X64985238Y50826429D02*
X65128095Y50778810D01*
X65175714Y50731191D01*
X65223333Y50635953D01*
X65223333Y50493096D01*
X65175714Y50397858D01*
X65128095Y50350239D01*
X65032857Y50302620D01*
X64651904Y50302620D01*
X64651904Y51302620D01*
X64985238Y51302620D01*
X65080476Y51255000D01*
X65128095Y51207381D01*
X65175714Y51112143D01*
X65175714Y51016905D01*
X65128095Y50921667D01*
X65080476Y50874048D01*
X64985238Y50826429D01*
X64651904Y50826429D01*
X65509047Y51302620D02*
X66080476Y51302620D01*
X65794761Y50302620D02*
X65794761Y51302620D01*
X66699523Y49921667D02*
X66651904Y49969286D01*
X66556666Y50112143D01*
X66509047Y50207381D01*
X66461428Y50350239D01*
X66413809Y50588334D01*
X66413809Y50778810D01*
X66461428Y51016905D01*
X66509047Y51159762D01*
X66556666Y51255000D01*
X66651904Y51397858D01*
X66699523Y51445477D01*
X67556666Y50302620D02*
X67080476Y50302620D01*
X67080476Y51302620D01*
X67890000Y50826429D02*
X68223333Y50826429D01*
X68366190Y50302620D02*
X67890000Y50302620D01*
X67890000Y51302620D01*
X68366190Y51302620D01*
X68699523Y49921667D02*
X68747142Y49969286D01*
X68842380Y50112143D01*
X68890000Y50207381D01*
X68937619Y50350239D01*
X68985238Y50588334D01*
X68985238Y50778810D01*
X68937619Y51016905D01*
X68890000Y51159762D01*
X68842380Y51255000D01*
X68747142Y51397858D01*
X68699523Y51445477D01*
X70556666Y50826429D02*
X70699523Y50778810D01*
X70747142Y50731191D01*
X70794761Y50635953D01*
X70794761Y50493096D01*
X70747142Y50397858D01*
X70699523Y50350239D01*
X70604285Y50302620D01*
X70223333Y50302620D01*
X70223333Y51302620D01*
X70556666Y51302620D01*
X70651904Y51255000D01*
X70699523Y51207381D01*
X70747142Y51112143D01*
X70747142Y51016905D01*
X70699523Y50921667D01*
X70651904Y50874048D01*
X70556666Y50826429D01*
X70223333Y50826429D01*
X71366190Y50302620D02*
X71270952Y50350239D01*
X71223333Y50397858D01*
X71175714Y50493096D01*
X71175714Y50778810D01*
X71223333Y50874048D01*
X71270952Y50921667D01*
X71366190Y50969286D01*
X71509047Y50969286D01*
X71604285Y50921667D01*
X71651904Y50874048D01*
X71699523Y50778810D01*
X71699523Y50493096D01*
X71651904Y50397858D01*
X71604285Y50350239D01*
X71509047Y50302620D01*
X71366190Y50302620D01*
X72556666Y50302620D02*
X72556666Y50826429D01*
X72509047Y50921667D01*
X72413809Y50969286D01*
X72223333Y50969286D01*
X72128095Y50921667D01*
X72556666Y50350239D02*
X72461428Y50302620D01*
X72223333Y50302620D01*
X72128095Y50350239D01*
X72080476Y50445477D01*
X72080476Y50540715D01*
X72128095Y50635953D01*
X72223333Y50683572D01*
X72461428Y50683572D01*
X72556666Y50731191D01*
X73032857Y50302620D02*
X73032857Y50969286D01*
X73032857Y50778810D02*
X73080476Y50874048D01*
X73128095Y50921667D01*
X73223333Y50969286D01*
X73318571Y50969286D01*
X74080476Y50302620D02*
X74080476Y51302620D01*
X74080476Y50350239D02*
X73985238Y50302620D01*
X73794761Y50302620D01*
X73699523Y50350239D01*
X73651904Y50397858D01*
X73604285Y50493096D01*
X73604285Y50778810D01*
X73651904Y50874048D01*
X73699523Y50921667D01*
X73794761Y50969286D01*
X73985238Y50969286D01*
X74080476Y50921667D01*
X50628095Y48692620D02*
X50294761Y49168810D01*
X50056666Y48692620D02*
X50056666Y49692620D01*
X50437619Y49692620D01*
X50532857Y49645000D01*
X50580476Y49597381D01*
X50628095Y49502143D01*
X50628095Y49359286D01*
X50580476Y49264048D01*
X50532857Y49216429D01*
X50437619Y49168810D01*
X50056666Y49168810D01*
X51437619Y48740239D02*
X51342380Y48692620D01*
X51151904Y48692620D01*
X51056666Y48740239D01*
X51009047Y48835477D01*
X51009047Y49216429D01*
X51056666Y49311667D01*
X51151904Y49359286D01*
X51342380Y49359286D01*
X51437619Y49311667D01*
X51485238Y49216429D01*
X51485238Y49121191D01*
X51009047Y49025953D01*
X51818571Y49359286D02*
X52056666Y48692620D01*
X52294761Y49359286D01*
X52675714Y48787858D02*
X52723333Y48740239D01*
X52675714Y48692620D01*
X52628095Y48740239D01*
X52675714Y48787858D01*
X52675714Y48692620D01*
X54437619Y48692620D02*
X53866190Y48692620D01*
X54151904Y48692620D02*
X54151904Y49692620D01*
X54056666Y49549762D01*
X53961428Y49454524D01*
X53866190Y49406905D01*
X54866190Y48787858D02*
X54913809Y48740239D01*
X54866190Y48692620D01*
X54818571Y48740239D01*
X54866190Y48787858D01*
X54866190Y48692620D01*
X55866190Y48692620D02*
X55294761Y48692620D01*
X55580476Y48692620D02*
X55580476Y49692620D01*
X55485238Y49549762D01*
X55390000Y49454524D01*
X55294761Y49406905D01*
X60056666Y49597381D02*
X60104285Y49645000D01*
X60199523Y49692620D01*
X60437619Y49692620D01*
X60532857Y49645000D01*
X60580476Y49597381D01*
X60628095Y49502143D01*
X60628095Y49406905D01*
X60580476Y49264048D01*
X60009047Y48692620D01*
X60628095Y48692620D01*
X60961428Y49692620D02*
X61628095Y49692620D01*
X61199523Y48692620D01*
X62009047Y49073572D02*
X62770952Y49073572D01*
X63437619Y49692620D02*
X63532857Y49692620D01*
X63628095Y49645000D01*
X63675714Y49597381D01*
X63723333Y49502143D01*
X63770952Y49311667D01*
X63770952Y49073572D01*
X63723333Y48883096D01*
X63675714Y48787858D01*
X63628095Y48740239D01*
X63532857Y48692620D01*
X63437619Y48692620D01*
X63342380Y48740239D01*
X63294761Y48787858D01*
X63247142Y48883096D01*
X63199523Y49073572D01*
X63199523Y49311667D01*
X63247142Y49502143D01*
X63294761Y49597381D01*
X63342380Y49645000D01*
X63437619Y49692620D01*
X64151904Y49597381D02*
X64199523Y49645000D01*
X64294761Y49692620D01*
X64532857Y49692620D01*
X64628095Y49645000D01*
X64675714Y49597381D01*
X64723333Y49502143D01*
X64723333Y49406905D01*
X64675714Y49264048D01*
X64104285Y48692620D01*
X64723333Y48692620D01*
X65151904Y49073572D02*
X65913809Y49073572D01*
X66342380Y49597381D02*
X66390000Y49645000D01*
X66485238Y49692620D01*
X66723333Y49692620D01*
X66818571Y49645000D01*
X66866190Y49597381D01*
X66913809Y49502143D01*
X66913809Y49406905D01*
X66866190Y49264048D01*
X66294761Y48692620D01*
X66913809Y48692620D01*
X67532857Y49692620D02*
X67628095Y49692620D01*
X67723333Y49645000D01*
X67770952Y49597381D01*
X67818571Y49502143D01*
X67866190Y49311667D01*
X67866190Y49073572D01*
X67818571Y48883096D01*
X67770952Y48787858D01*
X67723333Y48740239D01*
X67628095Y48692620D01*
X67532857Y48692620D01*
X67437619Y48740239D01*
X67390000Y48787858D01*
X67342380Y48883096D01*
X67294761Y49073572D01*
X67294761Y49311667D01*
X67342380Y49502143D01*
X67390000Y49597381D01*
X67437619Y49645000D01*
X67532857Y49692620D01*
X68247142Y49597381D02*
X68294761Y49645000D01*
X68390000Y49692620D01*
X68628095Y49692620D01*
X68723333Y49645000D01*
X68770952Y49597381D01*
X68818571Y49502143D01*
X68818571Y49406905D01*
X68770952Y49264048D01*
X68199523Y48692620D01*
X68818571Y48692620D01*
X69199523Y49597381D02*
X69247142Y49645000D01*
X69342380Y49692620D01*
X69580476Y49692620D01*
X69675714Y49645000D01*
X69723333Y49597381D01*
X69770952Y49502143D01*
X69770952Y49406905D01*
X69723333Y49264048D01*
X69151904Y48692620D01*
X69770952Y48692620D01*
D13*
X49182857Y953572D02*
X49290000Y917858D01*
X49325714Y882143D01*
X49361428Y810715D01*
X49361428Y703572D01*
X49325714Y632143D01*
X49290000Y596429D01*
X49218571Y560715D01*
X48932857Y560715D01*
X48932857Y1310715D01*
X49182857Y1310715D01*
X49254285Y1275000D01*
X49290000Y1239286D01*
X49325714Y1167858D01*
X49325714Y1096429D01*
X49290000Y1025000D01*
X49254285Y989286D01*
X49182857Y953572D01*
X48932857Y953572D01*
X50004285Y560715D02*
X50004285Y953572D01*
X49968571Y1025000D01*
X49897142Y1060715D01*
X49754285Y1060715D01*
X49682857Y1025000D01*
X50004285Y596429D02*
X49932857Y560715D01*
X49754285Y560715D01*
X49682857Y596429D01*
X49647142Y667858D01*
X49647142Y739286D01*
X49682857Y810715D01*
X49754285Y846429D01*
X49932857Y846429D01*
X50004285Y882143D01*
X50254285Y1060715D02*
X50540000Y1060715D01*
X50361428Y1310715D02*
X50361428Y667858D01*
X50397142Y596429D01*
X50468571Y560715D01*
X50540000Y560715D01*
X51111428Y596429D02*
X51040000Y560715D01*
X50897142Y560715D01*
X50825714Y596429D01*
X50790000Y632143D01*
X50754285Y703572D01*
X50754285Y917858D01*
X50790000Y989286D01*
X50825714Y1025000D01*
X50897142Y1060715D01*
X51040000Y1060715D01*
X51111428Y1025000D01*
X51432857Y560715D02*
X51432857Y1310715D01*
X51754285Y560715D02*
X51754285Y953572D01*
X51718571Y1025000D01*
X51647142Y1060715D01*
X51540000Y1060715D01*
X51468571Y1025000D01*
X51432857Y989286D01*
X52111428Y632143D02*
X52147142Y596429D01*
X52111428Y560715D01*
X52075714Y596429D01*
X52111428Y632143D01*
X52111428Y560715D01*
X52111428Y1025000D02*
X52147142Y989286D01*
X52111428Y953572D01*
X52075714Y989286D01*
X52111428Y1025000D01*
X52111428Y953572D01*
X53004285Y1060715D02*
X53540000Y1060715D01*
X53218571Y1382143D02*
X53004285Y417858D01*
X53468571Y739286D02*
X52932857Y739286D01*
X53254285Y417858D02*
X53468571Y1382143D01*
X54004285Y1310715D02*
X54004285Y775000D01*
X53968571Y667858D01*
X53897142Y596429D01*
X53790000Y560715D01*
X53718571Y560715D01*
X54718571Y560715D02*
X54361428Y560715D01*
X54361428Y1310715D01*
X55397142Y632143D02*
X55361428Y596429D01*
X55254285Y560715D01*
X55182857Y560715D01*
X55075714Y596429D01*
X55004285Y667858D01*
X54968571Y739286D01*
X54932857Y882143D01*
X54932857Y989286D01*
X54968571Y1132143D01*
X55004285Y1203572D01*
X55075714Y1275000D01*
X55182857Y1310715D01*
X55254285Y1310715D01*
X55361428Y1275000D01*
X55397142Y1239286D01*
X55932857Y1310715D02*
X55932857Y775000D01*
X55897142Y667858D01*
X55825714Y596429D01*
X55718571Y560715D01*
X55647142Y560715D01*
X56647142Y560715D02*
X56290000Y560715D01*
X56290000Y1310715D01*
X57325714Y632143D02*
X57290000Y596429D01*
X57182857Y560715D01*
X57111428Y560715D01*
X57004285Y596429D01*
X56932857Y667858D01*
X56897142Y739286D01*
X56861428Y882143D01*
X56861428Y989286D01*
X56897142Y1132143D01*
X56932857Y1203572D01*
X57004285Y1275000D01*
X57111428Y1310715D01*
X57182857Y1310715D01*
X57290000Y1275000D01*
X57325714Y1239286D01*
X57861428Y1310715D02*
X57861428Y775000D01*
X57825714Y667858D01*
X57754285Y596429D01*
X57647142Y560715D01*
X57575714Y560715D01*
X58575714Y560715D02*
X58218571Y560715D01*
X58218571Y1310715D01*
X59254285Y632143D02*
X59218571Y596429D01*
X59111428Y560715D01*
X59040000Y560715D01*
X58932857Y596429D01*
X58861428Y667858D01*
X58825714Y739286D01*
X58790000Y882143D01*
X58790000Y989286D01*
X58825714Y1132143D01*
X58861428Y1203572D01*
X58932857Y1275000D01*
X59040000Y1310715D01*
X59111428Y1310715D01*
X59218571Y1275000D01*
X59254285Y1239286D01*
X59790000Y1310715D02*
X59790000Y775000D01*
X59754285Y667858D01*
X59682857Y596429D01*
X59575714Y560715D01*
X59504285Y560715D01*
X60504285Y560715D02*
X60147142Y560715D01*
X60147142Y1310715D01*
X61182857Y632143D02*
X61147142Y596429D01*
X61040000Y560715D01*
X60968571Y560715D01*
X60861428Y596429D01*
X60790000Y667858D01*
X60754285Y739286D01*
X60718571Y882143D01*
X60718571Y989286D01*
X60754285Y1132143D01*
X60790000Y1203572D01*
X60861428Y1275000D01*
X60968571Y1310715D01*
X61040000Y1310715D01*
X61147142Y1275000D01*
X61182857Y1239286D01*
D11*
X24675714Y2197143D02*
X24747142Y2125715D01*
X24818571Y1911429D01*
X24818571Y1768572D01*
X24747142Y1554286D01*
X24604285Y1411429D01*
X24461428Y1340000D01*
X24175714Y1268572D01*
X23961428Y1268572D01*
X23675714Y1340000D01*
X23532857Y1411429D01*
X23390000Y1554286D01*
X23318571Y1768572D01*
X23318571Y1911429D01*
X23390000Y2125715D01*
X23461428Y2197143D01*
X24818571Y2840000D02*
X23318571Y2840000D01*
X24032857Y2840000D02*
X24032857Y3697143D01*
X24818571Y3697143D02*
X23318571Y3697143D01*
X24390000Y4340000D02*
X24390000Y5054286D01*
X24818571Y4197143D02*
X23318571Y4697143D01*
X24818571Y5197143D01*
X24818571Y6554286D02*
X24104285Y6054286D01*
X24818571Y5697143D02*
X23318571Y5697143D01*
X23318571Y6268572D01*
X23390000Y6411429D01*
X23461428Y6482858D01*
X23604285Y6554286D01*
X23818571Y6554286D01*
X23961428Y6482858D01*
X24032857Y6411429D01*
X24104285Y6268572D01*
X24104285Y5697143D01*
X23390000Y7982858D02*
X23318571Y7840000D01*
X23318571Y7625715D01*
X23390000Y7411429D01*
X23532857Y7268572D01*
X23675714Y7197143D01*
X23961428Y7125715D01*
X24175714Y7125715D01*
X24461428Y7197143D01*
X24604285Y7268572D01*
X24747142Y7411429D01*
X24818571Y7625715D01*
X24818571Y7768572D01*
X24747142Y7982858D01*
X24675714Y8054286D01*
X24175714Y8054286D01*
X24175714Y7768572D01*
X24032857Y8697143D02*
X24032857Y9197143D01*
X24818571Y9411429D02*
X24818571Y8697143D01*
X23318571Y8697143D01*
X23318571Y9411429D01*
X8111428Y43757143D02*
X8325714Y43685715D01*
X8397142Y43614286D01*
X8468571Y43471429D01*
X8468571Y43257143D01*
X8397142Y43114286D01*
X8325714Y43042858D01*
X8182857Y42971429D01*
X7611428Y42971429D01*
X7611428Y44471429D01*
X8111428Y44471429D01*
X8254285Y44400000D01*
X8325714Y44328572D01*
X8397142Y44185715D01*
X8397142Y44042858D01*
X8325714Y43900000D01*
X8254285Y43828572D01*
X8111428Y43757143D01*
X7611428Y43757143D01*
X9040000Y43400000D02*
X9754285Y43400000D01*
X8897142Y42971429D02*
X9397142Y44471429D01*
X9897142Y42971429D01*
X10182857Y44471429D02*
X11040000Y44471429D01*
X10611428Y42971429D02*
X10611428Y44471429D01*
X11325714Y44471429D02*
X12182857Y44471429D01*
X11754285Y42971429D02*
X11754285Y44471429D01*
D10*
X35467619Y40572381D02*
X35943809Y40905715D01*
X35467619Y41143810D02*
X36467619Y41143810D01*
X36467619Y40762858D01*
X36420000Y40667620D01*
X36372380Y40620000D01*
X36277142Y40572381D01*
X36134285Y40572381D01*
X36039047Y40620000D01*
X35991428Y40667620D01*
X35943809Y40762858D01*
X35943809Y41143810D01*
X35991428Y40143810D02*
X35991428Y39810477D01*
X35467619Y39667620D02*
X35467619Y40143810D01*
X36467619Y40143810D01*
X36467619Y39667620D01*
X35515238Y39286667D02*
X35467619Y39143810D01*
X35467619Y38905715D01*
X35515238Y38810477D01*
X35562857Y38762858D01*
X35658095Y38715239D01*
X35753333Y38715239D01*
X35848571Y38762858D01*
X35896190Y38810477D01*
X35943809Y38905715D01*
X35991428Y39096191D01*
X36039047Y39191429D01*
X36086666Y39239048D01*
X36181904Y39286667D01*
X36277142Y39286667D01*
X36372380Y39239048D01*
X36420000Y39191429D01*
X36467619Y39096191D01*
X36467619Y38858096D01*
X36420000Y38715239D01*
X35991428Y38286667D02*
X35991428Y37953334D01*
X35467619Y37810477D02*
X35467619Y38286667D01*
X36467619Y38286667D01*
X36467619Y37810477D01*
X36467619Y37524762D02*
X36467619Y36953334D01*
X35467619Y37239048D02*
X36467619Y37239048D01*
X50744285Y6177620D02*
X50744285Y7177620D01*
X51125238Y7177620D01*
X51220476Y7130000D01*
X51268095Y7082381D01*
X51315714Y6987143D01*
X51315714Y6844286D01*
X51268095Y6749048D01*
X51220476Y6701429D01*
X51125238Y6653810D01*
X50744285Y6653810D01*
X52315714Y6177620D02*
X51982380Y6653810D01*
X51744285Y6177620D02*
X51744285Y7177620D01*
X52125238Y7177620D01*
X52220476Y7130000D01*
X52268095Y7082381D01*
X52315714Y6987143D01*
X52315714Y6844286D01*
X52268095Y6749048D01*
X52220476Y6701429D01*
X52125238Y6653810D01*
X51744285Y6653810D01*
X52934761Y7177620D02*
X53125238Y7177620D01*
X53220476Y7130000D01*
X53315714Y7034762D01*
X53363333Y6844286D01*
X53363333Y6510953D01*
X53315714Y6320477D01*
X53220476Y6225239D01*
X53125238Y6177620D01*
X52934761Y6177620D01*
X52839523Y6225239D01*
X52744285Y6320477D01*
X52696666Y6510953D01*
X52696666Y6844286D01*
X52744285Y7034762D01*
X52839523Y7130000D01*
X52934761Y7177620D01*
X54315714Y7130000D02*
X54220476Y7177620D01*
X54077619Y7177620D01*
X53934761Y7130000D01*
X53839523Y7034762D01*
X53791904Y6939524D01*
X53744285Y6749048D01*
X53744285Y6606191D01*
X53791904Y6415715D01*
X53839523Y6320477D01*
X53934761Y6225239D01*
X54077619Y6177620D01*
X54172857Y6177620D01*
X54315714Y6225239D01*
X54363333Y6272858D01*
X54363333Y6606191D01*
X54172857Y6606191D01*
D14*
%TO.C,J7*%
X35271466Y11057220D02*
X35271466Y10342934D01*
X35223847Y10200077D01*
X35128609Y10104839D01*
X34985752Y10057220D01*
X34890514Y10057220D01*
X35652419Y11057220D02*
X36319085Y11057220D01*
X35890514Y10057220D01*
%TO.C,C46*%
X29548842Y38702058D02*
X29501223Y38654439D01*
X29358366Y38606820D01*
X29263128Y38606820D01*
X29120271Y38654439D01*
X29025033Y38749677D01*
X28977414Y38844915D01*
X28929795Y39035391D01*
X28929795Y39178248D01*
X28977414Y39368724D01*
X29025033Y39463962D01*
X29120271Y39559200D01*
X29263128Y39606820D01*
X29358366Y39606820D01*
X29501223Y39559200D01*
X29548842Y39511581D01*
X30405985Y39273486D02*
X30405985Y38606820D01*
X30167890Y39654439D02*
X29929795Y38940153D01*
X30548842Y38940153D01*
X31358366Y39606820D02*
X31167890Y39606820D01*
X31072652Y39559200D01*
X31025033Y39511581D01*
X30929795Y39368724D01*
X30882176Y39178248D01*
X30882176Y38797296D01*
X30929795Y38702058D01*
X30977414Y38654439D01*
X31072652Y38606820D01*
X31263128Y38606820D01*
X31358366Y38654439D01*
X31405985Y38702058D01*
X31453604Y38797296D01*
X31453604Y39035391D01*
X31405985Y39130629D01*
X31358366Y39178248D01*
X31263128Y39225867D01*
X31072652Y39225867D01*
X30977414Y39178248D01*
X30929795Y39130629D01*
X30882176Y39035391D01*
%TO.C,R38*%
X3306658Y33278816D02*
X2830468Y32945483D01*
X3306658Y32707388D02*
X2306658Y32707388D01*
X2306658Y33088340D01*
X2354278Y33183578D01*
X2401897Y33231197D01*
X2497135Y33278816D01*
X2639992Y33278816D01*
X2735230Y33231197D01*
X2782849Y33183578D01*
X2830468Y33088340D01*
X2830468Y32707388D01*
X2306658Y33612150D02*
X2306658Y34231197D01*
X2687611Y33897864D01*
X2687611Y34040721D01*
X2735230Y34135959D01*
X2782849Y34183578D01*
X2878087Y34231197D01*
X3116182Y34231197D01*
X3211420Y34183578D01*
X3259039Y34135959D01*
X3306658Y34040721D01*
X3306658Y33755007D01*
X3259039Y33659769D01*
X3211420Y33612150D01*
X2735230Y34802626D02*
X2687611Y34707388D01*
X2639992Y34659769D01*
X2544754Y34612150D01*
X2497135Y34612150D01*
X2401897Y34659769D01*
X2354278Y34707388D01*
X2306658Y34802626D01*
X2306658Y34993102D01*
X2354278Y35088340D01*
X2401897Y35135959D01*
X2497135Y35183578D01*
X2544754Y35183578D01*
X2639992Y35135959D01*
X2687611Y35088340D01*
X2735230Y34993102D01*
X2735230Y34802626D01*
X2782849Y34707388D01*
X2830468Y34659769D01*
X2925706Y34612150D01*
X3116182Y34612150D01*
X3211420Y34659769D01*
X3259039Y34707388D01*
X3306658Y34802626D01*
X3306658Y34993102D01*
X3259039Y35088340D01*
X3211420Y35135959D01*
X3116182Y35183578D01*
X2925706Y35183578D01*
X2830468Y35135959D01*
X2782849Y35088340D01*
X2735230Y34993102D01*
%TO.C,C24*%
X92807142Y27147143D02*
X92854761Y27099524D01*
X92902380Y26956667D01*
X92902380Y26861429D01*
X92854761Y26718572D01*
X92759523Y26623334D01*
X92664285Y26575715D01*
X92473809Y26528096D01*
X92330952Y26528096D01*
X92140476Y26575715D01*
X92045238Y26623334D01*
X91950000Y26718572D01*
X91902380Y26861429D01*
X91902380Y26956667D01*
X91950000Y27099524D01*
X91997619Y27147143D01*
X91997619Y27528096D02*
X91950000Y27575715D01*
X91902380Y27670953D01*
X91902380Y27909048D01*
X91950000Y28004286D01*
X91997619Y28051905D01*
X92092857Y28099524D01*
X92188095Y28099524D01*
X92330952Y28051905D01*
X92902380Y27480477D01*
X92902380Y28099524D01*
X92235714Y28956667D02*
X92902380Y28956667D01*
X91854761Y28718572D02*
X92569047Y28480477D01*
X92569047Y29099524D01*
%TO.C,R32*%
X91547142Y38507620D02*
X91213809Y38983810D01*
X90975714Y38507620D02*
X90975714Y39507620D01*
X91356666Y39507620D01*
X91451904Y39460000D01*
X91499523Y39412381D01*
X91547142Y39317143D01*
X91547142Y39174286D01*
X91499523Y39079048D01*
X91451904Y39031429D01*
X91356666Y38983810D01*
X90975714Y38983810D01*
X91880476Y39507620D02*
X92499523Y39507620D01*
X92166190Y39126667D01*
X92309047Y39126667D01*
X92404285Y39079048D01*
X92451904Y39031429D01*
X92499523Y38936191D01*
X92499523Y38698096D01*
X92451904Y38602858D01*
X92404285Y38555239D01*
X92309047Y38507620D01*
X92023333Y38507620D01*
X91928095Y38555239D01*
X91880476Y38602858D01*
X92880476Y39412381D02*
X92928095Y39460000D01*
X93023333Y39507620D01*
X93261428Y39507620D01*
X93356666Y39460000D01*
X93404285Y39412381D01*
X93451904Y39317143D01*
X93451904Y39221905D01*
X93404285Y39079048D01*
X92832857Y38507620D01*
X93451904Y38507620D01*
%TO.C,C28*%
X68507142Y3847143D02*
X68554761Y3799524D01*
X68602380Y3656667D01*
X68602380Y3561429D01*
X68554761Y3418572D01*
X68459523Y3323334D01*
X68364285Y3275715D01*
X68173809Y3228096D01*
X68030952Y3228096D01*
X67840476Y3275715D01*
X67745238Y3323334D01*
X67650000Y3418572D01*
X67602380Y3561429D01*
X67602380Y3656667D01*
X67650000Y3799524D01*
X67697619Y3847143D01*
X67697619Y4228096D02*
X67650000Y4275715D01*
X67602380Y4370953D01*
X67602380Y4609048D01*
X67650000Y4704286D01*
X67697619Y4751905D01*
X67792857Y4799524D01*
X67888095Y4799524D01*
X68030952Y4751905D01*
X68602380Y4180477D01*
X68602380Y4799524D01*
X68030952Y5370953D02*
X67983333Y5275715D01*
X67935714Y5228096D01*
X67840476Y5180477D01*
X67792857Y5180477D01*
X67697619Y5228096D01*
X67650000Y5275715D01*
X67602380Y5370953D01*
X67602380Y5561429D01*
X67650000Y5656667D01*
X67697619Y5704286D01*
X67792857Y5751905D01*
X67840476Y5751905D01*
X67935714Y5704286D01*
X67983333Y5656667D01*
X68030952Y5561429D01*
X68030952Y5370953D01*
X68078571Y5275715D01*
X68126190Y5228096D01*
X68221428Y5180477D01*
X68411904Y5180477D01*
X68507142Y5228096D01*
X68554761Y5275715D01*
X68602380Y5370953D01*
X68602380Y5561429D01*
X68554761Y5656667D01*
X68507142Y5704286D01*
X68411904Y5751905D01*
X68221428Y5751905D01*
X68126190Y5704286D01*
X68078571Y5656667D01*
X68030952Y5561429D01*
%TO.C,C35*%
X26922142Y22892858D02*
X26874523Y22845239D01*
X26731666Y22797620D01*
X26636428Y22797620D01*
X26493571Y22845239D01*
X26398333Y22940477D01*
X26350714Y23035715D01*
X26303095Y23226191D01*
X26303095Y23369048D01*
X26350714Y23559524D01*
X26398333Y23654762D01*
X26493571Y23750000D01*
X26636428Y23797620D01*
X26731666Y23797620D01*
X26874523Y23750000D01*
X26922142Y23702381D01*
X27255476Y23797620D02*
X27874523Y23797620D01*
X27541190Y23416667D01*
X27684047Y23416667D01*
X27779285Y23369048D01*
X27826904Y23321429D01*
X27874523Y23226191D01*
X27874523Y22988096D01*
X27826904Y22892858D01*
X27779285Y22845239D01*
X27684047Y22797620D01*
X27398333Y22797620D01*
X27303095Y22845239D01*
X27255476Y22892858D01*
X28779285Y23797620D02*
X28303095Y23797620D01*
X28255476Y23321429D01*
X28303095Y23369048D01*
X28398333Y23416667D01*
X28636428Y23416667D01*
X28731666Y23369048D01*
X28779285Y23321429D01*
X28826904Y23226191D01*
X28826904Y22988096D01*
X28779285Y22892858D01*
X28731666Y22845239D01*
X28636428Y22797620D01*
X28398333Y22797620D01*
X28303095Y22845239D01*
X28255476Y22892858D01*
%TO.C,U6*%
X11462380Y26888096D02*
X12271904Y26888096D01*
X12367142Y26935715D01*
X12414761Y26983334D01*
X12462380Y27078572D01*
X12462380Y27269048D01*
X12414761Y27364286D01*
X12367142Y27411905D01*
X12271904Y27459524D01*
X11462380Y27459524D01*
X11462380Y28364286D02*
X11462380Y28173810D01*
X11510000Y28078572D01*
X11557619Y28030953D01*
X11700476Y27935715D01*
X11890952Y27888096D01*
X12271904Y27888096D01*
X12367142Y27935715D01*
X12414761Y27983334D01*
X12462380Y28078572D01*
X12462380Y28269048D01*
X12414761Y28364286D01*
X12367142Y28411905D01*
X12271904Y28459524D01*
X12033809Y28459524D01*
X11938571Y28411905D01*
X11890952Y28364286D01*
X11843333Y28269048D01*
X11843333Y28078572D01*
X11890952Y27983334D01*
X11938571Y27935715D01*
X12033809Y27888096D01*
X15399635Y24994896D02*
X15637731Y24994896D01*
X15542493Y24756801D02*
X15637731Y24994896D01*
X15542493Y25232992D01*
X15828207Y24852039D02*
X15637731Y24994896D01*
X15828207Y25137754D01*
X15399635Y24994896D02*
X15637731Y24994896D01*
X15542493Y24756801D02*
X15637731Y24994896D01*
X15542493Y25232992D01*
X15828207Y24852039D02*
X15637731Y24994896D01*
X15828207Y25137754D01*
%TO.C,U2*%
X70286132Y41074736D02*
X70286132Y40265040D01*
X70333762Y40169782D01*
X70381391Y40122152D01*
X70476649Y40074523D01*
X70667166Y40074523D01*
X70762424Y40122152D01*
X70810054Y40169782D01*
X70857683Y40265040D01*
X70857683Y41074736D01*
X71286345Y40979478D02*
X71333975Y41027107D01*
X71429233Y41074736D01*
X71667379Y41074736D01*
X71762637Y41027107D01*
X71810267Y40979478D01*
X71857896Y40884219D01*
X71857896Y40788961D01*
X71810267Y40646073D01*
X71238716Y40074523D01*
X71857896Y40074523D01*
%TO.C,C34*%
X11268942Y34582143D02*
X11316561Y34534524D01*
X11364180Y34391667D01*
X11364180Y34296429D01*
X11316561Y34153572D01*
X11221323Y34058334D01*
X11126085Y34010715D01*
X10935609Y33963096D01*
X10792752Y33963096D01*
X10602276Y34010715D01*
X10507038Y34058334D01*
X10411800Y34153572D01*
X10364180Y34296429D01*
X10364180Y34391667D01*
X10411800Y34534524D01*
X10459419Y34582143D01*
X10364180Y34915477D02*
X10364180Y35534524D01*
X10745133Y35201191D01*
X10745133Y35344048D01*
X10792752Y35439286D01*
X10840371Y35486905D01*
X10935609Y35534524D01*
X11173704Y35534524D01*
X11268942Y35486905D01*
X11316561Y35439286D01*
X11364180Y35344048D01*
X11364180Y35058334D01*
X11316561Y34963096D01*
X11268942Y34915477D01*
X10697514Y36391667D02*
X11364180Y36391667D01*
X10316561Y36153572D02*
X11030847Y35915477D01*
X11030847Y36534524D01*
%TO.C,R30*%
X34452380Y47207143D02*
X33976190Y46873810D01*
X34452380Y46635715D02*
X33452380Y46635715D01*
X33452380Y47016667D01*
X33500000Y47111905D01*
X33547619Y47159524D01*
X33642857Y47207143D01*
X33785714Y47207143D01*
X33880952Y47159524D01*
X33928571Y47111905D01*
X33976190Y47016667D01*
X33976190Y46635715D01*
X33452380Y47540477D02*
X33452380Y48159524D01*
X33833333Y47826191D01*
X33833333Y47969048D01*
X33880952Y48064286D01*
X33928571Y48111905D01*
X34023809Y48159524D01*
X34261904Y48159524D01*
X34357142Y48111905D01*
X34404761Y48064286D01*
X34452380Y47969048D01*
X34452380Y47683334D01*
X34404761Y47588096D01*
X34357142Y47540477D01*
X33452380Y48778572D02*
X33452380Y48873810D01*
X33500000Y48969048D01*
X33547619Y49016667D01*
X33642857Y49064286D01*
X33833333Y49111905D01*
X34071428Y49111905D01*
X34261904Y49064286D01*
X34357142Y49016667D01*
X34404761Y48969048D01*
X34452380Y48873810D01*
X34452380Y48778572D01*
X34404761Y48683334D01*
X34357142Y48635715D01*
X34261904Y48588096D01*
X34071428Y48540477D01*
X33833333Y48540477D01*
X33642857Y48588096D01*
X33547619Y48635715D01*
X33500000Y48683334D01*
X33452380Y48778572D01*
%TO.C,R16*%
X57820142Y23695220D02*
X57486809Y24171410D01*
X57248714Y23695220D02*
X57248714Y24695220D01*
X57629666Y24695220D01*
X57724904Y24647600D01*
X57772523Y24599981D01*
X57820142Y24504743D01*
X57820142Y24361886D01*
X57772523Y24266648D01*
X57724904Y24219029D01*
X57629666Y24171410D01*
X57248714Y24171410D01*
X58772523Y23695220D02*
X58201095Y23695220D01*
X58486809Y23695220D02*
X58486809Y24695220D01*
X58391571Y24552362D01*
X58296333Y24457124D01*
X58201095Y24409505D01*
X59629666Y24695220D02*
X59439190Y24695220D01*
X59343952Y24647600D01*
X59296333Y24599981D01*
X59201095Y24457124D01*
X59153476Y24266648D01*
X59153476Y23885696D01*
X59201095Y23790458D01*
X59248714Y23742839D01*
X59343952Y23695220D01*
X59534428Y23695220D01*
X59629666Y23742839D01*
X59677285Y23790458D01*
X59724904Y23885696D01*
X59724904Y24123791D01*
X59677285Y24219029D01*
X59629666Y24266648D01*
X59534428Y24314267D01*
X59343952Y24314267D01*
X59248714Y24266648D01*
X59201095Y24219029D01*
X59153476Y24123791D01*
%TO.C,R28*%
X4554642Y38502620D02*
X4221309Y38978810D01*
X3983214Y38502620D02*
X3983214Y39502620D01*
X4364166Y39502620D01*
X4459404Y39455000D01*
X4507023Y39407381D01*
X4554642Y39312143D01*
X4554642Y39169286D01*
X4507023Y39074048D01*
X4459404Y39026429D01*
X4364166Y38978810D01*
X3983214Y38978810D01*
X4935595Y39407381D02*
X4983214Y39455000D01*
X5078452Y39502620D01*
X5316547Y39502620D01*
X5411785Y39455000D01*
X5459404Y39407381D01*
X5507023Y39312143D01*
X5507023Y39216905D01*
X5459404Y39074048D01*
X4887976Y38502620D01*
X5507023Y38502620D01*
X6078452Y39074048D02*
X5983214Y39121667D01*
X5935595Y39169286D01*
X5887976Y39264524D01*
X5887976Y39312143D01*
X5935595Y39407381D01*
X5983214Y39455000D01*
X6078452Y39502620D01*
X6268928Y39502620D01*
X6364166Y39455000D01*
X6411785Y39407381D01*
X6459404Y39312143D01*
X6459404Y39264524D01*
X6411785Y39169286D01*
X6364166Y39121667D01*
X6268928Y39074048D01*
X6078452Y39074048D01*
X5983214Y39026429D01*
X5935595Y38978810D01*
X5887976Y38883572D01*
X5887976Y38693096D01*
X5935595Y38597858D01*
X5983214Y38550239D01*
X6078452Y38502620D01*
X6268928Y38502620D01*
X6364166Y38550239D01*
X6411785Y38597858D01*
X6459404Y38693096D01*
X6459404Y38883572D01*
X6411785Y38978810D01*
X6364166Y39026429D01*
X6268928Y39074048D01*
%TO.C,J4*%
X96256666Y19472620D02*
X96256666Y18758334D01*
X96209047Y18615477D01*
X96113809Y18520239D01*
X95970952Y18472620D01*
X95875714Y18472620D01*
X97161428Y19139286D02*
X97161428Y18472620D01*
X96923333Y19520239D02*
X96685238Y18805953D01*
X97304285Y18805953D01*
X94706666Y25171429D02*
X94849523Y25123810D01*
X94897142Y25076191D01*
X94944761Y24980953D01*
X94944761Y24838096D01*
X94897142Y24742858D01*
X94849523Y24695239D01*
X94754285Y24647620D01*
X94373333Y24647620D01*
X94373333Y25647620D01*
X94706666Y25647620D01*
X94801904Y25600000D01*
X94849523Y25552381D01*
X94897142Y25457143D01*
X94897142Y25361905D01*
X94849523Y25266667D01*
X94801904Y25219048D01*
X94706666Y25171429D01*
X94373333Y25171429D01*
X95230476Y25647620D02*
X95801904Y25647620D01*
X95516190Y24647620D02*
X95516190Y25647620D01*
X96420952Y24266667D02*
X96373333Y24314286D01*
X96278095Y24457143D01*
X96230476Y24552381D01*
X96182857Y24695239D01*
X96135238Y24933334D01*
X96135238Y25123810D01*
X96182857Y25361905D01*
X96230476Y25504762D01*
X96278095Y25600000D01*
X96373333Y25742858D01*
X96420952Y25790477D01*
X97278095Y24647620D02*
X96801904Y24647620D01*
X96801904Y25647620D01*
X97611428Y25171429D02*
X97944761Y25171429D01*
X98087619Y24647620D02*
X97611428Y24647620D01*
X97611428Y25647620D01*
X98087619Y25647620D01*
X98420952Y24266667D02*
X98468571Y24314286D01*
X98563809Y24457143D01*
X98611428Y24552381D01*
X98659047Y24695239D01*
X98706666Y24933334D01*
X98706666Y25123810D01*
X98659047Y25361905D01*
X98611428Y25504762D01*
X98563809Y25600000D01*
X98468571Y25742858D01*
X98420952Y25790477D01*
X96062380Y21883200D02*
X96300476Y21883200D01*
X96205238Y21645105D02*
X96300476Y21883200D01*
X96205238Y22121296D01*
X96490952Y21740343D02*
X96300476Y21883200D01*
X96490952Y22026058D01*
%TO.C,C23*%
X89807142Y34077143D02*
X89854761Y34029524D01*
X89902380Y33886667D01*
X89902380Y33791429D01*
X89854761Y33648572D01*
X89759523Y33553334D01*
X89664285Y33505715D01*
X89473809Y33458096D01*
X89330952Y33458096D01*
X89140476Y33505715D01*
X89045238Y33553334D01*
X88950000Y33648572D01*
X88902380Y33791429D01*
X88902380Y33886667D01*
X88950000Y34029524D01*
X88997619Y34077143D01*
X88997619Y34458096D02*
X88950000Y34505715D01*
X88902380Y34600953D01*
X88902380Y34839048D01*
X88950000Y34934286D01*
X88997619Y34981905D01*
X89092857Y35029524D01*
X89188095Y35029524D01*
X89330952Y34981905D01*
X89902380Y34410477D01*
X89902380Y35029524D01*
X88902380Y35362858D02*
X88902380Y35981905D01*
X89283333Y35648572D01*
X89283333Y35791429D01*
X89330952Y35886667D01*
X89378571Y35934286D01*
X89473809Y35981905D01*
X89711904Y35981905D01*
X89807142Y35934286D01*
X89854761Y35886667D01*
X89902380Y35791429D01*
X89902380Y35505715D01*
X89854761Y35410477D01*
X89807142Y35362858D01*
%TO.C,R7*%
X64474333Y30731620D02*
X64141000Y31207810D01*
X63902904Y30731620D02*
X63902904Y31731620D01*
X64283857Y31731620D01*
X64379095Y31684000D01*
X64426714Y31636381D01*
X64474333Y31541143D01*
X64474333Y31398286D01*
X64426714Y31303048D01*
X64379095Y31255429D01*
X64283857Y31207810D01*
X63902904Y31207810D01*
X64807666Y31731620D02*
X65474333Y31731620D01*
X65045761Y30731620D01*
%TO.C,R19*%
X30529642Y24247620D02*
X30196309Y24723810D01*
X29958214Y24247620D02*
X29958214Y25247620D01*
X30339166Y25247620D01*
X30434404Y25200000D01*
X30482023Y25152381D01*
X30529642Y25057143D01*
X30529642Y24914286D01*
X30482023Y24819048D01*
X30434404Y24771429D01*
X30339166Y24723810D01*
X29958214Y24723810D01*
X31482023Y24247620D02*
X30910595Y24247620D01*
X31196309Y24247620D02*
X31196309Y25247620D01*
X31101071Y25104762D01*
X31005833Y25009524D01*
X30910595Y24961905D01*
X31958214Y24247620D02*
X32148690Y24247620D01*
X32243928Y24295239D01*
X32291547Y24342858D01*
X32386785Y24485715D01*
X32434404Y24676191D01*
X32434404Y25057143D01*
X32386785Y25152381D01*
X32339166Y25200000D01*
X32243928Y25247620D01*
X32053452Y25247620D01*
X31958214Y25200000D01*
X31910595Y25152381D01*
X31862976Y25057143D01*
X31862976Y24819048D01*
X31910595Y24723810D01*
X31958214Y24676191D01*
X32053452Y24628572D01*
X32243928Y24628572D01*
X32339166Y24676191D01*
X32386785Y24723810D01*
X32434404Y24819048D01*
%TO.C,D4*%
X37346904Y49707620D02*
X37346904Y50707620D01*
X37585000Y50707620D01*
X37727857Y50660000D01*
X37823095Y50564762D01*
X37870714Y50469524D01*
X37918333Y50279048D01*
X37918333Y50136191D01*
X37870714Y49945715D01*
X37823095Y49850477D01*
X37727857Y49755239D01*
X37585000Y49707620D01*
X37346904Y49707620D01*
X38775476Y50374286D02*
X38775476Y49707620D01*
X38537380Y50755239D02*
X38299285Y50040953D01*
X38918333Y50040953D01*
%TO.C,C19*%
X55876342Y31506258D02*
X55828723Y31458639D01*
X55685866Y31411020D01*
X55590628Y31411020D01*
X55447771Y31458639D01*
X55352533Y31553877D01*
X55304914Y31649115D01*
X55257295Y31839591D01*
X55257295Y31982448D01*
X55304914Y32172924D01*
X55352533Y32268162D01*
X55447771Y32363400D01*
X55590628Y32411020D01*
X55685866Y32411020D01*
X55828723Y32363400D01*
X55876342Y32315781D01*
X56828723Y31411020D02*
X56257295Y31411020D01*
X56543009Y31411020D02*
X56543009Y32411020D01*
X56447771Y32268162D01*
X56352533Y32172924D01*
X56257295Y32125305D01*
X57304914Y31411020D02*
X57495390Y31411020D01*
X57590628Y31458639D01*
X57638247Y31506258D01*
X57733485Y31649115D01*
X57781104Y31839591D01*
X57781104Y32220543D01*
X57733485Y32315781D01*
X57685866Y32363400D01*
X57590628Y32411020D01*
X57400152Y32411020D01*
X57304914Y32363400D01*
X57257295Y32315781D01*
X57209676Y32220543D01*
X57209676Y31982448D01*
X57257295Y31887210D01*
X57304914Y31839591D01*
X57400152Y31791972D01*
X57590628Y31791972D01*
X57685866Y31839591D01*
X57733485Y31887210D01*
X57781104Y31982448D01*
%TO.C,J9*%
X13442380Y39016667D02*
X14156666Y39016667D01*
X14299523Y38969048D01*
X14394761Y38873810D01*
X14442380Y38730953D01*
X14442380Y38635715D01*
X14442380Y39540477D02*
X14442380Y39730953D01*
X14394761Y39826191D01*
X14347142Y39873810D01*
X14204285Y39969048D01*
X14013809Y40016667D01*
X13632857Y40016667D01*
X13537619Y39969048D01*
X13490000Y39921429D01*
X13442380Y39826191D01*
X13442380Y39635715D01*
X13490000Y39540477D01*
X13537619Y39492858D01*
X13632857Y39445239D01*
X13870952Y39445239D01*
X13966190Y39492858D01*
X14013809Y39540477D01*
X14061428Y39635715D01*
X14061428Y39826191D01*
X14013809Y39921429D01*
X13966190Y39969048D01*
X13870952Y40016667D01*
%TO.C,C8*%
X45971942Y13368734D02*
X46019561Y13321115D01*
X46067180Y13178258D01*
X46067180Y13083020D01*
X46019561Y12940162D01*
X45924323Y12844924D01*
X45829085Y12797305D01*
X45638609Y12749686D01*
X45495752Y12749686D01*
X45305276Y12797305D01*
X45210038Y12844924D01*
X45114800Y12940162D01*
X45067180Y13083020D01*
X45067180Y13178258D01*
X45114800Y13321115D01*
X45162419Y13368734D01*
X45495752Y13940162D02*
X45448133Y13844924D01*
X45400514Y13797305D01*
X45305276Y13749686D01*
X45257657Y13749686D01*
X45162419Y13797305D01*
X45114800Y13844924D01*
X45067180Y13940162D01*
X45067180Y14130639D01*
X45114800Y14225877D01*
X45162419Y14273496D01*
X45257657Y14321115D01*
X45305276Y14321115D01*
X45400514Y14273496D01*
X45448133Y14225877D01*
X45495752Y14130639D01*
X45495752Y13940162D01*
X45543371Y13844924D01*
X45590990Y13797305D01*
X45686228Y13749686D01*
X45876704Y13749686D01*
X45971942Y13797305D01*
X46019561Y13844924D01*
X46067180Y13940162D01*
X46067180Y14130639D01*
X46019561Y14225877D01*
X45971942Y14273496D01*
X45876704Y14321115D01*
X45686228Y14321115D01*
X45590990Y14273496D01*
X45543371Y14225877D01*
X45495752Y14130639D01*
%TO.C,D2*%
X4281904Y40297620D02*
X4281904Y41297620D01*
X4520000Y41297620D01*
X4662857Y41250000D01*
X4758095Y41154762D01*
X4805714Y41059524D01*
X4853333Y40869048D01*
X4853333Y40726191D01*
X4805714Y40535715D01*
X4758095Y40440477D01*
X4662857Y40345239D01*
X4520000Y40297620D01*
X4281904Y40297620D01*
X5234285Y41202381D02*
X5281904Y41250000D01*
X5377142Y41297620D01*
X5615238Y41297620D01*
X5710476Y41250000D01*
X5758095Y41202381D01*
X5805714Y41107143D01*
X5805714Y41011905D01*
X5758095Y40869048D01*
X5186666Y40297620D01*
X5805714Y40297620D01*
%TO.C,R18*%
X30557142Y25787620D02*
X30223809Y26263810D01*
X29985714Y25787620D02*
X29985714Y26787620D01*
X30366666Y26787620D01*
X30461904Y26740000D01*
X30509523Y26692381D01*
X30557142Y26597143D01*
X30557142Y26454286D01*
X30509523Y26359048D01*
X30461904Y26311429D01*
X30366666Y26263810D01*
X29985714Y26263810D01*
X31509523Y25787620D02*
X30938095Y25787620D01*
X31223809Y25787620D02*
X31223809Y26787620D01*
X31128571Y26644762D01*
X31033333Y26549524D01*
X30938095Y26501905D01*
X32080952Y26359048D02*
X31985714Y26406667D01*
X31938095Y26454286D01*
X31890476Y26549524D01*
X31890476Y26597143D01*
X31938095Y26692381D01*
X31985714Y26740000D01*
X32080952Y26787620D01*
X32271428Y26787620D01*
X32366666Y26740000D01*
X32414285Y26692381D01*
X32461904Y26597143D01*
X32461904Y26549524D01*
X32414285Y26454286D01*
X32366666Y26406667D01*
X32271428Y26359048D01*
X32080952Y26359048D01*
X31985714Y26311429D01*
X31938095Y26263810D01*
X31890476Y26168572D01*
X31890476Y25978096D01*
X31938095Y25882858D01*
X31985714Y25835239D01*
X32080952Y25787620D01*
X32271428Y25787620D01*
X32366666Y25835239D01*
X32414285Y25882858D01*
X32461904Y25978096D01*
X32461904Y26168572D01*
X32414285Y26263810D01*
X32366666Y26311429D01*
X32271428Y26359048D01*
%TO.C,C20*%
X41377142Y40157143D02*
X41424761Y40109524D01*
X41472380Y39966667D01*
X41472380Y39871429D01*
X41424761Y39728572D01*
X41329523Y39633334D01*
X41234285Y39585715D01*
X41043809Y39538096D01*
X40900952Y39538096D01*
X40710476Y39585715D01*
X40615238Y39633334D01*
X40520000Y39728572D01*
X40472380Y39871429D01*
X40472380Y39966667D01*
X40520000Y40109524D01*
X40567619Y40157143D01*
X40567619Y40538096D02*
X40520000Y40585715D01*
X40472380Y40680953D01*
X40472380Y40919048D01*
X40520000Y41014286D01*
X40567619Y41061905D01*
X40662857Y41109524D01*
X40758095Y41109524D01*
X40900952Y41061905D01*
X41472380Y40490477D01*
X41472380Y41109524D01*
X40472380Y41728572D02*
X40472380Y41823810D01*
X40520000Y41919048D01*
X40567619Y41966667D01*
X40662857Y42014286D01*
X40853333Y42061905D01*
X41091428Y42061905D01*
X41281904Y42014286D01*
X41377142Y41966667D01*
X41424761Y41919048D01*
X41472380Y41823810D01*
X41472380Y41728572D01*
X41424761Y41633334D01*
X41377142Y41585715D01*
X41281904Y41538096D01*
X41091428Y41490477D01*
X40853333Y41490477D01*
X40662857Y41538096D01*
X40567619Y41585715D01*
X40520000Y41633334D01*
X40472380Y41728572D01*
%TO.C,R27*%
X68259642Y18377620D02*
X67926309Y18853810D01*
X67688214Y18377620D02*
X67688214Y19377620D01*
X68069166Y19377620D01*
X68164404Y19330000D01*
X68212023Y19282381D01*
X68259642Y19187143D01*
X68259642Y19044286D01*
X68212023Y18949048D01*
X68164404Y18901429D01*
X68069166Y18853810D01*
X67688214Y18853810D01*
X68640595Y19282381D02*
X68688214Y19330000D01*
X68783452Y19377620D01*
X69021547Y19377620D01*
X69116785Y19330000D01*
X69164404Y19282381D01*
X69212023Y19187143D01*
X69212023Y19091905D01*
X69164404Y18949048D01*
X68592976Y18377620D01*
X69212023Y18377620D01*
X69545357Y19377620D02*
X70212023Y19377620D01*
X69783452Y18377620D01*
%TO.C,C11*%
X39765142Y12592543D02*
X39812761Y12544924D01*
X39860380Y12402067D01*
X39860380Y12306829D01*
X39812761Y12163972D01*
X39717523Y12068734D01*
X39622285Y12021115D01*
X39431809Y11973496D01*
X39288952Y11973496D01*
X39098476Y12021115D01*
X39003238Y12068734D01*
X38908000Y12163972D01*
X38860380Y12306829D01*
X38860380Y12402067D01*
X38908000Y12544924D01*
X38955619Y12592543D01*
X39860380Y13544924D02*
X39860380Y12973496D01*
X39860380Y13259210D02*
X38860380Y13259210D01*
X39003238Y13163972D01*
X39098476Y13068734D01*
X39146095Y12973496D01*
X39860380Y14497305D02*
X39860380Y13925877D01*
X39860380Y14211591D02*
X38860380Y14211591D01*
X39003238Y14116353D01*
X39098476Y14021115D01*
X39146095Y13925877D01*
%TO.C,R22*%
X42012380Y47217143D02*
X41536190Y46883810D01*
X42012380Y46645715D02*
X41012380Y46645715D01*
X41012380Y47026667D01*
X41060000Y47121905D01*
X41107619Y47169524D01*
X41202857Y47217143D01*
X41345714Y47217143D01*
X41440952Y47169524D01*
X41488571Y47121905D01*
X41536190Y47026667D01*
X41536190Y46645715D01*
X41107619Y47598096D02*
X41060000Y47645715D01*
X41012380Y47740953D01*
X41012380Y47979048D01*
X41060000Y48074286D01*
X41107619Y48121905D01*
X41202857Y48169524D01*
X41298095Y48169524D01*
X41440952Y48121905D01*
X42012380Y47550477D01*
X42012380Y48169524D01*
X41107619Y48550477D02*
X41060000Y48598096D01*
X41012380Y48693334D01*
X41012380Y48931429D01*
X41060000Y49026667D01*
X41107619Y49074286D01*
X41202857Y49121905D01*
X41298095Y49121905D01*
X41440952Y49074286D01*
X42012380Y48502858D01*
X42012380Y49121905D01*
%TO.C,R8*%
X65298333Y33651420D02*
X64965000Y34127610D01*
X64726904Y33651420D02*
X64726904Y34651420D01*
X65107857Y34651420D01*
X65203095Y34603800D01*
X65250714Y34556181D01*
X65298333Y34460943D01*
X65298333Y34318086D01*
X65250714Y34222848D01*
X65203095Y34175229D01*
X65107857Y34127610D01*
X64726904Y34127610D01*
X65869761Y34222848D02*
X65774523Y34270467D01*
X65726904Y34318086D01*
X65679285Y34413324D01*
X65679285Y34460943D01*
X65726904Y34556181D01*
X65774523Y34603800D01*
X65869761Y34651420D01*
X66060238Y34651420D01*
X66155476Y34603800D01*
X66203095Y34556181D01*
X66250714Y34460943D01*
X66250714Y34413324D01*
X66203095Y34318086D01*
X66155476Y34270467D01*
X66060238Y34222848D01*
X65869761Y34222848D01*
X65774523Y34175229D01*
X65726904Y34127610D01*
X65679285Y34032372D01*
X65679285Y33841896D01*
X65726904Y33746658D01*
X65774523Y33699039D01*
X65869761Y33651420D01*
X66060238Y33651420D01*
X66155476Y33699039D01*
X66203095Y33746658D01*
X66250714Y33841896D01*
X66250714Y34032372D01*
X66203095Y34127610D01*
X66155476Y34175229D01*
X66060238Y34222848D01*
%TO.C,R25*%
X65612380Y13657143D02*
X65136190Y13323810D01*
X65612380Y13085715D02*
X64612380Y13085715D01*
X64612380Y13466667D01*
X64660000Y13561905D01*
X64707619Y13609524D01*
X64802857Y13657143D01*
X64945714Y13657143D01*
X65040952Y13609524D01*
X65088571Y13561905D01*
X65136190Y13466667D01*
X65136190Y13085715D01*
X64707619Y14038096D02*
X64660000Y14085715D01*
X64612380Y14180953D01*
X64612380Y14419048D01*
X64660000Y14514286D01*
X64707619Y14561905D01*
X64802857Y14609524D01*
X64898095Y14609524D01*
X65040952Y14561905D01*
X65612380Y13990477D01*
X65612380Y14609524D01*
X64612380Y15514286D02*
X64612380Y15038096D01*
X65088571Y14990477D01*
X65040952Y15038096D01*
X64993333Y15133334D01*
X64993333Y15371429D01*
X65040952Y15466667D01*
X65088571Y15514286D01*
X65183809Y15561905D01*
X65421904Y15561905D01*
X65517142Y15514286D01*
X65564761Y15466667D01*
X65612380Y15371429D01*
X65612380Y15133334D01*
X65564761Y15038096D01*
X65517142Y14990477D01*
%TO.C,R20*%
X92892380Y17417143D02*
X92416190Y17083810D01*
X92892380Y16845715D02*
X91892380Y16845715D01*
X91892380Y17226667D01*
X91940000Y17321905D01*
X91987619Y17369524D01*
X92082857Y17417143D01*
X92225714Y17417143D01*
X92320952Y17369524D01*
X92368571Y17321905D01*
X92416190Y17226667D01*
X92416190Y16845715D01*
X91987619Y17798096D02*
X91940000Y17845715D01*
X91892380Y17940953D01*
X91892380Y18179048D01*
X91940000Y18274286D01*
X91987619Y18321905D01*
X92082857Y18369524D01*
X92178095Y18369524D01*
X92320952Y18321905D01*
X92892380Y17750477D01*
X92892380Y18369524D01*
X91892380Y18988572D02*
X91892380Y19083810D01*
X91940000Y19179048D01*
X91987619Y19226667D01*
X92082857Y19274286D01*
X92273333Y19321905D01*
X92511428Y19321905D01*
X92701904Y19274286D01*
X92797142Y19226667D01*
X92844761Y19179048D01*
X92892380Y19083810D01*
X92892380Y18988572D01*
X92844761Y18893334D01*
X92797142Y18845715D01*
X92701904Y18798096D01*
X92511428Y18750477D01*
X92273333Y18750477D01*
X92082857Y18798096D01*
X91987619Y18845715D01*
X91940000Y18893334D01*
X91892380Y18988572D01*
%TO.C,R5*%
X56977180Y8058734D02*
X56500990Y7725400D01*
X56977180Y7487305D02*
X55977180Y7487305D01*
X55977180Y7868258D01*
X56024800Y7963496D01*
X56072419Y8011115D01*
X56167657Y8058734D01*
X56310514Y8058734D01*
X56405752Y8011115D01*
X56453371Y7963496D01*
X56500990Y7868258D01*
X56500990Y7487305D01*
X55977180Y8963496D02*
X55977180Y8487305D01*
X56453371Y8439686D01*
X56405752Y8487305D01*
X56358133Y8582543D01*
X56358133Y8820639D01*
X56405752Y8915877D01*
X56453371Y8963496D01*
X56548609Y9011115D01*
X56786704Y9011115D01*
X56881942Y8963496D01*
X56929561Y8915877D01*
X56977180Y8820639D01*
X56977180Y8582543D01*
X56929561Y8487305D01*
X56881942Y8439686D01*
%TO.C,R21*%
X91452380Y33997143D02*
X90976190Y33663810D01*
X91452380Y33425715D02*
X90452380Y33425715D01*
X90452380Y33806667D01*
X90500000Y33901905D01*
X90547619Y33949524D01*
X90642857Y33997143D01*
X90785714Y33997143D01*
X90880952Y33949524D01*
X90928571Y33901905D01*
X90976190Y33806667D01*
X90976190Y33425715D01*
X90547619Y34378096D02*
X90500000Y34425715D01*
X90452380Y34520953D01*
X90452380Y34759048D01*
X90500000Y34854286D01*
X90547619Y34901905D01*
X90642857Y34949524D01*
X90738095Y34949524D01*
X90880952Y34901905D01*
X91452380Y34330477D01*
X91452380Y34949524D01*
X91452380Y35901905D02*
X91452380Y35330477D01*
X91452380Y35616191D02*
X90452380Y35616191D01*
X90595238Y35520953D01*
X90690476Y35425715D01*
X90738095Y35330477D01*
%TO.C,CR1*%
X63793333Y16192858D02*
X63745714Y16145239D01*
X63602857Y16097620D01*
X63507619Y16097620D01*
X63364761Y16145239D01*
X63269523Y16240477D01*
X63221904Y16335715D01*
X63174285Y16526191D01*
X63174285Y16669048D01*
X63221904Y16859524D01*
X63269523Y16954762D01*
X63364761Y17050000D01*
X63507619Y17097620D01*
X63602857Y17097620D01*
X63745714Y17050000D01*
X63793333Y17002381D01*
X64793333Y16097620D02*
X64460000Y16573810D01*
X64221904Y16097620D02*
X64221904Y17097620D01*
X64602857Y17097620D01*
X64698095Y17050000D01*
X64745714Y17002381D01*
X64793333Y16907143D01*
X64793333Y16764286D01*
X64745714Y16669048D01*
X64698095Y16621429D01*
X64602857Y16573810D01*
X64221904Y16573810D01*
X65745714Y16097620D02*
X65174285Y16097620D01*
X65460000Y16097620D02*
X65460000Y17097620D01*
X65364761Y16954762D01*
X65269523Y16859524D01*
X65174285Y16811905D01*
%TO.C,U3*%
X42508095Y30113020D02*
X42508095Y29303496D01*
X42555714Y29208258D01*
X42603333Y29160639D01*
X42698571Y29113020D01*
X42889047Y29113020D01*
X42984285Y29160639D01*
X43031904Y29208258D01*
X43079523Y29303496D01*
X43079523Y30113020D01*
X43460476Y30113020D02*
X44079523Y30113020D01*
X43746190Y29732067D01*
X43889047Y29732067D01*
X43984285Y29684448D01*
X44031904Y29636829D01*
X44079523Y29541591D01*
X44079523Y29303496D01*
X44031904Y29208258D01*
X43984285Y29160639D01*
X43889047Y29113020D01*
X43603333Y29113020D01*
X43508095Y29160639D01*
X43460476Y29208258D01*
%TO.C,L2*%
X19448333Y43472620D02*
X18972142Y43472620D01*
X18972142Y44472620D01*
X19734047Y44377381D02*
X19781666Y44425000D01*
X19876904Y44472620D01*
X20115000Y44472620D01*
X20210238Y44425000D01*
X20257857Y44377381D01*
X20305476Y44282143D01*
X20305476Y44186905D01*
X20257857Y44044048D01*
X19686428Y43472620D01*
X20305476Y43472620D01*
%TO.C,C6*%
X33373333Y20567858D02*
X33325714Y20520239D01*
X33182857Y20472620D01*
X33087619Y20472620D01*
X32944761Y20520239D01*
X32849523Y20615477D01*
X32801904Y20710715D01*
X32754285Y20901191D01*
X32754285Y21044048D01*
X32801904Y21234524D01*
X32849523Y21329762D01*
X32944761Y21425000D01*
X33087619Y21472620D01*
X33182857Y21472620D01*
X33325714Y21425000D01*
X33373333Y21377381D01*
X34230476Y21472620D02*
X34040000Y21472620D01*
X33944761Y21425000D01*
X33897142Y21377381D01*
X33801904Y21234524D01*
X33754285Y21044048D01*
X33754285Y20663096D01*
X33801904Y20567858D01*
X33849523Y20520239D01*
X33944761Y20472620D01*
X34135238Y20472620D01*
X34230476Y20520239D01*
X34278095Y20567858D01*
X34325714Y20663096D01*
X34325714Y20901191D01*
X34278095Y20996429D01*
X34230476Y21044048D01*
X34135238Y21091667D01*
X33944761Y21091667D01*
X33849523Y21044048D01*
X33801904Y20996429D01*
X33754285Y20901191D01*
%TO.C,R23*%
X38162380Y47179643D02*
X37686190Y46846310D01*
X38162380Y46608215D02*
X37162380Y46608215D01*
X37162380Y46989167D01*
X37210000Y47084405D01*
X37257619Y47132024D01*
X37352857Y47179643D01*
X37495714Y47179643D01*
X37590952Y47132024D01*
X37638571Y47084405D01*
X37686190Y46989167D01*
X37686190Y46608215D01*
X37257619Y47560596D02*
X37210000Y47608215D01*
X37162380Y47703453D01*
X37162380Y47941548D01*
X37210000Y48036786D01*
X37257619Y48084405D01*
X37352857Y48132024D01*
X37448095Y48132024D01*
X37590952Y48084405D01*
X38162380Y47512977D01*
X38162380Y48132024D01*
X37162380Y48465358D02*
X37162380Y49084405D01*
X37543333Y48751072D01*
X37543333Y48893929D01*
X37590952Y48989167D01*
X37638571Y49036786D01*
X37733809Y49084405D01*
X37971904Y49084405D01*
X38067142Y49036786D01*
X38114761Y48989167D01*
X38162380Y48893929D01*
X38162380Y48608215D01*
X38114761Y48512977D01*
X38067142Y48465358D01*
%TO.C,C12*%
X43260942Y11567658D02*
X43213323Y11520039D01*
X43070466Y11472420D01*
X42975228Y11472420D01*
X42832371Y11520039D01*
X42737133Y11615277D01*
X42689514Y11710515D01*
X42641895Y11900991D01*
X42641895Y12043848D01*
X42689514Y12234324D01*
X42737133Y12329562D01*
X42832371Y12424800D01*
X42975228Y12472420D01*
X43070466Y12472420D01*
X43213323Y12424800D01*
X43260942Y12377181D01*
X44213323Y11472420D02*
X43641895Y11472420D01*
X43927609Y11472420D02*
X43927609Y12472420D01*
X43832371Y12329562D01*
X43737133Y12234324D01*
X43641895Y12186705D01*
X44594276Y12377181D02*
X44641895Y12424800D01*
X44737133Y12472420D01*
X44975228Y12472420D01*
X45070466Y12424800D01*
X45118085Y12377181D01*
X45165704Y12281943D01*
X45165704Y12186705D01*
X45118085Y12043848D01*
X44546657Y11472420D01*
X45165704Y11472420D01*
%TO.C,C45*%
X1568053Y23783732D02*
X1615672Y23736113D01*
X1663291Y23593256D01*
X1663291Y23498018D01*
X1615672Y23355161D01*
X1520434Y23259923D01*
X1425196Y23212304D01*
X1234720Y23164685D01*
X1091863Y23164685D01*
X901387Y23212304D01*
X806149Y23259923D01*
X710911Y23355161D01*
X663291Y23498018D01*
X663291Y23593256D01*
X710911Y23736113D01*
X758530Y23783732D01*
X996625Y24640875D02*
X1663291Y24640875D01*
X615672Y24402780D02*
X1329958Y24164685D01*
X1329958Y24783732D01*
X663291Y25640875D02*
X663291Y25164685D01*
X1139482Y25117066D01*
X1091863Y25164685D01*
X1044244Y25259923D01*
X1044244Y25498018D01*
X1091863Y25593256D01*
X1139482Y25640875D01*
X1234720Y25688494D01*
X1472815Y25688494D01*
X1568053Y25640875D01*
X1615672Y25593256D01*
X1663291Y25498018D01*
X1663291Y25259923D01*
X1615672Y25164685D01*
X1568053Y25117066D01*
%TO.C,U10*%
X27042380Y26386905D02*
X27851904Y26386905D01*
X27947142Y26434524D01*
X27994761Y26482143D01*
X28042380Y26577381D01*
X28042380Y26767858D01*
X27994761Y26863096D01*
X27947142Y26910715D01*
X27851904Y26958334D01*
X27042380Y26958334D01*
X28042380Y27958334D02*
X28042380Y27386905D01*
X28042380Y27672620D02*
X27042380Y27672620D01*
X27185238Y27577381D01*
X27280476Y27482143D01*
X27328095Y27386905D01*
X27042380Y28577381D02*
X27042380Y28672620D01*
X27090000Y28767858D01*
X27137619Y28815477D01*
X27232857Y28863096D01*
X27423333Y28910715D01*
X27661428Y28910715D01*
X27851904Y28863096D01*
X27947142Y28815477D01*
X27994761Y28767858D01*
X28042380Y28672620D01*
X28042380Y28577381D01*
X27994761Y28482143D01*
X27947142Y28434524D01*
X27851904Y28386905D01*
X27661428Y28339286D01*
X27423333Y28339286D01*
X27232857Y28386905D01*
X27137619Y28434524D01*
X27090000Y28482143D01*
X27042380Y28577381D01*
%TO.C,R34*%
X3283291Y23818732D02*
X2807101Y23485399D01*
X3283291Y23247304D02*
X2283291Y23247304D01*
X2283291Y23628256D01*
X2330911Y23723494D01*
X2378530Y23771113D01*
X2473768Y23818732D01*
X2616625Y23818732D01*
X2711863Y23771113D01*
X2759482Y23723494D01*
X2807101Y23628256D01*
X2807101Y23247304D01*
X2283291Y24152066D02*
X2283291Y24771113D01*
X2664244Y24437780D01*
X2664244Y24580637D01*
X2711863Y24675875D01*
X2759482Y24723494D01*
X2854720Y24771113D01*
X3092815Y24771113D01*
X3188053Y24723494D01*
X3235672Y24675875D01*
X3283291Y24580637D01*
X3283291Y24294923D01*
X3235672Y24199685D01*
X3188053Y24152066D01*
X2616625Y25628256D02*
X3283291Y25628256D01*
X2235672Y25390161D02*
X2949958Y25152066D01*
X2949958Y25771113D01*
%TO.C,C5*%
X44260942Y35176934D02*
X44308561Y35129315D01*
X44356180Y34986458D01*
X44356180Y34891220D01*
X44308561Y34748362D01*
X44213323Y34653124D01*
X44118085Y34605505D01*
X43927609Y34557886D01*
X43784752Y34557886D01*
X43594276Y34605505D01*
X43499038Y34653124D01*
X43403800Y34748362D01*
X43356180Y34891220D01*
X43356180Y34986458D01*
X43403800Y35129315D01*
X43451419Y35176934D01*
X43356180Y36081696D02*
X43356180Y35605505D01*
X43832371Y35557886D01*
X43784752Y35605505D01*
X43737133Y35700743D01*
X43737133Y35938839D01*
X43784752Y36034077D01*
X43832371Y36081696D01*
X43927609Y36129315D01*
X44165704Y36129315D01*
X44260942Y36081696D01*
X44308561Y36034077D01*
X44356180Y35938839D01*
X44356180Y35700743D01*
X44308561Y35605505D01*
X44260942Y35557886D01*
%TO.C,R4*%
X64497883Y27736420D02*
X64164550Y28212610D01*
X63926454Y27736420D02*
X63926454Y28736420D01*
X64307407Y28736420D01*
X64402645Y28688800D01*
X64450264Y28641181D01*
X64497883Y28545943D01*
X64497883Y28403086D01*
X64450264Y28307848D01*
X64402645Y28260229D01*
X64307407Y28212610D01*
X63926454Y28212610D01*
X65355026Y28403086D02*
X65355026Y27736420D01*
X65116930Y28784039D02*
X64878835Y28069753D01*
X65497883Y28069753D01*
%TO.C,J3*%
X39162380Y29226667D02*
X39876666Y29226667D01*
X40019523Y29179048D01*
X40114761Y29083810D01*
X40162380Y28940953D01*
X40162380Y28845715D01*
X39162380Y29607620D02*
X39162380Y30226667D01*
X39543333Y29893334D01*
X39543333Y30036191D01*
X39590952Y30131429D01*
X39638571Y30179048D01*
X39733809Y30226667D01*
X39971904Y30226667D01*
X40067142Y30179048D01*
X40114761Y30131429D01*
X40162380Y30036191D01*
X40162380Y29750477D01*
X40114761Y29655239D01*
X40067142Y29607620D01*
%TO.C,C38*%
X29498042Y41292858D02*
X29450423Y41245239D01*
X29307566Y41197620D01*
X29212328Y41197620D01*
X29069471Y41245239D01*
X28974233Y41340477D01*
X28926614Y41435715D01*
X28878995Y41626191D01*
X28878995Y41769048D01*
X28926614Y41959524D01*
X28974233Y42054762D01*
X29069471Y42150000D01*
X29212328Y42197620D01*
X29307566Y42197620D01*
X29450423Y42150000D01*
X29498042Y42102381D01*
X29831376Y42197620D02*
X30450423Y42197620D01*
X30117090Y41816667D01*
X30259947Y41816667D01*
X30355185Y41769048D01*
X30402804Y41721429D01*
X30450423Y41626191D01*
X30450423Y41388096D01*
X30402804Y41292858D01*
X30355185Y41245239D01*
X30259947Y41197620D01*
X29974233Y41197620D01*
X29878995Y41245239D01*
X29831376Y41292858D01*
X31021852Y41769048D02*
X30926614Y41816667D01*
X30878995Y41864286D01*
X30831376Y41959524D01*
X30831376Y42007143D01*
X30878995Y42102381D01*
X30926614Y42150000D01*
X31021852Y42197620D01*
X31212328Y42197620D01*
X31307566Y42150000D01*
X31355185Y42102381D01*
X31402804Y42007143D01*
X31402804Y41959524D01*
X31355185Y41864286D01*
X31307566Y41816667D01*
X31212328Y41769048D01*
X31021852Y41769048D01*
X30926614Y41721429D01*
X30878995Y41673810D01*
X30831376Y41578572D01*
X30831376Y41388096D01*
X30878995Y41292858D01*
X30926614Y41245239D01*
X31021852Y41197620D01*
X31212328Y41197620D01*
X31307566Y41245239D01*
X31355185Y41292858D01*
X31402804Y41388096D01*
X31402804Y41578572D01*
X31355185Y41673810D01*
X31307566Y41721429D01*
X31212328Y41769048D01*
%TO.C,C27*%
X88997142Y13917143D02*
X89044761Y13869524D01*
X89092380Y13726667D01*
X89092380Y13631429D01*
X89044761Y13488572D01*
X88949523Y13393334D01*
X88854285Y13345715D01*
X88663809Y13298096D01*
X88520952Y13298096D01*
X88330476Y13345715D01*
X88235238Y13393334D01*
X88140000Y13488572D01*
X88092380Y13631429D01*
X88092380Y13726667D01*
X88140000Y13869524D01*
X88187619Y13917143D01*
X88187619Y14298096D02*
X88140000Y14345715D01*
X88092380Y14440953D01*
X88092380Y14679048D01*
X88140000Y14774286D01*
X88187619Y14821905D01*
X88282857Y14869524D01*
X88378095Y14869524D01*
X88520952Y14821905D01*
X89092380Y14250477D01*
X89092380Y14869524D01*
X88092380Y15202858D02*
X88092380Y15869524D01*
X89092380Y15440953D01*
%TO.C,R12*%
X64042380Y40207143D02*
X63566190Y39873810D01*
X64042380Y39635715D02*
X63042380Y39635715D01*
X63042380Y40016667D01*
X63090000Y40111905D01*
X63137619Y40159524D01*
X63232857Y40207143D01*
X63375714Y40207143D01*
X63470952Y40159524D01*
X63518571Y40111905D01*
X63566190Y40016667D01*
X63566190Y39635715D01*
X64042380Y41159524D02*
X64042380Y40588096D01*
X64042380Y40873810D02*
X63042380Y40873810D01*
X63185238Y40778572D01*
X63280476Y40683334D01*
X63328095Y40588096D01*
X63137619Y41540477D02*
X63090000Y41588096D01*
X63042380Y41683334D01*
X63042380Y41921429D01*
X63090000Y42016667D01*
X63137619Y42064286D01*
X63232857Y42111905D01*
X63328095Y42111905D01*
X63470952Y42064286D01*
X64042380Y41492858D01*
X64042380Y42111905D01*
%TO.C,R26*%
X62902380Y13704643D02*
X62426190Y13371310D01*
X62902380Y13133215D02*
X61902380Y13133215D01*
X61902380Y13514167D01*
X61950000Y13609405D01*
X61997619Y13657024D01*
X62092857Y13704643D01*
X62235714Y13704643D01*
X62330952Y13657024D01*
X62378571Y13609405D01*
X62426190Y13514167D01*
X62426190Y13133215D01*
X61997619Y14085596D02*
X61950000Y14133215D01*
X61902380Y14228453D01*
X61902380Y14466548D01*
X61950000Y14561786D01*
X61997619Y14609405D01*
X62092857Y14657024D01*
X62188095Y14657024D01*
X62330952Y14609405D01*
X62902380Y14037977D01*
X62902380Y14657024D01*
X61902380Y15514167D02*
X61902380Y15323691D01*
X61950000Y15228453D01*
X61997619Y15180834D01*
X62140476Y15085596D01*
X62330952Y15037977D01*
X62711904Y15037977D01*
X62807142Y15085596D01*
X62854761Y15133215D01*
X62902380Y15228453D01*
X62902380Y15418929D01*
X62854761Y15514167D01*
X62807142Y15561786D01*
X62711904Y15609405D01*
X62473809Y15609405D01*
X62378571Y15561786D01*
X62330952Y15514167D01*
X62283333Y15418929D01*
X62283333Y15228453D01*
X62330952Y15133215D01*
X62378571Y15085596D01*
X62473809Y15037977D01*
%TO.C,U7*%
X31528195Y10925075D02*
X31528195Y10115551D01*
X31575814Y10020313D01*
X31623433Y9972694D01*
X31718671Y9925075D01*
X31909147Y9925075D01*
X32004385Y9972694D01*
X32052004Y10020313D01*
X32099623Y10115551D01*
X32099623Y10925075D01*
X32480576Y10925075D02*
X33147242Y10925075D01*
X32718671Y9925075D01*
%TO.C,C1*%
X44531942Y13448734D02*
X44579561Y13401115D01*
X44627180Y13258258D01*
X44627180Y13163020D01*
X44579561Y13020162D01*
X44484323Y12924924D01*
X44389085Y12877305D01*
X44198609Y12829686D01*
X44055752Y12829686D01*
X43865276Y12877305D01*
X43770038Y12924924D01*
X43674800Y13020162D01*
X43627180Y13163020D01*
X43627180Y13258258D01*
X43674800Y13401115D01*
X43722419Y13448734D01*
X44627180Y14401115D02*
X44627180Y13829686D01*
X44627180Y14115400D02*
X43627180Y14115400D01*
X43770038Y14020162D01*
X43865276Y13924924D01*
X43912895Y13829686D01*
%TO.C,R31*%
X30702380Y47217143D02*
X30226190Y46883810D01*
X30702380Y46645715D02*
X29702380Y46645715D01*
X29702380Y47026667D01*
X29750000Y47121905D01*
X29797619Y47169524D01*
X29892857Y47217143D01*
X30035714Y47217143D01*
X30130952Y47169524D01*
X30178571Y47121905D01*
X30226190Y47026667D01*
X30226190Y46645715D01*
X29702380Y47550477D02*
X29702380Y48169524D01*
X30083333Y47836191D01*
X30083333Y47979048D01*
X30130952Y48074286D01*
X30178571Y48121905D01*
X30273809Y48169524D01*
X30511904Y48169524D01*
X30607142Y48121905D01*
X30654761Y48074286D01*
X30702380Y47979048D01*
X30702380Y47693334D01*
X30654761Y47598096D01*
X30607142Y47550477D01*
X30702380Y49121905D02*
X30702380Y48550477D01*
X30702380Y48836191D02*
X29702380Y48836191D01*
X29845238Y48740953D01*
X29940476Y48645715D01*
X29988095Y48550477D01*
%TO.C,C7*%
X33448333Y22117858D02*
X33400714Y22070239D01*
X33257857Y22022620D01*
X33162619Y22022620D01*
X33019761Y22070239D01*
X32924523Y22165477D01*
X32876904Y22260715D01*
X32829285Y22451191D01*
X32829285Y22594048D01*
X32876904Y22784524D01*
X32924523Y22879762D01*
X33019761Y22975000D01*
X33162619Y23022620D01*
X33257857Y23022620D01*
X33400714Y22975000D01*
X33448333Y22927381D01*
X33781666Y23022620D02*
X34448333Y23022620D01*
X34019761Y22022620D01*
%TO.C,R37*%
X9592380Y29557143D02*
X9116190Y29223810D01*
X9592380Y28985715D02*
X8592380Y28985715D01*
X8592380Y29366667D01*
X8640000Y29461905D01*
X8687619Y29509524D01*
X8782857Y29557143D01*
X8925714Y29557143D01*
X9020952Y29509524D01*
X9068571Y29461905D01*
X9116190Y29366667D01*
X9116190Y28985715D01*
X8592380Y29890477D02*
X8592380Y30509524D01*
X8973333Y30176191D01*
X8973333Y30319048D01*
X9020952Y30414286D01*
X9068571Y30461905D01*
X9163809Y30509524D01*
X9401904Y30509524D01*
X9497142Y30461905D01*
X9544761Y30414286D01*
X9592380Y30319048D01*
X9592380Y30033334D01*
X9544761Y29938096D01*
X9497142Y29890477D01*
X8592380Y30842858D02*
X8592380Y31509524D01*
X9592380Y31080953D01*
%TO.C,D1*%
X89932380Y24831905D02*
X88932380Y24831905D01*
X88932380Y25070000D01*
X88980000Y25212858D01*
X89075238Y25308096D01*
X89170476Y25355715D01*
X89360952Y25403334D01*
X89503809Y25403334D01*
X89694285Y25355715D01*
X89789523Y25308096D01*
X89884761Y25212858D01*
X89932380Y25070000D01*
X89932380Y24831905D01*
X89932380Y26355715D02*
X89932380Y25784286D01*
X89932380Y26070000D02*
X88932380Y26070000D01*
X89075238Y25974762D01*
X89170476Y25879524D01*
X89218095Y25784286D01*
%TO.C,D5*%
X33611904Y49717620D02*
X33611904Y50717620D01*
X33850000Y50717620D01*
X33992857Y50670000D01*
X34088095Y50574762D01*
X34135714Y50479524D01*
X34183333Y50289048D01*
X34183333Y50146191D01*
X34135714Y49955715D01*
X34088095Y49860477D01*
X33992857Y49765239D01*
X33850000Y49717620D01*
X33611904Y49717620D01*
X35088095Y50717620D02*
X34611904Y50717620D01*
X34564285Y50241429D01*
X34611904Y50289048D01*
X34707142Y50336667D01*
X34945238Y50336667D01*
X35040476Y50289048D01*
X35088095Y50241429D01*
X35135714Y50146191D01*
X35135714Y49908096D01*
X35088095Y49812858D01*
X35040476Y49765239D01*
X34945238Y49717620D01*
X34707142Y49717620D01*
X34611904Y49765239D01*
X34564285Y49812858D01*
%TO.C,R13*%
X89792380Y17347143D02*
X89316190Y17013810D01*
X89792380Y16775715D02*
X88792380Y16775715D01*
X88792380Y17156667D01*
X88840000Y17251905D01*
X88887619Y17299524D01*
X88982857Y17347143D01*
X89125714Y17347143D01*
X89220952Y17299524D01*
X89268571Y17251905D01*
X89316190Y17156667D01*
X89316190Y16775715D01*
X89792380Y18299524D02*
X89792380Y17728096D01*
X89792380Y18013810D02*
X88792380Y18013810D01*
X88935238Y17918572D01*
X89030476Y17823334D01*
X89078095Y17728096D01*
X88792380Y18632858D02*
X88792380Y19251905D01*
X89173333Y18918572D01*
X89173333Y19061429D01*
X89220952Y19156667D01*
X89268571Y19204286D01*
X89363809Y19251905D01*
X89601904Y19251905D01*
X89697142Y19204286D01*
X89744761Y19156667D01*
X89792380Y19061429D01*
X89792380Y18775715D01*
X89744761Y18680477D01*
X89697142Y18632858D01*
%TO.C,C30*%
X62717142Y3887143D02*
X62764761Y3839524D01*
X62812380Y3696667D01*
X62812380Y3601429D01*
X62764761Y3458572D01*
X62669523Y3363334D01*
X62574285Y3315715D01*
X62383809Y3268096D01*
X62240952Y3268096D01*
X62050476Y3315715D01*
X61955238Y3363334D01*
X61860000Y3458572D01*
X61812380Y3601429D01*
X61812380Y3696667D01*
X61860000Y3839524D01*
X61907619Y3887143D01*
X61812380Y4220477D02*
X61812380Y4839524D01*
X62193333Y4506191D01*
X62193333Y4649048D01*
X62240952Y4744286D01*
X62288571Y4791905D01*
X62383809Y4839524D01*
X62621904Y4839524D01*
X62717142Y4791905D01*
X62764761Y4744286D01*
X62812380Y4649048D01*
X62812380Y4363334D01*
X62764761Y4268096D01*
X62717142Y4220477D01*
X61812380Y5458572D02*
X61812380Y5553810D01*
X61860000Y5649048D01*
X61907619Y5696667D01*
X62002857Y5744286D01*
X62193333Y5791905D01*
X62431428Y5791905D01*
X62621904Y5744286D01*
X62717142Y5696667D01*
X62764761Y5649048D01*
X62812380Y5553810D01*
X62812380Y5458572D01*
X62764761Y5363334D01*
X62717142Y5315715D01*
X62621904Y5268096D01*
X62431428Y5220477D01*
X62193333Y5220477D01*
X62002857Y5268096D01*
X61907619Y5315715D01*
X61860000Y5363334D01*
X61812380Y5458572D01*
%TO.C,C3*%
X34875522Y29719555D02*
X34942865Y29719555D01*
X35077552Y29652211D01*
X35144896Y29584867D01*
X35212239Y29450180D01*
X35212239Y29315493D01*
X35178568Y29214478D01*
X35077552Y29046119D01*
X34976537Y28945104D01*
X34808178Y28844089D01*
X34707163Y28810417D01*
X34572476Y28810417D01*
X34437789Y28877761D01*
X34370445Y28945104D01*
X34303102Y29079791D01*
X34303102Y29147135D01*
X34000056Y29315493D02*
X33562323Y29753226D01*
X34067400Y29786898D01*
X33966384Y29887913D01*
X33932713Y29988929D01*
X33932713Y30056272D01*
X33966384Y30157287D01*
X34134743Y30325646D01*
X34235758Y30359318D01*
X34303102Y30359318D01*
X34404117Y30325646D01*
X34606148Y30123616D01*
X34639820Y30022600D01*
X34639820Y29955257D01*
%TO.C,U8*%
X88658095Y39277620D02*
X88658095Y38468096D01*
X88705714Y38372858D01*
X88753333Y38325239D01*
X88848571Y38277620D01*
X89039047Y38277620D01*
X89134285Y38325239D01*
X89181904Y38372858D01*
X89229523Y38468096D01*
X89229523Y39277620D01*
X89848571Y38849048D02*
X89753333Y38896667D01*
X89705714Y38944286D01*
X89658095Y39039524D01*
X89658095Y39087143D01*
X89705714Y39182381D01*
X89753333Y39230000D01*
X89848571Y39277620D01*
X90039047Y39277620D01*
X90134285Y39230000D01*
X90181904Y39182381D01*
X90229523Y39087143D01*
X90229523Y39039524D01*
X90181904Y38944286D01*
X90134285Y38896667D01*
X90039047Y38849048D01*
X89848571Y38849048D01*
X89753333Y38801429D01*
X89705714Y38753810D01*
X89658095Y38658572D01*
X89658095Y38468096D01*
X89705714Y38372858D01*
X89753333Y38325239D01*
X89848571Y38277620D01*
X90039047Y38277620D01*
X90134285Y38325239D01*
X90181904Y38372858D01*
X90229523Y38468096D01*
X90229523Y38658572D01*
X90181904Y38753810D01*
X90134285Y38801429D01*
X90039047Y38849048D01*
X89440000Y37887620D02*
X89440000Y37649524D01*
X89201904Y37744762D02*
X89440000Y37649524D01*
X89678095Y37744762D01*
X89297142Y37459048D02*
X89440000Y37649524D01*
X89582857Y37459048D01*
%TO.C,C29*%
X65467142Y3847143D02*
X65514761Y3799524D01*
X65562380Y3656667D01*
X65562380Y3561429D01*
X65514761Y3418572D01*
X65419523Y3323334D01*
X65324285Y3275715D01*
X65133809Y3228096D01*
X64990952Y3228096D01*
X64800476Y3275715D01*
X64705238Y3323334D01*
X64610000Y3418572D01*
X64562380Y3561429D01*
X64562380Y3656667D01*
X64610000Y3799524D01*
X64657619Y3847143D01*
X64657619Y4228096D02*
X64610000Y4275715D01*
X64562380Y4370953D01*
X64562380Y4609048D01*
X64610000Y4704286D01*
X64657619Y4751905D01*
X64752857Y4799524D01*
X64848095Y4799524D01*
X64990952Y4751905D01*
X65562380Y4180477D01*
X65562380Y4799524D01*
X65562380Y5275715D02*
X65562380Y5466191D01*
X65514761Y5561429D01*
X65467142Y5609048D01*
X65324285Y5704286D01*
X65133809Y5751905D01*
X64752857Y5751905D01*
X64657619Y5704286D01*
X64610000Y5656667D01*
X64562380Y5561429D01*
X64562380Y5370953D01*
X64610000Y5275715D01*
X64657619Y5228096D01*
X64752857Y5180477D01*
X64990952Y5180477D01*
X65086190Y5228096D01*
X65133809Y5275715D01*
X65181428Y5370953D01*
X65181428Y5561429D01*
X65133809Y5656667D01*
X65086190Y5704286D01*
X64990952Y5751905D01*
%TO.C,C4*%
X54123333Y25948258D02*
X54075714Y25900639D01*
X53932857Y25853020D01*
X53837619Y25853020D01*
X53694761Y25900639D01*
X53599523Y25995877D01*
X53551904Y26091115D01*
X53504285Y26281591D01*
X53504285Y26424448D01*
X53551904Y26614924D01*
X53599523Y26710162D01*
X53694761Y26805400D01*
X53837619Y26853020D01*
X53932857Y26853020D01*
X54075714Y26805400D01*
X54123333Y26757781D01*
X54980476Y26519686D02*
X54980476Y25853020D01*
X54742380Y26900639D02*
X54504285Y26186353D01*
X55123333Y26186353D01*
%TO.C,R24*%
X68682380Y13657143D02*
X68206190Y13323810D01*
X68682380Y13085715D02*
X67682380Y13085715D01*
X67682380Y13466667D01*
X67730000Y13561905D01*
X67777619Y13609524D01*
X67872857Y13657143D01*
X68015714Y13657143D01*
X68110952Y13609524D01*
X68158571Y13561905D01*
X68206190Y13466667D01*
X68206190Y13085715D01*
X67777619Y14038096D02*
X67730000Y14085715D01*
X67682380Y14180953D01*
X67682380Y14419048D01*
X67730000Y14514286D01*
X67777619Y14561905D01*
X67872857Y14609524D01*
X67968095Y14609524D01*
X68110952Y14561905D01*
X68682380Y13990477D01*
X68682380Y14609524D01*
X68015714Y15466667D02*
X68682380Y15466667D01*
X67634761Y15228572D02*
X68349047Y14990477D01*
X68349047Y15609524D01*
%TO.C,R29*%
X8497142Y21447620D02*
X8163809Y21923810D01*
X7925714Y21447620D02*
X7925714Y22447620D01*
X8306666Y22447620D01*
X8401904Y22400000D01*
X8449523Y22352381D01*
X8497142Y22257143D01*
X8497142Y22114286D01*
X8449523Y22019048D01*
X8401904Y21971429D01*
X8306666Y21923810D01*
X7925714Y21923810D01*
X8878095Y22352381D02*
X8925714Y22400000D01*
X9020952Y22447620D01*
X9259047Y22447620D01*
X9354285Y22400000D01*
X9401904Y22352381D01*
X9449523Y22257143D01*
X9449523Y22161905D01*
X9401904Y22019048D01*
X8830476Y21447620D01*
X9449523Y21447620D01*
X9925714Y21447620D02*
X10116190Y21447620D01*
X10211428Y21495239D01*
X10259047Y21542858D01*
X10354285Y21685715D01*
X10401904Y21876191D01*
X10401904Y22257143D01*
X10354285Y22352381D01*
X10306666Y22400000D01*
X10211428Y22447620D01*
X10020952Y22447620D01*
X9925714Y22400000D01*
X9878095Y22352381D01*
X9830476Y22257143D01*
X9830476Y22019048D01*
X9878095Y21923810D01*
X9925714Y21876191D01*
X10020952Y21828572D01*
X10211428Y21828572D01*
X10306666Y21876191D01*
X10354285Y21923810D01*
X10401904Y22019048D01*
%TO.C,C36*%
X8497142Y19992858D02*
X8449523Y19945239D01*
X8306666Y19897620D01*
X8211428Y19897620D01*
X8068571Y19945239D01*
X7973333Y20040477D01*
X7925714Y20135715D01*
X7878095Y20326191D01*
X7878095Y20469048D01*
X7925714Y20659524D01*
X7973333Y20754762D01*
X8068571Y20850000D01*
X8211428Y20897620D01*
X8306666Y20897620D01*
X8449523Y20850000D01*
X8497142Y20802381D01*
X8830476Y20897620D02*
X9449523Y20897620D01*
X9116190Y20516667D01*
X9259047Y20516667D01*
X9354285Y20469048D01*
X9401904Y20421429D01*
X9449523Y20326191D01*
X9449523Y20088096D01*
X9401904Y19992858D01*
X9354285Y19945239D01*
X9259047Y19897620D01*
X8973333Y19897620D01*
X8878095Y19945239D01*
X8830476Y19992858D01*
X10306666Y20897620D02*
X10116190Y20897620D01*
X10020952Y20850000D01*
X9973333Y20802381D01*
X9878095Y20659524D01*
X9830476Y20469048D01*
X9830476Y20088096D01*
X9878095Y19992858D01*
X9925714Y19945239D01*
X10020952Y19897620D01*
X10211428Y19897620D01*
X10306666Y19945239D01*
X10354285Y19992858D01*
X10401904Y20088096D01*
X10401904Y20326191D01*
X10354285Y20421429D01*
X10306666Y20469048D01*
X10211428Y20516667D01*
X10020952Y20516667D01*
X9925714Y20469048D01*
X9878095Y20421429D01*
X9830476Y20326191D01*
%TO.C,J8*%
X79331666Y2822620D02*
X79331666Y2108334D01*
X79284047Y1965477D01*
X79188809Y1870239D01*
X79045952Y1822620D01*
X78950714Y1822620D01*
X79950714Y2394048D02*
X79855476Y2441667D01*
X79807857Y2489286D01*
X79760238Y2584524D01*
X79760238Y2632143D01*
X79807857Y2727381D01*
X79855476Y2775000D01*
X79950714Y2822620D01*
X80141190Y2822620D01*
X80236428Y2775000D01*
X80284047Y2727381D01*
X80331666Y2632143D01*
X80331666Y2584524D01*
X80284047Y2489286D01*
X80236428Y2441667D01*
X80141190Y2394048D01*
X79950714Y2394048D01*
X79855476Y2346429D01*
X79807857Y2298810D01*
X79760238Y2203572D01*
X79760238Y2013096D01*
X79807857Y1917858D01*
X79855476Y1870239D01*
X79950714Y1822620D01*
X80141190Y1822620D01*
X80236428Y1870239D01*
X80284047Y1917858D01*
X80331666Y2013096D01*
X80331666Y2203572D01*
X80284047Y2298810D01*
X80236428Y2346429D01*
X80141190Y2394048D01*
X75976904Y10202381D02*
X76024523Y10250000D01*
X76119761Y10297620D01*
X76357857Y10297620D01*
X76453095Y10250000D01*
X76500714Y10202381D01*
X76548333Y10107143D01*
X76548333Y10011905D01*
X76500714Y9869048D01*
X75929285Y9297620D01*
X76548333Y9297620D01*
X77119761Y9869048D02*
X77024523Y9916667D01*
X76976904Y9964286D01*
X76929285Y10059524D01*
X76929285Y10107143D01*
X76976904Y10202381D01*
X77024523Y10250000D01*
X77119761Y10297620D01*
X77310238Y10297620D01*
X77405476Y10250000D01*
X77453095Y10202381D01*
X77500714Y10107143D01*
X77500714Y10059524D01*
X77453095Y9964286D01*
X77405476Y9916667D01*
X77310238Y9869048D01*
X77119761Y9869048D01*
X77024523Y9821429D01*
X76976904Y9773810D01*
X76929285Y9678572D01*
X76929285Y9488096D01*
X76976904Y9392858D01*
X77024523Y9345239D01*
X77119761Y9297620D01*
X77310238Y9297620D01*
X77405476Y9345239D01*
X77453095Y9392858D01*
X77500714Y9488096D01*
X77500714Y9678572D01*
X77453095Y9773810D01*
X77405476Y9821429D01*
X77310238Y9869048D01*
X77881666Y10202381D02*
X77929285Y10250000D01*
X78024523Y10297620D01*
X78262619Y10297620D01*
X78357857Y10250000D01*
X78405476Y10202381D01*
X78453095Y10107143D01*
X78453095Y10011905D01*
X78405476Y9869048D01*
X77834047Y9297620D01*
X78453095Y9297620D01*
X78834047Y10202381D02*
X78881666Y10250000D01*
X78976904Y10297620D01*
X79215000Y10297620D01*
X79310238Y10250000D01*
X79357857Y10202381D01*
X79405476Y10107143D01*
X79405476Y10011905D01*
X79357857Y9869048D01*
X78786428Y9297620D01*
X79405476Y9297620D01*
X80310238Y10297620D02*
X79834047Y10297620D01*
X79786428Y9821429D01*
X79834047Y9869048D01*
X79929285Y9916667D01*
X80167380Y9916667D01*
X80262619Y9869048D01*
X80310238Y9821429D01*
X80357857Y9726191D01*
X80357857Y9488096D01*
X80310238Y9392858D01*
X80262619Y9345239D01*
X80167380Y9297620D01*
X79929285Y9297620D01*
X79834047Y9345239D01*
X79786428Y9392858D01*
X81215000Y9964286D02*
X81215000Y9297620D01*
X80976904Y10345239D02*
X80738809Y9630953D01*
X81357857Y9630953D01*
X82262619Y9297620D02*
X81691190Y9297620D01*
X81976904Y9297620D02*
X81976904Y10297620D01*
X81881666Y10154762D01*
X81786428Y10059524D01*
X81691190Y10011905D01*
X82691190Y9678572D02*
X83453095Y9678572D01*
X84453095Y9297620D02*
X83881666Y9297620D01*
X84167380Y9297620D02*
X84167380Y10297620D01*
X84072142Y10154762D01*
X83976904Y10059524D01*
X83881666Y10011905D01*
X219354999Y-22092881D02*
X219354999Y-22330977D01*
X219116903Y-22235739D02*
X219354999Y-22330977D01*
X219593094Y-22235739D01*
X219212141Y-22521453D02*
X219354999Y-22330977D01*
X219497856Y-22521453D01*
X219354999Y-22092881D02*
X219354999Y-22330977D01*
X219116903Y-22235739D02*
X219354999Y-22330977D01*
X219593094Y-22235739D01*
X219212141Y-22521453D02*
X219354999Y-22330977D01*
X219497856Y-22521453D01*
%TO.C,C18*%
X87017142Y42432858D02*
X86969523Y42385239D01*
X86826666Y42337620D01*
X86731428Y42337620D01*
X86588571Y42385239D01*
X86493333Y42480477D01*
X86445714Y42575715D01*
X86398095Y42766191D01*
X86398095Y42909048D01*
X86445714Y43099524D01*
X86493333Y43194762D01*
X86588571Y43290000D01*
X86731428Y43337620D01*
X86826666Y43337620D01*
X86969523Y43290000D01*
X87017142Y43242381D01*
X87969523Y42337620D02*
X87398095Y42337620D01*
X87683809Y42337620D02*
X87683809Y43337620D01*
X87588571Y43194762D01*
X87493333Y43099524D01*
X87398095Y43051905D01*
X88540952Y42909048D02*
X88445714Y42956667D01*
X88398095Y43004286D01*
X88350476Y43099524D01*
X88350476Y43147143D01*
X88398095Y43242381D01*
X88445714Y43290000D01*
X88540952Y43337620D01*
X88731428Y43337620D01*
X88826666Y43290000D01*
X88874285Y43242381D01*
X88921904Y43147143D01*
X88921904Y43099524D01*
X88874285Y43004286D01*
X88826666Y42956667D01*
X88731428Y42909048D01*
X88540952Y42909048D01*
X88445714Y42861429D01*
X88398095Y42813810D01*
X88350476Y42718572D01*
X88350476Y42528096D01*
X88398095Y42432858D01*
X88445714Y42385239D01*
X88540952Y42337620D01*
X88731428Y42337620D01*
X88826666Y42385239D01*
X88874285Y42432858D01*
X88921904Y42528096D01*
X88921904Y42718572D01*
X88874285Y42813810D01*
X88826666Y42861429D01*
X88731428Y42909048D01*
%TO.C,R15*%
X57849242Y28145020D02*
X57515909Y28621210D01*
X57277814Y28145020D02*
X57277814Y29145020D01*
X57658766Y29145020D01*
X57754004Y29097400D01*
X57801623Y29049781D01*
X57849242Y28954543D01*
X57849242Y28811686D01*
X57801623Y28716448D01*
X57754004Y28668829D01*
X57658766Y28621210D01*
X57277814Y28621210D01*
X58801623Y28145020D02*
X58230195Y28145020D01*
X58515909Y28145020D02*
X58515909Y29145020D01*
X58420671Y29002162D01*
X58325433Y28906924D01*
X58230195Y28859305D01*
X59706385Y29145020D02*
X59230195Y29145020D01*
X59182576Y28668829D01*
X59230195Y28716448D01*
X59325433Y28764067D01*
X59563528Y28764067D01*
X59658766Y28716448D01*
X59706385Y28668829D01*
X59754004Y28573591D01*
X59754004Y28335496D01*
X59706385Y28240258D01*
X59658766Y28192639D01*
X59563528Y28145020D01*
X59325433Y28145020D01*
X59230195Y28192639D01*
X59182576Y28240258D01*
%TO.C,R9*%
X65398333Y35147620D02*
X65065000Y35623810D01*
X64826904Y35147620D02*
X64826904Y36147620D01*
X65207857Y36147620D01*
X65303095Y36100000D01*
X65350714Y36052381D01*
X65398333Y35957143D01*
X65398333Y35814286D01*
X65350714Y35719048D01*
X65303095Y35671429D01*
X65207857Y35623810D01*
X64826904Y35623810D01*
X65874523Y35147620D02*
X66065000Y35147620D01*
X66160238Y35195239D01*
X66207857Y35242858D01*
X66303095Y35385715D01*
X66350714Y35576191D01*
X66350714Y35957143D01*
X66303095Y36052381D01*
X66255476Y36100000D01*
X66160238Y36147620D01*
X65969761Y36147620D01*
X65874523Y36100000D01*
X65826904Y36052381D01*
X65779285Y35957143D01*
X65779285Y35719048D01*
X65826904Y35623810D01*
X65874523Y35576191D01*
X65969761Y35528572D01*
X66160238Y35528572D01*
X66255476Y35576191D01*
X66303095Y35623810D01*
X66350714Y35719048D01*
%TO.C,C22*%
X91247142Y17407143D02*
X91294761Y17359524D01*
X91342380Y17216667D01*
X91342380Y17121429D01*
X91294761Y16978572D01*
X91199523Y16883334D01*
X91104285Y16835715D01*
X90913809Y16788096D01*
X90770952Y16788096D01*
X90580476Y16835715D01*
X90485238Y16883334D01*
X90390000Y16978572D01*
X90342380Y17121429D01*
X90342380Y17216667D01*
X90390000Y17359524D01*
X90437619Y17407143D01*
X90437619Y17788096D02*
X90390000Y17835715D01*
X90342380Y17930953D01*
X90342380Y18169048D01*
X90390000Y18264286D01*
X90437619Y18311905D01*
X90532857Y18359524D01*
X90628095Y18359524D01*
X90770952Y18311905D01*
X91342380Y17740477D01*
X91342380Y18359524D01*
X90437619Y18740477D02*
X90390000Y18788096D01*
X90342380Y18883334D01*
X90342380Y19121429D01*
X90390000Y19216667D01*
X90437619Y19264286D01*
X90532857Y19311905D01*
X90628095Y19311905D01*
X90770952Y19264286D01*
X91342380Y18692858D01*
X91342380Y19311905D01*
%TO.C,C37*%
X37047142Y15322143D02*
X37094761Y15274524D01*
X37142380Y15131667D01*
X37142380Y15036429D01*
X37094761Y14893572D01*
X36999523Y14798334D01*
X36904285Y14750715D01*
X36713809Y14703096D01*
X36570952Y14703096D01*
X36380476Y14750715D01*
X36285238Y14798334D01*
X36190000Y14893572D01*
X36142380Y15036429D01*
X36142380Y15131667D01*
X36190000Y15274524D01*
X36237619Y15322143D01*
X36142380Y15655477D02*
X36142380Y16274524D01*
X36523333Y15941191D01*
X36523333Y16084048D01*
X36570952Y16179286D01*
X36618571Y16226905D01*
X36713809Y16274524D01*
X36951904Y16274524D01*
X37047142Y16226905D01*
X37094761Y16179286D01*
X37142380Y16084048D01*
X37142380Y15798334D01*
X37094761Y15703096D01*
X37047142Y15655477D01*
X36142380Y16607858D02*
X36142380Y17274524D01*
X37142380Y16845953D01*
%TO.C,Y1*%
X51588809Y33173810D02*
X51588809Y32697620D01*
X51255476Y33697620D02*
X51588809Y33173810D01*
X51922142Y33697620D01*
X52779285Y32697620D02*
X52207857Y32697620D01*
X52493571Y32697620D02*
X52493571Y33697620D01*
X52398333Y33554762D01*
X52303095Y33459524D01*
X52207857Y33411905D01*
%TO.C,C13*%
X75127142Y42499143D02*
X75174761Y42451524D01*
X75222380Y42308667D01*
X75222380Y42213429D01*
X75174761Y42070572D01*
X75079523Y41975334D01*
X74984285Y41927715D01*
X74793809Y41880096D01*
X74650952Y41880096D01*
X74460476Y41927715D01*
X74365238Y41975334D01*
X74270000Y42070572D01*
X74222380Y42213429D01*
X74222380Y42308667D01*
X74270000Y42451524D01*
X74317619Y42499143D01*
X75222380Y43451524D02*
X75222380Y42880096D01*
X75222380Y43165810D02*
X74222380Y43165810D01*
X74365238Y43070572D01*
X74460476Y42975334D01*
X74508095Y42880096D01*
X74222380Y43784858D02*
X74222380Y44403905D01*
X74603333Y44070572D01*
X74603333Y44213429D01*
X74650952Y44308667D01*
X74698571Y44356286D01*
X74793809Y44403905D01*
X75031904Y44403905D01*
X75127142Y44356286D01*
X75174761Y44308667D01*
X75222380Y44213429D01*
X75222380Y43927715D01*
X75174761Y43832477D01*
X75127142Y43784858D01*
%TO.C,R1*%
X43035380Y14728734D02*
X42559190Y14395400D01*
X43035380Y14157305D02*
X42035380Y14157305D01*
X42035380Y14538258D01*
X42083000Y14633496D01*
X42130619Y14681115D01*
X42225857Y14728734D01*
X42368714Y14728734D01*
X42463952Y14681115D01*
X42511571Y14633496D01*
X42559190Y14538258D01*
X42559190Y14157305D01*
X43035380Y15681115D02*
X43035380Y15109686D01*
X43035380Y15395400D02*
X42035380Y15395400D01*
X42178238Y15300162D01*
X42273476Y15204924D01*
X42321095Y15109686D01*
%TO.C,U5*%
X26792380Y31513096D02*
X27601904Y31513096D01*
X27697142Y31560715D01*
X27744761Y31608334D01*
X27792380Y31703572D01*
X27792380Y31894048D01*
X27744761Y31989286D01*
X27697142Y32036905D01*
X27601904Y32084524D01*
X26792380Y32084524D01*
X26792380Y33036905D02*
X26792380Y32560715D01*
X27268571Y32513096D01*
X27220952Y32560715D01*
X27173333Y32655953D01*
X27173333Y32894048D01*
X27220952Y32989286D01*
X27268571Y33036905D01*
X27363809Y33084524D01*
X27601904Y33084524D01*
X27697142Y33036905D01*
X27744761Y32989286D01*
X27792380Y32894048D01*
X27792380Y32655953D01*
X27744761Y32560715D01*
X27697142Y32513096D01*
%TO.C,Z1*%
X80985180Y41932677D02*
X80985180Y42599343D01*
X81985180Y41932677D01*
X81985180Y42599343D01*
X81985180Y43504105D02*
X81985180Y42932677D01*
X81985180Y43218391D02*
X80985180Y43218391D01*
X81128038Y43123153D01*
X81223276Y43027915D01*
X81270895Y42932677D01*
%TO.C,C2*%
X54201933Y20330658D02*
X54154314Y20283039D01*
X54011457Y20235420D01*
X53916219Y20235420D01*
X53773361Y20283039D01*
X53678123Y20378277D01*
X53630504Y20473515D01*
X53582885Y20663991D01*
X53582885Y20806848D01*
X53630504Y20997324D01*
X53678123Y21092562D01*
X53773361Y21187800D01*
X53916219Y21235420D01*
X54011457Y21235420D01*
X54154314Y21187800D01*
X54201933Y21140181D01*
X54582885Y21140181D02*
X54630504Y21187800D01*
X54725742Y21235420D01*
X54963838Y21235420D01*
X55059076Y21187800D01*
X55106695Y21140181D01*
X55154314Y21044943D01*
X55154314Y20949705D01*
X55106695Y20806848D01*
X54535266Y20235420D01*
X55154314Y20235420D01*
%TO.C,U4*%
X23353095Y23447620D02*
X23353095Y22638096D01*
X23400714Y22542858D01*
X23448333Y22495239D01*
X23543571Y22447620D01*
X23734047Y22447620D01*
X23829285Y22495239D01*
X23876904Y22542858D01*
X23924523Y22638096D01*
X23924523Y23447620D01*
X24829285Y23114286D02*
X24829285Y22447620D01*
X24591190Y23495239D02*
X24353095Y22780953D01*
X24972142Y22780953D01*
X24060000Y25257620D02*
X24060000Y25019524D01*
X23821904Y25114762D02*
X24060000Y25019524D01*
X24298095Y25114762D01*
X23917142Y24829048D02*
X24060000Y25019524D01*
X24202857Y24829048D01*
%TO.C,C16*%
X79914142Y42480343D02*
X79961761Y42432724D01*
X80009380Y42289867D01*
X80009380Y42194629D01*
X79961761Y42051772D01*
X79866523Y41956534D01*
X79771285Y41908915D01*
X79580809Y41861296D01*
X79437952Y41861296D01*
X79247476Y41908915D01*
X79152238Y41956534D01*
X79057000Y42051772D01*
X79009380Y42194629D01*
X79009380Y42289867D01*
X79057000Y42432724D01*
X79104619Y42480343D01*
X80009380Y43432724D02*
X80009380Y42861296D01*
X80009380Y43147010D02*
X79009380Y43147010D01*
X79152238Y43051772D01*
X79247476Y42956534D01*
X79295095Y42861296D01*
X79009380Y44289867D02*
X79009380Y44099391D01*
X79057000Y44004153D01*
X79104619Y43956534D01*
X79247476Y43861296D01*
X79437952Y43813677D01*
X79818904Y43813677D01*
X79914142Y43861296D01*
X79961761Y43908915D01*
X80009380Y44004153D01*
X80009380Y44194629D01*
X79961761Y44289867D01*
X79914142Y44337486D01*
X79818904Y44385105D01*
X79580809Y44385105D01*
X79485571Y44337486D01*
X79437952Y44289867D01*
X79390333Y44194629D01*
X79390333Y44004153D01*
X79437952Y43908915D01*
X79485571Y43861296D01*
X79580809Y43813677D01*
%TO.C,R6*%
X64472883Y29258420D02*
X64139550Y29734610D01*
X63901454Y29258420D02*
X63901454Y30258420D01*
X64282407Y30258420D01*
X64377645Y30210800D01*
X64425264Y30163181D01*
X64472883Y30067943D01*
X64472883Y29925086D01*
X64425264Y29829848D01*
X64377645Y29782229D01*
X64282407Y29734610D01*
X63901454Y29734610D01*
X65330026Y30258420D02*
X65139550Y30258420D01*
X65044311Y30210800D01*
X64996692Y30163181D01*
X64901454Y30020324D01*
X64853835Y29829848D01*
X64853835Y29448896D01*
X64901454Y29353658D01*
X64949073Y29306039D01*
X65044311Y29258420D01*
X65234788Y29258420D01*
X65330026Y29306039D01*
X65377645Y29353658D01*
X65425264Y29448896D01*
X65425264Y29686991D01*
X65377645Y29782229D01*
X65330026Y29829848D01*
X65234788Y29877467D01*
X65044311Y29877467D01*
X64949073Y29829848D01*
X64901454Y29782229D01*
X64853835Y29686991D01*
%TO.C,R3*%
X64498933Y26239820D02*
X64165600Y26716010D01*
X63927504Y26239820D02*
X63927504Y27239820D01*
X64308457Y27239820D01*
X64403695Y27192200D01*
X64451314Y27144581D01*
X64498933Y27049343D01*
X64498933Y26906486D01*
X64451314Y26811248D01*
X64403695Y26763629D01*
X64308457Y26716010D01*
X63927504Y26716010D01*
X64832266Y27239820D02*
X65451314Y27239820D01*
X65117980Y26858867D01*
X65260838Y26858867D01*
X65356076Y26811248D01*
X65403695Y26763629D01*
X65451314Y26668391D01*
X65451314Y26430296D01*
X65403695Y26335058D01*
X65356076Y26287439D01*
X65260838Y26239820D01*
X64975123Y26239820D01*
X64879885Y26287439D01*
X64832266Y26335058D01*
%TO.C,R11*%
X65692380Y40207143D02*
X65216190Y39873810D01*
X65692380Y39635715D02*
X64692380Y39635715D01*
X64692380Y40016667D01*
X64740000Y40111905D01*
X64787619Y40159524D01*
X64882857Y40207143D01*
X65025714Y40207143D01*
X65120952Y40159524D01*
X65168571Y40111905D01*
X65216190Y40016667D01*
X65216190Y39635715D01*
X65692380Y41159524D02*
X65692380Y40588096D01*
X65692380Y40873810D02*
X64692380Y40873810D01*
X64835238Y40778572D01*
X64930476Y40683334D01*
X64978095Y40588096D01*
X65692380Y42111905D02*
X65692380Y41540477D01*
X65692380Y41826191D02*
X64692380Y41826191D01*
X64835238Y41730953D01*
X64930476Y41635715D01*
X64978095Y41540477D01*
%TO.C,C21*%
X92857142Y34137143D02*
X92904761Y34089524D01*
X92952380Y33946667D01*
X92952380Y33851429D01*
X92904761Y33708572D01*
X92809523Y33613334D01*
X92714285Y33565715D01*
X92523809Y33518096D01*
X92380952Y33518096D01*
X92190476Y33565715D01*
X92095238Y33613334D01*
X92000000Y33708572D01*
X91952380Y33851429D01*
X91952380Y33946667D01*
X92000000Y34089524D01*
X92047619Y34137143D01*
X92047619Y34518096D02*
X92000000Y34565715D01*
X91952380Y34660953D01*
X91952380Y34899048D01*
X92000000Y34994286D01*
X92047619Y35041905D01*
X92142857Y35089524D01*
X92238095Y35089524D01*
X92380952Y35041905D01*
X92952380Y34470477D01*
X92952380Y35089524D01*
X92952380Y36041905D02*
X92952380Y35470477D01*
X92952380Y35756191D02*
X91952380Y35756191D01*
X92095238Y35660953D01*
X92190476Y35565715D01*
X92238095Y35470477D01*
%TO.C,R35*%
X22392380Y31107143D02*
X21916190Y30773810D01*
X22392380Y30535715D02*
X21392380Y30535715D01*
X21392380Y30916667D01*
X21440000Y31011905D01*
X21487619Y31059524D01*
X21582857Y31107143D01*
X21725714Y31107143D01*
X21820952Y31059524D01*
X21868571Y31011905D01*
X21916190Y30916667D01*
X21916190Y30535715D01*
X21392380Y31440477D02*
X21392380Y32059524D01*
X21773333Y31726191D01*
X21773333Y31869048D01*
X21820952Y31964286D01*
X21868571Y32011905D01*
X21963809Y32059524D01*
X22201904Y32059524D01*
X22297142Y32011905D01*
X22344761Y31964286D01*
X22392380Y31869048D01*
X22392380Y31583334D01*
X22344761Y31488096D01*
X22297142Y31440477D01*
X21392380Y32964286D02*
X21392380Y32488096D01*
X21868571Y32440477D01*
X21820952Y32488096D01*
X21773333Y32583334D01*
X21773333Y32821429D01*
X21820952Y32916667D01*
X21868571Y32964286D01*
X21963809Y33011905D01*
X22201904Y33011905D01*
X22297142Y32964286D01*
X22344761Y32916667D01*
X22392380Y32821429D01*
X22392380Y32583334D01*
X22344761Y32488096D01*
X22297142Y32440477D01*
%TO.C,J10*%
X95630476Y35097620D02*
X95630476Y34383334D01*
X95582857Y34240477D01*
X95487619Y34145239D01*
X95344761Y34097620D01*
X95249523Y34097620D01*
X96630476Y34097620D02*
X96059047Y34097620D01*
X96344761Y34097620D02*
X96344761Y35097620D01*
X96249523Y34954762D01*
X96154285Y34859524D01*
X96059047Y34811905D01*
X97249523Y35097620D02*
X97344761Y35097620D01*
X97440000Y35050000D01*
X97487619Y35002381D01*
X97535238Y34907143D01*
X97582857Y34716667D01*
X97582857Y34478572D01*
X97535238Y34288096D01*
X97487619Y34192858D01*
X97440000Y34145239D01*
X97344761Y34097620D01*
X97249523Y34097620D01*
X97154285Y34145239D01*
X97106666Y34192858D01*
X97059047Y34288096D01*
X97011428Y34478572D01*
X97011428Y34716667D01*
X97059047Y34907143D01*
X97106666Y35002381D01*
X97154285Y35050000D01*
X97249523Y35097620D01*
X95225714Y40950000D02*
X95130476Y40997620D01*
X94987619Y40997620D01*
X94844761Y40950000D01*
X94749523Y40854762D01*
X94701904Y40759524D01*
X94654285Y40569048D01*
X94654285Y40426191D01*
X94701904Y40235715D01*
X94749523Y40140477D01*
X94844761Y40045239D01*
X94987619Y39997620D01*
X95082857Y39997620D01*
X95225714Y40045239D01*
X95273333Y40092858D01*
X95273333Y40426191D01*
X95082857Y40426191D01*
X95701904Y39997620D02*
X95701904Y40997620D01*
X96273333Y39997620D01*
X96273333Y40997620D01*
X96701904Y40045239D02*
X96844761Y39997620D01*
X97082857Y39997620D01*
X97178095Y40045239D01*
X97225714Y40092858D01*
X97273333Y40188096D01*
X97273333Y40283334D01*
X97225714Y40378572D01*
X97178095Y40426191D01*
X97082857Y40473810D01*
X96892380Y40521429D01*
X96797142Y40569048D01*
X96749523Y40616667D01*
X96701904Y40711905D01*
X96701904Y40807143D01*
X96749523Y40902381D01*
X96797142Y40950000D01*
X96892380Y40997620D01*
X97130476Y40997620D01*
X97273333Y40950000D01*
X97654285Y40045239D02*
X97797142Y39997620D01*
X98035238Y39997620D01*
X98130476Y40045239D01*
X98178095Y40092858D01*
X98225714Y40188096D01*
X98225714Y40283334D01*
X98178095Y40378572D01*
X98130476Y40426191D01*
X98035238Y40473810D01*
X97844761Y40521429D01*
X97749523Y40569048D01*
X97701904Y40616667D01*
X97654285Y40711905D01*
X97654285Y40807143D01*
X97701904Y40902381D01*
X97749523Y40950000D01*
X97844761Y40997620D01*
X98082857Y40997620D01*
X98225714Y40950000D01*
X96062380Y37520000D02*
X96300476Y37520000D01*
X96205238Y37281905D02*
X96300476Y37520000D01*
X96205238Y37758096D01*
X96490952Y37377143D02*
X96300476Y37520000D01*
X96490952Y37662858D01*
%TO.C,C32*%
X16747142Y23142858D02*
X16699523Y23095239D01*
X16556666Y23047620D01*
X16461428Y23047620D01*
X16318571Y23095239D01*
X16223333Y23190477D01*
X16175714Y23285715D01*
X16128095Y23476191D01*
X16128095Y23619048D01*
X16175714Y23809524D01*
X16223333Y23904762D01*
X16318571Y24000000D01*
X16461428Y24047620D01*
X16556666Y24047620D01*
X16699523Y24000000D01*
X16747142Y23952381D01*
X17080476Y24047620D02*
X17699523Y24047620D01*
X17366190Y23666667D01*
X17509047Y23666667D01*
X17604285Y23619048D01*
X17651904Y23571429D01*
X17699523Y23476191D01*
X17699523Y23238096D01*
X17651904Y23142858D01*
X17604285Y23095239D01*
X17509047Y23047620D01*
X17223333Y23047620D01*
X17128095Y23095239D01*
X17080476Y23142858D01*
X18080476Y23952381D02*
X18128095Y24000000D01*
X18223333Y24047620D01*
X18461428Y24047620D01*
X18556666Y24000000D01*
X18604285Y23952381D01*
X18651904Y23857143D01*
X18651904Y23761905D01*
X18604285Y23619048D01*
X18032857Y23047620D01*
X18651904Y23047620D01*
%TO.C,J6*%
X10186066Y5397420D02*
X10186066Y4683134D01*
X10138447Y4540277D01*
X10043209Y4445039D01*
X9900352Y4397420D01*
X9805114Y4397420D01*
X11090828Y5397420D02*
X10900352Y5397420D01*
X10805114Y5349800D01*
X10757495Y5302181D01*
X10662257Y5159324D01*
X10614638Y4968848D01*
X10614638Y4587896D01*
X10662257Y4492658D01*
X10709876Y4445039D01*
X10805114Y4397420D01*
X10995590Y4397420D01*
X11090828Y4445039D01*
X11138447Y4492658D01*
X11186066Y4587896D01*
X11186066Y4825991D01*
X11138447Y4921229D01*
X11090828Y4968848D01*
X10995590Y5016467D01*
X10805114Y5016467D01*
X10709876Y4968848D01*
X10662257Y4921229D01*
X10614638Y4825991D01*
%TO.C,C9*%
X42686142Y35176934D02*
X42733761Y35129315D01*
X42781380Y34986458D01*
X42781380Y34891220D01*
X42733761Y34748362D01*
X42638523Y34653124D01*
X42543285Y34605505D01*
X42352809Y34557886D01*
X42209952Y34557886D01*
X42019476Y34605505D01*
X41924238Y34653124D01*
X41829000Y34748362D01*
X41781380Y34891220D01*
X41781380Y34986458D01*
X41829000Y35129315D01*
X41876619Y35176934D01*
X42781380Y35653124D02*
X42781380Y35843600D01*
X42733761Y35938839D01*
X42686142Y35986458D01*
X42543285Y36081696D01*
X42352809Y36129315D01*
X41971857Y36129315D01*
X41876619Y36081696D01*
X41829000Y36034077D01*
X41781380Y35938839D01*
X41781380Y35748362D01*
X41829000Y35653124D01*
X41876619Y35605505D01*
X41971857Y35557886D01*
X42209952Y35557886D01*
X42305190Y35605505D01*
X42352809Y35653124D01*
X42400428Y35748362D01*
X42400428Y35938839D01*
X42352809Y36034077D01*
X42305190Y36081696D01*
X42209952Y36129315D01*
%TO.C,C10*%
X38291942Y12612543D02*
X38339561Y12564924D01*
X38387180Y12422067D01*
X38387180Y12326829D01*
X38339561Y12183972D01*
X38244323Y12088734D01*
X38149085Y12041115D01*
X37958609Y11993496D01*
X37815752Y11993496D01*
X37625276Y12041115D01*
X37530038Y12088734D01*
X37434800Y12183972D01*
X37387180Y12326829D01*
X37387180Y12422067D01*
X37434800Y12564924D01*
X37482419Y12612543D01*
X38387180Y13564924D02*
X38387180Y12993496D01*
X38387180Y13279210D02*
X37387180Y13279210D01*
X37530038Y13183972D01*
X37625276Y13088734D01*
X37672895Y12993496D01*
X37387180Y14183972D02*
X37387180Y14279210D01*
X37434800Y14374448D01*
X37482419Y14422067D01*
X37577657Y14469686D01*
X37768133Y14517305D01*
X38006228Y14517305D01*
X38196704Y14469686D01*
X38291942Y14422067D01*
X38339561Y14374448D01*
X38387180Y14279210D01*
X38387180Y14183972D01*
X38339561Y14088734D01*
X38291942Y14041115D01*
X38196704Y13993496D01*
X38006228Y13945877D01*
X37768133Y13945877D01*
X37577657Y13993496D01*
X37482419Y14041115D01*
X37434800Y14088734D01*
X37387180Y14183972D01*
%TO.C,R33*%
X8497142Y23047620D02*
X8163809Y23523810D01*
X7925714Y23047620D02*
X7925714Y24047620D01*
X8306666Y24047620D01*
X8401904Y24000000D01*
X8449523Y23952381D01*
X8497142Y23857143D01*
X8497142Y23714286D01*
X8449523Y23619048D01*
X8401904Y23571429D01*
X8306666Y23523810D01*
X7925714Y23523810D01*
X8830476Y24047620D02*
X9449523Y24047620D01*
X9116190Y23666667D01*
X9259047Y23666667D01*
X9354285Y23619048D01*
X9401904Y23571429D01*
X9449523Y23476191D01*
X9449523Y23238096D01*
X9401904Y23142858D01*
X9354285Y23095239D01*
X9259047Y23047620D01*
X8973333Y23047620D01*
X8878095Y23095239D01*
X8830476Y23142858D01*
X9782857Y24047620D02*
X10401904Y24047620D01*
X10068571Y23666667D01*
X10211428Y23666667D01*
X10306666Y23619048D01*
X10354285Y23571429D01*
X10401904Y23476191D01*
X10401904Y23238096D01*
X10354285Y23142858D01*
X10306666Y23095239D01*
X10211428Y23047620D01*
X9925714Y23047620D01*
X9830476Y23095239D01*
X9782857Y23142858D01*
%TO.C,C31*%
X12947142Y19192858D02*
X12899523Y19145239D01*
X12756666Y19097620D01*
X12661428Y19097620D01*
X12518571Y19145239D01*
X12423333Y19240477D01*
X12375714Y19335715D01*
X12328095Y19526191D01*
X12328095Y19669048D01*
X12375714Y19859524D01*
X12423333Y19954762D01*
X12518571Y20050000D01*
X12661428Y20097620D01*
X12756666Y20097620D01*
X12899523Y20050000D01*
X12947142Y20002381D01*
X13280476Y20097620D02*
X13899523Y20097620D01*
X13566190Y19716667D01*
X13709047Y19716667D01*
X13804285Y19669048D01*
X13851904Y19621429D01*
X13899523Y19526191D01*
X13899523Y19288096D01*
X13851904Y19192858D01*
X13804285Y19145239D01*
X13709047Y19097620D01*
X13423333Y19097620D01*
X13328095Y19145239D01*
X13280476Y19192858D01*
X14851904Y19097620D02*
X14280476Y19097620D01*
X14566190Y19097620D02*
X14566190Y20097620D01*
X14470952Y19954762D01*
X14375714Y19859524D01*
X14280476Y19811905D01*
%TO.C,D3*%
X41126904Y49722620D02*
X41126904Y50722620D01*
X41365000Y50722620D01*
X41507857Y50675000D01*
X41603095Y50579762D01*
X41650714Y50484524D01*
X41698333Y50294048D01*
X41698333Y50151191D01*
X41650714Y49960715D01*
X41603095Y49865477D01*
X41507857Y49770239D01*
X41365000Y49722620D01*
X41126904Y49722620D01*
X42031666Y50722620D02*
X42650714Y50722620D01*
X42317380Y50341667D01*
X42460238Y50341667D01*
X42555476Y50294048D01*
X42603095Y50246429D01*
X42650714Y50151191D01*
X42650714Y49913096D01*
X42603095Y49817858D01*
X42555476Y49770239D01*
X42460238Y49722620D01*
X42174523Y49722620D01*
X42079285Y49770239D01*
X42031666Y49817858D01*
%TO.C,R17*%
X47592380Y31482143D02*
X47116190Y31148810D01*
X47592380Y30910715D02*
X46592380Y30910715D01*
X46592380Y31291667D01*
X46640000Y31386905D01*
X46687619Y31434524D01*
X46782857Y31482143D01*
X46925714Y31482143D01*
X47020952Y31434524D01*
X47068571Y31386905D01*
X47116190Y31291667D01*
X47116190Y30910715D01*
X47592380Y32434524D02*
X47592380Y31863096D01*
X47592380Y32148810D02*
X46592380Y32148810D01*
X46735238Y32053572D01*
X46830476Y31958334D01*
X46878095Y31863096D01*
X46592380Y32767858D02*
X46592380Y33434524D01*
X47592380Y33005953D01*
%TO.C,C17*%
X87042142Y40861058D02*
X86994523Y40813439D01*
X86851666Y40765820D01*
X86756428Y40765820D01*
X86613571Y40813439D01*
X86518333Y40908677D01*
X86470714Y41003915D01*
X86423095Y41194391D01*
X86423095Y41337248D01*
X86470714Y41527724D01*
X86518333Y41622962D01*
X86613571Y41718200D01*
X86756428Y41765820D01*
X86851666Y41765820D01*
X86994523Y41718200D01*
X87042142Y41670581D01*
X87994523Y40765820D02*
X87423095Y40765820D01*
X87708809Y40765820D02*
X87708809Y41765820D01*
X87613571Y41622962D01*
X87518333Y41527724D01*
X87423095Y41480105D01*
X88327857Y41765820D02*
X88994523Y41765820D01*
X88565952Y40765820D01*
%TO.C,J5*%
X96106666Y27447620D02*
X96106666Y26733334D01*
X96059047Y26590477D01*
X95963809Y26495239D01*
X95820952Y26447620D01*
X95725714Y26447620D01*
X97059047Y27447620D02*
X96582857Y27447620D01*
X96535238Y26971429D01*
X96582857Y27019048D01*
X96678095Y27066667D01*
X96916190Y27066667D01*
X97011428Y27019048D01*
X97059047Y26971429D01*
X97106666Y26876191D01*
X97106666Y26638096D01*
X97059047Y26542858D01*
X97011428Y26495239D01*
X96916190Y26447620D01*
X96678095Y26447620D01*
X96582857Y26495239D01*
X96535238Y26542858D01*
X95654285Y33250000D02*
X95559047Y33297620D01*
X95416190Y33297620D01*
X95273333Y33250000D01*
X95178095Y33154762D01*
X95130476Y33059524D01*
X95082857Y32869048D01*
X95082857Y32726191D01*
X95130476Y32535715D01*
X95178095Y32440477D01*
X95273333Y32345239D01*
X95416190Y32297620D01*
X95511428Y32297620D01*
X95654285Y32345239D01*
X95701904Y32392858D01*
X95701904Y32726191D01*
X95511428Y32726191D01*
X96082857Y32345239D02*
X96225714Y32297620D01*
X96463809Y32297620D01*
X96559047Y32345239D01*
X96606666Y32392858D01*
X96654285Y32488096D01*
X96654285Y32583334D01*
X96606666Y32678572D01*
X96559047Y32726191D01*
X96463809Y32773810D01*
X96273333Y32821429D01*
X96178095Y32869048D01*
X96130476Y32916667D01*
X96082857Y33011905D01*
X96082857Y33107143D01*
X96130476Y33202381D01*
X96178095Y33250000D01*
X96273333Y33297620D01*
X96511428Y33297620D01*
X96654285Y33250000D01*
X97082857Y32297620D02*
X97082857Y33297620D01*
X97416190Y32583334D01*
X97749523Y33297620D01*
X97749523Y32297620D01*
X96082380Y29830000D02*
X96320476Y29830000D01*
X96225238Y29591905D02*
X96320476Y29830000D01*
X96225238Y30068096D01*
X96510952Y29687143D02*
X96320476Y29830000D01*
X96510952Y29972858D01*
%TO.C,J2*%
X35512380Y29096667D02*
X36226666Y29096667D01*
X36369523Y29049048D01*
X36464761Y28953810D01*
X36512380Y28810953D01*
X36512380Y28715715D01*
X35607619Y29525239D02*
X35560000Y29572858D01*
X35512380Y29668096D01*
X35512380Y29906191D01*
X35560000Y30001429D01*
X35607619Y30049048D01*
X35702857Y30096667D01*
X35798095Y30096667D01*
X35940952Y30049048D01*
X36512380Y29477620D01*
X36512380Y30096667D01*
%TO.C,C26*%
X24547142Y35742858D02*
X24499523Y35695239D01*
X24356666Y35647620D01*
X24261428Y35647620D01*
X24118571Y35695239D01*
X24023333Y35790477D01*
X23975714Y35885715D01*
X23928095Y36076191D01*
X23928095Y36219048D01*
X23975714Y36409524D01*
X24023333Y36504762D01*
X24118571Y36600000D01*
X24261428Y36647620D01*
X24356666Y36647620D01*
X24499523Y36600000D01*
X24547142Y36552381D01*
X24928095Y36552381D02*
X24975714Y36600000D01*
X25070952Y36647620D01*
X25309047Y36647620D01*
X25404285Y36600000D01*
X25451904Y36552381D01*
X25499523Y36457143D01*
X25499523Y36361905D01*
X25451904Y36219048D01*
X24880476Y35647620D01*
X25499523Y35647620D01*
X26356666Y36647620D02*
X26166190Y36647620D01*
X26070952Y36600000D01*
X26023333Y36552381D01*
X25928095Y36409524D01*
X25880476Y36219048D01*
X25880476Y35838096D01*
X25928095Y35742858D01*
X25975714Y35695239D01*
X26070952Y35647620D01*
X26261428Y35647620D01*
X26356666Y35695239D01*
X26404285Y35742858D01*
X26451904Y35838096D01*
X26451904Y36076191D01*
X26404285Y36171429D01*
X26356666Y36219048D01*
X26261428Y36266667D01*
X26070952Y36266667D01*
X25975714Y36219048D01*
X25928095Y36171429D01*
X25880476Y36076191D01*
%TO.C,C14*%
X76789942Y42505743D02*
X76837561Y42458124D01*
X76885180Y42315267D01*
X76885180Y42220029D01*
X76837561Y42077172D01*
X76742323Y41981934D01*
X76647085Y41934315D01*
X76456609Y41886696D01*
X76313752Y41886696D01*
X76123276Y41934315D01*
X76028038Y41981934D01*
X75932800Y42077172D01*
X75885180Y42220029D01*
X75885180Y42315267D01*
X75932800Y42458124D01*
X75980419Y42505743D01*
X76885180Y43458124D02*
X76885180Y42886696D01*
X76885180Y43172410D02*
X75885180Y43172410D01*
X76028038Y43077172D01*
X76123276Y42981934D01*
X76170895Y42886696D01*
X76218514Y44315267D02*
X76885180Y44315267D01*
X75837561Y44077172D02*
X76551847Y43839077D01*
X76551847Y44458124D01*
%TO.C,R14*%
X57796542Y26417820D02*
X57463209Y26894010D01*
X57225114Y26417820D02*
X57225114Y27417820D01*
X57606066Y27417820D01*
X57701304Y27370200D01*
X57748923Y27322581D01*
X57796542Y27227343D01*
X57796542Y27084486D01*
X57748923Y26989248D01*
X57701304Y26941629D01*
X57606066Y26894010D01*
X57225114Y26894010D01*
X58748923Y26417820D02*
X58177495Y26417820D01*
X58463209Y26417820D02*
X58463209Y27417820D01*
X58367971Y27274962D01*
X58272733Y27179724D01*
X58177495Y27132105D01*
X59606066Y27084486D02*
X59606066Y26417820D01*
X59367971Y27465439D02*
X59129876Y26751153D01*
X59748923Y26751153D01*
%TO.C,C33*%
X19859742Y16307143D02*
X19907361Y16259524D01*
X19954980Y16116667D01*
X19954980Y16021429D01*
X19907361Y15878572D01*
X19812123Y15783334D01*
X19716885Y15735715D01*
X19526409Y15688096D01*
X19383552Y15688096D01*
X19193076Y15735715D01*
X19097838Y15783334D01*
X19002600Y15878572D01*
X18954980Y16021429D01*
X18954980Y16116667D01*
X19002600Y16259524D01*
X19050219Y16307143D01*
X18954980Y16640477D02*
X18954980Y17259524D01*
X19335933Y16926191D01*
X19335933Y17069048D01*
X19383552Y17164286D01*
X19431171Y17211905D01*
X19526409Y17259524D01*
X19764504Y17259524D01*
X19859742Y17211905D01*
X19907361Y17164286D01*
X19954980Y17069048D01*
X19954980Y16783334D01*
X19907361Y16688096D01*
X19859742Y16640477D01*
X18954980Y17592858D02*
X18954980Y18211905D01*
X19335933Y17878572D01*
X19335933Y18021429D01*
X19383552Y18116667D01*
X19431171Y18164286D01*
X19526409Y18211905D01*
X19764504Y18211905D01*
X19859742Y18164286D01*
X19907361Y18116667D01*
X19954980Y18021429D01*
X19954980Y17735715D01*
X19907361Y17640477D01*
X19859742Y17592858D01*
%TO.C,C15*%
X78343942Y42505743D02*
X78391561Y42458124D01*
X78439180Y42315267D01*
X78439180Y42220029D01*
X78391561Y42077172D01*
X78296323Y41981934D01*
X78201085Y41934315D01*
X78010609Y41886696D01*
X77867752Y41886696D01*
X77677276Y41934315D01*
X77582038Y41981934D01*
X77486800Y42077172D01*
X77439180Y42220029D01*
X77439180Y42315267D01*
X77486800Y42458124D01*
X77534419Y42505743D01*
X78439180Y43458124D02*
X78439180Y42886696D01*
X78439180Y43172410D02*
X77439180Y43172410D01*
X77582038Y43077172D01*
X77677276Y42981934D01*
X77724895Y42886696D01*
X77439180Y44362886D02*
X77439180Y43886696D01*
X77915371Y43839077D01*
X77867752Y43886696D01*
X77820133Y43981934D01*
X77820133Y44220029D01*
X77867752Y44315267D01*
X77915371Y44362886D01*
X78010609Y44410505D01*
X78248704Y44410505D01*
X78343942Y44362886D01*
X78391561Y44315267D01*
X78439180Y44220029D01*
X78439180Y43981934D01*
X78391561Y43886696D01*
X78343942Y43839077D01*
%TO.C,R2*%
X41511380Y14729934D02*
X41035190Y14396600D01*
X41511380Y14158505D02*
X40511380Y14158505D01*
X40511380Y14539458D01*
X40559000Y14634696D01*
X40606619Y14682315D01*
X40701857Y14729934D01*
X40844714Y14729934D01*
X40939952Y14682315D01*
X40987571Y14634696D01*
X41035190Y14539458D01*
X41035190Y14158505D01*
X40606619Y15110886D02*
X40559000Y15158505D01*
X40511380Y15253743D01*
X40511380Y15491839D01*
X40559000Y15587077D01*
X40606619Y15634696D01*
X40701857Y15682315D01*
X40797095Y15682315D01*
X40939952Y15634696D01*
X41511380Y15063267D01*
X41511380Y15682315D01*
%TO.C,J1*%
X48801466Y9933020D02*
X48801466Y9218734D01*
X48753847Y9075877D01*
X48658609Y8980639D01*
X48515752Y8933020D01*
X48420514Y8933020D01*
X49801466Y8933020D02*
X49230038Y8933020D01*
X49515752Y8933020D02*
X49515752Y9933020D01*
X49420514Y9790162D01*
X49325276Y9694924D01*
X49230038Y9647305D01*
%TO.C,R10*%
X64498142Y32206020D02*
X64164809Y32682210D01*
X63926714Y32206020D02*
X63926714Y33206020D01*
X64307666Y33206020D01*
X64402904Y33158400D01*
X64450523Y33110781D01*
X64498142Y33015543D01*
X64498142Y32872686D01*
X64450523Y32777448D01*
X64402904Y32729829D01*
X64307666Y32682210D01*
X63926714Y32682210D01*
X65450523Y32206020D02*
X64879095Y32206020D01*
X65164809Y32206020D02*
X65164809Y33206020D01*
X65069571Y33063162D01*
X64974333Y32967924D01*
X64879095Y32920305D01*
X66069571Y33206020D02*
X66164809Y33206020D01*
X66260047Y33158400D01*
X66307666Y33110781D01*
X66355285Y33015543D01*
X66402904Y32825067D01*
X66402904Y32586972D01*
X66355285Y32396496D01*
X66307666Y32301258D01*
X66260047Y32253639D01*
X66164809Y32206020D01*
X66069571Y32206020D01*
X65974333Y32253639D01*
X65926714Y32301258D01*
X65879095Y32396496D01*
X65831476Y32586972D01*
X65831476Y32825067D01*
X65879095Y33015543D01*
X65926714Y33110781D01*
X65974333Y33158400D01*
X66069571Y33206020D01*
%TO.C,C44*%
X17897142Y31057143D02*
X17944761Y31009524D01*
X17992380Y30866667D01*
X17992380Y30771429D01*
X17944761Y30628572D01*
X17849523Y30533334D01*
X17754285Y30485715D01*
X17563809Y30438096D01*
X17420952Y30438096D01*
X17230476Y30485715D01*
X17135238Y30533334D01*
X17040000Y30628572D01*
X16992380Y30771429D01*
X16992380Y30866667D01*
X17040000Y31009524D01*
X17087619Y31057143D01*
X17325714Y31914286D02*
X17992380Y31914286D01*
X16944761Y31676191D02*
X17659047Y31438096D01*
X17659047Y32057143D01*
X17325714Y32866667D02*
X17992380Y32866667D01*
X16944761Y32628572D02*
X17659047Y32390477D01*
X17659047Y33009524D01*
%TO.C,D6*%
X29806904Y49707620D02*
X29806904Y50707620D01*
X30045000Y50707620D01*
X30187857Y50660000D01*
X30283095Y50564762D01*
X30330714Y50469524D01*
X30378333Y50279048D01*
X30378333Y50136191D01*
X30330714Y49945715D01*
X30283095Y49850477D01*
X30187857Y49755239D01*
X30045000Y49707620D01*
X29806904Y49707620D01*
X31235476Y50707620D02*
X31045000Y50707620D01*
X30949761Y50660000D01*
X30902142Y50612381D01*
X30806904Y50469524D01*
X30759285Y50279048D01*
X30759285Y49898096D01*
X30806904Y49802858D01*
X30854523Y49755239D01*
X30949761Y49707620D01*
X31140238Y49707620D01*
X31235476Y49755239D01*
X31283095Y49802858D01*
X31330714Y49898096D01*
X31330714Y50136191D01*
X31283095Y50231429D01*
X31235476Y50279048D01*
X31140238Y50326667D01*
X30949761Y50326667D01*
X30854523Y50279048D01*
X30806904Y50231429D01*
X30759285Y50136191D01*
%TO.C,U1*%
X51854095Y12773220D02*
X51854095Y11963696D01*
X51901714Y11868458D01*
X51949333Y11820839D01*
X52044571Y11773220D01*
X52235047Y11773220D01*
X52330285Y11820839D01*
X52377904Y11868458D01*
X52425523Y11963696D01*
X52425523Y12773220D01*
X53425523Y11773220D02*
X52854095Y11773220D01*
X53139809Y11773220D02*
X53139809Y12773220D01*
X53044571Y12630362D01*
X52949333Y12535124D01*
X52854095Y12487505D01*
D15*
%TO.C,J7*%
X40304800Y2864600D02*
X40304800Y964600D01*
X40304800Y6764600D02*
X40304800Y4764600D01*
X30904800Y6764600D02*
X30904800Y4764600D01*
X30904800Y2864600D02*
X30904800Y964600D01*
X30904800Y964600D02*
X40304800Y964600D01*
%TO.C,C46*%
X25314848Y39994600D02*
X26737352Y39994600D01*
X25314848Y38174600D02*
X26737352Y38174600D01*
%TO.C,R38*%
X3262500Y30707776D02*
X3262500Y31217224D01*
X2217500Y30707776D02*
X2217500Y31217224D01*
%TO.C,C24*%
X91930000Y24776267D02*
X91930000Y24483733D01*
X92950000Y24776267D02*
X92950000Y24483733D01*
%TO.C,R32*%
X91935276Y38052500D02*
X92444724Y38052500D01*
X91935276Y37007500D02*
X92444724Y37007500D01*
%TO.C,C28*%
X67670000Y7473733D02*
X67670000Y7766267D01*
X68690000Y7473733D02*
X68690000Y7766267D01*
%TO.C,C35*%
X30886267Y23760000D02*
X30593733Y23760000D01*
X30886267Y22740000D02*
X30593733Y22740000D01*
%TO.C,U6*%
X19369270Y25748904D02*
X19369270Y25530496D01*
X15025870Y25530496D02*
X15025870Y25748904D01*
X15025870Y28883296D02*
X15489515Y28883296D01*
X19369270Y25530496D02*
X18905625Y25530496D01*
X15489515Y25530496D02*
X15025870Y25530496D01*
X15025870Y28664888D02*
X15025870Y28883296D01*
X19369270Y28883296D02*
X19369270Y28664888D01*
X18905625Y28883296D02*
X19369270Y28883296D01*
D16*
%TO.C,U2*%
X71504000Y38481200D02*
X74404000Y38481200D01*
X84304000Y38481200D02*
X87204000Y38481200D01*
X87204000Y38481200D02*
X87204000Y36281200D01*
X71504000Y20881200D02*
X74404000Y20881200D01*
X87204000Y20881200D02*
X87204000Y23081200D01*
X71504000Y36281200D02*
X71504000Y38481200D01*
X84304000Y20881200D02*
X87204000Y20881200D01*
X71504000Y23081200D02*
X71504000Y20881200D01*
D12*
X69954000Y35781200D02*
G75*
G03*
X69954000Y35781200I-100000J0D01*
G01*
D15*
%TO.C,C34*%
X11875000Y32036252D02*
X11875000Y30613748D01*
X10055000Y32036252D02*
X10055000Y30613748D01*
%TO.C,R30*%
X35872500Y48107224D02*
X35872500Y47597776D01*
X34827500Y48107224D02*
X34827500Y47597776D01*
%TO.C,R16*%
X61510276Y23777500D02*
X62019724Y23777500D01*
X61510276Y24822500D02*
X62019724Y24822500D01*
%TO.C,R28*%
X2282224Y38402500D02*
X1772776Y38402500D01*
X2282224Y39447500D02*
X1772776Y39447500D01*
%TO.C,J4*%
X95172961Y23508800D02*
X94933600Y23508800D01*
X98286399Y20257600D02*
X98286399Y23508800D01*
X94933600Y21055160D02*
X94933600Y20257600D01*
X98286399Y23508800D02*
X98048241Y23508800D01*
X94933600Y23508800D02*
X94933600Y22711240D01*
X94933600Y20257600D02*
X95172961Y20257600D01*
X98048241Y20257600D02*
X98286399Y20257600D01*
X95466600Y18479600D02*
G75*
G03*
X95466600Y18479600I-381000J0D01*
G01*
%TO.C,C23*%
X89970000Y31778767D02*
X89970000Y31486233D01*
X88950000Y31778767D02*
X88950000Y31486233D01*
%TO.C,R7*%
X68494724Y30677500D02*
X67985276Y30677500D01*
X68494724Y31722500D02*
X67985276Y31722500D01*
%TO.C,R19*%
X34035276Y25222500D02*
X34544724Y25222500D01*
X34035276Y24177500D02*
X34544724Y24177500D01*
%TO.C,D4*%
X36275000Y50900000D02*
X39135000Y50900000D01*
X36275000Y52820000D02*
X36275000Y50900000D01*
X39135000Y52820000D02*
X36275000Y52820000D01*
%TO.C,C19*%
X56665467Y32783400D02*
X56372933Y32783400D01*
X56665467Y33803400D02*
X56372933Y33803400D01*
%TO.C,J9*%
X9750000Y38622000D02*
X9950000Y38622000D01*
X6790000Y40922000D02*
X7400000Y40922000D01*
X9850000Y38122000D02*
X9850000Y38622000D01*
X6790000Y39622000D02*
X7400000Y39622000D01*
X12300000Y38122000D02*
X12300000Y41622000D01*
X12910000Y39622000D02*
X12300000Y39622000D01*
X8550000Y42232000D02*
X8550000Y42432000D01*
X12910000Y40922000D02*
X12300000Y40922000D01*
X9950000Y38622000D02*
X9950000Y38122000D01*
X12910000Y37512000D02*
X12910000Y42232000D01*
X7740000Y42532000D02*
X6490000Y42532000D01*
X7400000Y38122000D02*
X12300000Y38122000D01*
X8250000Y42432000D02*
X8250000Y42232000D01*
X8550000Y42432000D02*
X8250000Y42432000D01*
X6490000Y42532000D02*
X6490000Y41282000D01*
X7400000Y41622000D02*
X7400000Y38122000D01*
X9750000Y38122000D02*
X9750000Y38622000D01*
X8550000Y42332000D02*
X8250000Y42332000D01*
X9350000Y42232000D02*
X9350000Y41622000D01*
X12300000Y41622000D02*
X10350000Y41622000D01*
X12910000Y42232000D02*
X6790000Y42232000D01*
X9350000Y41622000D02*
X7400000Y41622000D01*
X6790000Y37512000D02*
X12910000Y37512000D01*
X10350000Y41622000D02*
X10350000Y42232000D01*
X6790000Y42232000D02*
X6790000Y37512000D01*
%TO.C,C8*%
X46141000Y16339367D02*
X46141000Y16046833D01*
X45121000Y16339367D02*
X45121000Y16046833D01*
%TO.C,D2*%
X1140000Y39790000D02*
X4000000Y39790000D01*
X4000000Y39790000D02*
X4000000Y41710000D01*
X4000000Y41710000D02*
X1140000Y41710000D01*
%TO.C,R18*%
X33985276Y25677500D02*
X34494724Y25677500D01*
X33985276Y26722500D02*
X34494724Y26722500D01*
%TO.C,C20*%
X41500000Y37513733D02*
X41500000Y37806267D01*
X40480000Y37513733D02*
X40480000Y37806267D01*
%TO.C,R27*%
X71835276Y19352500D02*
X72344724Y19352500D01*
X71835276Y18307500D02*
X72344724Y18307500D01*
%TO.C,C11*%
X38898000Y16413367D02*
X38898000Y16120833D01*
X39918000Y16413367D02*
X39918000Y16120833D01*
%TO.C,R22*%
X43502500Y48124724D02*
X43502500Y47615276D01*
X42457500Y48124724D02*
X42457500Y47615276D01*
%TO.C,R8*%
X68494724Y33677500D02*
X67985276Y33677500D01*
X68494724Y34722500D02*
X67985276Y34722500D01*
%TO.C,R25*%
X64617500Y10697776D02*
X64617500Y11207224D01*
X65662500Y10697776D02*
X65662500Y11207224D01*
%TO.C,R20*%
X92962500Y20995276D02*
X92962500Y21504724D01*
X91917500Y20995276D02*
X91917500Y21504724D01*
%TO.C,R5*%
X56030500Y11110824D02*
X56030500Y10601376D01*
X57075500Y11110824D02*
X57075500Y10601376D01*
%TO.C,R21*%
X91502500Y31894724D02*
X91502500Y31385276D01*
X90457500Y31894724D02*
X90457500Y31385276D01*
%TO.C,CR1*%
X65160000Y19710000D02*
X63760000Y19710000D01*
X63760000Y17390000D02*
X65660000Y17390000D01*
%TO.C,U3*%
X46559000Y28412600D02*
X47209000Y28412600D01*
X40639000Y21192600D02*
X39989000Y21192600D01*
X47209000Y28412600D02*
X47209000Y27762600D01*
X39989000Y28412600D02*
X39989000Y27762600D01*
X46559000Y21192600D02*
X47209000Y21192600D01*
X39989000Y21192600D02*
X39989000Y21842600D01*
X40639000Y28412600D02*
X39989000Y28412600D01*
%TO.C,L2*%
X22464600Y35648400D02*
X21614600Y35648400D01*
X23074600Y41758400D02*
X23074600Y36258400D01*
X16354600Y36258400D02*
X16354600Y41758400D01*
X17814600Y35648400D02*
X16964600Y35648400D01*
X21614600Y42368400D02*
X22464600Y42368400D01*
X16964600Y42368400D02*
X17814600Y42368400D01*
X23074600Y41758400D02*
G75*
G03*
X22464600Y42368400I-610000J0D01*
G01*
X22464600Y35648400D02*
G75*
G03*
X23074600Y36258400I0J610000D01*
G01*
X16354600Y36258400D02*
G75*
G03*
X16964600Y35648400I610000J0D01*
G01*
X16964600Y42368400D02*
G75*
G03*
X16354600Y41758400I0J-610000D01*
G01*
%TO.C,C6*%
X36093733Y21410000D02*
X36386267Y21410000D01*
X36093733Y20390000D02*
X36386267Y20390000D01*
%TO.C,R23*%
X38637500Y48102224D02*
X38637500Y47592776D01*
X39682500Y48102224D02*
X39682500Y47592776D01*
%TO.C,C12*%
X47809267Y11465600D02*
X47516733Y11465600D01*
X47809267Y12485600D02*
X47516733Y12485600D01*
%TO.C,C45*%
X1720000Y27458733D02*
X1720000Y27751267D01*
X700000Y27458733D02*
X700000Y27751267D01*
%TO.C,U10*%
X24350300Y26125744D02*
X25899700Y26125744D01*
X25899700Y28589544D02*
X24350300Y28589544D01*
X26933226Y26607455D02*
G75*
G03*
X26933226Y26607455I-101600J0D01*
G01*
%TO.C,R34*%
X2217500Y27337776D02*
X2217500Y27847224D01*
X3262500Y27337776D02*
X3262500Y27847224D01*
%TO.C,C5*%
X43444600Y32213267D02*
X43444600Y31920733D01*
X44464600Y32213267D02*
X44464600Y31920733D01*
%TO.C,R4*%
X68493274Y28722500D02*
X67983826Y28722500D01*
X68493274Y27677500D02*
X67983826Y27677500D01*
%TO.C,J3*%
X40975000Y32160000D02*
X40975000Y34760000D01*
X40975000Y32160000D02*
X40405000Y32160000D01*
X38315000Y30765000D02*
X38315000Y31525000D01*
X38885000Y32160000D02*
X38315000Y32160000D01*
X38315000Y32160000D02*
X38315000Y34760000D01*
X39645000Y30765000D02*
X38315000Y30765000D01*
X39337470Y34760000D02*
X38315000Y34760000D01*
X40975000Y34760000D02*
X39952530Y34760000D01*
%TO.C,C38*%
X25314848Y40613000D02*
X26737352Y40613000D01*
X25314848Y42433000D02*
X26737352Y42433000D01*
%TO.C,C27*%
X88150000Y11203733D02*
X88150000Y11496267D01*
X89170000Y11203733D02*
X89170000Y11496267D01*
%TO.C,R12*%
X63042500Y37904724D02*
X63042500Y37395276D01*
X64087500Y37904724D02*
X64087500Y37395276D01*
%TO.C,R26*%
X61827500Y10735276D02*
X61827500Y11244724D01*
X62872500Y10735276D02*
X62872500Y11244724D01*
%TO.C,U7*%
X35600000Y19700000D02*
X35600000Y13690000D01*
X28780000Y13690000D02*
X30040000Y13690000D01*
X35600000Y13690000D02*
X34340000Y13690000D01*
X28780000Y17450000D02*
X28780000Y13690000D01*
%TO.C,C1*%
X43597000Y16046833D02*
X43597000Y16339367D01*
X44617000Y16046833D02*
X44617000Y16339367D01*
%TO.C,R31*%
X32082500Y48117224D02*
X32082500Y47607776D01*
X31037500Y48117224D02*
X31037500Y47607776D01*
%TO.C,C7*%
X36093733Y21940000D02*
X36386267Y21940000D01*
X36093733Y22960000D02*
X36386267Y22960000D01*
%TO.C,R37*%
X9652500Y26862776D02*
X9652500Y27372224D01*
X8607500Y26862776D02*
X8607500Y27372224D01*
%TO.C,D1*%
X88725000Y29057500D02*
X88725000Y26597500D01*
X88725000Y26597500D02*
X90195000Y26597500D01*
X90195000Y26597500D02*
X90195000Y29057500D01*
%TO.C,D5*%
X32470000Y50900000D02*
X35330000Y50900000D01*
X35330000Y52820000D02*
X32470000Y52820000D01*
X32470000Y52820000D02*
X32470000Y50900000D01*
%TO.C,R13*%
X88817500Y21504724D02*
X88817500Y20995276D01*
X89862500Y21504724D02*
X89862500Y20995276D01*
%TO.C,C30*%
X61840000Y7493733D02*
X61840000Y7786267D01*
X62860000Y7493733D02*
X62860000Y7786267D01*
%TO.C,C3*%
X37097198Y27714051D02*
X37304051Y27507198D01*
X36375949Y26992802D02*
X36582802Y26785949D01*
%TO.C,U8*%
X88766900Y36950952D02*
X88766900Y36768500D01*
X88766900Y37911500D02*
X88766900Y37729048D01*
X89052560Y37911500D02*
X88766900Y37911500D01*
X88766900Y36768500D02*
X89052560Y36768500D01*
%TO.C,C29*%
X64630000Y7451233D02*
X64630000Y7743767D01*
X65650000Y7451233D02*
X65650000Y7743767D01*
%TO.C,C4*%
X50931067Y26815400D02*
X50638533Y26815400D01*
X50931067Y25795400D02*
X50638533Y25795400D01*
%TO.C,R24*%
X68702500Y10715276D02*
X68702500Y11224724D01*
X67657500Y10715276D02*
X67657500Y11224724D01*
%TO.C,R29*%
X5835276Y22442500D02*
X6344724Y22442500D01*
X5835276Y21397500D02*
X6344724Y21397500D01*
%TO.C,C36*%
X5943733Y19850000D02*
X6236267Y19850000D01*
X5943733Y20870000D02*
X6236267Y20870000D01*
%TO.C,J8*%
X73709861Y17666500D02*
X71689400Y17666500D01*
X87640600Y4676329D02*
X87640600Y17666500D01*
X71689400Y8928860D02*
X71689400Y4758875D01*
X71689400Y1560125D02*
X71689400Y1283500D01*
X83213959Y17666500D02*
X80470942Y17666500D01*
X78459262Y17666500D02*
X75950141Y17666500D01*
X71689400Y14898860D02*
X71689400Y11550140D01*
X87640600Y17666500D02*
X86248540Y17666500D01*
X87640600Y1283500D02*
X87640600Y1642671D01*
X71689400Y1283500D02*
X87640600Y1283500D01*
%TO.C,C18*%
X84766267Y43300000D02*
X84473733Y43300000D01*
X84766267Y42280000D02*
X84473733Y42280000D01*
%TO.C,R15*%
X61488576Y29221500D02*
X61998024Y29221500D01*
X61488576Y28176500D02*
X61998024Y28176500D01*
%TO.C,R9*%
X68493274Y35177500D02*
X67983826Y35177500D01*
X68493274Y36222500D02*
X67983826Y36222500D01*
%TO.C,C22*%
X91370000Y21396267D02*
X91370000Y21103733D01*
X90350000Y21396267D02*
X90350000Y21103733D01*
%TO.C,C37*%
X37150000Y12693733D02*
X37150000Y12986267D01*
X36130000Y12693733D02*
X36130000Y12986267D01*
%TO.C,Y1*%
X46165000Y34150000D02*
X58765000Y34150000D01*
X58765000Y39250000D02*
X46165000Y39250000D01*
X58765000Y34150000D02*
X58765000Y39250000D01*
%TO.C,C13*%
X75555000Y44632000D02*
X75555000Y47517000D01*
X73985000Y47517000D02*
X73985000Y44632000D01*
X73985000Y44632000D02*
X75555000Y44632000D01*
%TO.C,R1*%
X42060500Y17285376D02*
X42060500Y17794824D01*
X43105500Y17285376D02*
X43105500Y17794824D01*
%TO.C,U5*%
X24365300Y31318100D02*
X25914700Y31318100D01*
X25914700Y33781900D02*
X24365300Y33781900D01*
X26948226Y31799811D02*
G75*
G03*
X26948226Y31799811I-101600J0D01*
G01*
D13*
%TO.C,Z1*%
X82487800Y44892200D02*
X82487800Y44592200D01*
X82487800Y47042200D02*
X80537800Y47042200D01*
X82487800Y44592200D02*
X82262800Y44592200D01*
X80537800Y44592200D02*
X80537800Y44842200D01*
X82487800Y47142200D02*
X80537800Y47142200D01*
X80537800Y46892200D02*
X80537800Y47242200D01*
X80787800Y44592200D02*
X80537800Y44592200D01*
X82487800Y47242200D02*
X80537800Y47242200D01*
X82487800Y46892200D02*
X82487800Y47242200D01*
D15*
%TO.C,C2*%
X50958867Y20228600D02*
X50666333Y20228600D01*
X50958867Y21248600D02*
X50666333Y21248600D01*
%TO.C,U4*%
X23281000Y23706000D02*
X24839000Y23706000D01*
X24839000Y25714000D02*
X23281000Y25714000D01*
%TO.C,C16*%
X79050000Y46482133D02*
X79050000Y46774667D01*
X80070000Y46482133D02*
X80070000Y46774667D01*
%TO.C,R6*%
X68493274Y29177500D02*
X67983826Y29177500D01*
X68493274Y30222500D02*
X67983826Y30222500D01*
%TO.C,R3*%
X68494724Y27222500D02*
X67985276Y27222500D01*
X68494724Y26177500D02*
X67985276Y26177500D01*
%TO.C,R11*%
X64692500Y37904724D02*
X64692500Y37395276D01*
X65737500Y37904724D02*
X65737500Y37395276D01*
%TO.C,C21*%
X92010000Y31486233D02*
X92010000Y31778767D01*
X93030000Y31486233D02*
X93030000Y31778767D01*
%TO.C,R35*%
X19979500Y31998724D02*
X19979500Y31489276D01*
X21024500Y31998724D02*
X21024500Y31489276D01*
%TO.C,J10*%
X98286399Y35894400D02*
X98286399Y39145600D01*
X98286399Y39145600D02*
X98048241Y39145600D01*
X98048241Y35894400D02*
X98286399Y35894400D01*
X94933600Y39145600D02*
X94933600Y38348040D01*
X94933600Y36691960D02*
X94933600Y35894400D01*
X94933600Y35894400D02*
X95172961Y35894400D01*
X95172961Y39145600D02*
X94933600Y39145600D01*
X95466600Y34116400D02*
G75*
G03*
X95466600Y34116400I-381000J0D01*
G01*
%TO.C,C32*%
X14213733Y22960000D02*
X14506267Y22960000D01*
X14213733Y23980000D02*
X14506267Y23980000D01*
%TO.C,J6*%
X11904800Y2864600D02*
X11904800Y964600D01*
X11904800Y6764600D02*
X11904800Y4764600D01*
X21304800Y2864600D02*
X21304800Y964600D01*
X11904800Y964600D02*
X21304800Y964600D01*
X21304800Y6764600D02*
X21304800Y4764600D01*
%TO.C,C9*%
X42915200Y31920733D02*
X42915200Y32213267D01*
X41895200Y31920733D02*
X41895200Y32213267D01*
%TO.C,C10*%
X38394000Y16147333D02*
X38394000Y16439867D01*
X37374000Y16147333D02*
X37374000Y16439867D01*
%TO.C,R33*%
X6354724Y22977500D02*
X5845276Y22977500D01*
X6354724Y24022500D02*
X5845276Y24022500D01*
%TO.C,C31*%
X12908748Y22400000D02*
X14331252Y22400000D01*
X12908748Y20580000D02*
X14331252Y20580000D01*
%TO.C,D3*%
X40080000Y50890000D02*
X42940000Y50890000D01*
X42940000Y52810000D02*
X40080000Y52810000D01*
X40080000Y52810000D02*
X40080000Y50890000D01*
%TO.C,R17*%
X45108500Y31890376D02*
X45108500Y32399824D01*
X46153500Y31890376D02*
X46153500Y32399824D01*
%TO.C,C17*%
X84473733Y41750000D02*
X84766267Y41750000D01*
X84473733Y40730000D02*
X84766267Y40730000D01*
%TO.C,J5*%
X94953600Y29001960D02*
X94953600Y28204400D01*
X98306399Y31455600D02*
X98068241Y31455600D01*
X98068241Y28204400D02*
X98306399Y28204400D01*
X95192961Y31455600D02*
X94953600Y31455600D01*
X98306399Y28204400D02*
X98306399Y31455600D01*
X94953600Y31455600D02*
X94953600Y30658040D01*
X94953600Y28204400D02*
X95192961Y28204400D01*
X95486600Y26426400D02*
G75*
G03*
X95486600Y26426400I-381000J0D01*
G01*
%TO.C,J2*%
X36490000Y35420000D02*
X35350000Y35420000D01*
X34340000Y35420000D02*
X34220000Y35420000D01*
X34220000Y31020000D02*
X34340000Y31020000D01*
X35350000Y31020000D02*
X36490000Y31020000D01*
X37620000Y31020000D02*
X37620000Y35420000D01*
X37620000Y35420000D02*
X37500000Y35420000D01*
X34220000Y35420000D02*
X34220000Y31020000D01*
X37500000Y31020000D02*
X37620000Y31020000D01*
%TO.C,C26*%
X28193733Y35590000D02*
X28486267Y35590000D01*
X28193733Y36610000D02*
X28486267Y36610000D01*
%TO.C,C14*%
X75922800Y46482133D02*
X75922800Y46774667D01*
X76942800Y46482133D02*
X76942800Y46774667D01*
%TO.C,R14*%
X61486676Y27367300D02*
X61996124Y27367300D01*
X61486676Y26322300D02*
X61996124Y26322300D01*
%TO.C,C33*%
X18751000Y20558752D02*
X18751000Y20036248D01*
X20221000Y20558752D02*
X20221000Y20036248D01*
%TO.C,C15*%
X77446800Y46482133D02*
X77446800Y46774667D01*
X78466800Y46482133D02*
X78466800Y46774667D01*
%TO.C,R2*%
X40536500Y17332376D02*
X40536500Y17841824D01*
X41581500Y17332376D02*
X41581500Y17841824D01*
%TO.C,J1*%
X54841400Y8814800D02*
X54841400Y9954800D01*
X54841400Y11084800D02*
X50441400Y11084800D01*
X54841400Y7684800D02*
X54841400Y7804800D01*
X50441400Y7804800D02*
X50441400Y7684800D01*
X50441400Y11084800D02*
X50441400Y10964800D01*
X54841400Y10964800D02*
X54841400Y11084800D01*
X50441400Y7684800D02*
X54841400Y7684800D01*
X50441400Y9954800D02*
X50441400Y8814800D01*
%TO.C,R10*%
X68494724Y32177500D02*
X67985276Y32177500D01*
X68494724Y33222500D02*
X67985276Y33222500D01*
%TO.C,C44*%
X18468000Y31839467D02*
X18468000Y31546933D01*
X19488000Y31839467D02*
X19488000Y31546933D01*
%TO.C,D6*%
X28660000Y52820000D02*
X28660000Y50900000D01*
X31520000Y52820000D02*
X28660000Y52820000D01*
X28660000Y50900000D02*
X31520000Y50900000D01*
%TO.C,U1*%
X52616000Y18510600D02*
X49891000Y18510600D01*
X49891000Y18510600D02*
X49891000Y18250600D01*
X52616000Y13060600D02*
X55341000Y13060600D01*
X52616000Y18510600D02*
X55341000Y18510600D01*
X52616000Y13060600D02*
X49891000Y13060600D01*
X55341000Y13320600D02*
X57016000Y13320600D01*
X49891000Y13060600D02*
X49891000Y13320600D01*
X55341000Y18510600D02*
X55341000Y18250600D01*
X55341000Y13060600D02*
X55341000Y13320600D01*
%TD*%
M02*
