M48
; DRILL file {KiCad (6.0.2-0)} date 2022 March 08, Tuesday 16:33:00
; FORMAT={-:-/ absolute / metric / decimal}
; #@! TF.CreationDate,2022-03-08T16:33:00+01:00
; #@! TF.GenerationSoftware,Kicad,Pcbnew,(6.0.2-0)
; #@! TF.FileFunction,Plated,1,2,PTH
FMAT,2
METRIC
; #@! TA.AperFunction,Plated,PTH,ViaDrill
T1C0.200
; #@! TA.AperFunction,Plated,PTH,ViaDrill
T2C0.350
; #@! TA.AperFunction,Plated,PTH,ComponentDrill
T3C0.350
; #@! TA.AperFunction,Plated,PTH,ComponentDrill
T4C0.600
; #@! TA.AperFunction,Plated,PTH,ComponentDrill
T5C0.700
; #@! TA.AperFunction,Plated,PTH,ComponentDrill
T6C0.750
; #@! TA.AperFunction,Plated,PTH,ComponentDrill
T7C0.800
; #@! TA.AperFunction,Plated,PTH,ComponentDrill
T8C3.200
%
G90
G05
T1
X1.065Y29.7
X1.565Y30.375
X2.74Y32.925
X3.74Y29.25
X4.065Y26.55
X5.19Y28.925
X5.19Y26.175
X9.615Y29.425
X11.065Y25.425
X12.06Y26.4
X13.94Y28.45
X13.99Y29.325
X18.978Y24.962
X19.765Y28.899
X19.93Y28.07
X19.994Y24.886
X20.002Y26.672
X20.002Y25.656
X20.02Y27.4
X22.65Y25.58
X23.84Y28.62
X24.909Y35.668
X25.226Y31.414
X25.658Y25.826
X26.776Y28.213
X26.852Y33.395
X27.94Y37.3
X29.302Y50.462
X30.59Y46.86
X31.59Y22.2
X31.84Y24.65
X32.161Y39.212
X32.365Y25.45
X32.948Y39.212
X33.09Y50.425
X33.74Y39.2
X34.38Y46.86
X34.715Y39.225
X36.715Y50.425
X37.765Y12.225
X38.22Y46.88
X40.74Y50.45
X41.8Y46.89
T2
X4.04Y23.5
X5.38Y19.05
X11.29Y26.25
X12.275Y23.205
X20.34Y18.15
X22.94Y23.2
X24.51Y29.47
X25.11Y28.83
X25.68Y29.44
X29.23Y25.2
X29.79Y24.55
X30.39Y25.2
X33.84Y20.55
X33.96Y22.91
X34.94Y28.5
X35.95Y36.06
X37.884Y14.262
X39.408Y14.262
X40.96Y39.745
X42.126Y22.593
X42.405Y34.15
X42.799Y30.065
X42.999Y26.91
X43.955Y34.15
X44.107Y14.135
X44.734Y18.79
X45.343Y29.407
X45.631Y14.135
X45.631Y11.976
X49.314Y10.452
X52.775Y26.235
X52.87Y20.739
X54.521Y32.296
X54.724Y25.336
X54.775Y17.691
X59.661Y28.579
X59.665Y24.3
X59.69Y27.75
X59.735Y26.845
X60.84Y18.39
X62.35Y5.6
X63.76Y11.27
X65.14Y5.62
X66.65Y11.26
X67.1Y18.36
X68.26Y18.3
X68.86Y5.741
X69.0Y16.06
X71.988Y38.063
X72.12Y22.58
X72.46Y15.02
X72.64Y11.08
X73.7Y15.36
X73.94Y23.55
X75.19Y13.87
X75.463Y27.467
X75.483Y30.847
X75.493Y34.287
X75.78Y18.65
X76.115Y12.985
X77.413Y31.897
X77.413Y28.527
X77.413Y25.097
X78.115Y48.8
X78.363Y27.467
X78.403Y34.277
X78.403Y30.887
X79.46Y16.27
X79.836Y39.821
X80.293Y31.877
X80.313Y25.087
X80.333Y28.497
X81.243Y30.897
X81.253Y27.467
X81.313Y34.287
X83.163Y31.907
X83.233Y25.117
X83.243Y28.447
X83.273Y35.977
X84.71Y8.56
X84.713Y26.176
X84.713Y23.534
X85.23Y16.45
X85.374Y44.088
X85.932Y30.728
X86.06Y28.64
X86.06Y24.169
X86.63Y9.42
X86.822Y21.299
X88.68Y9.26
X88.834Y36.259
X89.436Y38.78
X89.46Y33.804
X90.88Y24.48
X90.89Y26.99
X93.61Y30.47
X96.67Y29.79
X97.09Y37.52
X97.15Y21.87
T3
X42.324Y26.078
X42.324Y24.803
X42.324Y23.528
X43.599Y26.078
X43.599Y24.803
X43.599Y23.528
X44.874Y26.078
X44.874Y24.803
X44.874Y23.528
T5
X39.645Y34.065
X39.645Y32.795
X39.645Y31.525
T6
X8.85Y40.422
X10.85Y40.422
T8
X3.605Y48.865
X3.605Y4.865
X95.605Y48.865
X95.605Y4.865
T4
G00X12.28Y8.545
M15
G01X12.28Y7.445
M16
G05
G00X12.28Y4.215
M15
G01X12.28Y3.415
M16
G05
G00X20.93Y8.545
M15
G01X20.93Y7.445
M16
G05
G00X20.93Y4.215
M15
G01X20.93Y3.415
M16
G05
G00X31.28Y8.545
M15
G01X31.28Y7.445
M16
G05
G00X31.28Y4.215
M15
G01X31.28Y3.415
M16
G05
G00X39.93Y8.545
M15
G01X39.93Y7.445
M16
G05
G00X39.93Y4.215
M15
G01X39.93Y3.415
M16
G05
T7
G00X71.865Y2.51
M15
G01X71.865Y3.809
M16
G05
G00X87.215Y2.51
M15
G01X87.215Y3.809
M16
G05
T0
M30
